<?xml version="1.0" standalone="no"?>
<!DOCTYPE svg PUBLIC "-//W3C//DTD SVG 20010904//EN"
 "http://www.w3.org/TR/2001/REC-SVG-20010904/DTD/svg10.dtd">
<svg version="1.0" xmlns="http://www.w3.org/2000/svg"
 width="512.000000pt" height="512.000000pt" viewBox="0 0 512.000000 512.000000"
 preserveAspectRatio="xMidYMid meet">
<metadata>
Created by potrace 1.11, written by Peter Selinger 2001-2013
</metadata>
<g transform="translate(0.000000,512.000000) scale(0.100000,-0.100000)"
fill="#000000" stroke="none">
<path d="M3089 4509 c-4 -9 -11 -29 -13 -45 -3 -16 -37 -184 -76 -374 -39
-190 -76 -372 -82 -405 -6 -33 -14 -64 -18 -68 -4 -5 -27 -3 -51 3 -23 7 -52
13 -63 15 -96 13 -108 18 -102 39 3 12 17 80 31 151 14 72 30 146 35 165 5 19
11 49 14 65 2 17 8 45 11 63 l8 32 -322 0 -321 0 -5 -22 c-3 -13 -7 -34 -9
-48 -3 -14 -30 -146 -60 -294 -31 -149 -56 -271 -56 -272 0 -1 -36 -28 -81
-59 -85 -60 -197 -164 -245 -230 -16 -22 -31 -42 -35 -45 -14 -13 -89 -153
-117 -221 -138 -333 -95 -749 108 -1044 35 -51 35 -40 -3 -215 -14 -63 -27
-128 -30 -145 -3 -16 -21 -107 -40 -200 -20 -94 -38 -181 -40 -195 -3 -14 -14
-68 -25 -120 -12 -52 -24 -111 -27 -130 -3 -19 -10 -53 -15 -76 -11 -50 -5
-105 16 -151 21 -42 83 -96 127 -110 18 -5 124 -9 237 -9 l205 1 17 80 c10 44
20 95 24 114 3 18 7 41 9 50 3 15 13 63 85 411 18 85 33 160 34 165 2 6 6 27
11 48 6 33 11 38 29 33 11 -3 59 -14 106 -23 47 -10 87 -18 88 -19 2 -1 -4
-38 -13 -81 -9 -43 -18 -87 -20 -98 -8 -45 -56 -281 -60 -295 -4 -13 34 -15
315 -15 276 0 321 2 325 15 5 15 33 144 41 190 3 14 14 70 25 125 11 55 23
111 25 125 3 14 7 33 10 43 3 10 7 30 10 45 10 67 21 96 39 106 93 52 265 211
324 301 14 22 31 45 37 52 7 7 32 54 57 105 80 164 114 311 115 495 1 222 -57
424 -174 604 l-43 66 60 294 c33 162 71 350 85 419 14 69 27 132 29 141 2 9
13 60 24 113 33 150 25 209 -35 276 -59 65 -96 73 -326 74 -174 1 -201 -1
-209 -15z m-396 -1579 c113 -35 213 -129 260 -247 26 -66 28 -209 3 -278 -62
-171 -216 -277 -399 -277 -226 1 -402 182 -401 412 1 143 63 262 179 338 110
73 233 91 358 52z"/>
</g>
</svg>
