<svg xmlns="http://www.w3.org/2000/svg" xmlns:xlink="http://www.w3.org/1999/xlink" width="256" height="256" viewBox="0 0 256 256"><defs><linearGradient id="a" y1="1" x2="1" gradientUnits="objectBoundingBox"><stop offset="0" stop-color="#50dfa1"/><stop offset="0.596" stop-color="#6cdae3"/><stop offset="1" stop-color="#77d8fd"/></linearGradient></defs><g transform="translate(-867 -412)"><rect width="256" height="256" transform="translate(867 412)" fill="url(#a)"/><g transform="translate(5 -43.416)"><path d="M82.256,17.917H70.428l-10.4,50.462c.067.034.138.061.2.1a13.468,13.468,0,0,1,4,3.247q.414.494.779,1.027a13.3,13.3,0,0,1,1.843,11.192c-.015.054-.025.11-.04.163a13.258,13.258,0,0,1-.835,2.121c-.038.078-.072.159-.112.237a13.367,13.367,0,0,1-1.16,1.845c-.062.084-.122.169-.186.252a13.467,13.467,0,0,1-1.44,1.567c-.083.077-.165.154-.249.229a13.537,13.537,0,0,1-1.688,1.274c-.1.061-.192.119-.289.178a13.464,13.464,0,0,1-1.909.959c-.1.039-.2.074-.3.111a13.408,13.408,0,0,1-2.113.612c-.086.017-.175.027-.262.043a14.346,14.346,0,0,1-1.462.138L47.17,130.777H67.423L88.984,26.15a6.861,6.861,0,0,0-6.728-8.233Z" transform="translate(936.311 503.5)" fill="#fff"/><path d="M60.217,85.833A13.453,13.453,0,0,1,58.21,84.2q-.46-.453-.874-.948a13.5,13.5,0,0,1-1.458-2.126q-.313-.566-.572-1.163a13.32,13.32,0,0,1-1.1-5.145,13.15,13.15,0,0,1,.505-3.786c.015-.053.025-.109.04-.163a13.254,13.254,0,0,1,.835-2.121c.038-.078.072-.159.112-.236a13.369,13.369,0,0,1,1.16-1.845c.062-.084.122-.17.186-.252a13.485,13.485,0,0,1,1.441-1.567c.083-.077.165-.154.249-.229a13.5,13.5,0,0,1,1.688-1.275c.095-.061.191-.119.288-.177a13.466,13.466,0,0,1,1.909-.959c.1-.04.2-.074.3-.112a13.369,13.369,0,0,1,2.111-.611c.086-.017.175-.027.262-.043a14.361,14.361,0,0,1,1.524-.144l7.7-37.351H54.259L32.7,128.577a6.862,6.862,0,0,0,6.728,8.233H51.254L61.6,86.609c-.084-.042-.179-.064-.262-.108Q60.759,86.193,60.217,85.833Z" transform="translate(922.554 509.179)" fill="#fff"/><path d="M94.748,44.58A35.009,35.009,0,0,0,70.869,32.106c-1.051-.094-2.116-.142-3.167-.142A35.136,35.136,0,0,0,64.566,102.1c1.05.094,2.116.142,3.166.142A35.122,35.122,0,0,0,94.748,44.58ZM80.7,68.268a13,13,0,0,1-.437,2.337c-.015.052-.024.106-.039.158a12.838,12.838,0,0,1-.809,2.055c-.037.076-.069.154-.108.229a12.949,12.949,0,0,1-1.123,1.788c-.061.081-.118.164-.18.244a13.042,13.042,0,0,1-1.4,1.518c-.08.075-.159.149-.241.221a13.084,13.084,0,0,1-1.635,1.235c-.093.059-.186.116-.28.172a13,13,0,0,1-1.85.929c-.095.038-.19.071-.286.108a12.957,12.957,0,0,1-2.047.593c-.084.017-.169.026-.254.041a12.957,12.957,0,0,1-2.233.211c-.017,0-.033,0-.051,0q-.586,0-1.182-.053a13.108,13.108,0,0,1-2.593-.5,12.943,12.943,0,0,1-2.369-.973q-.56-.3-1.086-.647a13.073,13.073,0,0,1-1.945-1.58q-.445-.439-.847-.919A13.1,13.1,0,0,1,56.3,73.382q-.3-.548-.554-1.127a12.905,12.905,0,0,1-1.063-4.985,12.74,12.74,0,0,1,.49-3.668c.014-.052.024-.106.039-.158a12.861,12.861,0,0,1,.809-2.055c.037-.076.07-.154.108-.229a12.949,12.949,0,0,1,1.123-1.788c.061-.081.118-.164.18-.244a13.054,13.054,0,0,1,1.4-1.518c.08-.075.159-.149.242-.222A13.089,13.089,0,0,1,60.7,56.155c.093-.059.185-.115.279-.172a13.009,13.009,0,0,1,1.849-.929c.1-.039.192-.072.289-.109a12.936,12.936,0,0,1,2.045-.592c.084-.017.169-.026.254-.041a12.975,12.975,0,0,1,2.233-.211c.017,0,.033,0,.05,0q.586,0,1.182.053a13.226,13.226,0,0,1,1.322.186,12.99,12.99,0,0,1,2.487.743q.593.244,1.154.543a13.051,13.051,0,0,1,3.877,3.146q.4.479.755,1A12.943,12.943,0,0,1,80.7,68.268Z" transform="translate(922.5 516.724)" fill="#fff"/></g></g></svg>