<svg width="24" height="24" viewBox="0 0 24 24" fill="none" xmlns="http://www.w3.org/2000/svg">
<g clip-path="url(#clip0)">
<path d="M12.1175 12.2895C12.5715 13.0888 11.5561 13.3365 11.0796 13.3821C10.3575 13.4523 10.208 13.0361 10.3491 12.5133C10.3953 12.3262 10.4981 12.1577 10.6433 12.031C10.7885 11.9042 10.9693 11.8251 11.161 11.8045C11.3499 11.7873 11.5398 11.8236 11.709 11.9093C11.8782 11.9951 12.0198 12.1269 12.1175 12.2895Z" fill="#FF0078"/>
<path d="M14.9518 10.8116C14.4241 14.8481 21.5385 14.0081 21.403 17.2207C22.1048 16.3084 22.4065 13.8298 20.3406 12.554C18.4999 11.4165 16.1013 12.039 14.9518 10.8116Z" fill="#FF0078"/>
<path d="M19.0507 9.2895C19.0044 9.24669 18.9567 9.20458 18.9104 9.16248C18.9574 9.20529 19.0044 9.2502 19.0507 9.2895Z" fill="#FF00F3"/>
<path d="M20.7027 12.2298L20.6985 12.2235C20.6342 12.1042 20.5611 11.99 20.4795 11.8817C20.2397 11.5568 19.8957 11.324 19.5048 11.2221C19.2446 11.1549 18.9786 11.1131 18.7104 11.0972C18.4388 11.0775 18.1616 11.0663 17.8816 11.0516C17.3202 11.0207 16.7455 10.9632 16.1841 10.8032C16.0437 10.7632 15.9034 10.7196 15.7679 10.667C15.6978 10.6417 15.6325 10.6144 15.563 10.5849C15.4935 10.5554 15.4227 10.5217 15.3525 10.486C15.0886 10.3414 14.844 10.1638 14.6248 9.95754C14.1925 9.55543 13.8528 9.09929 13.5125 8.65719C13.1917 8.2134 12.8473 7.78708 12.4809 7.38001C12.1194 6.98124 11.6922 6.64751 11.2178 6.39334C10.7265 6.14592 10.193 5.99354 9.64513 5.94422C10.2135 5.88251 10.7884 5.95263 11.3251 6.14913C11.8668 6.35942 12.362 6.67389 12.7827 7.07474C13.0573 7.33232 13.3152 7.60729 13.5546 7.89789C15.3371 7.54701 16.7827 7.85859 17.8935 8.4635L17.9188 8.47613C18.2724 8.66792 18.6038 8.8981 18.9069 9.16245C18.9553 9.20456 19.003 9.24666 19.0472 9.28947C19.2839 9.50687 19.5041 9.74147 19.7062 9.99122L19.7216 10.0116C20.3778 10.8424 20.702 11.7063 20.7027 12.2298Z" fill="#FF0078"/>
<path d="M20.7027 12.2298L20.6985 12.2214L20.7027 12.2298Z" fill="#FF0078"/>
<path d="M9.73557 6.46631C10.1903 6.53227 10.6542 6.71333 10.9531 7.05859C11.2521 7.40385 11.3622 7.85301 11.4486 8.28038C11.5187 8.61161 11.5742 8.94915 11.7047 9.26284C11.7679 9.41582 11.8605 9.54985 11.9377 9.69441C12.0015 9.81441 12.118 9.92241 12.1629 10.0508C12.171 10.0693 12.174 10.0896 12.1716 10.1095C12.1693 10.1295 12.1617 10.1484 12.1496 10.1646C11.991 10.34 11.5629 10.1449 11.4015 10.0663C11.1225 9.92803 10.8726 9.73743 10.6654 9.50494C10.0177 8.78564 9.68294 7.75055 9.70329 6.80806C9.70778 6.69364 9.71859 6.57955 9.73557 6.46631Z" fill="#FF0078"/>
<path d="M17.342 14.5765C16.3596 17.3182 20.8157 19.1575 19.1462 21.9449C20.8592 21.2375 21.6725 19.1007 20.9617 17.4052C20.3399 15.9168 18.5013 15.3744 17.342 14.5765Z" fill="#FF0078"/>
<path d="M11.4479 18.1625C11.7157 17.9607 12.0084 17.7944 12.3188 17.6677C12.6329 17.542 12.9587 17.448 13.2914 17.387C13.9518 17.2614 14.6051 17.2305 15.1539 17.0095C15.4251 16.9036 15.6745 16.749 15.89 16.5534C16.0986 16.3595 16.2583 16.119 16.356 15.8516C16.4561 15.5694 16.4967 15.2696 16.4753 14.9709C16.4505 14.6501 16.3779 14.3348 16.2599 14.0355C16.5045 14.2898 16.6826 14.6007 16.7784 14.9403C16.8742 15.28 16.8848 15.6381 16.8093 15.9828C16.7234 16.3477 16.5381 16.6818 16.2739 16.9477C16.0124 17.2054 15.6969 17.4019 15.3504 17.5232C15.0197 17.6392 14.6748 17.71 14.3251 17.7337C13.9883 17.7618 13.6627 17.7695 13.3427 17.7884C12.6957 17.8156 12.0567 17.9417 11.4479 18.1625Z" fill="#FF0078"/>
<path d="M17.7343 22.9814C17.6353 23.06 17.5364 23.1435 17.4276 23.2165C17.3181 23.2887 17.2034 23.3525 17.0844 23.4074C16.8367 23.5282 16.5643 23.59 16.2886 23.5878C15.542 23.5737 15.0143 23.0179 14.7055 22.3899C14.495 21.9618 14.3497 21.4993 14.0999 21.0916C13.7427 20.5084 13.1314 20.039 12.4157 20.126C12.1237 20.1625 11.85 20.2937 11.6879 20.547C11.2613 21.2088 11.8739 22.1358 12.655 22.0046C12.7214 21.9945 12.7864 21.9766 12.8486 21.9513C12.9107 21.9248 12.9686 21.8896 13.0206 21.8467C13.1297 21.7558 13.2119 21.6369 13.2585 21.5028C13.3098 21.363 13.3212 21.2116 13.2914 21.0656C13.2594 20.9131 13.1693 20.779 13.0402 20.6916C13.1903 20.7618 13.3073 20.8877 13.3665 21.0425C13.4279 21.2018 13.4438 21.375 13.4121 21.5428C13.3815 21.7176 13.3044 21.881 13.189 22.0158C13.1277 22.0852 13.0568 22.1454 12.9785 22.1948C12.9008 22.2435 12.8177 22.2828 12.7307 22.312C12.5545 22.3722 12.3668 22.3916 12.182 22.3688C11.9224 22.3318 11.6776 22.2256 11.4732 22.0614C11.2318 21.8706 11.0521 21.6207 10.8339 21.406C10.5837 21.1435 10.2885 20.9279 9.96232 20.7695C9.73734 20.6707 9.50197 20.5977 9.26057 20.552C9.13917 20.5267 9.01635 20.5084 8.89354 20.493C8.8374 20.4874 8.56232 20.4263 8.52372 20.4621C8.9033 20.1127 9.31706 19.8023 9.75881 19.5358C10.2124 19.2666 10.6994 19.0583 11.2072 18.9162C11.7338 18.7679 12.2846 18.7257 12.8276 18.7919C13.1071 18.8255 13.3809 18.8963 13.6416 19.0025C13.9148 19.1116 14.167 19.2674 14.3869 19.4628C14.6045 19.6678 14.7804 19.9131 14.9048 20.1849C15.0171 20.4395 15.1009 20.7056 15.1546 20.9786C15.3146 21.7948 15.2557 23.06 16.3244 23.2467C16.3801 23.2575 16.4364 23.2654 16.4928 23.2706L16.6676 23.2748C16.7877 23.2662 16.9071 23.2491 17.0248 23.2235C17.2686 23.1662 17.5063 23.0851 17.7343 22.9814Z" fill="#FF0078"/>
<path d="M11.5237 22.0923L11.4956 22.0706L11.5237 22.0923Z" fill="#FF00FF"/>
<path d="M10.5644 10.5737C10.5255 10.7232 10.4575 10.8637 10.3644 10.987C10.1911 11.212 9.96161 11.3875 9.69915 11.4958C9.46301 11.5976 9.21298 11.6633 8.95738 11.6909C8.90194 11.6979 8.8444 11.7021 8.78896 11.7063C8.62707 11.7125 8.4714 11.7703 8.34474 11.8713C8.21808 11.9724 8.1271 12.1112 8.0851 12.2677C8.06587 12.3456 8.05157 12.4246 8.0423 12.5042C8.01703 12.7105 8.01282 12.9253 7.99037 13.1849C7.93538 13.6268 7.80756 14.0564 7.61211 14.4565C7.35808 14.9912 7.07317 15.4221 7.13914 16.0383C7.18265 16.4383 7.38755 16.7063 7.65983 16.9828C8.15106 17.4853 9.25073 17.7098 9.00509 18.9477C8.85702 19.6867 7.63176 20.4621 5.90966 20.733C6.08089 20.707 5.69001 20.0481 5.66545 20.006C5.48089 19.7169 5.27879 19.4446 5.13212 19.1309C4.8444 18.5225 4.71106 17.8186 4.82896 17.152C4.95317 16.4502 5.47247 15.9127 5.90405 15.3765C6.41774 14.7386 6.95668 13.9028 7.07597 13.0748C7.10404 12.8741 7.12369 12.6228 7.16861 12.373C7.21143 12.0962 7.29813 11.8281 7.42545 11.5786C7.51235 11.415 7.62677 11.2676 7.76369 11.1428C7.83508 11.0766 7.88218 10.9883 7.89745 10.8921C7.91272 10.796 7.89527 10.6974 7.8479 10.6123L5.10264 5.67475L9.04582 10.5407C9.09073 10.5971 9.14743 10.6429 9.21206 10.6749C9.27662 10.7069 9.3475 10.7243 9.41957 10.7258C9.49164 10.7273 9.56315 10.713 9.62904 10.6838C9.69494 10.6546 9.75361 10.6112 9.8009 10.5569C9.85087 10.4986 9.87915 10.4249 9.88104 10.3482C9.88301 10.2715 9.85838 10.1965 9.81143 10.1358C9.55389 9.80669 9.28161 9.47125 9.01775 9.14142L8.02545 7.91335L6.03387 5.46142L2.03879 0.564575L6.28931 5.24177L8.40931 7.58563L9.46687 8.76037C9.81775 9.15546 10.1686 9.53792 10.5195 9.95335L10.577 10.0235L10.5897 10.1323C10.6067 10.2798 10.5982 10.4291 10.5644 10.5737Z" fill="#FF0078"/>
<path d="M11.4739 22.0586C11.2833 21.9114 11.1138 21.7388 10.97 21.5456C11.1242 21.7295 11.2927 21.9011 11.4739 22.0586Z" fill="#FF0078"/>
</g>
<defs>
<clipPath id="clip0">
<rect width="20" height="23.0877" fill="white" transform="translate(2 0.5)"/>
</clipPath>
</defs>
</svg>
