<svg width="107" height="26" viewBox="0 0 107 26" fill="none" xmlns="http://www.w3.org/2000/svg">
<path d="M38.9508 10.179C38.7888 11.1198 38.381 12.0013 37.7687 12.7347C37.1318 13.4816 36.2852 14.021 35.3381 14.2832L38.632 20.4267H33.8241L31.3272 14.686L30.0255 14.6915L28.9452 20.4267H24.7104L27.551 5.31958H34.5945C36.2057 5.31958 37.3965 5.80218 38.1671 6.76737C38.9375 7.73276 39.1987 8.86999 38.9508 10.179ZM30.5211 12.0592H32.0419C33.6357 12.0592 34.5566 11.3975 34.8045 10.074C35.0701 8.65023 34.4148 7.93827 32.8387 7.93816H31.2981L30.5211 12.0592Z" fill="#2A2A2A"/>
<path d="M42.3187 15.2657C42.3008 15.4167 42.2919 15.5174 42.292 15.5678C42.292 16.4074 42.5533 17.0662 43.0757 17.5444C43.5978 18.0228 44.3548 18.262 45.3468 18.262C46.6634 18.2869 47.9547 17.8994 49.0391 17.154L48.6141 19.546C47.3921 20.3352 45.8337 20.7296 43.9389 20.7294C42.1858 20.7294 40.8134 20.2007 39.8218 19.1432C38.8298 18.0857 38.387 16.7512 38.4935 15.1398C38.5348 14.3246 38.7449 13.5266 39.1107 12.7964C39.4764 12.0662 39.9899 11.4195 40.6186 10.8972C41.8442 9.8227 43.4232 9.23567 45.0547 9.24799C46.489 9.24799 47.6578 9.62566 48.5609 10.381C49.4641 11.1364 49.8626 12.1352 49.7563 13.3773C49.7205 14.0233 49.5862 14.6601 49.3579 15.2657L42.3187 15.2657ZM46.5422 12.8233C46.5646 12.6395 46.5464 12.453 46.4891 12.2769C46.4317 12.1008 46.3365 11.9393 46.2101 11.8037C45.9532 11.5267 45.5769 11.3882 45.0813 11.3882C43.9655 11.3882 43.1598 12.1183 42.664 13.5787H46.3297C46.4506 13.3437 46.5228 13.0868 46.5422 12.8233Z" fill="#2A2A2A"/>
<path d="M49.7668 20.4272L51.3606 11.8413H49.5278L49.9529 9.55007H51.7861L51.8185 9.37504C52.2609 6.40312 54.1813 4.91718 57.5797 4.91724C58.5034 4.95003 59.4207 5.08514 60.3145 5.32007L64.2703 4.96759L61.4082 20.4272H57.4436L59.8289 7.53504C59.2201 7.30228 58.5737 7.18305 57.9218 7.18326C57.2858 7.18326 56.8091 7.33448 56.4915 7.63692C56.1735 7.93904 55.9528 8.43446 55.8294 9.12319L55.7502 9.55007H58.0612L57.6096 11.8413H55.3252L53.7314 20.4272L49.7668 20.4272Z" fill="#2A2A2A"/>
<path d="M66.9373 15.2657C66.9195 15.4167 66.9106 15.5174 66.9107 15.5678C66.9107 16.4074 67.172 17.0662 67.6944 17.5444C68.2165 18.0228 68.9735 18.262 69.9655 18.262C71.2821 18.2869 72.5735 17.8994 73.6579 17.154L73.2328 19.546C72.0108 20.3352 70.4524 20.7296 68.5576 20.7294C66.8045 20.7294 65.4321 20.2007 64.4404 19.1432C63.4485 18.0857 63.0057 16.7512 63.1122 15.1398C63.1534 14.3246 63.3636 13.5266 63.7293 12.7964C64.0951 12.0662 64.6085 11.4195 65.2373 10.8972C66.4629 9.8227 68.0419 9.23567 69.6734 9.24799C71.1077 9.24799 72.2765 9.62566 73.1796 10.381C74.0829 11.1364 74.4814 12.1352 74.375 13.3773C74.3393 14.0233 74.2049 14.6601 73.9766 15.2657L66.9373 15.2657ZM71.1609 12.8233C71.1833 12.6395 71.1652 12.453 71.1078 12.2769C71.0504 12.1008 70.9553 11.9393 70.8289 11.8037C70.5719 11.5267 70.1956 11.3882 69.7 11.3882C68.5842 11.3882 67.7785 12.1183 67.2827 13.5787H70.9484C71.0693 13.3437 71.1416 13.0868 71.1609 12.8233Z" fill="#2A2A2A"/>
<path d="M87.2791 9.55005L82.3118 14.8879L85.526 20.4272H81.4353L79.4401 16.9246L76.2821 20.4272H72.271L77.5039 14.8124L74.5023 9.55005H78.5931L80.3711 12.7969L83.3213 9.55005H87.2791Z" fill="#2A2A2A"/>
<path d="M89.0403 15.2657C89.0224 15.4167 89.0136 15.5174 89.0137 15.5678C89.0137 16.4074 89.2749 17.0662 89.7974 17.5444C90.3194 18.0228 91.0764 18.262 92.0684 18.262C93.385 18.2869 94.6763 17.8994 95.7607 17.154L95.3357 19.546C94.1137 20.3352 92.5553 20.7296 90.6605 20.7294C88.9074 20.7294 87.5351 20.2007 86.5434 19.1432C85.5515 18.0857 85.1087 16.7512 85.2152 15.1398C85.2565 14.3246 85.4666 13.5266 85.8323 12.7964C86.1981 12.0662 86.7115 11.4195 87.3402 10.8972C88.5658 9.8227 90.1448 9.23567 91.7763 9.24799C93.2106 9.24799 94.3793 9.62566 95.2825 10.381C96.1857 11.1364 96.5841 12.1352 96.4778 13.3773C96.4421 14.0233 96.3077 14.6601 96.0794 15.2657L89.0403 15.2657ZM93.2638 12.8233C93.2862 12.6395 93.268 12.453 93.2107 12.2769C93.1533 12.1008 93.0581 11.9393 92.9317 11.8037C92.6748 11.5267 92.2985 11.3882 91.8029 11.3882C90.6871 11.3882 89.8814 12.1183 89.3856 13.5787H93.0513C93.1722 13.3437 93.2444 13.0868 93.2638 12.8233Z" fill="#2A2A2A"/>
<path d="M106.051 9.24799L105.281 13.3521C104.904 13.1871 104.497 13.1014 104.085 13.1003C102.31 13.1003 101.221 14.1643 100.818 16.2924L100.054 20.4273H96.1162L97.5104 12.8765C97.7673 11.3646 97.8958 10.2558 97.896 9.55011H101.641C101.675 10.2143 101.648 10.8801 101.559 11.5392C102.024 10.8323 102.654 10.249 103.395 9.83967C104.203 9.38818 105.127 9.18251 106.051 9.24799Z" fill="#2A2A2A"/>
<path d="M13.9144 0.000488281H11.4943L9.36668 10.3251C9.38032 10.3321 9.39484 10.3375 9.40834 10.3447C9.72159 10.5116 9.9996 10.7372 10.2271 11.0092C10.2835 11.0766 10.3367 11.1467 10.3866 11.2193C10.6144 11.5498 10.7663 11.9264 10.8315 12.3222C10.8967 12.718 10.8735 13.1233 10.7637 13.5091C10.7606 13.5201 10.7586 13.5316 10.7554 13.5426C10.7111 13.6918 10.6539 13.837 10.5847 13.9765C10.5768 13.9925 10.57 14.0091 10.5618 14.025C10.4931 14.157 10.4138 14.2833 10.3245 14.4025C10.3118 14.4196 10.2996 14.4371 10.2865 14.454C10.1969 14.5684 10.0983 14.6755 9.99178 14.7745C9.97489 14.7902 9.95807 14.806 9.9408 14.8213C9.8327 14.917 9.71724 15.0042 9.59549 15.082C9.57599 15.0944 9.55618 15.1064 9.53633 15.1184C9.41156 15.194 9.28095 15.2597 9.14574 15.3146C9.12584 15.3227 9.10546 15.3297 9.0853 15.3373C8.9449 15.3909 8.80032 15.4327 8.65302 15.4625C8.63535 15.4661 8.61723 15.4681 8.59944 15.4713C8.5003 15.4858 8.40048 15.4952 8.30036 15.4996L6.73584 23.0918H10.8795L15.2908 1.68499C15.3328 1.48117 15.3288 1.27057 15.2791 1.06848C15.2294 0.866394 15.1353 0.677874 15.0035 0.516599C14.8717 0.355324 14.7056 0.225338 14.5172 0.136069C14.3288 0.0467995 14.1229 0.000486291 13.9144 0.000488281Z" fill="#2A2A2A"/>
<path d="M6.59065 15.0582C6.44335 14.9603 6.30584 14.8486 6.18001 14.7244C6.11731 14.6626 6.05771 14.5979 6.00121 14.5304C5.88809 14.3952 5.78818 14.2496 5.70284 14.0955C5.66013 14.0183 5.62112 13.939 5.58582 13.8576C5.44172 13.525 5.36539 13.1671 5.36128 12.8048C5.35787 12.543 5.3927 12.2821 5.46466 12.0303C5.46772 12.0194 5.46969 12.0079 5.47287 11.997C5.51723 11.8478 5.57437 11.7025 5.64366 11.563C5.6515 11.547 5.65836 11.5304 5.66651 11.5146C5.73518 11.3826 5.81453 11.2563 5.90377 11.1371C5.91652 11.12 5.9287 11.1024 5.94183 11.0856C6.03146 10.9712 6.13001 10.864 6.23656 10.7651C6.25343 10.7494 6.2703 10.7336 6.28757 10.7183C6.39566 10.6225 6.51112 10.5353 6.63288 10.4576C6.65232 10.4451 6.67207 10.4332 6.69183 10.4213C6.81658 10.3456 6.94716 10.28 7.08234 10.225C7.10241 10.2169 7.12302 10.2098 7.14332 10.2022C7.28361 10.1487 7.42809 10.1068 7.57529 10.0771C7.59295 10.0735 7.61108 10.0715 7.62886 10.0683C7.73218 10.053 7.83626 10.0431 7.94064 10.0388L9.51549 2.39673H5.3718L0.96043 23.8035C0.918433 24.0074 0.922428 24.218 0.972127 24.42C1.02182 24.6221 1.11598 24.8106 1.24776 24.9719C1.37954 25.1332 1.54565 25.2632 1.73403 25.3525C1.92241 25.4417 2.12835 25.488 2.33689 25.488H4.75692L6.87357 15.2169C6.85645 15.2082 6.83686 15.2038 6.81997 15.1949C6.74109 15.1529 6.66465 15.1073 6.59065 15.0582Z" fill="#2A2A2A"/>
<path d="M5.66492 13.8237C5.56071 13.584 5.49279 13.3301 5.46338 13.0706C5.49279 13.3301 5.56071 13.584 5.66492 13.8237Z" fill="#2A2A2A"/>
<path d="M5.46339 13.0704C5.45335 12.9819 5.44781 12.893 5.44678 12.804C5.44779 12.893 5.45333 12.9819 5.46339 13.0704Z" fill="#2A2A2A"/>
<path d="M5.54688 12.052C5.54985 12.0418 5.55176 12.0313 5.55485 12.0212C5.55174 12.0313 5.54985 12.0418 5.54688 12.052Z" fill="#2A2A2A"/>
<path d="M5.7207 11.6005C5.72845 11.5851 5.73524 11.5691 5.74331 11.554C5.73521 11.5692 5.72848 11.585 5.7207 11.6005Z" fill="#2A2A2A"/>
<path d="M5.97266 11.1877C5.98527 11.1712 5.99732 11.1543 6.01031 11.1382C5.9973 11.1544 5.9853 11.1712 5.97266 11.1877Z" fill="#2A2A2A"/>
<path d="M10.2564 14.3516C10.2438 14.3681 10.2317 14.3849 10.2188 14.4011C10.2318 14.3848 10.2438 14.3681 10.2564 14.3516Z" fill="#2A2A2A"/>
<path d="M8.63749 15.3787C8.62001 15.3817 8.60207 15.3835 8.58447 15.3863C8.60213 15.3835 8.61995 15.3818 8.63749 15.3787Z" fill="#2A2A2A"/>
<path d="M9.93423 14.7119C9.91751 14.7271 9.90088 14.7422 9.88379 14.7569C9.90093 14.7421 9.91746 14.7271 9.93423 14.7119Z" fill="#2A2A2A"/>
<path d="M6.29492 10.8272C6.31161 10.8121 6.32831 10.797 6.34539 10.7822C6.32822 10.797 6.31169 10.812 6.29492 10.8272Z" fill="#2A2A2A"/>
<path d="M9.1139 15.2354C9.09457 15.2428 9.07476 15.2493 9.05518 15.2563C9.07482 15.2492 9.09445 15.2428 9.1139 15.2354Z" fill="#2A2A2A"/>
<path d="M6.06771 14.4752C5.95781 14.3444 5.86074 14.2035 5.77783 14.0544C5.86074 14.2035 5.95781 14.3444 6.06771 14.4752Z" fill="#2A2A2A"/>
<path d="M6.63808 14.9867C6.49538 14.892 6.36215 14.7839 6.24023 14.6638C6.36215 14.7839 6.49538 14.892 6.63808 14.9867Z" fill="#2A2A2A"/>
<path d="M8.11793 15.4302C8.12146 15.4302 8.12476 15.4294 8.12829 15.4294C8.04465 15.4297 7.96046 15.4273 7.87549 15.4204C7.95685 15.427 8.03766 15.4303 8.11793 15.4302Z" fill="#2A2A2A"/>
<path d="M7.3451 15.3176C7.1773 15.2677 7.01493 15.2014 6.86035 15.1196C7.01493 15.2014 7.1773 15.2677 7.3451 15.3176Z" fill="#2A2A2A"/>
<path d="M8.62305 10.1572C8.79734 10.1904 8.96783 10.2408 9.13194 10.3077C8.96783 10.2408 8.79734 10.1904 8.62305 10.1572Z" fill="#2A2A2A"/>
<path d="M9.54966 15.0098C9.53071 15.0216 9.51146 15.033 9.49219 15.0444C9.51152 15.033 9.53063 15.0217 9.54966 15.0098Z" fill="#2A2A2A"/>
<path d="M10.6813 13.4861C10.6784 13.4962 10.6765 13.5069 10.6733 13.517C10.6765 13.5068 10.6783 13.4963 10.6813 13.4861Z" fill="#2A2A2A"/>
<path d="M10.3159 11.2676C10.413 11.4085 10.4963 11.5584 10.5646 11.7152C10.4963 11.5584 10.4131 11.4085 10.3159 11.2676Z" fill="#2A2A2A"/>
<path d="M8.11095 10.1084C8.10741 10.1084 8.10411 10.1093 8.10059 10.1093C8.18422 10.109 8.26841 10.1113 8.35339 10.1182C8.27203 10.1116 8.19121 10.1084 8.11095 10.1084Z" fill="#2A2A2A"/>
<path d="M10.1614 11.0629C9.94101 10.7998 9.67166 10.5815 9.36816 10.4202C9.67166 10.5815 9.94101 10.7998 10.1614 11.0629Z" fill="#2A2A2A"/>
<path d="M7.11426 10.3033C7.13376 10.2958 7.15379 10.2893 7.17351 10.2822C7.1537 10.2893 7.13387 10.2958 7.11426 10.3033Z" fill="#2A2A2A"/>
<path d="M7.5918 10.1602C7.60928 10.1571 7.62722 10.1553 7.64481 10.1526C7.62716 10.1554 7.60937 10.1571 7.5918 10.1602Z" fill="#2A2A2A"/>
<path d="M10.5085 13.9387C10.5007 13.9541 10.4939 13.9701 10.4858 13.9853C10.494 13.97 10.5007 13.9542 10.5085 13.9387Z" fill="#2A2A2A"/>
<path d="M6.67871 10.5289C6.6976 10.5171 6.71679 10.5058 6.73598 10.4944C6.71671 10.5058 6.69768 10.517 6.67871 10.5289Z" fill="#2A2A2A"/>
<path d="M13.6447 8.16155C13.0399 7.43494 12.2967 6.83524 11.4581 6.39716C10.6194 5.95907 9.70205 5.6913 8.759 5.60934C8.54405 5.59008 8.32617 5.58032 8.11111 5.58032C6.25623 5.58112 4.47311 6.29561 3.13287 7.57507C1.79264 8.85453 0.998541 10.6004 0.91586 12.4493C0.833179 14.2982 1.46828 16.1077 2.68899 17.5012C3.90969 18.8946 5.62195 19.7648 7.46938 19.9304C7.68431 19.9496 7.90222 19.9594 8.11726 19.9594C9.48716 19.9588 10.8285 19.5686 11.9841 18.8344C13.1396 18.1003 14.0615 17.0528 14.6416 15.8145C15.2217 14.5763 15.4361 13.1987 15.2595 11.8433C15.0829 10.4878 14.5228 9.21068 13.6447 8.16155ZM10.7708 13.008C10.7556 13.1698 10.7256 13.3298 10.6813 13.4861C10.6783 13.4968 10.6765 13.5078 10.6733 13.5185C10.6303 13.6631 10.575 13.8038 10.5079 13.9389C10.5002 13.9545 10.4936 13.9705 10.4857 13.9859C10.4192 14.1138 10.3423 14.2361 10.2559 14.3516C10.2435 14.3683 10.2318 14.3851 10.219 14.4015C10.1322 14.5124 10.0367 14.6162 9.93345 14.712C9.91703 14.7273 9.90085 14.7425 9.88407 14.7574C9.77934 14.8502 9.66748 14.9346 9.54951 15.01C9.53053 15.0221 9.51148 15.0336 9.4922 15.0452C9.37132 15.1186 9.24477 15.1821 9.11376 15.2354C9.09437 15.2432 9.07479 15.25 9.0552 15.2574C8.91918 15.3092 8.7791 15.3498 8.63638 15.3787C8.61921 15.3821 8.60176 15.384 8.58447 15.3871C8.43372 15.4147 8.28085 15.4292 8.12759 15.4304C8.12407 15.4304 8.12078 15.4314 8.11726 15.4314C8.03735 15.4314 7.95676 15.4277 7.8755 15.4205C7.69565 15.4045 7.5179 15.3704 7.34493 15.3187C7.17714 15.2685 7.01476 15.2017 6.86019 15.1195C6.78376 15.0789 6.7097 15.0347 6.63801 14.9871C6.4953 14.8923 6.36207 14.784 6.24015 14.6637C6.17941 14.6038 6.12166 14.5411 6.06692 14.4757C5.95732 14.3448 5.86052 14.2037 5.77784 14.0544C5.73646 13.9796 5.69867 13.9028 5.66447 13.8239C5.52485 13.5017 5.4509 13.1549 5.44691 12.8039C5.44361 12.5503 5.47735 12.2975 5.54708 12.0535C5.55004 12.0428 5.55192 12.0318 5.55503 12.0213C5.59801 11.8766 5.65337 11.7359 5.7205 11.6007C5.72812 11.5852 5.73471 11.5692 5.74264 11.5539C5.80915 11.4259 5.88603 11.3036 5.97252 11.1881C5.9849 11.1714 5.99664 11.1546 6.00939 11.1382C6.09621 11.0273 6.19169 10.9235 6.29494 10.8277C6.31136 10.8124 6.32754 10.7972 6.34436 10.7823C6.44908 10.6895 6.56095 10.605 6.67891 10.5297C6.69783 10.5176 6.71681 10.5062 6.73603 10.4946C6.85689 10.4213 6.9834 10.3577 7.11438 10.3044C7.13393 10.2965 7.15372 10.2897 7.17347 10.2822C7.30938 10.2304 7.44937 10.1899 7.59198 10.1611C7.60918 10.1576 7.62661 10.1557 7.64389 10.1526C7.79464 10.125 7.94751 10.1106 8.10077 10.1093C8.1043 10.1093 8.10759 10.1084 8.1111 10.1084C8.19102 10.1084 8.27161 10.112 8.35287 10.1192C8.44358 10.1273 8.53382 10.14 8.62325 10.1572C8.79754 10.1908 8.96802 10.2417 9.13212 10.3092C9.21298 10.3424 9.29166 10.3795 9.36818 10.4202C9.67167 10.5818 9.94103 10.8004 10.1614 11.064C10.2161 11.1293 10.2676 11.1972 10.316 11.2676C10.6661 11.7772 10.8269 12.3927 10.7708 13.008L10.7708 13.008Z" fill="#2A2A2A"/>
<path d="M10.4864 13.9858C10.4196 14.1136 10.3426 14.2358 10.2559 14.3511C10.3426 14.2358 10.4197 14.1136 10.4864 13.9858Z" fill="#2A2A2A"/>
<path d="M9.88481 14.7573C9.77978 14.85 9.6676 14.9343 9.54932 15.0095C9.66761 14.9343 9.77979 14.85 9.88481 14.7573Z" fill="#2A2A2A"/>
<path d="M10.2199 14.4014C10.1328 14.5121 10.0371 14.6158 9.93359 14.7115C10.0371 14.6158 10.1328 14.5121 10.2199 14.4014Z" fill="#2A2A2A"/>
<path d="M10.7708 13.0081C10.7556 13.1696 10.7256 13.3293 10.6812 13.4854C10.7256 13.3293 10.7556 13.1696 10.7708 13.0081Z" fill="#2A2A2A"/>
<path d="M10.6737 13.5186C10.6306 13.6629 10.5751 13.8034 10.5078 13.9383C10.5751 13.8034 10.6306 13.6629 10.6737 13.5186Z" fill="#2A2A2A"/>
<path d="M7.17334 10.2809C7.30926 10.2297 7.44924 10.1896 7.59185 10.1611C7.44924 10.1896 7.30926 10.2296 7.17334 10.2809Z" fill="#2A2A2A"/>
<path d="M6.73584 10.4935C6.85671 10.4206 6.98322 10.3574 7.1142 10.3044C6.98322 10.3574 6.8567 10.4206 6.73584 10.4935Z" fill="#2A2A2A"/>
<path d="M6.00928 11.1377C6.09636 11.027 6.19211 10.9233 6.29563 10.8276C6.19209 10.9233 6.09634 11.027 6.00928 11.1377Z" fill="#2A2A2A"/>
<path d="M6.34424 10.7818C6.44926 10.6891 6.56144 10.6048 6.67973 10.5295C6.56143 10.6048 6.44926 10.6891 6.34424 10.7818Z" fill="#2A2A2A"/>
<path d="M7.64404 10.1518C7.7948 10.1248 7.94766 10.1106 8.10091 10.1094C7.94766 10.1106 7.79479 10.1248 7.64404 10.1518Z" fill="#2A2A2A"/>
<path d="M5.54744 12.0535C5.47752 12.2974 5.44368 12.5502 5.447 12.8039C5.44369 12.5502 5.47752 12.2974 5.54744 12.0535Z" fill="#2A2A2A"/>
<path d="M9.49221 15.0452C9.37132 15.118 9.24477 15.1813 9.11377 15.2342C9.24478 15.1813 9.37133 15.1181 9.49221 15.0452Z" fill="#2A2A2A"/>
<path d="M8.58434 15.3872C8.43357 15.4142 8.2807 15.4284 8.12744 15.4296C8.28071 15.4284 8.43358 15.4142 8.58434 15.3872Z" fill="#2A2A2A"/>
<path d="M9.05505 15.2573C8.91903 15.3086 8.77894 15.3486 8.63623 15.3771C8.77895 15.3486 8.91903 15.3086 9.05505 15.2573Z" fill="#2A2A2A"/>
<path d="M5.55518 12.0205C5.59828 11.876 5.65379 11.7356 5.72112 11.6006C5.65379 11.7356 5.59828 11.876 5.55518 12.0205Z" fill="#2A2A2A"/>
<path d="M5.74268 11.5535C5.80939 11.4257 5.88649 11.3036 5.97319 11.1882C5.88647 11.3035 5.80937 11.4257 5.74268 11.5535Z" fill="#2A2A2A"/>
</svg>
