<svg xmlns="http://www.w3.org/2000/svg" width="256" height="256" viewBox="0 0 256 256"><g transform="translate(-832 -383)"><rect width="256" height="256" transform="translate(832 383)" fill="#fff"/><g transform="translate(-248.56 131.37)"><path d="M1257.535,261.173c7.3,11.991,14.648,23.958,21.908,35.975q25.252,41.8,50.431,83.648a16.224,16.224,0,0,1,.754,1.62c-1.282.92-2.333-.033-3.376-.5-12.954-5.8-25.827-11.78-38.785-17.571-9.9-4.426-19.7-9.1-29.639-13.439a9.182,9.182,0,0,1-2.5-1.215,1.6,1.6,0,0,1-.379-.9,2.5,2.5,0,0,1,.227-1,4.036,4.036,0,0,0,.387-1.012c.227-11.268.063-22.529.087-33.789.033-15.828,0-31.655.027-47.483C1256.683,264.033,1256.307,262.431,1257.535,261.173Z" transform="translate(-47.452 -1.15)" fill="#343434"/><path d="M1208.72,349.356q.048.277.071.556c-.082.119-.163.237-.244.358a8.265,8.265,0,0,1-1.947.978c-12.382,5.553-24.713,11.214-37.069,16.819-10.606,4.811-21.166,9.719-31.827,14.407-.984.433-1.964,1.19-3.128.424,5.226-8.79,10.413-17.6,15.686-26.365q27.355-45.454,54.764-90.875c.678-1.126,1.422-2.214,2.135-3.32,1.762.574,1.283,2.115,1.3,3.313.087,5.264.033,10.53.037,15.795.02,22.073-.04,44.145.033,66.216A6.382,6.382,0,0,0,1208.72,349.356Z" transform="translate(-0.006 -1.605)" fill="#8b8b8b"/><path d="M1259.174,407.241c5.174,2.279,10.37,4.509,15.517,6.847q27.753,12.607,55.483,25.263a3.68,3.68,0,0,0,.891.163c.269,1.121-.767,1.189-1.332,1.523q-34.992,20.713-70.016,41.373a8.86,8.86,0,0,1-1.1.468c-1.991-1.039-1.489-2.952-1.493-4.59q-.062-30.409-.024-60.819c0-2.432-.031-4.865.032-7.3C1257.168,408.737,1257.544,407.557,1259.174,407.241Z" transform="translate(-47.888 -58.247)" fill="#141414"/><path d="M1134.574,439.4c9.143-4.08,18.3-8.119,27.426-12.248q21.572-9.763,43.107-19.611a12.956,12.956,0,0,1,1.73-.518.764.764,0,0,1,1.061.19,5.442,5.442,0,0,1,.588,3.233q.025,34.786,0,69.571a8.414,8.414,0,0,1-.193,2.113,2.257,2.257,0,0,1-.655,1.006q-19.59-11.508-39.179-23.019-16.065-9.455-32.095-18.969C1135.669,440.737,1134.5,440.665,1134.574,439.4Z" transform="translate(-0.004 -58.111)" fill="#393939"/><path d="M1257.905,528.4q18.516-11.026,37.035-22.045c11.738-6.952,23.509-13.848,35.306-20.792.522,1.06-.364,1.551-.776,2.133q-28.542,40.266-57.132,80.5c-4.509,6.341-9.11,12.617-13.67,18.923a.808.808,0,0,1-1.043-.31,6.893,6.893,0,0,1-.5-3.565q-.023-25.371,0-50.743C1257.118,531.083,1257.01,529.642,1257.905,528.4Z" transform="translate(-47.905 -88.861)" fill="#3c3c3b"/><path d="M1207.56,587.76c-7.6-10.6-15.239-21.182-22.8-31.81q-24.48-34.393-48.9-68.828c-.35-.493-.682-1-1.292-1.9,2.868.931,4.876,2.581,7.048,3.859q32.87,19.335,65.678,38.775a2.5,2.5,0,0,1,.43.418,6.174,6.174,0,0,1,.777,3.8q.01,26-.013,51.991C1208.478,585.351,1208.717,586.742,1207.56,587.76Z" transform="translate(0 -88.729)" fill="#8b8b8b"/><path d="M1255.778,347.754l-.47-.586a4.8,4.8,0,0,1-.287-2.68c-.041-27.912.048-55.825-.062-83.737a4.2,4.2,0,0,1,.257-1.485c.084-.445.041-.976.7-1.027a10.877,10.877,0,0,1,.606,4.471q0,40.45-.01,80.9c0,1.2.218,2.447-.488,3.558Z" transform="translate(-47.064 -0.003)" fill="#868686"/><path d="M1256.637,347.166c-.037-11.431-.094-22.863-.105-34.294q-.025-27.318,0-54.637c.719-.062.615.492.685.915a7.371,7.371,0,0,1,.213,2.707q.009,41.313-.005,82.626a4.857,4.857,0,0,1-.282,2.675Q1256.888,347.162,1256.637,347.166Z" transform="translate(-47.675)" fill="#373737"/><path d="M1254.741,259.925q.045,33.306.088,66.61.013,10.646,0,21.292c-1.053-1-.588-2.3-.59-3.462q-.041-39.724-.041-79.449c0-1.174.412-2.445-.46-3.522Z" transform="translate(-46.588 -0.662)" fill="#929292"/><path d="M1257.534,347.75q.037-44,.075-88.008l.544.872q-.006,41.838-.034,83.675C1258.117,345.449,1258.582,346.745,1257.534,347.75Z" transform="translate(-48.07 -0.591)" fill="#2e2e2e"/><path d="M1258.753,406.8a3.619,3.619,0,0,0-1.24,3.2q.049,34.607.013,69.214a6.228,6.228,0,0,0,.668,3.218l-1.185.755c-1.377-1.313-.918-3.031-.921-4.593q-.049-33.086-.022-66.172c0-1.72.025-3.44-.071-5.159a2.238,2.238,0,0,1,.249-1.157l.008,0Z" transform="translate(-47.467 -57.804)" fill="#111"/><path d="M1255.16,406.1l.093.691a4.342,4.342,0,0,1,.27,2.383q.014,35.933,0,71.866a4.334,4.334,0,0,1-.268,2.383c-.578.143-.881-.281-1.235-.6,0-.169,0-.337,0-.506a3.861,3.861,0,0,0,.3-2.365q.016-35.4,0-70.794a3.846,3.846,0,0,0-.3-2.364l-.8-.085C1253.713,406.029,1254.444,406.091,1255.16,406.1Z" transform="translate(-46.383 -57.8)" fill="#383838"/><path d="M1256.559,483.875q0-38.317,0-76.633c1.026,1.013.569,2.3.571,3.465q.082,36.463.1,72.926A.426.426,0,0,1,1256.559,483.875Z" transform="translate(-47.688 -58.248)" fill="#161616"/><path d="M1257.359,615.013l.691.032c-.45.97-.782,2.034-1.941,2.441a5.954,5.954,0,0,1-.577-2.949q0-27.528.007-55.056a4.7,4.7,0,0,1,.3-2.088.682.682,0,0,1,1-.264,9.4,9.4,0,0,1,.2,3.31q.021,25.82.03,51.64C1257.065,613.051,1256.686,614.1,1257.359,615.013Z" transform="translate(-47.287 -116.792)" fill="#40403f"/><path d="M1256.233,556.564a2.581,2.581,0,0,0-.492.158c-.677,1.024-.336,2.172-.337,3.254q-.037,26.6-.033,53.194c0,1.09.3,2.23-.3,3.275l-.666-1.057q.037-27.467.077-54.936c0-1.517.052-3.034.079-4.551l1.74.2c.193.136.247.25.161.343A.321.321,0,0,1,1256.233,556.564Z" transform="translate(-46.848 -116.358)" fill="#939393"/><path d="M1255.458,616.971q.008-28.145.04-56.291c0-1.151-.5-2.46.627-3.432q-.035,30.164-.07,60.329C1255.645,617.582,1255.522,617.306,1255.458,616.971Z" transform="translate(-47.231 -116.884)" fill="#858585"/><path d="M1257.356,556.559a1.477,1.477,0,0,0,.071-.466.925.925,0,0,1,.544-.2q.037,29.343.073,58.685c-1.266-.682-.573-1.852-.576-2.754Q1257.359,584.19,1257.356,556.559Z" transform="translate(-47.971 -116.353)" fill="#363635"/><path d="M1254.536,407.252c1,.9.586,2.087.587,3.148q.035,34.61,0,69.221c0,1.064.4,2.252-.587,3.153Q1254.536,445.013,1254.536,407.252Z" transform="translate(-46.898 -58.252)" fill="#3c3c3c"/></g></g></svg>