<svg xmlns="http://www.w3.org/2000/svg" width="349.976" height="350.019" viewBox="0 0 349.976 350.019"><g transform="translate(-125.123 -232.305)"><path d="M385.126,560.064A159.13,159.13,0,0,1,323.16,580.84c-40.731,5.03-79.075-2.653-114.248-24.2-23.765-14.558-43.184-33.608-57.56-57.62a23.307,23.307,0,0,1,6.785.779c7.236,1.926,14.205,5.022,21.856,5.2a12.517,12.517,0,0,1,1.517,1.27c13.89,15.823,29.215,29.645,48.518,38.943,27.649,13.318,56.4,19.273,86.978,15.719,10.608-1.074,21.065-2.834,31.039-6.8l10.944-3.244c1.986,3.433,5.835,2.892,8.854,4.039C373.465,557.062,379.756,557.014,385.126,560.064Z" fill="#1ec178"/><path d="M257.958,237.885c15.761-4.817,31.98-6.041,48.3-5.438,33.363,1.233,64.105,11.011,91.78,29.781,24.565,16.66,44.01,37.986,57.36,64.655-2.716.475-5.215-.4-7.783-1.1-6.188-1.68-12.42-3.2-18.634-4.781-1.549-.615-1.986-2.185-2.839-3.378a155.058,155.058,0,0,0-53.885-47.13c-19.53-10.441-40.366-15.67-62.251-17.422-9.68-.054-19.375-.611-29.012.835a3.335,3.335,0,0,0-2.2-3.008c-5.86-2.876-10.468-7.934-17.05-9.622C260.137,240.866,258.105,240.243,257.958,237.885Z" fill="#37b8f0"/><path d="M257.958,237.885c.147,2.358,2.179,2.981,3.782,3.393,6.582,1.688,11.19,6.746,17.05,9.622a3.335,3.335,0,0,1,2.2,3.009,160.907,160.907,0,0,0-24.988,5.173c-6.975,2.71-14.417,4.18-21.007,7.911-8.155,3.5-15.462,8.484-22.991,13.082-7.793,6.5-16.492,11.97-22.98,19.977l-10.033,10.941c-4.35-2.871-9.434-3.987-14.185-5.9-1.69-.678-3.648-.909-3.864-3.272,13.246-18.347,29.947-32.929,49.25-44.519C225.075,248.373,240.776,241.255,257.958,237.885Z" fill="#33b9dd"/><path d="M385.126,560.064c-5.37-3.05-11.661-3-17.283-5.138-3.019-1.147-6.868-.606-8.854-4.039,1.048-1.175,2.573-1.417,3.907-2.054,5.955-2.846,12.185-5.229,17.156-9.8,8.885-4.753,17.228-10.24,24.071-17.759,8.177-6.038,14.515-13.749,20.134-22.115.253-.01.505-.025.758-.046,6.413,2.917,13.461,3.689,20.072,5.938a151.483,151.483,0,0,1-35.657,38.845C401.753,549.826,394.085,555.97,385.126,560.064Z" fill="#23bf8f"/><path d="M160.945,301.826c.216,2.363,2.174,2.594,3.864,3.272,4.751,1.908,9.835,3.024,14.185,5.9-3.6,5.721-8.38,10.666-11.077,16.973a97.039,97.039,0,0,0-15.04,33.964c-3.33,7.338-4.1,15.331-5.894,23.061-6.662-1.067-12.217-5.639-19.093-6.028,2.259-19.013,8.842-36.623,17.651-53.45C149.918,317.155,154.674,308.982,160.945,301.826Z" fill="#2cbbbe"/><path d="M179.993,505c-7.651-.178-14.62-3.274-21.856-5.2a23.307,23.307,0,0,0-6.785-.779,161.99,161.99,0,0,1-23.937-64.985c1.882-.3,3.534.568,5.282.995,5.4,1.319,10.55,3.688,16.2,3.991,1.125,4.493,2.141,9.017,3.4,13.474C157.775,471.969,168.038,488.934,179.993,505Z" fill="#23bf8f"/><path d="M428.98,321c6.214,1.582,12.446,3.1,18.634,4.78,2.568.7,5.067,1.574,7.783,1.1a164.684,164.684,0,0,1,19.2,67.149c-7.035-.329-13.361-4.281-20.514-4.007a200.689,200.689,0,0,0-6.725-30.494C443.024,345.81,436.247,333.3,428.98,321Z" fill="#33b9dd"/><path d="M454.085,390.026c7.153-.275,13.479,3.677,20.514,4.006,1.492,21.93-.193,43.5-7.3,64.454-.642-.717-1.225-1.985-1.935-2.061-5.845-.623-11.26-3.387-17.211-3.392q-.078-.518-.154-1.035c5.93-17.2,6.625-35.068,6.832-53A31.789,31.789,0,0,1,454.085,390.026Z" fill="#2cbbbe"/><path d="M148.9,439.021c-5.654-.3-10.8-2.672-16.2-3.991-1.748-.427-3.4-1.3-5.282-.995-3.006-18.384-3.263-36.745.475-55.071,6.876.389,12.431,4.961,19.093,6.028q-.459,1.5-.921,3C146.117,405.054,144.746,422.191,148.9,439.021Z" fill="#29bea7"/><path d="M448.156,453.033c5.95.005,11.365,2.769,17.21,3.392.71.076,1.293,1.344,1.935,2.061a148.642,148.642,0,0,1-22.214,46.563c-6.611-2.249-13.659-3.021-20.072-5.939-.054-1.263.682-2.112,1.4-3.066a88.747,88.747,0,0,0,11.676-20C443.167,469.128,445.158,460.86,448.156,453.033Z" fill="#29bea7"/><path d="M148.9,439.021c-4.155-16.83-2.784-33.967-2.839-51.026,2.791-.38,4.157,1.738,5.77,3.353,30.951,30.979,61.965,61.894,92.441,93.346,23.169,23.911,46.709,47.462,70.1,71.161,1.416,1.436,2.959,2.758,2.638,5.076-30.583,3.554-59.329-2.4-86.978-15.719-19.3-9.3-34.628-23.12-48.518-38.943a12.517,12.517,0,0,0-1.517-1.27c-11.955-16.065-22.218-33.03-27.7-52.5C151.042,448.038,150.026,443.514,148.9,439.021Z" fill="#5ddcbe"/><path d="M317.006,560.931c.321-2.318-1.222-3.64-2.638-5.076-23.386-23.7-46.926-47.25-70.1-71.161-30.476-31.452-61.49-62.367-92.441-93.346-1.613-1.615-2.979-3.733-5.77-3.353q.461-1.5.921-3c1.8-7.73,2.564-15.723,5.9-23.06,1.378,1.193,2.858,2.285,4.115,3.592,11.421,11.875,23.225,23.365,34.606,35.293,20.587,21.578,42.042,42.328,63.144,63.415,1.278,1.277,2.394,2.856,4.5,2.822-2.5,10.582.784,14.67,11.773,14.7,2.993.007,5.986.072,8.979.11-.066,2.136,1.593,3.2,2.849,4.473q31.145,31.674,62.306,63.331c1.261,1.282,2.886,2.358,2.891,4.466C338.071,558.1,327.614,559.857,317.006,560.931Z" fill="#60dbc7"/><path d="M348.045,554.131c-.005-2.108-1.63-3.184-2.891-4.466q-31.147-31.671-62.306-63.331c-1.256-1.278-2.915-2.337-2.849-4.472,1.531-1.52,1.6-3.573,1.992-5.5,1.724-8.466,3.471-16.927,5.133-25.4.66-3.364,2.638-2.923,5.212-2.417,2.645.519,3.627,1.247,2.81,4.141-1.08,3.824-1.393,7.866-2.477,11.688-.85,3,.32,3.441,2.847,3.413,5.162-.059,10.326.051,15.489.092a4.2,4.2,0,0,0,1.42,3.059c4.759,5.064,9.375,10.268,14.259,15.208q18.38,18.588,36.957,36.979c5.4,5.372,10.937,10.613,16.412,15.914-4.972,4.573-11.2,6.956-17.157,9.8-1.334.637-2.859.879-3.907,2.054Z" fill="#64dbce"/><path d="M454.833,399c-.207,17.934-.9,35.8-6.832,53-2.559.38-4.412-.721-6.116-2.569-5.4-5.859-10.782-11.751-16.4-17.4Q393.776,400.15,361.936,368.4c-1.515-1.518-2.7-3.37-4.223-4.874-5.393-5.321-9.84-11.661-16.594-15.527.145-.809.27-1.622.437-2.426,1.675-8.052-1.83-12.385-10.086-12.48-1.824-.021-3.647-.095-5.47-.144.006-1.919-1.473-2.9-2.618-4.061q-32.01-32.532-64.022-65.063c-1.358-1.383-3.266-2.441-3.355-4.747a160.907,160.907,0,0,1,24.988-5.173c9.637-1.447,19.332-.89,29.012-.837a4.2,4.2,0,0,0,1.563,3c7.013,7.068,13.813,14.341,20.7,21.53,23.1,24.125,47.5,46.963,70.366,71.338,15.239,16.242,31.416,31.6,47.169,47.364C451.21,397.715,452.5,399.326,454.833,399Z" fill="#6fd9eb"/><path d="M454.833,399c-2.336.33-3.623-1.281-5.034-2.693-15.753-15.76-31.93-31.122-47.169-47.364-22.869-24.375-47.268-47.213-70.366-71.338-6.883-7.189-13.683-14.462-20.7-21.53a4.2,4.2,0,0,1-1.563-3c21.885,1.753,42.721,6.982,62.251,17.423a155.058,155.058,0,0,1,53.885,47.13c.853,1.193,1.29,2.763,2.839,3.378,7.267,12.3,14.044,24.807,18.38,38.528a200.689,200.689,0,0,1,6.725,30.494A31.793,31.793,0,0,0,454.833,399Z" fill="#71d8ef"/><path d="M167.917,327.967c2.7-6.307,7.482-11.252,11.077-16.973l10.033-10.943c.97,1.129,1.879,2.321,2.922,3.38q36.118,36.654,72.259,73.285c1.268,1.287,2.855,2.392,2.864,4.49-7.922,11.541-10.85,24.045-7.291,37.8-2.337.313-3.643-1.291-5-2.738-4.762-5.068-9.369-10.288-14.271-15.215q-31.8-31.964-63.794-63.744C173.667,334.286,171.908,330.073,167.917,327.967Z" fill="#67dad4"/><path d="M267.073,381.207c-.01-2.1-1.6-3.2-2.865-4.491q-36.128-36.644-72.259-73.285c-1.043-1.059-1.952-2.251-2.922-3.38,6.488-8.006,15.187-13.471,22.98-19.977.833,3.178,3.007,5.441,5.235,7.669q29.968,29.967,59.98,59.891c1.832,1.82,3.007,4.377,5.635,5.369-.968,5.007-1.987,10.005-2.878,15.025a5.457,5.457,0,0,1-2.5,4.068C273.439,374.492,270.567,378.2,267.073,381.207Z" fill="#69dada"/><path d="M282.857,353c-2.628-.992-3.8-3.549-5.635-5.369q-30.073-29.862-59.98-59.891c-2.228-2.228-4.4-4.491-5.235-7.669,7.529-4.6,14.836-9.583,22.991-13.08-.035,1.7,1.179,2.659,2.218,3.722q21.031,21.531,42.076,43.048c9.2,9.349,18.524,18.575,27.817,27.832,2.878,2.866,5.219,6.3,8.823,8.4-.9,4.7-1.958,9.383-2.651,14.116-.476,3.246-2.134,2.957-4.563,2.388-2.522-.591-4.377-.993-3.344-4.391,1.1-3.632,1.693-7.421,2.492-11.145.569-2.648-.143-4.038-3.229-3.92a93.89,93.89,0,0,1-14.429-.068C285.216,346.4,283.253,348.487,282.857,353Z" fill="#6bd9df"/><path d="M315.932,350c-3.6-2.105-5.945-5.539-8.823-8.4-9.293-9.257-18.617-18.483-27.817-27.832q-21.111-21.451-42.076-43.048c-1.039-1.063-2.253-2.02-2.218-3.722,6.59-3.732,14.032-5.2,21.007-7.912.089,2.306,2,3.364,3.355,4.747q31.989,32.553,64.022,65.063c1.145,1.164,2.624,2.142,2.618,4.061-5.576-.967-7.369,2.107-7.931,7.015A100.658,100.658,0,0,1,315.932,350Z" fill="#6dd9e4"/><path d="M438.087,476.043a88.747,88.747,0,0,1-11.676,20c-.714.954-1.45,1.8-1.4,3.066-.253.022-.505.037-.76.046-8.147-7.112-15.275-15.215-22.774-22.972-18.169-18.793-36.873-37.07-55.351-55.565-1.426-1.428-2.759-2.957-5.077-2.617,2.063-10.539,1.293-20.843-4.085-30.218-2.526-4.4-3.82-8.271-1.223-12.853,2.1-.016,3.257,1.523,4.5,2.835,5.144,5.428,10.118,11.022,15.389,16.322q30.141,30.311,60.415,60.492c1.516,1.519,2.706,3.364,4.227,4.877C426.03,465.18,430.891,471.869,438.087,476.043Z" fill="#6bd9df"/><path d="M341.053,418c2.318-.34,3.651,1.189,5.077,2.617,18.478,18.5,37.182,36.772,55.351,55.565,7.5,7.757,14.627,15.86,22.774,22.972-5.617,8.367-11.955,16.078-20.133,22.114a22.145,22.145,0,0,0-1.761-2.383c-11.5-11.956-23.516-23.39-34.791-35.591-12.167-13.166-25.249-25.488-37.952-38.159-1.383-1.379-2.537-3.167-4.821-3.226A47.769,47.769,0,0,0,341.053,418Z" fill="#69dada"/><path d="M324.8,441.911c2.285.059,3.439,1.847,4.822,3.226,12.7,12.671,25.785,24.993,37.952,38.159,11.275,12.2,23.292,23.635,34.791,35.591a22.145,22.145,0,0,1,1.761,2.383c-6.842,7.521-15.185,13.008-24.07,17.761-5.474-5.3-11.007-10.542-16.411-15.914q-18.54-18.428-36.957-36.979c-4.884-4.94-9.5-10.144-14.259-15.208a4.2,4.2,0,0,1-1.42-3.058c3.81.347,5.941-.739,6.415-5.177.57-5.346,2.327-10.556,3.277-15.877C321.16,444.221,322.32,442.623,324.8,441.911Z" fill="#67dad4"/><path d="M167.917,327.967c3.991,2.106,5.75,6.319,8.8,9.342q32.019,31.749,63.794,63.744c4.9,4.927,9.509,10.147,14.271,15.215,1.359,1.447,2.665,3.051,5,2.738a42.277,42.277,0,0,0,5.247,11.26,6.747,6.747,0,0,1,.909,5.706c-2.186,10.37-4.451,20.723-6.689,31.082-2.112.034-3.228-1.545-4.506-2.822-21.1-21.087-42.557-41.837-63.144-63.415-11.381-11.928-23.185-23.418-34.606-35.293-1.257-1.307-2.737-2.4-4.115-3.592A97.016,97.016,0,0,1,167.917,327.967Z" fill="#64dbce"/><path d="M438.087,476.043c-7.2-4.174-12.057-10.863-17.811-16.586-1.521-1.513-2.711-3.358-4.227-4.877q-30.192-30.262-60.415-60.492c-5.271-5.3-10.245-10.894-15.389-16.322-1.243-1.312-2.4-2.851-4.5-2.835,1.235-9.087,3.384-17.992,5.372-26.928,6.754,3.866,11.2,10.206,16.594,15.527,1.526,1.5,2.708,3.356,4.223,4.874q31.758,31.827,63.547,63.624c5.62,5.65,11,11.542,16.4,17.4,1.7,1.848,3.557,2.949,6.116,2.569q.076.518.154,1.035C445.158,460.86,443.167,469.128,438.087,476.043Z" fill="#6dd9e4"/><path d="M341.119,348c-1.988,8.936-4.137,17.841-5.372,26.928-2.6,4.582-1.305,8.45,1.221,12.853,5.378,9.375,6.148,19.679,4.085,30.218A47.769,47.769,0,0,1,324.8,441.911c-2.477.712-3.637,2.31-4.1,4.907-.95,5.321-2.707,10.531-3.277,15.877-.474,4.438-2.605,5.524-6.415,5.177-5.163-.042-10.327-.152-15.489-.093-2.527.028-3.7-.417-2.847-3.413,1.084-3.822,1.4-7.864,2.477-11.688.817-2.894-.165-3.622-2.81-4.141-2.574-.506-4.552-.947-5.212,2.417-1.662,8.478-3.409,16.939-5.133,25.4-.392,1.93-.461,3.983-1.992,5.5-2.993-.039-5.986-.1-8.979-.111-10.989-.027-14.271-4.115-11.773-14.7,2.24-10.359,4.505-20.712,6.691-31.082a6.747,6.747,0,0,0-.909-5.706,42.277,42.277,0,0,1-5.247-11.26c-3.56-13.755-.632-26.259,7.29-37.8,3.495-3.005,6.367-6.714,10.4-9.11a5.457,5.457,0,0,0,2.5-4.068c.891-5.02,1.91-10.018,2.878-15.025.4-4.516,2.359-6.607,7.351-6.022a93.89,93.89,0,0,0,14.429.068c3.086-.118,3.8,1.272,3.229,3.92-.8,3.724-1.388,7.513-2.492,11.145-1.033,3.4.822,3.8,3.344,4.391,2.429.569,4.087.858,4.563-2.388.693-4.733,1.75-9.413,2.651-14.116a100.658,100.658,0,0,0,2.137-10.033c.562-4.908,2.355-7.982,7.931-7.015,1.823.049,3.646.123,5.47.144,8.256.1,11.761,4.428,10.086,12.48C341.389,346.381,341.264,347.194,341.119,348ZM285,407.49c-.084,7.644,6.893,15.122,14.288,15.312,8.371.214,16.5-7.521,16.374-15.585-.118-7.61-7.71-15.091-15.226-15A15.75,15.75,0,0,0,285,407.49Z" fill="#fefefe"/><path d="M285,407.49a15.75,15.75,0,0,1,15.436-15.275c7.516-.089,15.108,7.392,15.226,15,.124,8.064-8,15.8-16.374,15.585C291.892,422.612,284.915,415.134,285,407.49Z" fill="#69dada"/></g></svg>