<svg xmlns="http://www.w3.org/2000/svg" xmlns:xlink="http://www.w3.org/1999/xlink" width="88.426" height="99.05" viewBox="0 0 88.426 99.05">
  <defs>
    <linearGradient id="linear-gradient" x1="0.603" y1="-0.118" x2="0.422" y2="1.122" gradientUnits="objectBoundingBox">
      <stop offset="0" stop-color="#00affa"/>
      <stop offset="0.271" stop-color="#4cc0e8"/>
      <stop offset="0.596" stop-color="#41cda5"/>
      <stop offset="1" stop-color="#1cc273"/>
    </linearGradient>
    <linearGradient id="linear-gradient-2" x1="1" x2="0" y2="1" gradientUnits="objectBoundingBox">
      <stop offset="0" stop-color="#78d8ff"/>
      <stop offset="0" stop-color="#77d8fd"/>
      <stop offset="0.552" stop-color="#6adbdd"/>
      <stop offset="1" stop-color="#4ee09a"/>
    </linearGradient>
  </defs>
  <g id="Group_153" data-name="Group 153" transform="translate(-6008 -1029.463)">
    <g id="Group_8" data-name="Group 8" transform="translate(4501 353.723)">
      <g id="Group_5" data-name="Group 5" transform="translate(1507 689.652)">
        <rect id="Rectangle_2" data-name="Rectangle 2" width="80" height="80" rx="40" transform="translate(0 -0.375)" fill="url(#linear-gradient)"/>
        <rect id="Rectangle_1" data-name="Rectangle 1" width="70" height="70" rx="35" transform="translate(5 4.625)" fill="url(#linear-gradient-2)"/>
        <path id="Path_27" data-name="Path 27" d="M278.225,336.432c-.479,2.151-1,4.294-1.293,6.482a2.842,2.842,0,0,0,.294,3.094,10.247,10.247,0,0,1,.983,7.273,11.5,11.5,0,0,1-3.912,5.756,1.315,1.315,0,0,0-.987,1.181c-.229,1.281-.652,2.535-.789,3.822-.114,1.068-.627,1.33-1.544,1.246-1.243-.01-2.486-.037-3.728-.022-.608.007-.891-.1-.685-.822.261-.92.337-1.893.6-2.813.2-.7-.04-.872-.676-1-.62-.122-1.1-.228-1.255.582-.4,2.041-.821,4.077-1.236,6.114a2.321,2.321,0,0,1-.479,1.324c-.72-.009-1.441-.024-2.161-.027-2.645-.006-3.435-.99-2.834-3.538.539-2.493,1.084-4.985,1.611-7.482a1.624,1.624,0,0,0-.219-1.373,10.177,10.177,0,0,1-1.263-2.71,10.7,10.7,0,0,1,1.755-9.1,18.917,18.917,0,0,1,2.5-2.193,1.314,1.314,0,0,0,.6-.979c.214-1.208.46-2.411.693-3.617.1-1.087.568-1.59,1.769-1.449a22.6,22.6,0,0,0,3.473.016c.743-.028.915.306.777.944-.193.9-.334,1.808-.6,2.683-.249.818.2.915.8,1.057s.984.207,1.1-.575c.167-1.139.421-2.266.638-3.4a24.218,24.218,0,0,0,.514-2.415c.135-1.181.567-1.921,1.909-1.688.439.012.878.03,1.317.035,1.987.024,2.831,1.066,2.428,3C278.29,336.042,278.26,336.238,278.225,336.432Zm-13.508,14.319a3.81,3.81,0,0,0,3.439,3.686,3.993,3.993,0,0,0,3.941-3.751,3.914,3.914,0,0,0-3.665-3.61A3.791,3.791,0,0,0,264.717,350.751Z" transform="translate(-228.899 -310.721)" fill="#fefefe"/>
      </g>
    </g>
    <g id="Group_152" data-name="Group 152" transform="translate(6051.658 1029.463)">
      <path id="Path_725" data-name="Path 725" d="M349.789,226.941c.671-.025.877-.613,1.094-1.049a22.075,22.075,0,0,1,10.262-10.117,11.741,11.741,0,0,1,3.639-1.275,18.587,18.587,0,0,1-2.189,2.2c-.126.11.34.169.4.389a8.316,8.316,0,0,1-2.588,1.582,19.791,19.791,0,0,0-9.612,14.842,2.045,2.045,0,0,1-.322.972c-.693.307-1.226.975-2.066.957a.788.788,0,0,1-.08-.334,9.48,9.48,0,0,0,.04-1.588,9.81,9.81,0,0,1,.307-2.554C349,229.609,349.566,228.321,349.789,226.941Z" transform="translate(-348.33 -213.58)" fill="#f8f0f5"/>
      <path id="Path_726" data-name="Path 726" d="M450.355,328.01a4.888,4.888,0,0,1-1.873,1.349c-.717-.5.291-.641.205-1.058-.791.239-.674,1.1-1.113,1.548-.613.705-1.665.671-2.309,1.337a.586.586,0,0,1-.613.187,1.128,1.128,0,0,1-.573-.337,4.982,4.982,0,0,0-.239-1.514c1.935-1.03,3.8-2.183,5.736-3.21.389.524.9-.159,1.3.233.08-.46-.307-.583-.383-.865.613-1.41,1.882-2.235,2.888-3.3.307.034.374-.169.389-.423a.726.726,0,0,1,.282-.144.717.717,0,0,1,.9.613,1.358,1.358,0,0,1-.086.825,3.747,3.747,0,0,0-.38.846,11.806,11.806,0,0,1-3.452,3.443C450.683,327.528,450.248,327.393,450.355,328.01Z" transform="translate(-414.558 -287.978)" fill="#fbc5de"/>
      <path id="Path_727" data-name="Path 727" d="M423.544,212.194a17.742,17.742,0,0,1,8.738,2.759,7.8,7.8,0,0,1-.99,1.689c-1.193-.307-2.146-1.2-3.372-1.377a61.688,61.688,0,0,0-6.052-1.275c-.408-.208-.417-.592-.4-.972a.8.8,0,0,1,.506-.8c.448-.175.589.147.77.438a.672.672,0,0,0,.307.273C422.391,212.166,423.36,212.423,423.544,212.194Z" transform="translate(-399.041 -211.963)" fill="#f9e6ef"/>
      <path id="Path_728" data-name="Path 728" d="M403.911,211.729c-.414.307-.4.291-.113.613.092.1.2.282.166.38-.089.254-.307.123-.457.052-.067-.028-.12-.123-.184-.126-.469-.025-.408-.944-.972-.653s-.193.892-.279,1.349c-.454.46-1.1.224-1.616.451a19.171,19.171,0,0,0-5.212,1.009,1.683,1.683,0,0,1-1.208.15c-.828.067-.7-.549-.886-1.018.613-.092.579.389.886.763a3.1,3.1,0,0,1,1.84-2.275C398.506,211.739,401.161,211.162,403.911,211.729Z" transform="translate(-379.409 -211.499)" fill="#f9ebf2"/>
      <path id="Path_729" data-name="Path 729" d="M483.261,251.38a14.909,14.909,0,0,1,1.84,6.678c-.533.245-.941.92-1.677.5a1.429,1.429,0,0,1-.346-.552,24.742,24.742,0,0,0-1.585-5.607,2.619,2.619,0,0,1-.1-.484,1.815,1.815,0,0,1,1.183-2.131h0a3.121,3.121,0,0,0,.46.92h0a.257.257,0,0,1,0,.307C482.54,251.494,483.1,251.295,483.261,251.38Z" transform="translate(-440.583 -238.044)" fill="#fad3e5"/>
      <path id="Path_730" data-name="Path 730" d="M475.695,239.876c-.5.613-1.094,1.165-.92,2.069-.727-.028-.644-.739-.938-1.128s-.546-.822-.812-1.226c-.212-.307-.307-.656-.54-.941a3.29,3.29,0,0,1-1.015-1.738,8.124,8.124,0,0,1,1.009-1.4A14.914,14.914,0,0,1,475.695,239.876Z" transform="translate(-433.716 -228.148)" fill="#fad9e8"/>
      <path id="Path_731" data-name="Path 731" d="M464.817,229.634c.058.705-.414,1.061-.92,1.389-.227.132-.4,0-.573-.12a15.554,15.554,0,0,0-1.717-1.551,2.248,2.248,0,0,1-.76-.889c-.092-.4-.72-.76-.258-1.193.389-.362.92-.205,1.4,0a5.354,5.354,0,0,1,.99.546A5.189,5.189,0,0,1,464.817,229.634Z" transform="translate(-426.055 -222.285)" fill="#f9deeb"/>
      <path id="Path_732" data-name="Path 732" d="M481.953,308.162a12.628,12.628,0,0,1-2.091,4.133,2.146,2.146,0,0,1-.613-.892c-.135-.349-.414-.635-.438-1.03a7.858,7.858,0,0,1,1.714-3.253c.595.291.595.291.307,1.082C481.183,307.653,481.566,307.819,481.953,308.162Z" transform="translate(-438.807 -277.804)" fill="#fbc5de"/>
      <path id="Path_733" data-name="Path 733" d="M458.351,223.776c-.776-.107-1.475-.662-2.333-.392-.037.451.57.613.491,1.085-1.147.1-1.7-.941-2.578-1.349a.814.814,0,0,1-.181-.261,1.8,1.8,0,0,1,.92-1.61A10.339,10.339,0,0,1,458.351,223.776Z" transform="translate(-421.429 -218.261)" fill="#f9e1ed"/>
      <path id="Path_734" data-name="Path 734" d="M487.463,276.641c.162-.307,1.2.579.828-.629-.08-.258.491.169.779.169.107,1.38.533,2.759,0,4.142a.647.647,0,0,1-.4.2c-.4.021-.825-.061-.957-.451-.15-.448.408-.432.6-.662-.561.251-.92.034-1.107-.521C487.153,278.122,486.929,277.34,487.463,276.641Z" transform="translate(-444.564 -256.176)" fill="#facfe3"/>
      <path id="Path_735" data-name="Path 735" d="M487.081,286.136a2.761,2.761,0,0,1,.307.141c.441.267.963-.751,1.208-.052.129.362-.828.245-1.095.717.307.411.77.328,1.2.346,0,.38,0,.763-.021,1.144-.668.12-1.254,1.027-2.023.215A3.2,3.2,0,0,1,487.081,286.136Z" transform="translate(-444.18 -263.141)" fill="#facbe1"/>
      <path id="Path_736" data-name="Path 736" d="M486.691,294.223c.647,0,1.079-.852,1.839-.463V294c-.73.475-.1,1.272-.438,1.84h0c-.782.739-.868.724-1.723-.307a.884.884,0,0,1-.034-.307c.074-.307.187-.582.279-.874Z" transform="translate(-444.023 -268.469)" fill="#fac8e0"/>
      <path id="Path_737" data-name="Path 737" d="M485.523,304.952c-.7.037-1.242-.159-1.4-.92a.518.518,0,0,1-.1-.613c.745.261.794-.5,1.162-.791a.7.7,0,0,1,.273-.138c.9.018.307.751.524,1.095A2.508,2.508,0,0,1,485.523,304.952Z" transform="translate(-442.377 -274.593)" fill="#fac5de"/>
      <path id="Path_738" data-name="Path 738" d="M455.916,343.487c-.208-.837.518-1.328.714-2.027l.9.481c.049.546-.938.38-.705,1.055C456.529,343.159,456.305,343.465,455.916,343.487Z" transform="translate(-422.905 -301.615)" fill="#fabcd9"/>
      <path id="Path_739" data-name="Path 739" d="M487.115,301.294c-.38-.2-.061-.754-.472-.935-.307-.153-.684-.208-.9-.524a.7.7,0,0,1-.141-.273c.018-.218.037-.429.349-.356.429.54.877,1.006,1.619.466A2.551,2.551,0,0,1,487.115,301.294Z" transform="translate(-443.515 -272.306)" fill="#fbcee3"/>
      <path id="Path_740" data-name="Path 740" d="M479.717,321a1.242,1.242,0,0,1,.457.9c-.307.261-.227.788-.678.941a.144.144,0,0,1-.236,0v-.92C479.717,321.766,478.969,321,479.717,321Z" transform="translate(-439.118 -287.428)" fill="#fbbdd9"/>
      <path id="Path_741" data-name="Path 741" d="M464.091,340.043c-.307-.181-.662-.4-.267-.748s.665,0,.92.27a.776.776,0,0,1-.653.478Z" transform="translate(-428.293 -300.011)" fill="#fbbdda"/>
      <path id="Path_742" data-name="Path 742" d="M490.544,296.6c0-.494.15-1.061-.644-1.19l1.082-.65C490.74,295.349,490.93,296.06,490.544,296.6Z" transform="translate(-446.496 -269.233)" fill="#facbe1"/>
      <path id="Path_743" data-name="Path 743" d="M485.907,253.461c-.233.08-.426.307-.717.193a1.38,1.38,0,0,1,.478-.874C485.932,252.933,485.889,253.2,485.907,253.461Z" transform="translate(-443.23 -240.124)" fill="#fad9e8"/>
      <path id="Path_744" data-name="Path 744" d="M478.376,327h.236a.77.77,0,0,1-.463.693C478.024,327.4,477.763,327.061,478.376,327Z" transform="translate(-438.235 -291.589)" fill="#fbcae1"/>
      <path id="Path_745" data-name="Path 745" d="M485.7,250.67a.81.81,0,0,1-.46-.92A1.284,1.284,0,0,1,485.7,250.67Z" transform="translate(-443.264 -238.023)" fill="#fad9e8"/>
      <path id="Path_746" data-name="Path 746" d="M366.63,219.4a15.091,15.091,0,0,1,6.438-1.38c.129-.11.307-.153.4-.025a.334.334,0,0,1-.187.543c-1.012.166-1.027.7-.883,1.591a2.827,2.827,0,0,1-.975,2.125.491.491,0,0,1-.708.129.417.417,0,0,1-.138-.613c.417-.641.159-1.328.138-2.039a1.969,1.969,0,0,1-1.5,1.689c-.42.12-.307.724-.334,1.134s-.285.852-.708.586c-.779-.484-.579.307-.549.438.258,1.187-.7,1.377-1.4,1.76-.242.132-.527.144-.644-.221,0-.031-.031-.19-.052-.1-.328,1.266-.92.506-1.61.04.359.307.484.491.46.745a.521.521,0,0,1-.42.2.88.88,0,0,1-.524-.193c-.064-.123.123-.064-.028-.049-.064,0-.052.077.034.107.555.583,1.285,1,1.533,1.84a4.052,4.052,0,0,1-.2,1.1c-.343,1.042-.371,2.235-1.769,2.658a1.5,1.5,0,0,0-1.226,1.72,2.575,2.575,0,0,1-.193,1c-.1.307-.307.638-.638.521-.843-.307-1.358.613-2.125.5-.156,1.055-1.1,1.84-1.067,2.949a1.484,1.484,0,0,1,.1.307c.021.193-.1.408-.067.552.156.576-.978-.025-.628.745.205.448-.025.978.037,1.472a1.349,1.349,0,0,1-.169.883c-.411.662-.748.212-1.211,0s-.23,1.021-.963.705c-.451-.193-.285-.883-.8-1.049-.374-.423-.147-.816.061-1.211.242-.116.279-.193.141-.282a1.171,1.171,0,0,1-.512-.717,4.1,4.1,0,0,1,.251-2.692c.374-1.465.441-2.983.874-4.455a20.343,20.343,0,0,1,6.628-10A25.976,25.976,0,0,1,366.63,219.4Z" transform="translate(-352.015 -215.946)" fill="#fbf4f8"/>
      <path id="Path_747" data-name="Path 747" d="M350.864,283.4c.163.383-.411.766,0,1.15a6.419,6.419,0,0,1,.84,2.612c-.638.386-1.245,1.2-1.99.147a17.31,17.31,0,0,1-.883-6.668c.515-.475.99-1.027,1.8-.92v2.989A1.042,1.042,0,0,1,350.864,283.4Z" transform="translate(-348.666 -258.794)" fill="#f7ebf2"/>
      <path id="Path_748" data-name="Path 748" d="M448.073,294.784v.684q-.8,1.61-1.6,3.222a1.95,1.95,0,0,1-.92,1.38h0c-.126.129-.046.362-.236.457l-2.986,3.219c-.147.441-.374.776-.92.7a24,24,0,0,1-5.755,3.216,2.168,2.168,0,0,1-1.144.681,3.241,3.241,0,0,1-1.306.107,3.186,3.186,0,0,1-.711-1.649c0-.113.046-.236-.018-.34-.678-1.079-.678-1.386-.025-2.4.248-.389.288-.871.537-1.263.058-.359-.251-.515-.411-.754-.212-.307-.466-.629-.046-.972.426-.172.886,0,1.278-.11-.582,0-1.263.212-1.659-.53.123-.448.466-.454.816-.371.809.19,1.168-.374,1.551-.9.2-.282.034-1.045.717-.693.54.276,1.021.736.579,1.469-.052.086-.1.11-.08.123.549-.2.267-.736.438-1.092.273-.567.368-1.327,1.309-1.052.135.156.218.42.512.172a5.185,5.185,0,0,0,1.318-1.564c.166-.307.175-.776.668-.834.159.037.487.233.454.086-.205-.843.331-1.15.92-1.285.717-.159,1.058.454,1.407.954a.888.888,0,0,0,.147.2,1.34,1.34,0,0,0-.273-.515c-.184-.288-.757-.414-.466-.9a1.288,1.288,0,0,1,1.174-.586c.27,0,.549.147.791.083.494-.132.993-.389.466-.978-.7-.779-.2-1.508,0-2.244a5.024,5.024,0,0,1,2.606-.276c.334.307.362.613-.092.782s-.745.543-1.2.613c-.064,0-.107-.021-.113-.1-.043.071,0,.1.089.1,1.107-.34,1.533-.162,2.115.92.156.307.212.65.5.868h0a.644.644,0,0,1,.159.613A1.1,1.1,0,0,1,448.073,294.784Z" transform="translate(-406.322 -266.038)" fill="#fce3ef"/>
      <path id="Path_749" data-name="Path 749" d="M426.094,348.94a4.381,4.381,0,0,1,1.38-.227c.337.494,1.055.414,1.38.92a.478.478,0,0,1,.463.236,22.234,22.234,0,0,1-2.759.95,22.7,22.7,0,0,1-4.6.389,1.62,1.62,0,0,1,.613-1.99C423.736,349.069,424.883,348.588,426.094,348.94Z" transform="translate(-399.292 -306.634)" fill="#f9c9df"/>
      <path id="Path_750" data-name="Path 750" d="M441.63,348.637c-.509-.233-1.377.071-1.38-.92l1.15-.457c.117.84.613-.368.8.205C442.277,347.941,441.55,348.1,441.63,348.637Z" transform="translate(-412.068 -305.637)" fill="#f9cae0"/>
      <path id="Path_751" data-name="Path 751" d="M462.334,335.189l.92-.7c.307.132.589.279.674.665.024.12.215.23.1.374s-.337.267-.491.123c-.573-.537-.92-.034-1.386.463C462.239,335.667,462.288,335.428,462.334,335.189Z" transform="translate(-427.254 -296.782)" fill="#fabeda"/>
      <path id="Path_752" data-name="Path 752" d="M476.25,319.38a4.867,4.867,0,0,1,.92-1.38c.245.258.555.487.46.92-.463.153.325.92-.46.92C477.093,319.226,476.609,319.426,476.25,319.38Z" transform="translate(-437.031 -285.348)" fill="#fbcae1"/>
      <path id="Path_753" data-name="Path 753" d="M475.477,322.967a.493.493,0,0,1,.236-.457c0,.27.552.408.245.714C475.741,323.436,475.676,322.991,475.477,322.967Z" transform="translate(-436.494 -288.475)" fill="#fbcae1"/>
      <path id="Path_754" data-name="Path 754" d="M386.578,225.465c-.04-.064-.083-.129-.116-.2-.175-.346-1.11-.4-.564-.96.491-.509.613.273.868.53.457.491.684.34.819-.233.046-.184.113-.365.147-.552.043-.264.19-.478.448-.359.307.147.1.377-.034.558s-.208.307-.015.745c.408-.73,1.944-.307,1.331-1.892-.11-.282.448-.819.687-1.226.564.055-.162.92.509.754.549-.129,0-.705.147-.834.389-.307-.261-1.533.975-1.153.089.025.984-.2.678-.92-.282-.653.178-.9.647-.886.589.021.267.469.2.779-.138.641.527,1.429-.346,1.947a.4.4,0,0,0,.092.276.359.359,0,0,0,.307.025,2.9,2.9,0,0,0,.88-2.713c-.408-.742-.224-1.055.613-1.079.221,0,.812.215.466-.448.484-.441,1.076-.141,1.61-.23,1.895-.123,3.639.573,5.436,1,.328.077.668.1,1,.153a.586.586,0,0,1-.632.742c-.92-.264-2.039.592-2.732-.567-.432.613.359,1.38-.346,1.861a.984.984,0,0,1-1.26-.04c.11.264.414.221.613.343.386.239.438.509.034.788-.092.064-.264.074-.307.153-.733,1.754-1.441.1-2.122.113a1.237,1.237,0,0,1,.635,1.453c-.208.576-.757.368-1.248.4.641.92-.693,1.226-.613,2.008-.816.558-1.7-.08-2.539.166-.215,0-.429-.018-.641-.034-.785.307-.92,1.2-1.711,1.714a1.141,1.141,0,0,1,1.279.561,1.181,1.181,0,0,1,.08.5.977.977,0,0,1-1.18.809.631.631,0,0,1-.276-.178c0-.589-.35-.751-.868-.714a2.67,2.67,0,0,1-1.251-1,2.347,2.347,0,0,1-.018-1.042.34.34,0,0,0-.055-.184c-.1.07-.1.2-.144.307a.469.469,0,0,1-.368.242,1.484,1.484,0,0,1-1.052-.714.822.822,0,0,1-.064-.776Z" transform="translate(-374.262 -215.577)" fill="#fbf3f7"/>
      <path id="Path_755" data-name="Path 755" d="M416,227.635c-.307-.334-.42-.644.132-.843.1-.037.307-.058.307-.1.052-.816.273-1.441,1.291-1.279-.067-.374.138-.806-.285-1.11a3.466,3.466,0,0,1-.632-.656.27.27,0,0,1,.08-.4.838.838,0,0,1,.307-.052c.1.92,1.588.233,1.533,1.435-.055-.858.254-1.288,1.269-1.2-.613-.613-1.407-.678-1.591-1.4.432-.282.613.046.822.307.307.4.613.1.92.018.536-.132.089-.377.067-.579a4.115,4.115,0,0,0-.049-1.11c-.1-.258.166-.4.392-.469s.346.077.435.258c.307.613.613,1.113,1.257.307.083-.1.469-.132.515-.061.586.874.889.147,1.26-.2a14.76,14.76,0,0,1,3.219,1.607h.23a2.571,2.571,0,0,0,.533.846.65.65,0,0,1,.077.822c-.2.307-.451.172-.69.074-.307-.12-.7.021-.877-.38-.123-.1.153-.546-.288-.368a2.2,2.2,0,0,0-.533.414c-.828.724-.831.72-1.484-.23a1.9,1.9,0,0,1-1.134,1.383c-.129.288-.389-.595-.374,0,.04,1.6-.889,2.652-1.916,3.664a.92.92,0,0,1-.763.175,1.232,1.232,0,0,0-1.321.92c.42-.129.38-1.14,1.058-.613.573.46.251.954-.129,1.383a1.441,1.441,0,0,1-.454.346c-1.4.714-2.207-.245-3.051-1.094a2.069,2.069,0,0,1-.536-.812C415.387,228.168,416.123,228.067,416,227.635Z" transform="translate(-394.946 -217.517)" fill="#fcf1f6"/>
      <path id="Path_756" data-name="Path 756" d="M463.833,280.991c.536-.245.846-.862,1.533-.92-.337-.193-.613-.852-.966-.089-.181.377-.5.022-.705.15-.307.2-.635-.638-.763-.107-.162.656-.831,1.386-.034,2.094.172.153.8.368.411.487-.537.166-.208,1.5-1.278.819a1.226,1.226,0,0,0-1.692.445,1.569,1.569,0,0,1,.159.159c.343.441,1.291.9.785,1.37-.552.509-.73-.555-1.009-.9-.564-.69-.9-.392-1.352.037-.273.264-.291.245.282.92-.494-.034-1.039.675-1.156-.374a1.359,1.359,0,0,0-.021-.156,14.7,14.7,0,0,0,0-2.624c-.113-.506.454-.69.445-1.125a8.8,8.8,0,0,0,.153-3.986c1.662-1,3.584-1.37,4.228.267-.34-1.11.7-.92,1.2-1.26.018-.359-.613-.595-.184-1a.947.947,0,0,1,1.251-.1c.23.132.58.147.7.359.435.763.819.218,1.226,0a.478.478,0,0,1,.23.46v2.529c.052.92-.38,1.821-.233,2.759h0c-.159.285,0,.647-.227.92v.227a.509.509,0,0,0-.233.463c-.941.024-.8-.993-1.291-1.438-.389-.35-.337-.567-.733-.061-.141.184-.533-.1-.73-.34Z" transform="translate(-424.384 -255.468)" fill="#fce6f0"/>
      <path id="Path_757" data-name="Path 757" d="M462.786,263.721l-.684,1.156c-.187-1.07-1.162-1.067-1.815-1.481-.1-.067-.451.089-.573.239-.23.279.037.383.267.438.426.107.123.334.086.506-.052.23-.1.411-.448.346-.659-.123-1.076.043-.788.855.089.245.1.613-.254.638-.466.034-.215-.322-.236-.558-.058-.613-1.493-1.441-1.941-1.009-.613.583-1.294.187-1.873.478-.9-.763-1.815-1.515-2.661-2.345-.064-.546.359-.644.727-.794a1.327,1.327,0,0,1,.331-.046c.291,0,.558.307.862.1.11-.08.193.279.236,0,.135-.794.276-.92.938-.9,1.018.046.4.757.5,1.18a.921.921,0,0,0,.11.236c.071-.362-.018-.855.466-.88s.632.429.877.77c-.6-1.033.227-1.864.325-2.784.138-1.245.969-1.561,1.889-1.637.693-.061,1.374-.153,2.057-.264A14.6,14.6,0,0,1,462.786,263.721Z" transform="translate(-420.118 -243.716)" fill="#fce8f1"/>
      <path id="Path_758" data-name="Path 758" d="M456.329,245.005c-.2.365-1.156.092-.579,1.125a1.72,1.72,0,0,0-2.946.524c-.2.561-.359,1.137-.576,1.677-.159.4-.273.632,0,1a.533.533,0,0,1-.307.892c-.681.08,0-.438-.163-.561-.23-.172-.242-.674-.613-.543-.273.1-.233.429-.1.7.077.159.227.334,0,.533-.849-.34-.819-.981-.487-1.732l-1.42.117c-.07.408.647.086.438.586-.144.35-.484.135-.533.175-.417.343-.674-.156-1.006-.132a11.428,11.428,0,0,0-1.453-2.569c.028-.144-.215.083-.074.018.071.739-.389,1.073-.993,1.3a.708.708,0,0,1-.613-.518.742.742,0,0,1,.187-.77c.672-.254.573-.88.672-1.41a.662.662,0,0,1,.328-.5c.227-.083.586.187.681-.258a.537.537,0,0,1,.757.307,1.967,1.967,0,0,0,2.493,1.441.977.977,0,0,1-.849-.862c.034-.521.816-.42.806-.975.1-.573-.251-1.266.448-1.677a.8.8,0,0,1,.291-.07c.028-.086.273.187.156-.092-.031-.074-.178-.11-.258-.184-.2-.279-.159-.5.159-.653a2.759,2.759,0,0,1,.92.074c.429.049.846.307,1.248-.193s.064-.837-.1-1.242-.484-.806-.159-1.278l.46.23a8.1,8.1,0,0,0,1.15,1.61c-.015.389.04.745.46.92a15.377,15.377,0,0,1,1.61,2.532Z" transform="translate(-415.268 -230.749)" fill="#fceaf3"/>
      <path id="Path_759" data-name="Path 759" d="M475.092,246.167c-.687.448-.429-.414-.73-.567s.064-.307.27-.35Z" transform="translate(-435.643 -234.902)" fill="#fcedf4"/>
      <path id="Path_760" data-name="Path 760" d="M436.672,233.2q-.353.23,0,.46c.12.251-.049.359-.23.46-.371.12-.454-.193-.576-.408s-.251-.491-.613-.307c-.53.285-.779.049-.871-.478-.049-.267-.193-.423-.484-.307-.239.086-.38.236-.285.521s.638.613.1.819a1.2,1.2,0,0,1-1.423-.469c-.159-.224-.193-.53-.469-.113a4.269,4.269,0,0,0-.494,1.456.356.356,0,0,0-.031.613c.386.331.264.874.549,1.226-.055.533.172,1.226-.73,1.278-.512-2.388-2.529-2.453-4.351-2.821-.466-.1-1,.08-1.367-.371.147-.175.288-.356.441-.527.267-.307.38-.678,0-.874-.564-.288-.23.38-.441.512s-.307.564-.656.589a.331.331,0,0,1-.221-.208.773.773,0,0,1,.307-.9c.481-.334.831-.92,1.557-.73.42.107.65-.031.662-.5a.481.481,0,0,1,.218-.374c1.395-.491,1.2-1.674,1.315-2.759.021-.2-.123-.806.383-.794.641.015-.12.714.35.871l.156.04a4.853,4.853,0,0,1,.678,2.453c0-.276-.11-.687.212-.714.831-.071,1.07-.963,1.867-1.165.705-.178.245-1.076.435-1.625l.1-.126c.337.205.862-.435,1.107.251.037.1.2.058.264-.055a.35.35,0,0,0,0-.417c-.245-.346-.751-.6-.466-1.159l2.529,1.61a1.45,1.45,0,0,0,.705.678c.077.579-.291.72-.751.745a1.33,1.33,0,0,0-1.064.757c-.674,1.036-.668,1.006.472,1.5C436.142,232.074,436.936,232.227,436.672,233.2Z" transform="translate(-401.132 -221.929)" fill="#fceef5"/>
      <path id="Path_761" data-name="Path 761" d="M458.2,238.4c-.267-1.144-1.282-1.159-2.131-1.358-.509-.12-.76-.218-.307-.674.573-.576.613-1.634,1.533-1.84.429-.1.95.153,1.141-.484a6.633,6.633,0,0,1,1.61,1.61,3.811,3.811,0,0,0,.579,1.444c.236.328.573.84.221,1.113s-.714.975-1.459.5C459.066,238.495,458.567,238.627,458.2,238.4Z" transform="translate(-422.662 -227.129)" fill="#fcedf4"/>
      <path id="Path_762" data-name="Path 762" d="M486.751,296.42c.031-.307-.11-.678.227-.92a.65.65,0,0,1-.227.92Z" transform="translate(-444.31 -269.746)" fill="#facbe1"/>
      <path id="Path_763" data-name="Path 763" d="M484.51,303.6c.153-.23.307-.463.454-.693a1.554,1.554,0,0,1,.693,0C485.3,304.043,485.154,304.138,484.51,303.6Z" transform="translate(-442.759 -274.858)" fill="#fbcee3"/>
      <path id="Path_764" data-name="Path 764" d="M486.683,301.44a.613.613,0,0,1-.693,0v-.69c.441.049.613.441.92.69Z" transform="translate(-443.785 -273.387)" fill="#fac8e0"/>
      <path id="Path_765" data-name="Path 765" d="M351.75,303.951c.208-.083.392-.19.484.165.077.307.359.126.555.147-.138-1.137.555-.15.8-.307.463.163.518.613.659.981a13.225,13.225,0,0,0,1.484,3.011,4.494,4.494,0,0,0,.53.92,12.144,12.144,0,0,1,.862,1.257.742.742,0,0,1,.052.307.614.614,0,0,1-.138.279c-.567.1-.717,1.337-1.6.592A18.224,18.224,0,0,1,351.75,303.951Z" transform="translate(-350.702 -275.438)" fill="#f8e5ef"/>
      <path id="Path_766" data-name="Path 766" d="M377.828,340.561a18.8,18.8,0,0,1-7.358-4.829.445.445,0,0,1,.613,0c.831.776,1.839.589,2.811.533a6.988,6.988,0,0,1,1.741.9,18.007,18.007,0,0,0,2.542,1.352,7.036,7.036,0,0,1,2.125.809.435.435,0,0,1,.1.307c-.383.362-.938.408-1.211,1.049C378.959,341.248,378.322,340.445,377.828,340.561Z" transform="translate(-363.682 -297.559)" fill="#f9d8e8"/>
      <path id="Path_767" data-name="Path 767" d="M369.289,329.844c-1.006.227-2.017.543-2.864-.423-.129-.15-.392-.178-.595-.264a9.374,9.374,0,0,1-2.051-2.306c.239-.055.586.322.711-.2.11-.466.5-.494.889-.484.328-.132.494.11.668.307a17.015,17.015,0,0,0,2.787,2.545C369.112,329.2,369.421,329.415,369.289,329.844Z" transform="translate(-359.043 -290.984)" fill="#f8dfeb"/>
      <path id="Path_768" data-name="Path 768" d="M394.47,349.245a.782.782,0,0,1,.837.055c.175.089.448.307.417-.156-.077-1.073.711-.776,1.285-.822.454-.392.92-.055,1.383-.04a2.805,2.805,0,0,1,.353.083c.641.285,1.462-.156,2.011.494.218.641-.874,1.061-.307,1.766a.27.27,0,0,1-.307.034A15,15,0,0,1,394.47,349.245Z" transform="translate(-380.324 -306.242)" fill="#f9d1e4"/>
      <path id="Path_769" data-name="Path 769" d="M417.29,350.224l-.46,1.8h-.92a1.971,1.971,0,0,0-.215-.074c-.386-.138-.978.307-1.171-.322a1.209,1.209,0,0,1,.647-1.622A2.513,2.513,0,0,1,417.29,350.224Z" transform="translate(-394.168 -307.454)" fill="#f9d1e4"/>
      <path id="Path_770" data-name="Path 770" d="M413.991,350.773c-.573,1.07-.408,1.395.92,1.8a4.349,4.349,0,0,1-1.913-.156c0-.613-.1-1.245.54-1.643a.307.307,0,0,1,.454,0Z" transform="translate(-393.167 -308.004)" fill="#f9c9df"/>
      <path id="Path_771" data-name="Path 771" d="M358.259,273.085c-.984-.705-1.122-1.889-1.6-2.876-.193-.4-.307-.84-.466-1.263l-.69-2.759c.687-.307.567.1.491.533-.04.23.052.5.349.457s.178-.276.132-.463a.527.527,0,0,1,.4-.705c.273-.077.411.1.484.35s.181.469.46.4a.589.589,0,0,0,.4-.613,6.973,6.973,0,0,1,.034-1.787c.018-.092.034-.267-.138-.239s-.438.34-.435-.11c0-.208.273-.5.46-.429.978.374.708-.4.812-.834a1.137,1.137,0,0,0,.2-.356,1.939,1.939,0,0,1-.2.356c-.334-.018-.307-.193-.264-.463.1-.552.509-.92.7-1.423s.386-1.061.576-1.594c.727.582.944-.239,1.37-.494.061-.037.169-.086.205-.058.8.579,1.15.23,1.19-.613.028-.552.564-1.171-.242-1.711,1.15.325,1.462-1.3,2.563-.92-.162-.88.662-1.4.8-2.168a.264.264,0,0,1,.282-.064,2.625,2.625,0,0,1,.748.8.515.515,0,0,1-.068.457c-.15.092-.365.1-.454.35a.767.767,0,0,1,.675-.307.613.613,0,0,1,.42.451,2.785,2.785,0,0,0,.435,1,2.938,2.938,0,0,1,.445.88,1.376,1.376,0,0,1-.527,1.37c-.5.153-.779-.169-1.131-.613a15.426,15.426,0,0,1,0,2.382c.052.46-.27.613-.659.582a2.679,2.679,0,0,0-1.4.153c.184.071.613-.107.558.46a3.445,3.445,0,0,1-3.121,3.256c.1.113-.1,0-.052.037.831.592.613,1.377-.074,1.588s-.331.613-.515.858c-.365.506.015.264.251.322.533.132,1.352.11,1.122,1.009a.991.991,0,0,1-1.459.788c-1.012-.346-1.257-.092-1.226,1.018.018.42.113.886-.27,1.177s-.714.086-1.036-.414a1.625,1.625,0,0,0,.865,1.19c.307.221.668.484.491.92s-.595.261-.92.307S358.538,273.392,358.259,273.085Z" transform="translate(-353.302 -240.433)" fill="#fcf1f7"/>
      <path id="Path_772" data-name="Path 772" d="M385.175,251a1.525,1.525,0,0,0,.441-1.374.463.463,0,0,1,.291-.116c.441.08.613.579,1.036.678a.736.736,0,0,0,.828-.227c.193-.282-.037-.5-.224-.69a18.714,18.714,0,0,0-2.051-1.987,7.466,7.466,0,0,1-1.919-2.229L382,243.146c-.074-.2,0-.251.187-.178l.445.23a1.588,1.588,0,0,1,.72.684l.858.714c.423.04.576.371.742.687l1.1.92a1.708,1.708,0,0,1,.987.877h0a6.239,6.239,0,0,1,2.3,1.879,1.887,1.887,0,0,1-.96,2.578,6.243,6.243,0,0,1-1.294.457,1.321,1.321,0,0,0-1.11,1.288,7.322,7.322,0,0,1-.76,2.741c-.714,1.64-.549,2.376.877,3.477a2.52,2.52,0,0,1,1.125,2.873c-.307.69-.947,1.006-1.5,1.423a4.045,4.045,0,0,1-1.091.561c-.791.068-1.652.641-2.312-.307a19.207,19.207,0,0,1-1.226-2.263,3.912,3.912,0,0,1,.7-4.243,11.838,11.838,0,0,0,1.732-2.526,2.783,2.783,0,0,1,.135-.307,9.851,9.851,0,0,0,.641-2.361A1.533,1.533,0,0,1,385.175,251Z" transform="translate(-370.811 -233.298)" fill="#fc017a"/>
      <path id="Path_773" data-name="Path 773" d="M389.466,249.84c1.383,1.312,2.759,2.618,4.139,3.946.306.307.993.635.411,1.177a1.178,1.178,0,0,1-1.744.077q-.539-.722-1.095-1.432c-.162-.307-.38-.549-.558-.831a.441.441,0,0,0-.233-.435c-.064-.089-.215-.092-.23-.23v-.441c-.307-.15-.337-.613-.7-.708h-.224Z" transform="translate(-376.69 -238.085)" fill="#fceaf3"/>
      <path id="Path_774" data-name="Path 774" d="M354.98,290.19c-.27-.166-.224-.438-.23-.69l.935.579C355.471,290.288,355.21,290.144,354.98,290.19Z" transform="translate(-352.782 -265.586)" fill="#fcf1f7"/>
      <path id="Path_775" data-name="Path 775" d="M384.095,242.057l-.187.178a.7.7,0,0,1-.408-.592C383.843,241.609,383.96,241.845,384.095,242.057Z" transform="translate(-372.717 -232.399)" fill="#fb3494"/>
      <path id="Path_776" data-name="Path 776" d="M387.61,244.454l-.72-.684h.494C387.46,244,387.537,244.227,387.61,244.454Z" transform="translate(-375.068 -233.876)" fill="#fcf1f6"/>
      <path id="Path_777" data-name="Path 777" d="M397.47,322.053l-2.3-.69c-.021-.411-.163-.858.328-1.116.374-.193.564.046.846.524-.141-.724-.549-1.42.595-1.285.647.077.816-.883,1.416-1.024.975-.23.77-.92.653-1.554-.086-.472-.484-1.027.129-1.327s1.091.092,1.478.57c.061.077.092.205.205.184a2.768,2.768,0,0,1,.435-1.723c.267-.671.92-.751,1.42-.021.19.426.77.659.644,1.226a.829.829,0,0,0-.178-1.036.613.613,0,0,1-.064-.828c.4-.221.613-.484.208-.9-.135-.374-.064-.785-.221-1.156a2.875,2.875,0,0,0-.307-.494c-.123-.159-.288-.291-.307-.515a.488.488,0,0,1,.359-.307c.92-.074,1.38.573,1.748,1.226a14.518,14.518,0,0,0,2.318,3.581c-.021.721.975.852.92,1.594-.34.15-.533-.129-.776-.258-.445-.067-.147.288-.236.423-.475.638-.742.362-.938-.212,0-.107.153-.15.132-.273a.205.205,0,0,1-.113.178,3.517,3.517,0,0,1-1.349.613c-.273.083-.714.021-.754.38a.828.828,0,0,0,.684.816c.613.144.92.42.92,1.076s.193,1.318-.8,1.416c-.331.034-.181,1.033-.874.54-.573-.408-.181-.883-.018-1.331,0-.024-1.094-1.159-1.116-1.147-.227.156-.307.325-.037.515.343.236.454.527.156.858s-.613.172-.92,0a5.283,5.283,0,0,0-.5-.27.343.343,0,0,0-.42.052c-.123.129-.077.254,0,.408.478,1.1.475,1.1-.846,1.052a1.2,1.2,0,0,1-1.766-.4c-.2-.291-.4-.4-.748-.2-.472.285.239.438.052.674Z" transform="translate(-380.786 -280.204)" fill="#fce7f1"/>
      <path id="Path_778" data-name="Path 778" d="M435.091,302.138c-1.079-.061-.877.941-1.153,1.5-.064.132.055.451-.221.592s-.491.794-.889.362.245-.448.408-.674c.491-.69-.389-.8-.613-1.242.043.822-.595,1.125-1.009,1.625-.613.751-1.2-.159-1.754.129-.555.123-.647-.34-.733-.668a12.854,12.854,0,0,1-.629-3.241,9.3,9.3,0,0,0,.484-.871,1.479,1.479,0,0,0,.331-1.466c-.383-.791.178-.966.656-1.226.693-.4.69.331.966.613.132.132.208.322.4.392.555-.4,1.064-.812,1-1.61,0-.132.193-.215.353-.233a10.117,10.117,0,0,1,2.836,4.559C435.665,301.179,435.763,301.8,435.091,302.138Z" transform="translate(-403.92 -270.176)" fill="#fce6f1"/>
      <path id="Path_779" data-name="Path 779" d="M414.891,330.216a.5.5,0,0,0,.466.53c.2.028.205-.156.224-.307a.828.828,0,0,1,.46-.46l.69.46c-.481.583-.408,1.511-1.2,1.907a.307.307,0,0,0-.064.291c.889.831-.408.408-.4.745.279.5.837.129,1.294.392-.865.782.423,1.4.141,2.18a17.1,17.1,0,0,1-3.679.466h-2.759c-.6-.579-1.475.11-2.073-.46.156-.46.788-.442.92-.92.187-.276.38-.159.57,0s.362.141.466-.074-.08-.331-.273-.38a.486.486,0,0,1-.288-.852c.205-.218.57-.748,1.027-.153a1.983,1.983,0,0,0,.668.4.307.307,0,0,0,.472-.159c.1-.2.015-.466-.172-.454-.834.052-.307-.4-.307-.681,0-.343.181-.524.478-.5s.613.163.438.613c-.064.162-.031.349.159.328,1.818-.212.681.809.466,1.254-.261.537.184.5.285.742.481-.34-.037-.8.248-1.079.408-.221.245.65.681.307a.6.6,0,0,0,.261-.788,5.989,5.989,0,0,0-.871-1.1,7.53,7.53,0,0,1-.966-.963c-.245-.307-.071-.724.239-.7C413.38,330.841,414.057,330.216,414.891,330.216Z" transform="translate(-389.699 -293.655)" fill="#fce5f0"/>
      <path id="Path_780" data-name="Path 780" d="M442.214,294.3a2.619,2.619,0,0,0-.193-2.391,22,22,0,0,0-2.306-3.621c-1.088-1.131-1.248-2.49-.414-3.474,2.048.776,4.044,1.625,5.249,3.624a6.224,6.224,0,0,1,.169,3.556v-.018a4.826,4.826,0,0,1-2.511,3.011C441.907,294.747,442.337,294.52,442.214,294.3Z" transform="translate(-411.043 -262.334)" fill="#fc017a"/>
      <path id="Path_781" data-name="Path 781" d="M408.6,305.375c.573,1.327.34,2.9,1.263,4.117.5.745,1.294.4,2.048.524-.561.613-1.245.38-1.861.42-1.291-.549-1.711-1.778-2.257-2.906-.389-.806-.819-1.561-1.806-1.741A1.9,1.9,0,0,0,404.9,306c-.586.2-.892.613-.628,1.242s.779.665,1.346.451c.212-.08.368-.273.613-.325.414.126.224.478.276.739,0,.521-.356.754-.788.92a4.041,4.041,0,0,1-1.088,0,3.967,3.967,0,0,1-1.634-1.018,5.794,5.794,0,0,0-2.581-1.61c-.9-.288-.944-.613-.215-1.2a6.215,6.215,0,0,1,1.058-.678c.527-.242,1.039-.524,1.576-.76a6.359,6.359,0,0,1,3.719-.117A2.466,2.466,0,0,1,408.6,305.375Z" transform="translate(-383.943 -275.24)" fill="#fc027a"/>
      <path id="Path_782" data-name="Path 782" d="M475.842,293.9l-.512-.1c.043-.083.067-.221.135-.245C475.793,293.43,475.8,293.691,475.842,293.9Z" transform="translate(-436.393 -268.375)" fill="#fce6f0"/>
      <path id="Path_783" data-name="Path 783" d="M483.306,301.52a1.2,1.2,0,0,1,.123.334.246.246,0,0,1-.135.166c-.163.071-.205-.061-.19-.175S483.2,301.667,483.306,301.52Z" transform="translate(-441.782 -273.921)" fill="#fce6f0"/>
      <path id="Path_784" data-name="Path 784" d="M402.363,246.811a1.455,1.455,0,0,0-.362-.264c-.944-.307-.92-.285-.307-1.113.227-.307.613-.484.586-1.012-.021-.368.374-.224.613-.126a.662.662,0,0,0,.543.374c.307.052.6.04.886.113a1.086,1.086,0,0,1,.279.126,6.507,6.507,0,0,1,.665.613,2.668,2.668,0,0,0,.92.684.635.635,0,0,1,.258.34.733.733,0,0,0,.448.653,2.49,2.49,0,0,1,.938,1.269c.028.386-.11.647-.527.7a3.044,3.044,0,0,1-1.045-.843c.12.537.739.595,1.091.938-.178,1.009-.484,1.168-1.186.573-.377-.307-.717-.684-1.122-.975a2.517,2.517,0,0,1-.567-1.331,2.952,2.952,0,0,0-.592-1.208c-.668-.742-.944-.69-1.3.251A.454.454,0,0,1,402.363,246.811Z" transform="translate(-385.032 -234.164)" fill="#fcf1f6"/>
      <path id="Path_785" data-name="Path 785" d="M404.672,249.36v-.113c.052-.466-.307-1.193.159-1.346.527-.175,1.116.258,1.551.724.693.742.613,1.748.963,2.6.291.089.365.377.5.589.227.365.687.779.307,1.211-.445.491-.981.169-1.444-.1a4.971,4.971,0,0,1-.935-.825,3.284,3.284,0,0,1-1.027-2.352C404.715,249.617,404.7,249.488,404.672,249.36Z" transform="translate(-387.341 -236.713)" fill="#fc037b"/>
      <path id="Path_786" data-name="Path 786" d="M402.476,254l1.107,2.186c.169.279.162.46-.233.426l-2.03-1.858C401.863,254.748,402.362,254.675,402.476,254Z" transform="translate(-385.073 -240.97)" fill="#fcf1f6"/>
      <path id="Path_787" data-name="Path 787" d="M411.171,244.5c.454.475-.445.613-.258,1.006-.53.205-.935-.1-1.364-.325l.018.015c-.227-.328-.668-.159-.92-.4a.251.251,0,0,1-.021-.279Z" transform="translate(-390.118 -234.382)" fill="#fcf1f6"/>
      <path id="Path_788" data-name="Path 788" d="M399.047,254.364l-.987-.877C398.734,253.392,399.3,253.416,399.047,254.364Z" transform="translate(-382.813 -240.588)" fill="#fcf1f6"/>
      <path id="Path_789" data-name="Path 789" d="M392.788,245.8c-.221-.454-.04-.819.414-.739s.141.475.046.739a.307.307,0,0,1-.46,0Z" transform="translate(-379.092 -234.767)" fill="#fbf4f8"/>
      <path id="Path_790" data-name="Path 790" d="M392.307,247.5h.46c.23.307-.107.632,0,.947l-.766-.69Z" transform="translate(-378.611 -236.462)" fill="#fcf1f6"/>
      <path id="Path_791" data-name="Path 791" d="M407,244.55c.021.058.046.12.064.178a.573.573,0,0,1-.251.457c-.227-.156-.76-.1-.441-.635Z" transform="translate(-388.511 -234.417)" fill="#fc88c0"/>
      <path id="Path_792" data-name="Path 792" d="M401.05,239.286a3.277,3.277,0,0,1,.254-.236,1.012,1.012,0,0,1,.307.291c.08.15-.049.2-.172.15A3.113,3.113,0,0,1,401.05,239.286Z" transform="translate(-384.887 -230.603)" fill="#fbf4f8"/>
      <path id="Path_793" data-name="Path 793" d="M418.381,252.112l-.944-1.144a1.784,1.784,0,0,1-.435-.693.224.224,0,0,0-.23-.227.34.34,0,0,1-.1-.307c.086-.169.19-.307.4-.19.763.9,1.582,1.674,2.909,1.162a10.911,10.911,0,0,1,3.9.629c1.668.635,1.772.785,1.815,2.563-.08.227-.156.454-.236.684.2.782-.15,1.055-.92,1.07s-1.4-.254-2.115-.236A6.394,6.394,0,0,1,418.381,252.112Z" transform="translate(-395.718 -237.856)" fill="#fc017a"/>
      <path id="Path_794" data-name="Path 794" d="M440.25,229.743c.138-.638,1.41-.92.307-2.017.819.307,1.278.595,1.42,1.278a11.953,11.953,0,0,1,1.165-.935c.254-.156.331-.782.776-.438.494.383-.153.635-.221.963-.334.193-.668.368-.595.858a1.113,1.113,0,0,1-.5,1.076c-.441.362-.788.748-1.242-.021C441.142,230.126,440.6,230.031,440.25,229.743Z" transform="translate(-412.068 -222.614)" fill="#fceef5"/>
      <path id="Path_795" data-name="Path 795" d="M413.632,247.515l-.35.35c-.377-.018-.549-.4-.877-.5a1.454,1.454,0,0,1-.705-.727c.515-.141.92.147,1.364.325C413.254,247.147,413.444,247.334,413.632,247.515Z" transform="translate(-392.272 -235.837)" fill="#fc1b87"/>
      <path id="Path_796" data-name="Path 796" d="M435.465,269.673A6.1,6.1,0,0,1,438.012,272a6.518,6.518,0,0,1-.052,4.265c-.15.383-.337.175-.521.037-.377-1.383-1.49-2-2.646-2.606-.975-.512-2.017-.843-3.023-1.269-.739-.386-1.475-.773-2.192-1.2a3,3,0,0,1-1.533-2.453c0-.414-.049-.849.322-1.162.377-.123.65.113.947.276a2.349,2.349,0,0,0,1.312.441,2.262,2.262,0,0,1,.307.064,4.572,4.572,0,0,0,.954.144c.546.12,1.1.181,1.649.276a10.012,10.012,0,0,1,1.6.491C435.29,269.382,435.351,269.548,435.465,269.673Z" transform="translate(-403.604 -250.385)" fill="#fc017a"/>
      <path id="Path_797" data-name="Path 797" d="M457.391,295.478a.356.356,0,0,0,.429.126c-.632.834-.23,1.84-.42,2.738-.077.353.135.773-.273,1.039a7.158,7.158,0,0,0-.448-3.679C457.011,295.938,457.085,295.389,457.391,295.478Z" transform="translate(-423.461 -269.724)" fill="#fce3ef"/>
      <path id="Path_798" data-name="Path 798" d="M481.86,278.31c.276.107.411.19.371.359-.018.077-.144.126-.224.19a1.227,1.227,0,0,1-.227-.328C481.756,278.457,481.845,278.347,481.86,278.31Z" transform="translate(-440.863 -257.827)" fill="#fce8f1"/>
      <path id="Path_799" data-name="Path 799" d="M462.61,283.24c-.169,0-.282-.037-.251-.165.018-.074.147-.138.239-.169.043-.015.116.061.178.1Z" transform="translate(-427.396 -261.012)" fill="#fce8f1"/>
      <path id="Path_800" data-name="Path 800" d="M403.855,262.163a2.916,2.916,0,0,0,1.413,2.207c.117.159.046.346-.092.365-.635.086-1.245.025-1.744.678-.2.267-.8-.285-1.122-.579-.454-.414-.11-.834.11-1.226.175-.218.613-.212.491-.678-.129.233-.215.506-.463.638a3.211,3.211,0,0,0-.95,2.79c.19.92,0,1.082-1.306,1.208a2.346,2.346,0,0,1,.773.064c.307.11.582.261.595.613s-.307.356-.54.494c-.92.555-1.637,1.355-2.539,1.947-.57.374-.04,1.346-.6,1.87l-1.377.653c-.454.08-1.009.53-1.211-.307a2.313,2.313,0,0,0-1.119-2.719c-1.631-1.141-1.769-1.855-.944-3.7a7.121,7.121,0,0,0,.776-2.842,1.348,1.348,0,0,1,1.4-1.481,2.594,2.594,0,0,0,1.579-.613,1.507,1.507,0,0,0,.4-2.122.417.417,0,0,0,.236-.426c.5.334.871.849,1.487,1.015.221.058.46.166.644,0,.236-.215-.028-.4-.11-.589-.169-.377-.343-.751-.518-1.128.549.049.84.475,1.186.812.205.2.307.586.7.411.337-.147.307-.487.307-.791a.7.7,0,0,0,.46-.7c1.067.92,1.882,2.128,3.182,2.8a3.678,3.678,0,0,0,.727.2,7.357,7.357,0,0,0,3.566.23,2.169,2.169,0,0,1,2.413,1.174c-.178.27-.711.147-.69.632l-.258-.11c-.414-.613-1.11-.322-1.652-.524a3.491,3.491,0,0,1-1.766-.307c-.288-.245-.674.049-.966-.178l-.1.021-.092-.049c-.445-.227-.953-.242-1.41-.432l-.668-.423C403.607,261.225,403.607,261.225,403.855,262.163Z" transform="translate(-379.123 -243.764)" fill="#fceef5"/>
      <path id="Path_801" data-name="Path 801" d="M449.1,265.5a3.193,3.193,0,0,0-2.214-.981c-.242-.126-.221-.258,0-.392a3.364,3.364,0,0,0,.92-1.656,4.54,4.54,0,0,1,1.533,2.989A.785.785,0,0,0,449.1,265.5Z" transform="translate(-416.55 -246.843)" fill="#fc0c80"/>
      <path id="Path_802" data-name="Path 802" d="M447.232,245.868c.552-.5.536-.494.8.077s.92.208,1.352.708c-.077-.656-.92-.782-.524-1.3a1.177,1.177,0,0,1,1.055-.564c.794.117.193.837.487,1.3,1.4-1.619,1.119.392,1.668.674-.668.389-.138,1.122-.46,1.61l-.156-.031c-.261.184-.681-1.131-.831.089a.659.659,0,0,1-.147.264c-.555.307-.092.365.117.487l.1.11c.258.613.849.77,1.447.92l-.08.307a8.408,8.408,0,0,1-2.1-.043c-.558-.144-.858-.825-1.07-1.343-.166-.4-.307-.555-.7-.546a.251.251,0,0,1-.325.049,1.649,1.649,0,0,1-.843-1.533A4.461,4.461,0,0,1,447.232,245.868Z" transform="translate(-416.757 -234.576)" fill="#fcedf4"/>
      <path id="Path_803" data-name="Path 803" d="M445.5,252.679a2.877,2.877,0,0,0,.751,1.352c-.037.144-.184.166-.279.245l-.221.5c-.595-.307-.512-1.119-1.168-1.462-.279-.147.475-.077.469-.414C445.175,252.78,445.236,252.523,445.5,252.679Z" transform="translate(-415.027 -240.02)" fill="#fc0e81"/>
      <path id="Path_804" data-name="Path 804" d="M438.725,266.587v.392c-1.272,0-2.569.251-3.765-.423a21.841,21.841,0,0,1,2.336.248c.751.156.791-.282.846-.785A.957.957,0,0,0,438.725,266.587Z" transform="translate(-408.4 -249.305)" fill="#fce3ef"/>
      <path id="Path_805" data-name="Path 805" d="M459.26,256.325c.432,1.046-.656.57-.92.92-.181-.2-.4-.377-.23-.69a1.07,1.07,0,0,1,1.15-.23Z" transform="translate(-424.409 -242.528)" fill="#fcedf4"/>
      <path id="Path_806" data-name="Path 806" d="M463.5,250.21l.23-.46c.162.307.953-.159.742.484S463.834,250.228,463.5,250.21Z" transform="translate(-428.19 -238.023)" fill="#fcedf4"/>
      <path id="Path_807" data-name="Path 807" d="M449.25,257.43l.279-.245a.764.764,0,0,1,.205,0c.123.19.245.377.392.613C449.7,257.929,449.547,257.5,449.25,257.43Z" transform="translate(-418.309 -243.173)" fill="#fb3f99"/>
      <path id="Path_808" data-name="Path 808" d="M439.737,232.009c.613.288,1.607-.061,1.616,1.272.481-.678,1.343-.822.862-1.876-.261-.57.435-.705.972-.546.282.533.086,1.1.123,1.653a1.223,1.223,0,0,1-.049.307c-1.1-.205-1.361,1.383-2.453,1.134-.187.4.549.38.307.724a.487.487,0,0,1-.613.11.653.653,0,0,1-.334-.757c.1-.463.411-1.088-.54-1.144-.261-.018-.018-.156.089-.187C440.445,232.5,439.66,232.239,439.737,232.009Z" transform="translate(-411.555 -224.881)" fill="#fcf1f6"/>
      <path id="Path_809" data-name="Path 809" d="M446.7,249.7l-.448.218a2.136,2.136,0,0,1,.454-1.585C446.7,248.787,446.7,249.244,446.7,249.7Z" transform="translate(-416.229 -237.038)" fill="#fc76b6"/>
      <path id="Path_810" data-name="Path 810" d="M438.972,244.049a1.2,1.2,0,0,1-.346.15c-.159.018-.328-.086-.245-.258.046-.092.254-.12.392-.144S439,243.825,438.972,244.049Z" transform="translate(-410.757 -233.891)" fill="#fcf1f6"/>
      <path id="Path_811" data-name="Path 811" d="M438.81,239.231c.034-.141.067-.27.205-.184a.38.38,0,0,1,.15.251c0,.117-.083.212-.2.147S438.868,239.293,438.81,239.231Z" transform="translate(-411.07 -230.582)" fill="#fcf1f6"/>
      <path id="Path_812" data-name="Path 812" d="M373.9,266.713a6.738,6.738,0,0,0-.9,2.793,2.253,2.253,0,0,1-.435,1.153c-.086-.052-.172-.1-.254-.162.08.064.175.1.258.153a5.207,5.207,0,0,1-1.374,2.183,4.528,4.528,0,0,0-1.183,4.691c-.141.374-.595.739.163,1.052.515.215.509,1,1.058,1.269a.613.613,0,0,1,.015.466c-.374.288-.586,1.015-1.266.466-.285-.23-.307.055-.362.205a2.99,2.99,0,0,1-1.751,1.619,2.8,2.8,0,0,0-1.3,1.076c-.153.254-.307.576-.7.288v-.23c-.257-.42-.337-.987-.92-1.15a.812.812,0,0,1-.46-.92l1.751-.159c-.046-.889-1.2-.613-1.37-1.426-.08-.377-.35-.675.086-.92.659-.377.212.334.4.432a1.105,1.105,0,0,0,.386.19c.236.021.346-.162.34-.368,0-.34-.169-.724-.058-1.009.129-.337-.34-.883.12-.92s.978-.788,1.533-.11c.175.218.389.392.665.11s.537-.457.515-.852a1.1,1.1,0,0,0-.107-.307c-.411.248-.809-.469-1.251,0-.077.08-.386.028-.524-.061-.212-.138-.08-.432.043-.491.837-.38.153-.816,0-1.2.346-.239.552.1.8.071.334-.043.589-.205.576-.583,0-.221.365-.613-.282-.613a.576.576,0,0,1-.451-.678c.141-.408.38-.052.613,0,.834.212,2.493-1.085,2.428-1.928-.04-.546.362-.809.533-1.2-.307-.4-.742.15-1.144-.267.794-.138,1.355-.843,2.241-.414.307.147.386-.129.365-.481a8.367,8.367,0,0,1,.2-2.882C373.276,266.029,373.279,266.673,373.9,266.713Z" transform="translate(-359.534 -249.013)" fill="#fceff6"/>
      <path id="Path_813" data-name="Path 813" d="M369,315.036c.57-.432.852-1.144,1.533-1.493.506-.261,1.128-.282,1.49-.92.135-.245.478-.408.445-.812-.031-.356.264-.411.521-.487.432-.123.193.27.285.356.472.445.576-.509,1.018-.307.757-.221,1.6-.043,2.306-.491.276-.166.469-.491.855-.451.846-.169,1.171.687,1.809.953.19.08.061.573-.159.819s-.583.423-.819.239c-.524-.408-1.15-.291-1.84-.521.273.491.742.815.377,1.419-.264.432-.242.92-.981.981s-.567,1.156-.506,1.352a2.316,2.316,0,0,1-.491,2.548c-.153.135-.423.144-.466.4a.413.413,0,0,0,.227.025c.414,0,1.073-.705,1.168.172a.981.981,0,0,1-1.242,1.058l-1.61-.92c-.46-.785-1.395-1-1.968-1.656-.613-.705-1.291-1.352-1.941-2.023Z" transform="translate(-362.663 -280.084)" fill="#fcedf4"/>
      <path id="Path_814" data-name="Path 814" d="M366,320.987c.868-.067.963.487.92,1.15C366.288,322.014,366.386,321.309,366,320.987Z" transform="translate(-360.583 -287.416)" fill="#fcedf4"/>
      <path id="Path_815" data-name="Path 815" d="M385.087,317.078c.589-.169.76-.733,1.153-1.128-.527-.037-.92.288-1.392.254-.221,0-.469.126-.579-.166a.377.377,0,0,1,.307-.515c1.254-.178,1.067-1.291,1.361-2.076.132-.359.018-.4-.788-.282-.034-.448,1.226-.561.307-1.226.521-.181.4-1.677,1.462-.555.132-.49-.487-.99.353-1.2.273-.067-.172-.463-.42-.613s-.42-.307-.248-.628c.2-.383.442-.209.656-.074.264.163.481.4.785.055.242-.267.445-.307.487.159.037.356.307.411.589.368a.567.567,0,0,0,.512-.533c.04-.307-.064-.546-.4-.573-.534-.043-.647-.788-1.226-.723l1.395-1.226c.307.491.8.254,1.211.307-.454.451-1.119.65-1.613,1.377,2.229-.015,3.265,1.781,4.813,2.759a1.226,1.226,0,0,0,1.15,0l.681-.711.07-.083.092.064c.632.429.429.724-.153.957-.343.116-.307.613-.69.69-.417-.521-.984-.506-1.119.074s-.674,1.226-.264,1.938c-.282.2-.353-.193-.57-.181-.27,0-.159-.307-.276-.423a.955.955,0,0,0-1.116-.307c-.383.212-.04.512.083.776.245.527-.224,1.3.576,1.668.083.037-.144.337-.356.279-1.009-.264-1.432.487-1.932,1.1-.117.138-.153.42-.276.454-.343.092-.494-.757-.92-.276-.2.233.656.282.307.72-.138.181-.307.42-.487.463-.353.08-.092-.254-.172-.383-.11-.181-.23-.325-.442-.181-.147.1-.377.242-.205.451.279.343.15.457-.212.5A8.017,8.017,0,0,1,385.087,317.078Z" transform="translate(-373.231 -277.298)" fill="#fceaf3"/>
      <path id="Path_816" data-name="Path 816" d="M404.13,347.161l-1.38-.23v-.23h0C403.474,345.858,403.572,345.889,404.13,347.161Z" transform="translate(-386.065 -304.852)" fill="#fce7f1"/>
      <path id="Path_817" data-name="Path 817" d="M402.663,345.331c-.472-.117-.573-1.343-1.38-.46-.141-.212-.156-.512-.484-.589-.279-.067-.123-.423-.1-.411.469.218,1.006-1.039,1.456.1.307.757.987.717,1.656.438-.037.221.944.8-.236.632-.208-.031-.457.187-.687.291Z" transform="translate(-384.599 -303.021)" fill="#fceaf3"/>
      <path id="Path_818" data-name="Path 818" d="M419.025,353.087c-.061.055-.239.242-.261.227-.172-.132-.408-.285-.441-.463s.227-.279.429-.251S419.053,352.8,419.025,353.087Z" transform="translate(-396.862 -309.337)" fill="#f9c9df"/>
      <path id="Path_819" data-name="Path 819" d="M390.517,257.229l.23.23c-.07.015-.175,0-.208.055-.169.221-.015.714-.546.613a.236.236,0,0,1-.227-.307A.6.6,0,0,1,390.517,257.229Z" transform="translate(-377.054 -243.202)" fill="#fbf4f8"/>
      <path id="Path_820" data-name="Path 820" d="M370.317,279.359c-.215-.028-.365-.12-.276-.359s.144-.463.423-.435a.34.34,0,0,1,.307.389C370.743,279.218,370.55,279.31,370.317,279.359Z" transform="translate(-363.366 -258.002)" fill="#fbf4f8"/>
      <path id="Path_821" data-name="Path 821" d="M366.68,281.856c.049-.583.092-.95.57-1.2C367.348,281.218,367.045,281.5,366.68,281.856Z" transform="translate(-361.054 -259.456)" fill="#fbf4f8"/>
      <path id="Path_822" data-name="Path 822" d="M395.315,261.753a1.441,1.441,0,0,1,.515.9h-.285c-.141-.227-.282-.457-.42-.687S395.128,261.723,395.315,261.753Z" transform="translate(-380.74 -246.338)" fill="#fc4fa2"/>
      <path id="Path_823" data-name="Path 823" d="M394.386,260.144l-.19.224a1.533,1.533,0,0,1-.466-.947A.96.96,0,0,1,394.386,260.144Z" transform="translate(-379.811 -244.728)" fill="#fb4ea1"/>
      <path id="Path_824" data-name="Path 824" d="M390,253.462c.595-.123.475.463.7.708C390.23,254.164,390.172,253.757,390,253.462Z" transform="translate(-377.225 -240.585)" fill="#fbbada"/>
      <path id="Path_825" data-name="Path 825" d="M381.787,306.786c-.307-.015-.751.034-.751-.34,0-.855-.773-.889-1.2-1.309.138-.359.5-.484.819-.656l1.15,2.07c.064.058.086.113.055.162S381.811,306.786,381.787,306.786Z" transform="translate(-370.179 -275.973)" fill="#fcedf4"/>
      <path id="Path_826" data-name="Path 826" d="M385.867,298.089c-.156-.337.021-.454.279-.451a.534.534,0,0,1,.558.573c.015.325-.08.635-.463.613C385.662,298.825,386.014,298.3,385.867,298.089Z" transform="translate(-374.318 -271.229)" fill="#fcd9ea"/>
      <path id="Path_827" data-name="Path 827" d="M386.19,311.466l.021-.236a.855.855,0,0,0,1.11.448,11.911,11.911,0,0,1,1.193-.245,3.158,3.158,0,0,1-2.306.491Z" transform="translate(-374.582 -280.654)" fill="#fceaf3"/>
      <path id="Path_828" data-name="Path 828" d="M415.554,312.384c-.362.858-1.015.84-1.7.5a1.061,1.061,0,0,1-.53-1.533,1.389,1.389,0,0,1,2.02-.638l-.307.212c-.12.251-.349.132-.533.166a.46.46,0,0,0-.242.1c.095.12-.064.028.074-.04s-.037.021.11-.043a1.608,1.608,0,0,1,1.058.224l.221.215A1.364,1.364,0,0,1,415.554,312.384Z" transform="translate(-393.292 -280.158)" fill="#fce0ed"/>
      <path id="Path_829" data-name="Path 829" d="M419.25,322.44c.166-.307.239-.681.69-.69-.132.261-.175.512.153.656.92.411.018,1.085.205,1.625.055.153-.4-.031-.392-.061C420.176,323.24,419.244,323.053,419.25,322.44Z" transform="translate(-397.507 -287.948)" fill="#fce5f0"/>
      <path id="Path_830" data-name="Path 830" d="M432.643,329.162a.423.423,0,0,1-.46.46c-.276-.224-.343-.555-.1-.76S432.511,328.947,432.643,329.162Z" transform="translate(-406.301 -292.831)" fill="#fce3ef"/>
      <path id="Path_831" data-name="Path 831" d="M420.848,314.689c0-.307-.166-.613.172-.849.457.448.264.963.153,1.469a.731.731,0,0,1-.163.018C420.992,315.115,421.075,314.858,420.848,314.689Z" transform="translate(-398.587 -282.463)" fill="#fc3997"/>
      <path id="Path_832" data-name="Path 832" d="M418.011,312.232l-1.159-.074c-.064-.061-.08-.12-.052-.169s.052-.077.077-.077l.671-.083C417.754,311.9,417.947,311.99,418.011,312.232Z" transform="translate(-395.799 -281.07)" fill="#fc55a5"/>
      <path id="Path_833" data-name="Path 833" d="M430.22,328.811c.107-.307-.307-.564.052-.9a.583.583,0,0,1-.052.9Z" transform="translate(-405.046 -292.22)" fill="#fce5f0"/>
      <path id="Path_834" data-name="Path 834" d="M409.537,285.011c-.021-1.334-.08-2.689,1.784-2.848.07,0,.138-.153.19-.245.573-1.027.57-1.027,1.5-1.073-.445-.678-.537-.7-1.818-.463a1,1,0,0,1,.92-.717c.282-.055.806.4.809-.178,0-.365.27-.938-.307-1.19-.215-.092-.307-.208-.184-.42s.264,0,.368-.025a.512.512,0,0,0,.386-.678c-.337-.96.34-1.021.947-1.174h0c-.129.874-.129.874,1.027,1.763.043-.92.432-1.171,1.226-.693.239.144.426,0,.546-.239l2.042,1.183c.205.343.638.343.935.549-.19.466-.484.307-.763.212-.871,1.226-.021,2.284.291,3.4-.448.54.025.883.411,1.279-.448.08-.794,0-1.073.242-.825.742-1.091.613-1.6-.641l-1,.659c-.025.264,1.039-.1.307.515-.5.435.831.794-.021,1.159-1,.426-.353.687.117.972-.389.463-.77.285-1.153,0C413.823,284.345,411.723,284.5,409.537,285.011Z" transform="translate(-390.768 -256.225)" fill="#fceaf3"/>
      <path id="Path_835" data-name="Path 835" d="M440.458,283.33l.613-.064c-.322-.261-.742-.276-.791-.7a18.8,18.8,0,0,1,4.513,2.051,2.332,2.332,0,0,1,1.226,1.913c-.208.169-.371.469-.711.233C444.054,285.109,442.1,284.437,440.458,283.33Z" transform="translate(-412.089 -260.78)" fill="#fce6f0"/>
      <path id="Path_836" data-name="Path 836" d="M416.65,321a.766.766,0,0,1-1.15,0Z" transform="translate(-394.906 -287.428)" fill="#fce7f1"/>
      <path id="Path_837" data-name="Path 837" d="M418.3,256.993c-1.18-.205-1.327-.487-.92-1.533C417.382,256.144,418.038,256.4,418.3,256.993Z" transform="translate(-396.065 -241.982)" fill="#fceef5"/>
      <path id="Path_838" data-name="Path 838" d="M408,245.587a.49.49,0,0,1,.251-.457c.368.046.852-.12.892.5Z" transform="translate(-389.704 -234.819)" fill="#fb65ae"/>
      <path id="Path_839" data-name="Path 839" d="M417.418,252c.239.175.472.35.435.693C417.28,252.73,417.121,252.509,417.418,252Z" transform="translate(-396.135 -239.583)" fill="#fceef5"/>
      <path id="Path_840" data-name="Path 840" d="M414,249.077c.423-.061.546.4.877.5a1.016,1.016,0,0,0,.04.159A1.113,1.113,0,0,1,414,249.077Z" transform="translate(-393.866 -237.552)" fill="#fceef5"/>
      <path id="Path_841" data-name="Path 841" d="M446,272.234c.586.071,1.331-.368,1.652.524Z" transform="translate(-416.055 -253.581)" fill="#fce3ef"/>
      <path id="Path_842" data-name="Path 842" d="M428.149,268.5a1.049,1.049,0,0,1-.374-.871c0-.325.162-.724.583-.23C428.024,267.708,428.275,268.137,428.149,268.5Z" transform="translate(-403.417 -250.097)" fill="#fceaf3"/>
      <path id="Path_843" data-name="Path 843" d="M431.89,269.268a1.541,1.541,0,0,1,1.41.432A1.925,1.925,0,0,1,431.89,269.268Z" transform="translate(-406.271 -251.547)" fill="#fce3ef"/>
      <path id="Path_844" data-name="Path 844" d="M437.11,270.535c.307.153.748-.457.966.178a1.3,1.3,0,0,1-.966-.178Z" transform="translate(-409.891 -252.354)" fill="#fce3ef"/>
      <path id="Path_845" data-name="Path 845" d="M409.418,273c.653.236.935.674.582,1.318a2.089,2.089,0,0,1-2.214.484c-.613-.494-.438-1.058.025-1.579.288-.144.429.141.644.221.414.193.613-.089.837-.359A.707.707,0,0,0,409.418,273Z" transform="translate(-389.285 -254.144)" fill="#fc0c7f"/>
      <path id="Path_846" data-name="Path 846" d="M424.5,272.993a2.663,2.663,0,0,0,.123-.423c.046-.359-.025-.8.445-.9.288-.061.4.245.288.454C425.165,272.488,425.389,273.312,424.5,272.993Z" transform="translate(-401.147 -253.218)" fill="#fceaf3"/>
      <path id="Path_847" data-name="Path 847" d="M428.281,275.868a2.668,2.668,0,0,1-.408.23c-.141.043-.208-.064-.159-.181a.392.392,0,0,1,.221-.212C428.005,275.687,428.1,275.794,428.281,275.868Z" transform="translate(-403.365 -256.019)" fill="#fceaf3"/>
      <path id="Path_848" data-name="Path 848" d="M409.238,273.282l-.478-.445a.628.628,0,0,1,.463-.408.783.783,0,0,1,.172.264A.592.592,0,0,1,409.238,273.282Z" transform="translate(-390.233 -253.749)" fill="#fc3f99"/>
      <path id="Path_849" data-name="Path 849" d="M410.3,272.466l-.028-.258c.4-.089.819-.233,1.144.184h0A.883.883,0,0,1,410.3,272.466Z" transform="translate(-391.28 -253.528)" fill="#fc3896"/>
      <path id="Path_850" data-name="Path 850" d="M458.554,254.491a1.9,1.9,0,0,1-1.15.23,1.608,1.608,0,0,0-.374-1.082C457.9,253.455,458.2,254.013,458.554,254.491Z" transform="translate(-423.704 -240.694)" fill="#fceaf3"/>
      <path id="Path_851" data-name="Path 851" d="M456.26,257.25l.23.69c-.392-.015-.825.083-1.11-.4C455.631,257.284,455.966,257.317,456.26,257.25Z" transform="translate(-422.56 -243.223)" fill="#fceaf3"/>
      <path id="Path_852" data-name="Path 852" d="M379.254,293.5c-.34.193.113.791-.386.831-.423.037-.346-.426-.435-.687s-.083-.589.285-.592C378.936,293.05,379.267,293.121,379.254,293.5Z" transform="translate(-369.171 -268.047)" fill="#fcf1f7"/>
      <path id="Path_853" data-name="Path 853" d="M389.4,280.17c-.819.178-.659-.291-.558-.84.426.2.328.632.555.849Z" transform="translate(-376.363 -258.534)" fill="#fcf1f7"/>
      <path id="Path_854" data-name="Path 854" d="M383.537,288.28c.166,0,.325.077.307.236,0,.107-.159.215-.27.288-.025.015-.187-.1-.218-.187a.236.236,0,0,1,.181-.337Z" transform="translate(-372.601 -264.74)" fill="#fcf1f7"/>
      <path id="Path_855" data-name="Path 855" d="M371.708,309.285c-.064-.141-.147-.236-.126-.307s.132-.141.205-.208c.043.077.129.159.12.23S371.794,309.147,371.708,309.285Z" transform="translate(-364.451 -278.948)" fill="#fcf1f7"/>
      <path id="Path_856" data-name="Path 856" d="M385.993,333.08c.159,0,.273.046.218.181a.371.371,0,0,1-.233.175.138.138,0,0,1-.172-.184C385.833,333.172,385.944,333.123,385.993,333.08Z" transform="translate(-374.309 -295.805)" fill="#fceaf3"/>
      <path id="Path_857" data-name="Path 857" d="M416.066,312.1a2.225,2.225,0,0,1-.025.245l-.365.58C415.521,312.428,415.717,312.22,416.066,312.1Z" transform="translate(-394.991 -281.257)" fill="#fc8cc1"/>
      <path id="Path_858" data-name="Path 858" d="M419.28,289.185c.819-.181,1.637-.374,2.453-.543a3,3,0,0,0,2.775-3.112c-.043-.233-.184-.518.261-.494a3.085,3.085,0,0,1-2.554,4.311,12.688,12.688,0,0,1-1.711.077C420.083,289.424,419.58,289.829,419.28,289.185Z" transform="translate(-397.528 -262.49)" fill="#fc0d80"/>
      <path id="Path_859" data-name="Path 859" d="M422.2,281.994c-.034.264-.092.546-.438.524-.251,0-.227-.261-.218-.438.015-.236.12-.46.377-.484S422.192,281.8,422.2,281.994Z" transform="translate(-399.097 -260.104)" fill="#fceef5"/>
      <path id="Path_860" data-name="Path 860" d="M417.068,298.567c.356.362.825.126,1.226.239a7.425,7.425,0,0,1-2.2.224A1.153,1.153,0,0,1,417.068,298.567Z" transform="translate(-395.316 -271.872)" fill="#fc1b87"/>
      <path id="Path_861" data-name="Path 861" d="M411.814,299.524c0,.166-.07.307-.239.307a.258.258,0,0,1-.285-.264.307.307,0,0,1,.181-.227.236.236,0,0,1,.343.184Z" transform="translate(-391.987 -272.391)" fill="#fceef5"/>
      <path id="Path_862" data-name="Path 862" d="M436.158,284.193c-.221.1-.187.307-.261.494-.169-.267-.307-.586-.086-.828C435.916,283.76,436.118,284,436.158,284.193Z" transform="translate(-408.911 -261.658)" fill="#fc54a5"/>
      <path id="Path_863" data-name="Path 863" d="M410.3,273.083,411.42,273c.077.99-.408,1.045-1.141.684Z" transform="translate(-391.287 -254.144)" fill="#fcd9ea"/>
    </g>
    <g id="Layer_x0020_1" transform="translate(6051.576 1083.662)">
      <path id="Path_864" data-name="Path 864" d="M22.425,0A22.425,22.425,0,1,1,0,22.425,22.425,22.425,0,0,1,22.425,0Z" fill="#f5ac37"/>
      <path id="Path_865" data-name="Path 865" d="M96.68,112.685H105.2c.182,0,.267,0,.281-.238a16.288,16.288,0,0,0,0-2.607c0-.169-.084-.238-.266-.238H88.257c-.21,0-.266.07-.266.266v2.495c0,.322,0,.322.336.322H96.68Zm7.85-6a.273.273,0,0,0,0-.2,5.544,5.544,0,0,0-.507-.883,7.151,7.151,0,0,0-1.037-1.3,3.438,3.438,0,0,0-.645-.631,10.074,10.074,0,0,0-4.205-2.13,10.453,10.453,0,0,0-2.383-.252H88.227c-.21,0-.238.084-.238.266v4.975c0,.21,0,.266.266.266h16.173s.14-.028.169-.112h-.069Zm0,8.914a3.272,3.272,0,0,0-.716,0H88.271c-.21,0-.281,0-.281.281v4.864c0,.224,0,.281.281.281h7.176a3.583,3.583,0,0,0,1.022-.07,10.682,10.682,0,0,0,3.043-.673,5.569,5.569,0,0,0,1.022-.476h.1a9.105,9.105,0,0,0,3.91-3.937s.1-.212-.012-.267Zm-19.356,7.947V115.8c0-.183,0-.21-.224-.21H81.908c-.169,0-.238,0-.238-.224V112.7h3.251c.182,0,.252,0,.252-.238v-2.635c0-.169,0-.21-.224-.21H81.908c-.169,0-.238,0-.238-.224v-2.466c0-.154,0-.2.224-.2h3.013c.21,0,.266,0,.266-.266V98.911c0-.224,0-.281.281-.281H95.965a16.014,16.014,0,0,1,2.271.252,13.7,13.7,0,0,1,4.387,1.626,12.362,12.362,0,0,1,2.466,1.906,13.5,13.5,0,0,1,1.5,1.864,11.24,11.24,0,0,1,1.095,2.144.365.365,0,0,0,.419.295h2.509c.322,0,.322,0,.336.309v2.3c0,.224-.084.281-.309.281H108.7c-.2,0-.252,0-.238.252a14.314,14.314,0,0,1,0,2.564c0,.238,0,.266.267.266h2.213c.1.126,0,.252,0,.379a2.829,2.829,0,0,1,0,.489v1.7c0,.238-.07.309-.281.309h-2.649a.351.351,0,0,0-.407.266,11.208,11.208,0,0,1-2.944,4.289,16.878,16.878,0,0,1-1.5,1.2c-.561.323-1.107.659-1.682.925a15.155,15.155,0,0,1-3.308,1.051,17.247,17.247,0,0,1-3.28.266H85.17v-.014Z" transform="translate(-73.428 -88.677)" fill="#fefefd"/>
    </g>
  </g>
</svg>
