<svg width="24" height="24" viewBox="0 0 24 24" fill="none" xmlns="http://www.w3.org/2000/svg">
<path d="M16.986 1H14.8971L13.0607 9.91183C13.0724 9.91784 13.085 9.92254 13.0966 9.92874C13.367 10.0727 13.607 10.2675 13.8033 10.5023C13.8521 10.5605 13.8979 10.6209 13.941 10.6836C14.1376 10.9689 14.2688 11.294 14.325 11.6356C14.3813 11.9773 14.3613 12.3271 14.2665 12.6601C14.2639 12.6696 14.2622 12.6796 14.2594 12.689C14.2211 12.8178 14.1718 12.9431 14.112 13.0635C14.1052 13.0774 14.0993 13.0917 14.0922 13.1054C14.033 13.2194 13.9645 13.3283 13.8874 13.4312C13.8764 13.446 13.8659 13.4611 13.8546 13.4757C13.7773 13.5744 13.6922 13.6669 13.6002 13.7523C13.5856 13.7659 13.5711 13.7795 13.5562 13.7927C13.4629 13.8754 13.3632 13.9506 13.2582 14.0177C13.2413 14.0285 13.2242 14.0388 13.2071 14.0491C13.0994 14.1145 12.9867 14.1711 12.87 14.2186C12.8528 14.2255 12.8352 14.2316 12.8178 14.2381C12.6966 14.2843 12.5718 14.3205 12.4447 14.3462C12.4294 14.3493 12.4138 14.351 12.3984 14.3537C12.3128 14.3663 12.2267 14.3744 12.1403 14.3782L10.7898 20.9315H14.3665L18.1741 2.45399C18.2104 2.27806 18.207 2.09629 18.1641 1.92185C18.1212 1.74742 18.0399 1.58469 17.9261 1.44549C17.8124 1.30628 17.669 1.19408 17.5064 1.11703C17.3438 1.03997 17.166 0.999998 16.986 1Z" fill="url(#paint0_linear)"/>
<path d="M10.6644 13.9973C10.5373 13.9128 10.4186 13.8163 10.31 13.7092C10.2558 13.6558 10.2044 13.6 10.1556 13.5417C10.058 13.4251 9.97174 13.2994 9.89808 13.1663C9.86121 13.0997 9.82754 13.0312 9.79707 12.961C9.67269 12.6739 9.60681 12.365 9.60326 12.0523C9.60031 11.8263 9.63038 11.6011 9.69249 11.3838C9.69513 11.3743 9.69683 11.3644 9.69957 11.355C9.73787 11.2262 9.78719 11.1008 9.847 10.9804C9.85376 10.9666 9.85968 10.9523 9.86672 10.9386C9.92599 10.8246 9.99448 10.7156 10.0715 10.6128C10.0825 10.598 10.093 10.5828 10.1044 10.5683C10.1817 10.4696 10.2668 10.3771 10.3588 10.2917C10.3733 10.2781 10.3879 10.2645 10.4028 10.2513C10.4961 10.1686 10.5958 10.0933 10.7008 10.0262C10.7176 10.0155 10.7347 10.0052 10.7517 9.99491C10.8594 9.92961 10.9721 9.87296 11.0888 9.8255C11.1061 9.81848 11.1239 9.81235 11.1414 9.80575C11.2625 9.75959 11.3872 9.72347 11.5143 9.69778C11.5296 9.69473 11.5452 9.69298 11.5605 9.69025C11.6497 9.67697 11.7396 9.66846 11.8297 9.66476L13.189 3.06842H9.61234L5.80462 21.5459C5.76837 21.7219 5.77182 21.9036 5.81472 22.0781C5.85761 22.2525 5.93888 22.4152 6.05263 22.5544C6.16638 22.6936 6.30976 22.8058 6.47236 22.8829C6.63496 22.9599 6.81272 22.9999 6.99273 22.9999H9.0816L10.9086 14.1343C10.8938 14.1268 10.8769 14.123 10.8623 14.1152C10.7943 14.079 10.7283 14.0397 10.6644 13.9973Z" fill="url(#paint1_linear)"/>
<path d="M9.86542 12.9318C9.77547 12.7249 9.71684 12.5058 9.69145 12.2817C9.71684 12.5058 9.77547 12.7249 9.86542 12.9318Z" fill="url(#paint2_linear)"/>
<path d="M9.69152 12.2814C9.68286 12.205 9.67807 12.1283 9.67719 12.0515C9.67806 12.1283 9.68285 12.205 9.69152 12.2814Z" fill="url(#paint3_linear)"/>
<path d="M9.76357 11.4024C9.76613 11.3937 9.76778 11.3846 9.77045 11.3759C9.76776 11.3846 9.76613 11.3937 9.76357 11.4024Z" fill="url(#paint4_linear)"/>
<path d="M9.9133 11.0126C9.91999 10.9993 9.92585 10.9856 9.93281 10.9725C9.92582 10.9856 9.92001 10.9993 9.9133 11.0126Z" fill="url(#paint5_linear)"/>
<path d="M10.1308 10.6565C10.1417 10.6422 10.1521 10.6277 10.1633 10.6137C10.1521 10.6277 10.1417 10.6422 10.1308 10.6565Z" fill="url(#paint6_linear)"/>
<path d="M13.8287 13.3873C13.8178 13.4016 13.8074 13.4161 13.7962 13.4301C13.8074 13.4161 13.8178 13.4016 13.8287 13.3873Z" fill="url(#paint7_linear)"/>
<path d="M12.4311 14.2739C12.416 14.2765 12.4005 14.2781 12.3854 14.2804C12.4006 14.278 12.416 14.2765 12.4311 14.2739Z" fill="url(#paint8_linear)"/>
<path d="M13.5507 13.6984C13.5362 13.7115 13.5219 13.7246 13.5071 13.7372C13.5219 13.7245 13.5362 13.7115 13.5507 13.6984Z" fill="url(#paint9_linear)"/>
<path d="M10.4091 10.3454C10.4236 10.3323 10.438 10.3192 10.4527 10.3065C10.4379 10.3193 10.4236 10.3323 10.4091 10.3454Z" fill="url(#paint10_linear)"/>
<path d="M12.8424 14.1502C12.8257 14.1566 12.8086 14.1622 12.7917 14.1683C12.8087 14.1622 12.8256 14.1567 12.8424 14.1502Z" fill="url(#paint11_linear)"/>
<path d="M10.213 13.494C10.1182 13.3812 10.0344 13.2596 9.96281 13.1309C10.0344 13.2596 10.1182 13.3812 10.213 13.494Z" fill="url(#paint12_linear)"/>
<path d="M10.7053 13.9355C10.5821 13.8538 10.4671 13.7605 10.3619 13.6569C10.4671 13.7605 10.5821 13.8538 10.7053 13.9355Z" fill="url(#paint13_linear)"/>
<path d="M11.9826 14.3184C11.9857 14.3184 11.9885 14.3177 11.9916 14.3177C11.9194 14.3179 11.8467 14.3159 11.7734 14.3099C11.8436 14.3156 11.9133 14.3184 11.9826 14.3184Z" fill="url(#paint14_linear)"/>
<path d="M11.3155 14.2211C11.1706 14.178 11.0305 14.1207 10.897 14.0502C11.0305 14.1207 11.1706 14.178 11.3155 14.2211Z" fill="url(#paint15_linear)"/>
<path d="M12.4188 9.76697C12.5692 9.79564 12.7164 9.83914 12.858 9.89683C12.7164 9.83914 12.5692 9.79564 12.4188 9.76697Z" fill="url(#paint16_linear)"/>
<path d="M13.2185 13.9556C13.2021 13.9658 13.1855 13.9756 13.1689 13.9854C13.1856 13.9756 13.202 13.9659 13.2185 13.9556Z" fill="url(#paint17_linear)"/>
<path d="M14.1953 12.6402C14.1928 12.649 14.1911 12.6581 14.1884 12.6669C14.1911 12.6581 14.1927 12.649 14.1953 12.6402Z" fill="url(#paint18_linear)"/>
<path d="M13.8799 10.7253C13.9638 10.8469 14.0356 10.9763 14.0945 11.1116C14.0357 10.9763 13.9638 10.8469 13.8799 10.7253Z" fill="url(#paint19_linear)"/>
<path d="M11.9768 9.72473C11.9737 9.72473 11.9709 9.72549 11.9678 9.72549C12.04 9.72523 12.1127 9.72726 12.186 9.73321C12.1158 9.72752 12.0461 9.7247 11.9768 9.72473Z" fill="url(#paint20_linear)"/>
<path d="M13.7465 10.5488C13.5563 10.3216 13.3238 10.1333 13.0618 9.99396C13.3238 10.1333 13.5563 10.3216 13.7465 10.5488Z" fill="url(#paint21_linear)"/>
<path d="M11.1165 9.8931C11.1333 9.88662 11.1506 9.88097 11.1676 9.87488C11.1505 9.88101 11.1334 9.8866 11.1165 9.8931Z" fill="url(#paint22_linear)"/>
<path d="M11.5287 9.76944C11.5437 9.76678 11.5592 9.76526 11.5744 9.76288C11.5592 9.76528 11.5438 9.76678 11.5287 9.76944Z" fill="url(#paint23_linear)"/>
<path d="M14.046 13.0311C14.0393 13.0444 14.0334 13.0581 14.0264 13.0713C14.0334 13.0581 14.0392 13.0444 14.046 13.0311Z" fill="url(#paint24_linear)"/>
<path d="M10.7406 10.0878C10.7569 10.0776 10.7735 10.0679 10.79 10.058C10.7734 10.0679 10.757 10.0776 10.7406 10.0878Z" fill="url(#paint25_linear)"/>
<path d="M16.7532 8.04436C16.2312 7.41718 15.5896 6.89954 14.8658 6.5214C14.1419 6.14326 13.35 5.91213 12.536 5.84139C12.3505 5.82477 12.1624 5.81635 11.9768 5.81635C10.3757 5.81704 8.83662 6.43375 7.67979 7.53813C6.52295 8.64251 5.83752 10.1495 5.76615 11.7454C5.69478 13.3413 6.24298 14.9032 7.29664 16.106C8.3503 17.3087 9.82826 18.0598 11.4229 18.2027C11.6084 18.2193 11.7965 18.2278 11.9821 18.2278C13.1646 18.2273 14.3223 17.8904 15.3198 17.2568C16.3172 16.6231 17.1129 15.7189 17.6137 14.6501C18.1144 13.5813 18.2994 12.3922 18.147 11.2223C17.9946 10.0523 17.5111 8.94992 16.7532 8.04436ZM14.2725 12.2276C14.2594 12.3672 14.2336 12.5054 14.1953 12.6403C14.1927 12.6495 14.1911 12.6591 14.1884 12.6683C14.1513 12.7931 14.1035 12.9145 14.0456 13.0312C14.039 13.0446 14.0333 13.0584 14.0265 13.0717C13.969 13.1821 13.9027 13.2877 13.8281 13.3874C13.8174 13.4018 13.8073 13.4163 13.7962 13.4304C13.7213 13.5261 13.6389 13.6157 13.5498 13.6985C13.5356 13.7117 13.5216 13.7247 13.5071 13.7376C13.4168 13.8177 13.3202 13.8906 13.2184 13.9556C13.202 13.9661 13.1855 13.976 13.1689 13.9861C13.0646 14.0494 12.9553 14.1043 12.8423 14.1502C12.8255 14.157 12.8086 14.1628 12.7917 14.1692C12.6743 14.214 12.5534 14.249 12.4302 14.2739C12.4154 14.2768 12.4003 14.2785 12.3854 14.2812C12.2553 14.305 12.1233 14.3175 11.991 14.3185C11.988 14.3185 11.9852 14.3194 11.9821 14.3194C11.9131 14.3194 11.8436 14.3162 11.7734 14.31C11.6182 14.2962 11.4648 14.2667 11.3155 14.2221C11.1706 14.1788 11.0305 14.1212 10.8971 14.0502C10.8311 14.0151 10.7672 13.977 10.7053 13.9359C10.5821 13.8541 10.4671 13.7606 10.3619 13.6568C10.3094 13.6051 10.2596 13.551 10.2123 13.4945C10.1177 13.3815 10.0342 13.2597 9.96282 13.1308C9.9271 13.0663 9.89448 12.9999 9.86496 12.9319C9.74445 12.6537 9.68062 12.3545 9.67718 12.0515C9.67432 11.8325 9.70345 11.6143 9.76363 11.4037C9.76619 11.3945 9.76782 11.385 9.77049 11.3759C9.80759 11.2511 9.85538 11.1296 9.91333 11.0129C9.9199 10.9995 9.92559 10.9857 9.93243 10.9725C9.98985 10.862 10.0562 10.7564 10.1309 10.6567C10.1415 10.6424 10.1517 10.6278 10.1627 10.6137C10.2376 10.518 10.32 10.4284 10.4092 10.3457C10.4233 10.3324 10.4373 10.3194 10.4518 10.3065C10.5422 10.2264 10.6388 10.1535 10.7406 10.0884C10.7569 10.078 10.7733 10.0681 10.7899 10.0581C10.8942 9.99485 11.0034 9.93996 11.1165 9.89399C11.1333 9.88717 11.1504 9.8813 11.1675 9.87486C11.2848 9.83012 11.4056 9.79513 11.5287 9.77025C11.5436 9.7673 11.5586 9.76562 11.5735 9.76295C11.7036 9.73915 11.8356 9.72666 11.9679 9.72562C11.9709 9.72562 11.9738 9.72478 11.9768 9.72478C12.0458 9.72478 12.1153 9.7279 12.1855 9.73413C12.2638 9.74114 12.3417 9.75209 12.4189 9.76696C12.5693 9.79591 12.7165 9.83985 12.8581 9.89812C12.9279 9.92682 12.9958 9.95876 13.0619 9.99395C13.3238 10.1335 13.5563 10.3221 13.7466 10.5496C13.7938 10.606 13.8382 10.6646 13.8799 10.7254C14.1822 11.1652 14.321 11.6965 14.2725 12.2276L14.2725 12.2276Z" fill="url(#paint26_linear)"/>
<path d="M14.027 13.0716C13.9694 13.1819 13.9029 13.2873 13.8281 13.3868C13.9029 13.2873 13.9694 13.1819 14.027 13.0716Z" fill="url(#paint27_linear)"/>
<path d="M13.508 13.7376C13.4173 13.8176 13.3205 13.8904 13.2184 13.9553C13.3205 13.8904 13.4173 13.8176 13.508 13.7376Z" fill="url(#paint28_linear)"/>
<path d="M13.7969 13.4304C13.7218 13.5259 13.6391 13.6154 13.5498 13.698C13.6391 13.6154 13.7218 13.5259 13.7969 13.4304Z" fill="url(#paint29_linear)"/>
<path d="M14.2728 12.2276C14.2596 12.367 14.2337 12.5049 14.1953 12.6396C14.2337 12.5049 14.2596 12.367 14.2728 12.2276Z" fill="url(#paint30_linear)"/>
<path d="M14.1888 12.6683C14.1516 12.793 14.1037 12.9142 14.0456 13.0307C14.1037 12.9142 14.1516 12.793 14.1888 12.6683Z" fill="url(#paint31_linear)"/>
<path d="M11.1675 9.8736C11.2848 9.82941 11.4056 9.79485 11.5287 9.77026C11.4056 9.79484 11.2848 9.8294 11.1675 9.8736Z" fill="url(#paint32_linear)"/>
<path d="M10.7899 10.0572C10.8942 9.99431 11.0034 9.93975 11.1165 9.89404C11.0034 9.93974 10.8942 9.99429 10.7899 10.0572Z" fill="url(#paint33_linear)"/>
<path d="M10.1627 10.6132C10.2378 10.5176 10.3205 10.4281 10.4098 10.3455C10.3205 10.4281 10.2378 10.5176 10.1627 10.6132Z" fill="url(#paint34_linear)"/>
<path d="M10.4518 10.3061C10.5425 10.2261 10.6393 10.1533 10.7414 10.0884C10.6393 10.1533 10.5424 10.2261 10.4518 10.3061Z" fill="url(#paint35_linear)"/>
<path d="M11.5735 9.7622C11.7036 9.73888 11.8356 9.72663 11.9678 9.72559C11.8356 9.72661 11.7036 9.73886 11.5735 9.7622Z" fill="url(#paint36_linear)"/>
<path d="M9.76386 11.4037C9.70351 11.6143 9.6743 11.8325 9.67716 12.0514C9.67431 11.8325 9.70351 11.6143 9.76386 11.4037Z" fill="url(#paint37_linear)"/>
<path d="M13.1688 13.986C13.0645 14.0489 12.9553 14.1034 12.8422 14.1491C12.9553 14.1034 13.0645 14.0489 13.1688 13.986Z" fill="url(#paint38_linear)"/>
<path d="M12.3854 14.2812C12.2553 14.3046 12.1233 14.3168 11.991 14.3178C12.1233 14.3168 12.2553 14.3046 12.3854 14.2812Z" fill="url(#paint39_linear)"/>
<path d="M12.7917 14.1692C12.6743 14.2134 12.5534 14.248 12.4302 14.2726C12.5534 14.248 12.6743 14.2134 12.7917 14.1692Z" fill="url(#paint40_linear)"/>
<path d="M9.77048 11.3752C9.80768 11.2506 9.8556 11.1293 9.91371 11.0128C9.8556 11.1293 9.80768 11.2506 9.77048 11.3752Z" fill="url(#paint41_linear)"/>
<path d="M9.93239 10.9721C9.98997 10.8618 10.0565 10.7563 10.1314 10.6568C10.0565 10.7563 9.98996 10.8618 9.93239 10.9721Z" fill="url(#paint42_linear)"/>
<defs>
<linearGradient id="paint0_linear" x1="18.199" y1="1" x2="5.17971" y2="5.83968" gradientUnits="userSpaceOnUse">
<stop stopColor="#78D8FF"/>
<stop offset="1" stopColor="#4CE096"/>
</linearGradient>
<linearGradient id="paint1_linear" x1="13.189" y1="3.06842" x2="0.169639" y2="7.90818" gradientUnits="userSpaceOnUse">
<stop stopColor="#78D8FF"/>
<stop offset="1" stopColor="#4CE096"/>
</linearGradient>
<linearGradient id="paint2_linear" x1="9.86542" y1="12.2817" x2="9.54074" y2="12.3686" gradientUnits="userSpaceOnUse">
<stop stopColor="#78D8FF"/>
<stop offset="1" stopColor="#4CE096"/>
</linearGradient>
<linearGradient id="paint3_linear" x1="9.69152" y1="12.0515" x2="9.66296" y2="12.0532" gradientUnits="userSpaceOnUse">
<stop stopColor="#78D8FF"/>
<stop offset="1" stopColor="#4CE096"/>
</linearGradient>
<linearGradient id="paint4_linear" x1="9.77045" y1="11.3759" x2="9.75755" y2="11.3793" gradientUnits="userSpaceOnUse">
<stop stopColor="#78D8FF"/>
<stop offset="1" stopColor="#4CE096"/>
</linearGradient>
<linearGradient id="paint5_linear" x1="9.93281" y1="10.9725" x2="9.90124" y2="10.9878" gradientUnits="userSpaceOnUse">
<stop stopColor="#78D8FF"/>
<stop offset="1" stopColor="#4CE096"/>
</linearGradient>
<linearGradient id="paint6_linear" x1="10.1633" y1="10.6137" x2="10.1221" y2="10.645" gradientUnits="userSpaceOnUse">
<stop stopColor="#78D8FF"/>
<stop offset="1" stopColor="#4CE096"/>
</linearGradient>
<linearGradient id="paint7_linear" x1="13.8287" y1="13.3873" x2="13.7875" y2="13.4186" gradientUnits="userSpaceOnUse">
<stop stopColor="#78D8FF"/>
<stop offset="1" stopColor="#4CE096"/>
</linearGradient>
<linearGradient id="paint8_linear" x1="12.4311" y1="14.2739" x2="12.4293" y2="14.2868" gradientUnits="userSpaceOnUse">
<stop stopColor="#78D8FF"/>
<stop offset="1" stopColor="#4CE096"/>
</linearGradient>
<linearGradient id="paint9_linear" x1="13.5507" y1="13.6984" x2="13.5121" y2="13.7417" gradientUnits="userSpaceOnUse">
<stop stopColor="#78D8FF"/>
<stop offset="1" stopColor="#4CE096"/>
</linearGradient>
<linearGradient id="paint10_linear" x1="10.4527" y1="10.3065" x2="10.4141" y2="10.3498" gradientUnits="userSpaceOnUse">
<stop stopColor="#78D8FF"/>
<stop offset="1" stopColor="#4CE096"/>
</linearGradient>
<linearGradient id="paint11_linear" x1="12.8424" y1="14.1502" x2="12.831" y2="14.1823" gradientUnits="userSpaceOnUse">
<stop stopColor="#78D8FF"/>
<stop offset="1" stopColor="#4CE096"/>
</linearGradient>
<linearGradient id="paint12_linear" x1="10.213" y1="13.1309" x2="9.8737" y2="13.3647" gradientUnits="userSpaceOnUse">
<stop stopColor="#78D8FF"/>
<stop offset="1" stopColor="#4CE096"/>
</linearGradient>
<linearGradient id="paint13_linear" x1="10.7053" y1="13.6569" x2="10.4326" y2="13.9929" gradientUnits="userSpaceOnUse">
<stop stopColor="#78D8FF"/>
<stop offset="1" stopColor="#4CE096"/>
</linearGradient>
<linearGradient id="paint14_linear" x1="11.9916" y1="14.3099" x2="11.9909" y2="14.3269" gradientUnits="userSpaceOnUse">
<stop stopColor="#78D8FF"/>
<stop offset="1" stopColor="#4CE096"/>
</linearGradient>
<linearGradient id="paint15_linear" x1="11.3155" y1="14.0502" x2="11.1958" y2="14.3431" gradientUnits="userSpaceOnUse">
<stop stopColor="#78D8FF"/>
<stop offset="1" stopColor="#4CE096"/>
</linearGradient>
<linearGradient id="paint16_linear" x1="12.858" y1="9.76697" x2="12.7874" y2="10.0058" gradientUnits="userSpaceOnUse">
<stop stopColor="#78D8FF"/>
<stop offset="1" stopColor="#4CE096"/>
</linearGradient>
<linearGradient id="paint17_linear" x1="13.2185" y1="13.9556" x2="13.1921" y2="13.9994" gradientUnits="userSpaceOnUse">
<stop stopColor="#78D8FF"/>
<stop offset="1" stopColor="#4CE096"/>
</linearGradient>
<linearGradient id="paint18_linear" x1="14.1953" y1="12.6402" x2="14.1824" y2="12.6435" gradientUnits="userSpaceOnUse">
<stop stopColor="#78D8FF"/>
<stop offset="1" stopColor="#4CE096"/>
</linearGradient>
<linearGradient id="paint19_linear" x1="14.0945" y1="10.7253" x2="13.7665" y2="10.9075" gradientUnits="userSpaceOnUse">
<stop stopColor="#78D8FF"/>
<stop offset="1" stopColor="#4CE096"/>
</linearGradient>
<linearGradient id="paint20_linear" x1="12.186" y1="9.72473" x2="12.1854" y2="9.74165" gradientUnits="userSpaceOnUse">
<stop stopColor="#78D8FF"/>
<stop offset="1" stopColor="#4CE096"/>
</linearGradient>
<linearGradient id="paint21_linear" x1="13.7465" y1="9.99396" x2="13.2038" y2="10.6638" gradientUnits="userSpaceOnUse">
<stop stopColor="#78D8FF"/>
<stop offset="1" stopColor="#4CE096"/>
</linearGradient>
<linearGradient id="paint22_linear" x1="11.1676" y1="9.87488" x2="11.1561" y2="9.90721" gradientUnits="userSpaceOnUse">
<stop stopColor="#78D8FF"/>
<stop offset="1" stopColor="#4CE096"/>
</linearGradient>
<linearGradient id="paint23_linear" x1="11.5744" y1="9.76288" x2="11.5726" y2="9.77574" gradientUnits="userSpaceOnUse">
<stop stopColor="#78D8FF"/>
<stop offset="1" stopColor="#4CE096"/>
</linearGradient>
<linearGradient id="paint24_linear" x1="14.046" y1="13.0311" x2="14.0144" y2="13.0465" gradientUnits="userSpaceOnUse">
<stop stopColor="#78D8FF"/>
<stop offset="1" stopColor="#4CE096"/>
</linearGradient>
<linearGradient id="paint25_linear" x1="10.79" y1="10.058" x2="10.7637" y2="10.1017" gradientUnits="userSpaceOnUse">
<stop stopColor="#78D8FF"/>
<stop offset="1" stopColor="#4CE096"/>
</linearGradient>
<linearGradient id="paint26_linear" x1="18.1989" y1="5.81635" x2="5.78749" y2="18.2553" gradientUnits="userSpaceOnUse">
<stop stopColor="#78D8FF"/>
<stop offset="1" stopColor="#4CE096"/>
</linearGradient>
<linearGradient id="paint27_linear" x1="14.027" y1="13.0716" x2="13.7424" y2="13.2512" gradientUnits="userSpaceOnUse">
<stop stopColor="#78D8FF"/>
<stop offset="1" stopColor="#4CE096"/>
</linearGradient>
<linearGradient id="paint28_linear" x1="13.508" y1="13.7376" x2="13.2988" y2="14.0158" gradientUnits="userSpaceOnUse">
<stop stopColor="#78D8FF"/>
<stop offset="1" stopColor="#4CE096"/>
</linearGradient>
<linearGradient id="paint29_linear" x1="13.7969" y1="13.4304" x2="13.5301" y2="13.6767" gradientUnits="userSpaceOnUse">
<stop stopColor="#78D8FF"/>
<stop offset="1" stopColor="#4CE096"/>
</linearGradient>
<linearGradient id="paint30_linear" x1="14.2728" y1="12.2276" x2="14.1232" y2="12.2557" gradientUnits="userSpaceOnUse">
<stop stopColor="#78D8FF"/>
<stop offset="1" stopColor="#4CE096"/>
</linearGradient>
<linearGradient id="paint31_linear" x1="14.1888" y1="12.6683" x2="13.941" y2="12.7663" gradientUnits="userSpaceOnUse">
<stop stopColor="#78D8FF"/>
<stop offset="1" stopColor="#4CE096"/>
</linearGradient>
<linearGradient id="paint32_linear" x1="11.5287" y1="9.77026" x2="11.4741" y2="9.9613" gradientUnits="userSpaceOnUse">
<stop stopColor="#78D8FF"/>
<stop offset="1" stopColor="#4CE096"/>
</linearGradient>
<linearGradient id="paint33_linear" x1="11.1165" y1="9.89404" x2="10.986" y2="10.1552" gradientUnits="userSpaceOnUse">
<stop stopColor="#78D8FF"/>
<stop offset="1" stopColor="#4CE096"/>
</linearGradient>
<linearGradient id="paint34_linear" x1="10.4098" y1="10.3455" x2="10.1431" y2="10.5919" gradientUnits="userSpaceOnUse">
<stop stopColor="#78D8FF"/>
<stop offset="1" stopColor="#4CE096"/>
</linearGradient>
<linearGradient id="paint35_linear" x1="10.7414" y1="10.0884" x2="10.5322" y2="10.3666" gradientUnits="userSpaceOnUse">
<stop stopColor="#78D8FF"/>
<stop offset="1" stopColor="#4CE096"/>
</linearGradient>
<linearGradient id="paint36_linear" x1="11.9678" y1="9.72559" x2="11.9611" y2="9.79819" gradientUnits="userSpaceOnUse">
<stop stopColor="#78D8FF"/>
<stop offset="1" stopColor="#4CE096"/>
</linearGradient>
<linearGradient id="paint37_linear" x1="9.76386" y1="11.4037" x2="9.59316" y2="11.4266" gradientUnits="userSpaceOnUse">
<stop stopColor="#78D8FF"/>
<stop offset="1" stopColor="#4CE096"/>
</linearGradient>
<linearGradient id="paint38_linear" x1="13.1688" y1="13.986" x2="13.0384" y2="14.2471" gradientUnits="userSpaceOnUse">
<stop stopColor="#78D8FF"/>
<stop offset="1" stopColor="#4CE096"/>
</linearGradient>
<linearGradient id="paint39_linear" x1="12.3854" y1="14.2812" x2="12.3787" y2="14.3538" gradientUnits="userSpaceOnUse">
<stop stopColor="#78D8FF"/>
<stop offset="1" stopColor="#4CE096"/>
</linearGradient>
<linearGradient id="paint40_linear" x1="12.7917" y1="14.1692" x2="12.737" y2="14.3604" gradientUnits="userSpaceOnUse">
<stop stopColor="#78D8FF"/>
<stop offset="1" stopColor="#4CE096"/>
</linearGradient>
<linearGradient id="paint41_linear" x1="9.91371" y1="11.0128" x2="9.66594" y2="11.1107" gradientUnits="userSpaceOnUse">
<stop stopColor="#78D8FF"/>
<stop offset="1" stopColor="#4CE096"/>
</linearGradient>
<linearGradient id="paint42_linear" x1="10.1314" y1="10.6568" x2="9.84677" y2="10.8364" gradientUnits="userSpaceOnUse">
<stop stopColor="#78D8FF"/>
<stop offset="1" stopColor="#4CE096"/>
</linearGradient>
</defs>
</svg>
