<svg xmlns="http://www.w3.org/2000/svg" width="367.641" height="264.498" viewBox="0 0 367.641 264.498"><g transform="translate(0 0)"><path d="M462.195,609.605q-28.415-4.162-54.654-7.175l6.917-11.193c-2.332-.689-12.578,5.692-12.578,5.692l9.08-32.542c-11.728,1.13-17.7,34.373-17.7,34.373l-13.1-11.309,6.342,12.676c-53.538-5.526-99.776-7.7-138.667-7.948l5.92-9.58c-2.332-.689-12.578,5.692-12.578,5.692l9.08-32.542c-11.728,1.13-17.7,34.373-17.7,34.373l-13.1-11.309,6.717,13.425c-32.6.4-59.193,2.135-79.715,4.165,5.989-14.939,26.328-29.08,26.328-29.08-15.532,3.8-23.68,10.238-27.938,16.26a223.248,223.248,0,0,1,18.131-90.591s-32.111,58.337-28.021,97.614l.489,6.973c-27.216,3.137-40.9,6.468-40.9,6.468Z" transform="translate(-94.554 -345.107)" fill="#3f3d56"/><path d="M427.561,96.952V332.689a10.6,10.6,0,0,1-10.594,10.587h-95.7a10.576,10.576,0,0,1-10.594-10.587V96.952a10.593,10.593,0,0,1,10.595-10.594h14.321v1.837a8.724,8.724,0,0,0,8.722,8.725h48.674a8.652,8.652,0,0,0,5.172-1.7,8.105,8.105,0,0,0,.858-.72,8.7,8.7,0,0,0,2.691-6.3V86.358h15.264A10.591,10.591,0,0,1,427.561,96.952Z" transform="translate(-232.073 -86.358)" fill="#3f3d56"/><circle cx="2.546" cy="2.546" r="2.546" transform="translate(102.713 36.732)" fill="#f2f2f2"/><path d="M552.079,108.738a8.1,8.1,0,0,1-.858.72,45.55,45.55,0,0,0,29.407,21.89v-1.135a44.478,44.478,0,0,1-28.549-21.475Z" transform="translate(-385.14 -100.599)" fill="#00bfa6"/><path d="M491.684,115.4h-1.193a66.069,66.069,0,0,0,51.493,41.114v-1.127a64.935,64.935,0,0,1-50.3-39.987Z" transform="translate(-346.497 -104.837)" fill="#00bfa6"/><path d="M431.34,115.4h-1.149a87.112,87.112,0,0,0,73.423,62.233v-1.109A86,86,0,0,1,431.34,115.4Z" transform="translate(-308.127 -104.837)" fill="#00bfa6"/><path d="M263.881,158.663h-.663V158h-.129v.663h-.663v.129h.663v.663h.129v-.663h.663Z" transform="translate(-166.987 -100.539)" fill="#f2f2f2"/><path d="M386.881,67.663h-.663V67h-.129v.663h-.663v.129h.663v.663h.129v-.663h.663Z" transform="translate(-245.254 -42.633)" fill="#f2f2f2"/><path d="M281.881,230.663h-.663V230h-.129v.663h-.663v.129h.663v.663h.129v-.663h.663Z" transform="translate(-178.441 -146.354)" fill="#f2f2f2"/><path d="M365.881,177.663h-.663V177h-.129v.663h-.663v.129h.663v.663h.129v-.663h.663Z" transform="translate(-231.892 -112.629)" fill="#f2f2f2"/><path d="M485.881,210.663h-.663V210h-.129v.663h-.663v.129h.663v.663h.129v-.663h.663Z" transform="translate(-308.25 -133.627)" fill="#f2f2f2"/><circle cx="1.455" cy="1.455" r="1.455" transform="translate(168.539 44.005)" fill="#ff6584"/><path d="M417.236,305.158l-.826.127c.258,1.651.462,3.339.611,5.008l.833-.073C417.705,308.529,417.5,306.827,417.236,305.158Z" transform="translate(-299.358 -225.585)" fill="#e6e6e6"/><path d="M411.071,277.818l-.8.244c.484,1.6.916,3.24,1.284,4.873l.818-.185C412,281.1,411.558,279.44,411.071,277.818Z" transform="translate(-295.451 -208.188)" fill="#e6e6e6"/><path d="M401.231,251.6l-.76.349c.7,1.524,1.353,3.088,1.946,4.651l.782-.295C402.6,254.722,401.94,253.136,401.231,251.6Z" transform="translate(-289.215 -191.504)" fill="#e6e6e6"/><path d="M387.926,227.018l-.706.447c.9,1.411,1.76,2.873,2.56,4.339l.735-.4C389.708,229.92,388.835,228.444,387.926,227.018Z" transform="translate(-280.784 -175.863)" fill="#e6e6e6"/><path d="M371.387,204.488l-.636.542c1.084,1.273,2.138,2.6,3.135,3.95l.669-.5C373.551,207.121,372.485,205.775,371.387,204.488Z" transform="translate(-270.304 -161.527)" fill="#e6e6e6"/><path d="M351.947,184.428l-.556.622c1.251,1.117,2.477,2.291,3.644,3.488l.6-.586C354.453,186.741,353.213,185.555,351.947,184.428Z" transform="translate(-257.984 -148.762)" fill="#e6e6e6"/><path d="M329.98,167.208l-.469.691c1.389.935,2.764,1.931,4.084,2.96l.516-.658C332.773,169.161,331.384,168.154,329.98,167.208Z" transform="translate(-244.062 -137.804)" fill="#e6e6e6"/><path d="M310.671,155.248v.946c.869.455,1.731.931,2.575,1.418l.418-.724Q312.191,156.037,310.671,155.248Z" transform="translate(-232.074 -130.194)" fill="#e6e6e6"/><path d="M418.161,516.843c.136-.813.26-1.644.369-2.468l.829.11c-.11.833-.236,1.673-.373,2.495Z" transform="translate(-300.472 -358.714)" fill="#e6e6e6"/><path d="M411.752,539.628l.8.249c.5-1.616.955-3.272,1.348-4.921l-.814-.193C412.7,536.4,412.25,538.03,411.752,539.628Z" transform="translate(-296.394 -371.687)" fill="#e6e6e6"/><path d="M401.71,565.863l.759.356c.721-1.53,1.4-3.107,2.009-4.686l-.78-.3C403.093,562.79,402.425,564.35,401.71,565.863Z" transform="translate(-290.004 -388.528)" fill="#e6e6e6"/><path d="M388.2,590.644l.7.455c.925-1.418,1.812-2.888,2.638-4.368l-.729-.409C389.994,587.786,389.114,589.239,388.2,590.644Z" transform="translate(-281.406 -404.496)" fill="#e6e6e6"/><path d="M371.482,613.486l.634.549c1.113-1.283,2.191-2.618,3.214-3.968l-.67-.5C373.652,610.9,372.584,612.219,371.482,613.486Z" transform="translate(-270.769 -419.286)" fill="#e6e6e6"/><path d="M351.908,633.949l.551.629c1.279-1.116,2.529-2.293,3.724-3.488l-.591-.592C354.41,631.68,353.17,632.841,351.908,633.949Z" transform="translate(-258.313 -432.605)" fill="#e6e6e6"/><path d="M329.855,651.674l.462.7c1.412-.932,2.814-1.926,4.16-2.95l-.506-.668C332.638,649.771,331.253,650.753,329.855,651.674Z" transform="translate(-244.281 -444.223)" fill="#e6e6e6"/><path d="M313.758,664.742c-1.011.571-2.044,1.124-3.088,1.648v-.938c.9-.458,1.8-.942,2.673-1.433Z" transform="translate(-232.074 -453.935)" fill="#e6e6e6"/><path d="M418.836,333.437l.836-.015c.015.844.016,1.693,0,2.523l-.836-.013C418.852,335.111,418.851,334.272,418.836,333.437Z" transform="translate(-300.901 -243.57)" fill="#e6e6e6"/><path d="M226.216,301.632h85.541a24,24,0,0,1,24,24v3.177H250.219a24,24,0,0,1-24-24v-3.177Z" transform="translate(-143.946 -191.934)" fill="#fff"/><path d="M471.7,629.6c-.083-.136-2.051-3.422-2.734-10.246-.626-6.26-.223-16.812,5.249-31.53,10.367-27.884-2.389-50.382-2.519-50.606l.629-.365a55.851,55.851,0,0,1,5.269,14.927,65.121,65.121,0,0,1-2.7,36.3c-10.349,27.836-2.655,41.013-2.576,41.143Z" transform="translate(-332.66 -373.019)" fill="#f2f2f2"/><circle cx="4.728" cy="4.728" r="4.728" transform="translate(130.259 153.109)" fill="#00bfa6"/><circle cx="4.728" cy="4.728" r="4.728" transform="translate(145.17 170.566)" fill="#f2f2f2"/><circle cx="4.728" cy="4.728" r="4.728" transform="translate(134.987 182.203)" fill="#00bfa6"/><circle cx="4.728" cy="4.728" r="4.728" transform="translate(147.352 192.023)" fill="#00bfa6"/><circle cx="4.728" cy="4.728" r="4.728" transform="translate(131.35 207.297)" fill="#f2f2f2"/><path d="M483.4,756.724s-4.728-11.638,9.456-20.366Z" transform="translate(-341.504 -499.966)" fill="#f2f2f2"/><path d="M435.833,770.308s-2.152-12.376-18.805-12.27Z" transform="translate(-299.75 -513.762)" fill="#f2f2f2"/><circle cx="29.094" cy="29.094" r="29.094" transform="translate(88.166 94.193)" fill="#00bfa6" opacity="0.2"/><circle cx="20.489" cy="20.489" r="20.489" transform="translate(96.771 102.798)" fill="#00bfa6" opacity="0.2"/><circle cx="13.523" cy="13.523" r="13.523" transform="translate(103.737 109.765)" fill="#00bfa6"/><path d="M415.137,413.035a2.459,2.459,0,1,0-4.012,1.905l-.905,6.339h4.917l-.905-6.339A2.453,2.453,0,0,0,415.137,413.035Z" transform="translate(-295.419 -292.664)" fill="#fff"/><path d="M701.6,136.285s-8.111-7.272-19.018,6.433-27.968,20.417-31.884,25.731c0,0,16.222-6.712,21.815-9.509s5.314-2.237,5.314-2.237-7.551,5.314-8.95,10.628-.28,9.789-2.8,15.1,48.105,3.636,48.105,3.636,5.034-8.67,3.636-17.62S717.262,137.4,701.6,136.285Z" transform="translate(-448.439 -116.901)" fill="#2f2e41"/><path d="M729.1,202.56s1.764,12.346-5.795,15.117-4.787,6.551-4.787,6.551l11.338,5.543,12.094-3.779,4.031-6.047s-6.551-1.512-4.787-6.047,2.268-6.047,2.268-6.047Z" transform="translate(-491.277 -160.3)" fill="#ffb9b9"/><path d="M729.1,202.56s1.764,12.346-5.795,15.117-4.787,6.551-4.787,6.551l11.338,5.543,12.094-3.779,4.031-6.047s-6.551-1.512-4.787-6.047,2.268-6.047,2.268-6.047Z" transform="translate(-491.277 -160.3)" opacity="0.1"/><path d="M817.7,299.551s-1.764,23.18-1.26,24.188,0,36.029,0,36.029,3.527,18.9-1.008,19.9-3.527-21.164-3.527-21.164l-4.535-29.227.5-28.975Z" transform="translate(-548.131 -222.017)" fill="#ffb9b9"/><path d="M817.7,299.551s-1.764,23.18-1.26,24.188,0,36.029,0,36.029,3.527,18.9-1.008,19.9-3.527-21.164-3.527-21.164l-4.535-29.227.5-28.975Z" transform="translate(-548.131 -222.017)" opacity="0.1"/><path d="M686.56,491.454s-8.315,31.494-8.063,46.863,3.527,36.785,3.527,36.785.5,9.322-.252,10.33,3.779,5.291,3.779,5.291l4.787-2.772,1.764-2.016v-1.764s-2.772-8.566-.5-15.369,3.527-23.936,1.26-29.227l15.621-46.36Z" transform="translate(-466.125 -344.129)" fill="#ffb9b9"/><path d="M670.421,748.46s-3.023-3.779-5.039-2.519-5.291,9.826-5.291,9.826S648.753,766.6,656.815,767.1s11.59-2.268,12.6-4.283,10.33-7.307,10.33-7.307-1.008-9.574-2.52-9.826-3.779,3.779-3.779,3.779Z" transform="translate(-450.49 -505.896)" fill="#2f2e41"/><path d="M770.019,483.771v31.242a96.625,96.625,0,0,0,.756,11.338c.756,5.543-4.283,46.863-4.283,46.863l.5,7.307,6.3-.5.756-6.3L783.12,546s3.023-16.881,1.512-23.18,7.811-46.611,7.811-46.611Z" transform="translate(-522.122 -334.43)" fill="#ffb9b9"/><path d="M761.4,753.123l1.866-.406s1.409-3.122,3.173-2.366a19.018,19.018,0,0,1,3.507,2.1l.776,1.426a30.116,30.116,0,0,0,4.031,6.3c2.268,2.52,4.787,8.063,1.008,8.567s-8.818.756-10.33-.5-.5-3.275-2.016-3.779-2.771-2.016-2.52-2.52S761.4,753.123,761.4,753.123Z" transform="translate(-518.538 -508.795)" fill="#2f2e41"/><circle cx="11.198" cy="11.198" r="11.198" transform="translate(236.699 28.543)" fill="#ffb9b9"/><path d="M718,247.637l3.328-1.162s-1.312,2.17,5.742,3.43,14.361,1.706,17.636-2.423c0,0,1.26-.6,3.024,1.163s2.771,1.26,2.771,1.26l-1.26,6.551-2.52,12.094-3.275,9.07-9.322-2.016L724.043,268.3l-3.779-9.826V249.4Z" transform="translate(-491.263 -188.244)" fill="#00bfa6"/><path d="M726.693,252.806l2.52-1.764s8.566,1.512,9.07,5.543l-6.551,12.6a14.342,14.342,0,0,1-.252,10.834c-2.52,5.795-2.268,7.055-2.268,7.055l-1.764,7.559-32,2.52a22.664,22.664,0,0,0-1.764-3.527c-.5-.5-.5-2.268,0-2.268s0-.756-.5-1.512-.756-1.008,0-2.016-1.26-10.078-1.26-10.078v-9.826l-8.566-11.338s3.023-4.535,4.535-5.039,8.7-2.491,8.7-2.491l1.627,2.4,2.268,18.236,3.275,11.086,13.791-2.343,5.357-8.995,3.527-10.582Z" transform="translate(-469.221 -189.885)" fill="#00bfa6"/><path d="M817.809,265.6l2.016,1.512s1.764,14.109,1.26,15.117-9.322,2.016-9.574,1.512S817.809,265.6,817.809,265.6Z" transform="translate(-550.764 -200.416)" fill="#00bfa6"/><path d="M702.624,244.443l2.52,16.629s-2.268,24.691-1.764,29.731l.5,1.512s-1.008-.5-1.26.5a23.566,23.566,0,0,0,0,4.283s-1.512,1.512-2.016,9.826-6.551,28.219-4.283,28.975,15.873,4.535,23.18,3.779,33.51-9.574,33.258-11.842-12.85-34.266-12.85-34.266a33.1,33.1,0,0,1-2.267-4.283c0-.5,3.023-2.52,2.268-4.535s-4.787-23.18-4.787-23.18l2.772-15.117-3.779-1.008-2.771,14.613s-10.834,5.291-22.172.5l-2.52-17.133Z" transform="translate(-477.151 -186.309)" fill="#2f2e41"/><path d="M747.864,164.718s18.645,12.85,23.684,7.055-8.818-10.834-8.818-10.834l-11.59-1.26Z" transform="translate(-510.269 -133.014)" fill="#2f2e41"/><path d="M591.664,518.405a9.829,9.829,0,1,0-3.084-3.827l-25.715,21.411-3.424-4.064-1.538,1.029-1.712-2.032,1.407-1.185-1.712-2.032-2.188,1.844,1.054,1.25-2.344,1.975-1.054-1.25-3.438,2.9,1.58,1.875,1.25-1.054,1.712,2.032-1.563,1.317,3.16,3.751L550.3,545.5l3.819,4.532Zm6.42-14.362a6.5,6.5,0,1,1-7.033,5.926A6.5,6.5,0,0,1,598.084,504.043Z" transform="translate(-383.037 -350.006)" fill="#00bfa6"/><path d="M678.424,307.864s1.764,23.18,1.26,24.188,0,36.029,0,36.029-3.527,18.9,1.008,19.9,3.527-21.164,3.527-21.164l4.535-29.227-.5-28.975Z" transform="translate(-466.053 -227.307)" fill="#ffb9b9"/><path d="M680.224,267.682l-2.016.756s-3.779,15.873-2.771,15.873,13.1,1.512,13.1,1.008-2.268-12.85-2.268-12.85Z" transform="translate(-464.073 -201.738)" fill="#00bfa6"/></g></svg>