<svg id="Layer_1" data-name="Layer 1" xmlns="http://www.w3.org/2000/svg" viewBox="0 0 384.13 384.17"><defs><style>.cls-1{fill:#fefefe;}.cls-2{fill:#283035;}.cls-3{fill:#389583;}.cls-4{fill:#f8f0f5;}.cls-5{fill:#283137;}.cls-6{fill:#293237;}.cls-7{fill:#2a373b;}.cls-8{fill:#3a9887;}.cls-9{fill:#293539;}.cls-10{fill:#fbc5de;}.cls-11{fill:#37887a;}.cls-12{fill:#37897a;}.cls-13{fill:#f9e6ef;}.cls-14{fill:#368476;}.cls-15{fill:#389080;}.cls-16{fill:#367f73;}.cls-17{fill:#388d7d;}.cls-18{fill:#2a363b;}.cls-19{fill:#f9ebf2;}.cls-20{fill:#2a3c3f;}.cls-21{fill:#2b393d;}.cls-22{fill:#388b7c;}.cls-23{fill:#2f5b57;}.cls-24{fill:#388f80;}.cls-25{fill:#31655f;}.cls-26{fill:#fad3e5;}.cls-27{fill:#30605b;}.cls-28{fill:#34736a;}.cls-29{fill:#326a63;}.cls-30{fill:#2e5351;}.cls-31{fill:#336f67;}.cls-32{fill:#2e4949;}.cls-33{fill:#2e4f4e;}.cls-34{fill:#2c4042;}.cls-35{fill:#305754;}.cls-36{fill:#34776d;}.cls-37{fill:#2d4c4b;}.cls-38{fill:#358477;}.cls-39{fill:#2b3c3f;}.cls-40{fill:#347a6f;}.cls-41{fill:#fad9e8;}.cls-42{fill:#368175;}.cls-43{fill:#f9deeb;}.cls-44{fill:#f9e1ed;}.cls-45{fill:#facfe3;}.cls-46{fill:#facbe1;}.cls-47{fill:#377e73;}.cls-48{fill:#fac8e0;}.cls-49{fill:#fac5de;}.cls-50{fill:#fabcd9;}.cls-51{fill:#379281;}.cls-52{fill:#fbcee3;}.cls-53{fill:#fbbdd9;}.cls-54{fill:#fbbdda;}.cls-55{fill:#fbcae1;}.cls-56{fill:#192123;}.cls-57{fill:#389282;}.cls-58{fill:#fbf4f8;}.cls-59{fill:#f7ebf2;}.cls-60{fill:#fce3ef;}.cls-61{fill:#f9c9df;}.cls-62{fill:#f9cae0;}.cls-63{fill:#fabeda;}.cls-64{fill:#fbf3f7;}.cls-65{fill:#fcf1f6;}.cls-66{fill:#fce6f0;}.cls-67{fill:#fce8f1;}.cls-68{fill:#fceaf3;}.cls-69{fill:#2d4547;}.cls-70{fill:#2b4244;}.cls-71{fill:#fcedf4;}.cls-72{fill:#fceef5;}.cls-73{fill:#1fc8a7;}.cls-74{fill:#198889;}.cls-75{fill:#67fce1;}.cls-76{fill:#67fde1;}.cls-77{fill:#f8e5ef;}.cls-78{fill:#f9d8e8;}.cls-79{fill:#f8dfeb;}.cls-80{fill:#f9d1e4;}.cls-81{fill:#f8fafa;}.cls-82{fill:#1a8888;}.cls-83{fill:#5ce8d1;}.cls-84{fill:#5bdfca;}.cls-85{fill:#fcf1f7;}.cls-86{fill:#fc017a;}.cls-87{fill:#fb3494;}.cls-88{fill:#fce7f1;}.cls-89{fill:#fce6f1;}.cls-90{fill:#fce5f0;}.cls-91{fill:#fc027a;}.cls-92{fill:#fc037b;}.cls-93{fill:#fc88c0;}.cls-94{fill:#fc1b87;}.cls-95{fill:#fc0c80;}.cls-96{fill:#fc0e81;}.cls-97{fill:#fb3f99;}.cls-98{fill:#fc76b6;}.cls-99{fill:#a4e8db;}.cls-100{fill:#e3f0f0;}.cls-101{fill:#a3e7da;}.cls-102{fill:#fceff6;}.cls-103{fill:#fc4fa2;}.cls-104{fill:#fb4ea1;}.cls-105{fill:#fbbada;}.cls-106{fill:#fcd9ea;}.cls-107{fill:#fce0ed;}.cls-108{fill:#fc3997;}.cls-109{fill:#fc55a5;}.cls-110{fill:#fb65ae;}.cls-111{fill:#fc0c7f;}.cls-112{fill:#fc3f99;}.cls-113{fill:#fc3896;}.cls-114{fill:#eaf8f6;}.cls-115{fill:#fc8cc1;}.cls-116{fill:#fc0d80;}.cls-117{fill:#fc54a5;}</style></defs><title>uni-logo</title><path class="cls-1" d="M498.75,396.73q0,94.29.06,188.58c0,2.7-.42,3.52-3.37,3.52q-188.78-.14-377.53,0c-2.79,0-3.23-.68-3.23-3.3q.12-188.76,0-377.53c0-2.53.3-3.34,3.18-3.34q189,.15,377.91,0c2.63,0,3,.6,3,3.1Q498.69,302.25,498.75,396.73Z" transform="translate(-114.68 -204.66)"/><path class="cls-2" d="M213,281.36a129.3,129.3,0,0,1,42.62-24.15c6.77-1,13.29-3.12,19.85-5,2.68-.76,5.43-.74,8.07-1.47a1.83,1.83,0,0,1,2.3.79,2.12,2.12,0,0,1-.92,2.62,59.11,59.11,0,0,1-7.21,4.71c-1.7,1-2,2.05-.8,3.57-.22,1.89-1.89,1.81-3.1,2.11a135,135,0,0,0-60.08,32.63,4.44,4.44,0,0,1-2.87,1.6c-1.77-.69-3.42-.1-5.07.49s-3,1.3-4.46,1.93-3.17,1.8-4.33-.08.51-3,1.61-4.15C203.5,291.82,209,287.23,213,281.36Z" transform="translate(-114.68 -204.66)"/><path class="cls-3" d="M342,540.67c-9.43,2.92-19.16,3.94-28.95,4.34-5.42.22-10.88.6-16.29-.39,2.29-1.75,5-1.81,7.7-2,3.2-.17,6.42.13,9.6-.39,9.88,1,17.79-3.85,25.64-8.73,3.68-2.27,7.92-3.79,10.63-7.46,4-2.78,8.82-4,13.23-6a137.9,137.9,0,0,0,29.6-18.74,11.42,11.42,0,0,1,4.09-2.55,15.52,15.52,0,0,0,6.92-2.66c4.38-2.91,9.31-4.93,13.57-7.89A42.6,42.6,0,0,0,431,474.39a3.45,3.45,0,0,1,.85-.67,1.33,1.33,0,0,1,1.49.28,111.12,111.12,0,0,1-17,22.52c-5,4.43-10.64,8.11-15.63,12.65-7.62,6.95-17.51,10.43-26.13,15.91-7,4.48-14.14,9-22.2,11.43A80.72,80.72,0,0,0,342,540.67Z" transform="translate(-114.68 -204.66)"/><path class="cls-4" d="M353.09,255.08c2.19-.08,2.86-2,3.57-3.42,7.33-14.9,18.8-25.63,33.47-33A38.29,38.29,0,0,1,402,214.5c-.69,1.23-5.36,5.63-7.14,7.16-.41.36,1.11.55,1.31,1.27-2.2,2.7-5.6,3.49-8.44,5.16a64.55,64.55,0,0,0-31.35,48.41,6.67,6.67,0,0,1-1.05,3.17c-2.26,1-4,3.18-6.74,3.12a2.57,2.57,0,0,1-.26-1.09,30.9,30.9,0,0,0,.13-5.18,32,32,0,0,1,1-8.33C350.51,263.78,352.36,259.58,353.09,255.08Z" transform="translate(-114.68 -204.66)"/><path class="cls-5" d="M213,281.36a16.42,16.42,0,0,1-5.6,8.18c-3.22,2.61-5.49,6.09-8.71,8.66-.82.66-2,1.56-1.06,2.78.81,1.06,1.86.14,2.68-.3a47.49,47.49,0,0,1,8-3.25c1.22-.38,2.22-.66,2.45,1.07.46,1.67-.86,2.49-1.77,3.39A116.1,116.1,0,0,0,194.22,320c-.77,1.12-1.25,2.82-3.21,2.53-1.88-1.75-3.64-.73-5.43.19-1.29.67-2.7,1.78-4.07.51s-.93-3-.2-4.48c.87-1.77,1.38-3.7,2.38-5.41A128.74,128.74,0,0,1,213,281.36Z" transform="translate(-114.68 -204.66)"/><path class="cls-6" d="M276.76,262.5c-.79-.73-2.58-.3-2.64-1.62s1.47-1.8,2.52-2.46c3.07-1.93,6.12-3.91,9.17-5.88l-.44-1.06a50.51,50.51,0,0,0-7,.9q-9.07,2.38-18,5.24c-1.78.57-3.12-.7-4.72-.41a116.93,116.93,0,0,1,36.5-8.29c1.65-.52,3.34-.2,5-.28,2.94.69,5.94.22,8.91.38,1,0,2.12,0,2.42,1.25s-.51,1.89-1.35,2.45c-2,1.3-4.06,2.4-6,3.73a8,8,0,0,0-3.35,3.85c-4.69,1.8-9.75,1.45-14.59,2.45C281.1,263.18,278.83,264.22,276.76,262.5Z" transform="translate(-114.68 -204.66)"/><path class="cls-7" d="M297.76,249l-5.61-.11c9.49-1.44,19-1,28.51-.29a103.38,103.38,0,0,1,16.85,2.69c2.3,1.87,5.36,1.88,7.89,3.2,4,2.06,4.21,3.52.71,6.07-1.62,1.19-2.72,2.92-4.49,3.92a92.28,92.28,0,0,1-19.2-3.62c-.19-.15-.36-.35-.55-.49-4.05-2.95-4.05-2.94.2-6.07.67-.49,1.77-.81,1.58-1.85s-1.33-1-2.11-1.27c-1.27-.5-2.54-1.18-4-.93C310.87,251.44,304.42,248.6,297.76,249Z" transform="translate(-114.68 -204.66)"/><path class="cls-8" d="M342,540.67c2.95-4,7.89-3.89,11.87-5.76,3.66-1.72,7.64-2.89,11.05-5,9.43-5.83,19-11.42,28.79-16.58,5.19-2.73,8.71-7.72,13.49-11,2.95-2,5.68-4.5,9.11-5.81-13.15,15.1-29.1,26.45-47.16,34.88C360.45,535.46,351.52,539,342,540.67Z" transform="translate(-114.68 -204.66)"/><path class="cls-9" d="M183.69,313.34c-.35,2.13-.49,4.3-1.76,6.2a2.58,2.58,0,0,0,0,3.13c1.07,1.22,1.92-.14,2.84-.6a20,20,0,0,1,3.68-1.69c1.63-.44,3-.11,2.84,2.1a2.9,2.9,0,0,1-.28,2.17c-2.76,4.72-5.3,9.55-7.86,14.38a2.06,2.06,0,0,1-1.46,1.06c-1.81-1.48-3.63-2.31-5.82-.55a2.25,2.25,0,0,1-3.09,0,3.17,3.17,0,0,1-.59-3.83c1.09-2.38,1.55-4.95,2.57-7.33A74.32,74.32,0,0,1,183.69,313.34Z" transform="translate(-114.68 -204.66)"/><path class="cls-10" d="M465.09,342.07c-1.57,2.11-3.83,3.26-6.11,4.4-2.34-1.62.95-2.09.67-3.45-2.58.78-2.2,3.59-3.63,5.05-2,2.3-5.43,2.19-7.53,4.36a1.91,1.91,0,0,1-2,.61,3.68,3.68,0,0,1-1.87-1.1,16.25,16.25,0,0,0-.78-4.94c6.31-3.36,12.4-7.12,18.71-10.47,1.27,1.71,2.93-.52,4.24.76.26-1.5-1-1.9-1.25-2.82,2-4.6,6.14-7.29,9.42-10.75,1,.11,1.22-.55,1.27-1.38a2.37,2.37,0,0,1,.92-.47,2.34,2.34,0,0,1,2.92,2,4.43,4.43,0,0,1-.28,2.69,12.22,12.22,0,0,0-1.24,2.76c-3.27,4.23-6.43,8.57-11.26,11.23C466.16,340.5,464.74,340.06,465.09,342.07Z" transform="translate(-114.68 -204.66)"/><path class="cls-11" d="M452.3,424.5c-.73,7.28-3,14.15-5.44,21a3.14,3.14,0,0,0-1.36,1.72c-1.49,6-6.69,8-11.34,10.49a4,4,0,0,1-4.59-.11,2,2,0,0,1-.2-1.78c2.08-5.13,3.69-10.46,6.64-15.21,7.6-1.84,12.31-6.6,14.28-14.13C450.57,425.39,450.66,424.18,452.3,424.5Z" transform="translate(-114.68 -204.66)"/><path class="cls-12" d="M278.86,542.32a72.17,72.17,0,0,1-17.93-4.53c.73-1.68,2.28-1.64,3.52-1.24,5.77,1.85,10.15-1,14.49-4a8.21,8.21,0,0,1,4.81-1.81c10.37,1.45,20.8,1.56,31.24,1.43a5.57,5.57,0,0,1,3.57.85c-.67,2-.67,2-4.67,2.14-4-.17-7.94,0-11.9-.07a12,12,0,0,0-7,2C290.07,540.18,285.16,543.41,278.86,542.32Z" transform="translate(-114.68 -204.66)"/><path class="cls-13" d="M428.25,212.25a57.87,57.87,0,0,1,28.5,9,25.42,25.42,0,0,1-3.23,5.51c-3.89-1-7-3.9-11-4.49-6.6-1.29-13-3.53-19.74-4.16-1.33-.68-1.36-1.93-1.3-3.17a2.62,2.62,0,0,1,1.65-2.61c1.46-.57,1.92.48,2.51,1.43a2.19,2.19,0,0,0,1,.89C424.49,212.16,427.65,213,428.25,212.25Z" transform="translate(-114.68 -204.66)"/><path class="cls-14" d="M282.81,531.73c-3.42.83-5.83,3.47-8.9,5-2.47,1.22-4.56,1.82-7.27,1.14-1.79-.45-3.8-1.27-5.71-.05A74.3,74.3,0,0,1,243.69,531c1.35-1.23,2.87-.61,4.18-.12,6,2.21,11.35,1.14,16.41-2.45a5.78,5.78,0,0,1,3-1.29c4.85.45,9.4,2.24,14.16,3.09C282.18,530.38,282.86,530.77,282.81,531.73Z" transform="translate(-114.68 -204.66)"/><path class="cls-15" d="M313.5,534c1.74-.32,3.68.68,5.25-.78,3.46-2.68,7.44-2.49,11.45-2.09,1.89,1.61.43,2.53-.77,3.41A85.07,85.07,0,0,1,315,543a7.61,7.61,0,0,1-4.66.74,71.71,71.71,0,0,0-13.58.88c-3.19,0-6.41.19-9.5-.92-.09-1.32,1-1.47,1.74-1.34,2.41.42,4.71-.45,7-.43a10.83,10.83,0,0,0,5.94-1.82C305.69,537.86,309.37,535.5,313.5,534Z" transform="translate(-114.68 -204.66)"/><path class="cls-16" d="M267.07,528c-1.25.75-2.52,1.48-3.75,2.25-4.83,3-9.85,4-15.3,1.65a21,21,0,0,0-4.33-.85,60.09,60.09,0,0,1-12.79-6.73c3.22-1.57,6,.7,8.8,1.44a8.51,8.51,0,0,0,7-1c2-1.11,3.69-3.12,6.35-2.82,4.17,1,8,3,12.16,4.14C266.06,526.33,267.12,526.66,267.07,528Z" transform="translate(-114.68 -204.66)"/><path class="cls-17" d="M429.6,457.45a17.78,17.78,0,0,0,13.62-7.68c1.07-1.5,1.11-4,3.64-4.27A63.44,63.44,0,0,1,442,457.56a35.76,35.76,0,0,1-16.38,14.81c-1.62.76-3.25,2.12-5,.23.52-4.38,3.9-7.3,5.72-11C427,460,427.36,457.89,429.6,457.45Z" transform="translate(-114.68 -204.66)"/><path class="cls-18" d="M174.72,328.42c-.58,2.36.32,5-1.71,7.17a2.76,2.76,0,0,0,0,3.41c1.38,1.41,2.21-.22,3.14-.74,2.36-1.33,4.24-1.43,5.35,1.49.52,4.56-1.78,8.13-4.1,11.7-2,.87-4.17,1.47-6.23,2.29-2.83,1.12-4,.15-4.29-2.95s1.47-5.91,1.78-9A57.21,57.21,0,0,1,174.72,328.42Z" transform="translate(-114.68 -204.66)"/><path class="cls-19" d="M428.25,212.25c-1.35,1-1.32.95-.37,2,.3.32.65.92.54,1.24-.29.83-1,.4-1.49.17-.22-.09-.39-.4-.6-.41-1.53-.08-1.33-3.08-3.17-2.13s-.63,2.91-.91,4.4c-1.48,1.5-3.58.73-5.27,1.47-5.87.12-11.47,1.6-17,3.29-1.26.38-2.53,1.09-3.94.49-2.7.22-2.27-1.79-2.89-3.32,2-.3,1.89,1.27,2.89,2.49.6-4,3.22-5.79,6-7.42C410.62,212.28,419.28,210.4,428.25,212.25Z" transform="translate(-114.68 -204.66)"/><path class="cls-20" d="M160.43,371.05a33.79,33.79,0,0,1,2.23-10.46c2.09.47.65,4,3.29,3.89,1.81-.07,3.1-1.48,4.68-2.18,2.21-1,3.31-.14,3.52,2.16-.44,5-1.83,9.88-2.3,14.89a2.12,2.12,0,0,1-1.13,1.78c-1.57-1.68-3.07-2-5.38-.88-3.69,1.78-5.43.37-4.91-3.67C160.67,374.71,159.92,372.89,160.43,371.05Z" transform="translate(-114.68 -204.66)"/><path class="cls-21" d="M173.25,363.76c-.12-.59-.15-1.38-1-1.22a6.39,6.39,0,0,0-2,.91c-5.78,3.45-5.78,3.46-7.61-2.86a71.92,71.92,0,0,1,6-18.75c1,3.21-1.21,6.08-.93,9.31.21,2.53,1,2.84,2.93,1.89a15.71,15.71,0,0,1,6.34-2C177.85,354.2,175.57,361.94,173.25,363.76Z" transform="translate(-114.68 -204.66)"/><path class="cls-22" d="M313.5,534c-4.21,3.71-9.31,6.19-14.24,8.48a14.09,14.09,0,0,1-9.26.76c-1-.29-1.95-.5-2.74.44a26.41,26.41,0,0,1-8.4-1.38c7-.58,12.66-4.25,18.4-7.87,2-1.26,4.62-.36,6.95-.42C307.31,533.94,310.41,534,313.5,534Z" transform="translate(-114.68 -204.66)"/><path class="cls-23" d="M176.89,468.79a47.74,47.74,0,0,1-5.29-10.51,2.74,2.74,0,0,1,3.56,1c1.79,2.17,3.52,1.61,5.42.27,1.27-.89,2.51-2.16,4.27-.92,2.74,3.83,5.89,7.44,6.62,12.35a2.06,2.06,0,0,1-.56.47C183.51,475.33,182.41,475.13,176.89,468.79Z" transform="translate(-114.68 -204.66)"/><path class="cls-24" d="M420.84,472.51c1.57.72,2.79-.14,4.13-.8,6.47-3.24,12-7.54,16-13.67.17-.26.65-.33,1-.48-.63,1.82-1.1,3.73-2.5,5.18a51.73,51.73,0,0,0-4.41,7.64,7.5,7.5,0,0,1-3,3.62c-4.24,5.35-10.76,7.22-16.29,10.59-1.32.8-2.86,1.54-4.57.9-.18-.19-.4-.47-.3-.62C413.7,480.37,416.22,475.58,420.84,472.51Z" transform="translate(-114.68 -204.66)"/><path class="cls-25" d="M192.87,492a53,53,0,0,1-8.45-11.19,1.91,1.91,0,0,1,2.13-.1c3.48,2.39,6.93,2.11,10.46.2a2.64,2.64,0,0,1,1.48-.08,20.84,20.84,0,0,1,8.07,8.87C203.25,495.4,199.11,496.09,192.87,492Z" transform="translate(-114.68 -204.66)"/><path class="cls-26" d="M487.53,255c4.07,6.69,5.35,14.15,6,21.78-1.74.8-3.07,3-5.47,1.62a4.66,4.66,0,0,1-1.13-1.8c-1.18-6.25-2.55-12.45-5.17-18.29a8.54,8.54,0,0,1-.33-1.58c-.39-3.47,1.26-6.43,3.86-6.95h0c.51,1,.66,2.17,1.5,3h0a.84.84,0,0,1,0,1C485.18,255.37,487,254.72,487.53,255Z" transform="translate(-114.68 -204.66)"/><path class="cls-27" d="M198.79,481.48c-.37,0-.84-.11-1.09.08-4.66,3.39-9,1.46-13.28-.79a54.28,54.28,0,0,1-7.53-12,13.17,13.17,0,0,1,1.77,1.26c3.27,3.17,6.72,4.41,10.59,1,.72-.63,1.35-.33,2-.09C195,473.65,197.82,476.9,198.79,481.48Z" transform="translate(-114.68 -204.66)"/><path class="cls-28" d="M451.53,364.42a62.08,62.08,0,0,1,2.17,12.09,37.6,37.6,0,0,1,0,9.12c-.11,1.54-.53,2.94-1.92,3.32-6.94,1.92-7.43,7.07-6.72,12.9a13.61,13.61,0,0,1-.23,4.46c-.23.85-.34,2.1-1.85,1.5-1-1.42-.89-3.08-.89-4.68,0-6.36-.06-12.71,0-19.06-.19-3.23,1.06-5.44,4.25-6.6,3.46-1.26,4.57-3.93,4-7.48C450.09,368,449.72,366,451.53,364.42Z" transform="translate(-114.68 -204.66)"/><path class="cls-29" d="M192.87,492c1.46.45,3,.42,4.29,1.65,1.55,1.47,3.25.36,4.63-.64s3.32-1.59,4.37-3.21c3.82,2.8,7.91,5.32,10.08,9.81-5,5.54-10.58,6.15-15.46.86a15.8,15.8,0,0,0-3.14-3.08A22.72,22.72,0,0,1,192.87,492Z" transform="translate(-114.68 -204.66)"/><path class="cls-29" d="M446.26,352.52l2.23-.09.78,3.07a23.48,23.48,0,0,0,.47,6.21,5.31,5.31,0,0,1-2.64,6,20.71,20.71,0,0,0-5.66,5.17,1.39,1.39,0,0,1-1-1c-1-5.46-3.26-10.63-3.53-16.24C439.47,353,442.87,352.8,446.26,352.52Z" transform="translate(-114.68 -204.66)"/><path class="cls-28" d="M219.69,516.9a65,65,0,0,1-12.17-9.82,1.59,1.59,0,0,1,2.34-.07c5.21,3.95,9.61,2.34,13.68-1.88,3.94,2.16,8.21,3.89,10.66,8C230.28,518.42,227.31,519.19,219.69,516.9Z" transform="translate(-114.68 -204.66)"/><path class="cls-30" d="M167.06,447.07a24.56,24.56,0,0,1-2.74-8.32c.19-.19.5-.42.63-.31,3.36,3,6.91,2.3,10.54.59.3-.14.72.1,1.06.26a21.81,21.81,0,0,1,4.38,11.47c-2.14,1.26-4.63,1.62-6.9,2.59s-3.76-.64-4.73-2.53C168.63,449.52,168.32,448,167.06,447.07Z" transform="translate(-114.68 -204.66)"/><path class="cls-31" d="M223.41,505.52c-.65,2.66-5.72,5.24-8.55,4.76s-4.65-2.71-7.34-3.2a55.15,55.15,0,0,1-9.88-9.73,3.37,3.37,0,0,1,2.16,1.33c6.71,6.71,9.71,5.26,16.08.83C218.94,500.83,222.2,501.89,223.41,505.52Z" transform="translate(-114.68 -204.66)"/><path class="cls-31" d="M441.73,372.8c.07-1.34-.33-3.1,1.28-3.6,6.21-1.9,6.25-6.65,5.67-11.74-.09-.79-.17-1.47.59-2a38.67,38.67,0,0,1,2.26,8.92,23.81,23.81,0,0,0-.13,5.48c.74,5.27,0,6.55-5.16,8.77-2.31,1-3.46,2.14-3,4.64C441,381.23,440.25,376.21,441.73,372.8Z" transform="translate(-114.68 -204.66)"/><path class="cls-32" d="M159.78,417.76c-2.32-12-2.22-24-.83-36.12,1.73,1.91,1,4.26,1.16,6.44-.06.85-.07,1.69-.08,2.54-.31,5.31.3,10.62.1,15.94-.17,4.54,1.59,5.67,5.93,4.49,1.42-.39,2.85-1,4.34-.26,2.31,3,1.82,6.55,1.95,10-2.76.61-5.47,1.74-8.16,2.21C161.11,423.51,160.4,420.27,159.78,417.76Z" transform="translate(-114.68 -204.66)"/><path class="cls-33" d="M176.25,439.5a1.82,1.82,0,0,0-.72.11c-4,2.85-7.72,2.7-11.21-.86-1.63-3.58-2.22-7.43-3-11.23,3.56,3,7.36,3.23,11.4,1.05.26-.14.69.19,1,.4C175.59,432.24,177.37,435.53,176.25,439.5Z" transform="translate(-114.68 -204.66)"/><path class="cls-34" d="M159,388.51q0-3.43-.07-6.87a40.34,40.34,0,0,1,1.48-10.59,13.18,13.18,0,0,1,.74,6.59c-.6,3,1,2.83,3,2.25a15.72,15.72,0,0,0,2.34-1.13c3.66-1.79,3.66-1.79,3.78,2.25,1.51,2.13,1.31,4.32.24,6.54-2.41.27-4.08,2.07-6.16,3C161.3,392,160.47,391.65,159,388.51Z" transform="translate(-114.68 -204.66)"/><path class="cls-35" d="M167.06,447.07c1.89,0,2.29,1.53,2.8,2.87,1,2.65,2.68,4,5.24,2,1.78-1.34,3.64-1.22,5.59-1.22,2.63,2.11,4.18,4.73,3.8,8.24-2.05-1.16-2.81,1-4,1.74-2.31,1.42-4.21,2-5.79-.77-.71-1.25-2.1-1.08-3.11-1.69A42.84,42.84,0,0,1,167.06,447.07Z" transform="translate(-114.68 -204.66)"/><path class="cls-36" d="M219.69,516.9c.6-.85,1.41-.37,2-.15,5.06,1.94,8.7-.62,12.18-3.74a12,12,0,0,1,9.3,5.27c-1.85,2.46-4.61,3.79-7.16,5.25s-4.95-.6-7.47-.7A38.82,38.82,0,0,1,219.69,516.9Z" transform="translate(-114.68 -204.66)"/><path class="cls-37" d="M173.26,429a1.87,1.87,0,0,0-.73.11c-4.2,2.81-8.11,3.62-11.17-1.59a36.34,36.34,0,0,1-1.58-9.76c.28.52.53,1.07.85,1.58,1.57,2.5,3.13,4.48,6.3,1.68,1.43-1.27,3.51-2.63,4.8.48C173.77,423.69,174.72,426.1,173.26,429Z" transform="translate(-114.68 -204.66)"/><path class="cls-36" d="M444,401.26a12.85,12.85,0,0,0,0-2.24c-1-5.29.85-8.73,6.22-10.34,2.35-.71,4-6,3.31-9.47-.19-.95-.87-1.86.18-2.7a32.33,32.33,0,0,1,.87,9.55c.66,3.41-.34,6.79-.2,10.19C451.5,399.1,448.68,402.08,444,401.26Z" transform="translate(-114.68 -204.66)"/><path class="cls-38" d="M452.3,424.5c-1.18,2.59-2.41,5.16-3.52,7.78-2.32,5.46-6.83,7.77-12.32,8.71-1.06-4.14,1.17-7.51,2.57-11.07,5.07-.5,9.34-2.09,11-7.59a2.15,2.15,0,0,1,2.91-1.58A7,7,0,0,1,452.3,424.5Z" transform="translate(-114.68 -204.66)"/><path class="cls-39" d="M342,264c.32-2.65,2.65-3.47,4.43-4.69,2.05-1.41,1.69-2.13-.21-3.41-2.76-1.86-6.74-1.32-8.71-4.58l15.58,3.76a1.94,1.94,0,0,1,.67,2.57c-1.21,3.38-2.31,6.8-3.46,10.2C347.55,266.54,344.05,266.83,342,264Z" transform="translate(-114.68 -204.66)"/><path class="cls-40" d="M228.54,522.83c1.73,0,3.26-.57,5.22.24,2.4,1,3.93-2.3,6.21-3.09,1.07-.37,1.69-1.78,3.09-1.76a11.62,11.62,0,0,1,9.7,4.52c-3.36.41-5.5,3.2-8.45,4.44-1.1.46-1.85.9-3.05.22-3.2-1.81-6.93-2-10.36-3.11C229.73,524.42,229.11,523.67,228.54,522.83Z" transform="translate(-114.68 -204.66)"/><path class="cls-41" d="M485.25,249.75c-1.62,2-3.57,3.8-3,6.75-2.37-.09-2.1-2.41-3.06-3.68s-1.78-2.68-2.65-4c-.69-1-1-2.14-1.76-3.07-1.49-1.67-3-3.3-3.31-5.67a26.5,26.5,0,0,1,3.29-4.57C479.3,239.46,482.43,244.49,485.25,249.75Z" transform="translate(-114.68 -204.66)"/><path class="cls-42" d="M453,420.75a3.62,3.62,0,0,0-2.54,2.87c-.88,4.66-5.14,5.35-8.45,7.17-1.32.72-1.68-.51-2.39-1-1.21-1.94-.1-3.6.64-5.3,1.46-2.32,3.92-3.32,6.06-4.79,3.74-2.56,7.24-5.43,6.32-10.8a3.35,3.35,0,0,1,.11-1.05c.42-.74.67-1.75,1.9-1.29C454.59,411.32,454.4,416.11,453,420.75Z" transform="translate(-114.68 -204.66)"/><path class="cls-43" d="M474.76,235.47c.19,2.3-1.35,3.46-3,4.53-.74.43-1.3,0-1.87-.39-1.9-1.64-3.44-3.69-5.6-5.06a7.33,7.33,0,0,1-2.48-2.9c-.3-1.31-2.35-2.48-.84-3.89,1.27-1.18,3-.67,4.57,0a17.47,17.47,0,0,1,3.23,1.78C471.12,231.13,473.39,232.85,474.76,235.47Z" transform="translate(-114.68 -204.66)"/><path class="cls-10" d="M489.06,310.52A41.19,41.19,0,0,1,482.24,324a7,7,0,0,1-2-2.91c-.44-1.14-1.35-2.07-1.43-3.36a25.63,25.63,0,0,1,5.59-10.61c1.94.95,1.94.95,1,3.53C486.55,308.86,487.8,309.4,489.06,310.52Z" transform="translate(-114.68 -204.66)"/><path class="cls-44" d="M468.76,229.49c-2.53-.35-4.81-2.16-7.61-1.28-.12,1.47,1.86,2,1.6,3.54-3.74.32-5.53-3.07-8.41-4.4a2.65,2.65,0,0,1-.59-.85,5.88,5.88,0,0,1,3-5.25A33.72,33.72,0,0,1,468.76,229.49Z" transform="translate(-114.68 -204.66)"/><path class="cls-45" d="M488.25,278.25c.53-1,3.9,1.89,2.7-2.05-.26-.84,1.6.55,2.54.55.35,4.5,1.74,9,0,13.51a2.11,2.11,0,0,1-1.29.65c-1.31.07-2.69-.2-3.12-1.47-.49-1.46,1.33-1.41,1.95-2.16-1.83.82-3,.11-3.61-1.7C487.24,283.08,486.51,280.53,488.25,278.25Z" transform="translate(-114.68 -204.66)"/><path class="cls-46" d="M488.26,286.5a9,9,0,0,1,1,.46c1.44.87,3.14-2.45,3.94-.17.42,1.18-2.7.8-3.57,2.34,1,1.34,2.51,1.07,3.9,1.13,0,1.24,0,2.49-.07,3.73-2.18.39-4.09,3.35-6.6.7A10.42,10.42,0,0,1,488.26,286.5Z" transform="translate(-114.68 -204.66)"/><path class="cls-47" d="M454.62,406.52,453,408c-1.85-3.89-.5-7.57.75-11.25-.42-3.61.65-7.12.82-10.69A83.87,83.87,0,0,1,454.62,406.52Z" transform="translate(-114.68 -204.66)"/><path class="cls-48" d="M487.5,295.5c2.11,0,3.52-2.78,6-1.51,0,.26,0,.52,0,.77-2.38,1.55-.32,4.15-1.43,6h0c-2.55,2.41-2.83,2.36-5.62-1a2.88,2.88,0,0,1-.11-1c.24-1,.61-1.9.91-2.85Z" transform="translate(-114.68 -204.66)"/><path class="cls-49" d="M489.06,310.52c-2.28.12-4.05-.52-4.58-3a1.69,1.69,0,0,1-.33-2c2.43.85,2.59-1.63,3.79-2.58a2.27,2.27,0,0,1,.89-.45c2.92.06,1,2.45,1.71,3.57A8.18,8.18,0,0,1,489.06,310.52Z" transform="translate(-114.68 -204.66)"/><path class="cls-50" d="M456,348.07c-.68-2.73,1.69-4.33,2.33-6.61l2.93,1.57c.16,1.78-3.06,1.24-2.3,3.44C458,347,457.27,348,456,348.07Z" transform="translate(-114.68 -204.66)"/><path class="cls-51" d="M432,474q2.63-4.5,5.24-9c.55-.94.78-2.19,2.21-2.27A51.62,51.62,0,0,1,433.33,474Z" transform="translate(-114.68 -204.66)"/><path class="cls-52" d="M490.54,306.05c-1.24-.65-.2-2.46-1.54-3.05-1-.5-2.23-.68-2.94-1.71a2.29,2.29,0,0,1-.46-.89c.06-.71.12-1.4,1.14-1.16,1.4,1.76,2.86,3.28,5.28,1.52A8.32,8.32,0,0,1,490.54,306.05Z" transform="translate(-114.68 -204.66)"/><path class="cls-53" d="M480.75,321a4.05,4.05,0,0,1,1.49,2.95c-1,.85-.74,2.57-2.21,3.07a.47.47,0,0,1-.77,0c0-1,0-2,0-3C480.75,323.5,478.31,321,480.75,321Z" transform="translate(-114.68 -204.66)"/><path class="cls-54" d="M465.09,342.07c-1-.59-2.16-1.29-.87-2.44s2.17,0,3,.88A2.53,2.53,0,0,1,465.09,342.07Z" transform="translate(-114.68 -204.66)"/><path class="cls-46" d="M492,300.76c0-1.61.49-3.46-2.1-3.88l3.53-2.12C492.64,296.68,493.26,299,492,300.76Z" transform="translate(-114.68 -204.66)"/><path class="cls-41" d="M487.53,255c-.76.26-1.39,1-2.34.63a4.5,4.5,0,0,1,1.56-2.85C487.61,253.28,487.47,254.16,487.53,255Z" transform="translate(-114.68 -204.66)"/><path class="cls-55" d="M479.26,327l.77,0a2.51,2.51,0,0,1-1.51,2.26C478.11,328.31,477.26,327.2,479.26,327Z" transform="translate(-114.68 -204.66)"/><path class="cls-41" d="M486.75,252.75c-1.36-.57-1.57-1.71-1.5-3A4.19,4.19,0,0,1,486.75,252.75Z" transform="translate(-114.68 -204.66)"/><path class="cls-56" d="M441,424.5q-.71,2.63-1.4,5.25Q438,435.38,436.46,441q-3.42,8.24-6.85,16.46l-8.77,15.05q-4.86,6.39-9.71,12.77a43,43,0,0,1-13.78,14.17c-7.91,6.2-15.89,12.27-24.73,17.17-7,3.87-14.37,6.67-21.63,9.83a41.74,41.74,0,0,1-20.26,5.23,72.11,72.11,0,0,0-12,1.57c-12,.26-24,.32-35.94-1.51L267.07,528l-14.31-5.23-9.7-4.52L233.87,513l-10.46-7.49-7.53-6-9.72-9.75-7.37-8.28L191.29,471q-3.4-6-6.8-12l-3.8-8.24-4.44-11.26a60.76,60.76,0,0,0-3-10.5c.08-2.62-1-5-1.53-7.5q-.75-5.25-1.49-10.5c-1.72-3.39-1.64-7.08-1.84-10.73,0-2.92-.14-5.85,0-8.77,0-1.33,0-2.71,1.14-3.73,1.44-2.12.43-4.51.74-6.76l3-17.25A94.32,94.32,0,0,0,177,351a57.33,57.33,0,0,0,4.5-11.25l9.73-17.27a173.28,173.28,0,0,1,19.5-24c8.16-7.3,16.56-14.27,26.07-19.82a137.57,137.57,0,0,1,38.31-15.42,8.9,8.9,0,0,0,1.63-.76l21-3a2.35,2.35,0,0,1,1.59-.89c7.78-.41,15.58-1,23.15,1.63L342,264c2.21.74,4.39,1.58,6.63,2.2a2,2,0,0,1,1.67,1.65c-.05,2.89-1.23,5.67-.88,8.6-.71,1.8.06,3.73-.52,5.53l0,.77a5.17,5.17,0,0,1,.93,3.49,80.11,80.11,0,0,0,2.48,17.51c2.21,8.88,6.64,16.68,11.91,24.05a54.87,54.87,0,0,0,6.9,7.86,73,73,0,0,0,24,15.57,69.69,69.69,0,0,0,18.17,4.32c2,.66,4,.37,6,.42,1.05,0,2.11-.06,3.16,0a70.6,70.6,0,0,0,11-.92c1.3-.16,2.69-.61,3.8.59q2.25,8.58,4.49,17.18a45.11,45.11,0,0,0,1.5,10.51l0,24.69c1.36,2.23-.15,4.53.2,6.79C442.9,418.1,442.51,421.45,441,424.5Z" transform="translate(-114.68 -204.66)"/><path class="cls-51" d="M397.35,499.44l13.78-14.17c6.77-2.61,13.31-5.63,18.91-10.38a7.78,7.78,0,0,1,2-.89,58.31,58.31,0,0,1-8.77,10.78C417,491,408.68,493.32,402,498.37A5.93,5.93,0,0,1,397.35,499.44Z" transform="translate(-114.68 -204.66)"/><path class="cls-57" d="M330.73,531.67,351,526.44c-1,2.79-3.63,3.58-5.84,4.91-5.32,3.22-10.39,7-16,9.51A24.4,24.4,0,0,1,315,543c4-4.07,9.69-5.59,14-9.21C329.73,533.17,330.79,532.91,330.73,531.67Z" transform="translate(-114.68 -204.66)"/><path class="cls-58" d="M396,222.75c6.75-2.65,13.58-4.94,21-4.5.42-.36,1-.5,1.32-.08a1.09,1.09,0,0,1-.61,1.77c-3.3.54-3.35,2.27-2.88,5.19.41,2.56-1.43,4.93-3.18,6.93a1.6,1.6,0,0,1-2.31.42,1.36,1.36,0,0,1-.45-2c1.36-2.09.52-4.33.45-6.65-.57,2.87-2,4.69-4.89,5.51-1.37.39-1,2.36-1.09,3.7s-.93,2.78-2.31,1.91c-2.54-1.58-1.89,1-1.79,1.43.84,3.87-2.29,4.49-4.57,5.74-.79.43-1.72.47-2.1-.72,0-.1-.1-.62-.17-.33-1.07,4.13-3,1.65-5.25.13,1.17,1,1.58,1.6,1.5,2.43a1.7,1.7,0,0,1-1.37.66,2.87,2.87,0,0,1-1.71-.63c-.21-.4.4-.21-.09-.16-.21,0-.17.25.11.35,1.81,1.9,4.19,3.27,5,6a13.21,13.21,0,0,1-.64,3.58c-1.12,3.4-1.21,7.29-5.77,8.67-2.32.7-4.5,2.34-4,5.61a8.4,8.4,0,0,1-.63,3.27c-.32,1-1,2.08-2.08,1.7-2.75-1-4.43,2-6.93,1.62-.51,3.44-3.58,6-3.48,9.62a4.85,4.85,0,0,1,.31,1c.07.63-.34,1.33-.22,1.8.51,1.88-3.19-.08-2.05,2.43.67,1.46-.08,3.19.12,4.8a4.4,4.4,0,0,1-.55,2.88c-1.34,2.16-2.44.69-3.95,0s-.75,3.33-3.14,2.3c-1.47-.63-.93-2.88-2.61-3.42-1.22-1.38-.48-2.66.2-3.95.79-.38.91-.63.46-.92a3.82,3.82,0,0,1-1.67-2.34c-.29-3-.87-6,.82-8.78,1.22-4.78,1.44-9.73,2.85-14.53a66.35,66.35,0,0,1,21.62-32.61C384.27,228.36,390.21,225.71,396,222.75Z" transform="translate(-114.68 -204.66)"/><path class="cls-59" d="M355.5,291.75c.53,1.25-1.34,2.5,0,3.75,1.36,2.7,2.61,5.43,2.74,8.52-2.08,1.26-4.06,3.93-6.49.48-2.59-7-3.13-14.34-2.88-21.75,1.68-1.55,3.23-3.35,5.88-3v9.75A3.4,3.4,0,0,1,355.5,291.75Z" transform="translate(-114.68 -204.66)"/><path class="cls-59" d="M348.9,282c-.1-1.87-.3-3.74.52-5.53C349.32,278.3,350.07,280.23,348.9,282Z" transform="translate(-114.68 -204.66)"/><path class="cls-59" d="M352,277.61l.67.86c-.25.14-.54.44-.75.39s-.44-.4-.65-.62Z" transform="translate(-114.68 -204.66)"/><path class="cls-9" d="M322.5,260.25a227,227,0,0,0-24.74-.74c-1.41-1.39.08-2,.83-2.56,2-1.43,4.15-2.66,6.22-4,1.1-.7,3.31-.94,3-2.32-.43-1.7-2.55-.63-3.91-.87-2-.36-4.21.71-6.1-.73,5.49-.43,10.95.93,16.35.53a20.44,20.44,0,0,1,9.27,1.12c.86.34,2.28.18,2.47,1.31.21,1.3-1.11,1.77-2,2.36s-1.7,1-2.5,1.63-2.24.48-2,1.81,1.41.5,2.18.67S322.44,259.49,322.5,260.25Z" transform="translate(-114.68 -204.66)"/><path class="cls-60" d="M484.51,305.26l0,2.23q-2.62,5.25-5.23,10.51a6.36,6.36,0,0,1-3,4.5h0c-.41.42-.15,1.18-.77,1.49l-9.74,10.5c-.48,1.44-1.22,2.53-3,2.28A78.29,78.29,0,0,1,444,347.26a7.07,7.07,0,0,1-3.73,2.22c-1.41.17-2.8.76-4.26.35a10.39,10.39,0,0,1-2.32-5.38c0-.37.15-.77-.06-1.11-2.21-3.52-2.21-4.52-.08-7.82.81-1.27.94-2.84,1.75-4.12.19-1.17-.82-1.68-1.34-2.46-.69-1-1.52-2.05-.15-3.17,1.39-.56,2.89,0,4.17-.36-1.9,0-4.12.69-5.41-1.73.4-1.46,1.52-1.48,2.66-1.21,2.64.62,3.81-1.22,5.06-2.93.66-.92.11-3.41,2.34-2.26,1.76.9,3.33,2.4,1.89,4.79-.17.28-.34.36-.26.4,1.79-.66.87-2.4,1.43-3.56.89-1.85,1.2-4.33,4.27-3.43.44.51.71,1.37,1.67.56a16.91,16.91,0,0,0,4.3-5.1c.54-1,.57-2.53,2.18-2.72.52.12,1.59.76,1.48.28-.67-2.75,1.08-3.75,3-4.19,2.34-.52,3.45,1.48,4.59,3.11a2.89,2.89,0,0,0,.48.64,4.37,4.37,0,0,0-.89-1.68c-.6-.94-2.47-1.35-1.52-2.93a4.2,4.2,0,0,1,3.83-1.91c.88,0,1.79.48,2.58.27,1.61-.43,3.24-1.27,1.52-3.19-2.29-2.54-.64-4.92,0-7.32.24-.83,7.79-1.54,8.5-.9,1.09,1,1.18,2-.3,2.55s-2.43,1.77-3.93,2c-.21,0-.35-.07-.37-.31-.14.23,0,.33.29.32,3.61-1.11,5-.53,6.9,3,.51,1,.69,2.12,1.64,2.83h0a2.1,2.1,0,0,1,.52,2A3.6,3.6,0,0,1,484.51,305.26Z" transform="translate(-114.68 -204.66)"/><path class="cls-61" d="M435.75,349.49c1.5-.22,2.91-1,4.5-.74,1.1,1.61,3.44,1.35,4.5,3a1.56,1.56,0,0,1,1.51.77c-2.8,1.64-6.08,1.86-9,3.1-5,.53-9.92,1.76-15,1.27-1.07-2.7-.08-4.76,2-6.49C428.06,349.91,431.8,348.34,435.75,349.49Z" transform="translate(-114.68 -204.66)"/><path class="cls-62" d="M444.75,351.75c-1.66-.76-4.49.23-4.5-3l3.75-1.49c.38,2.74,2-1.2,2.6.67C446.86,349.48,444.49,350,444.75,351.75Z" transform="translate(-114.68 -204.66)"/><path class="cls-63" d="M462.75,336.77l3-2.28c1,.43,1.92.91,2.2,2.17.08.39.7.75.32,1.22s-1.1.87-1.6.4c-1.87-1.75-3-.11-4.52,1.51C462.44,338.33,462.6,337.55,462.75,336.77Z" transform="translate(-114.68 -204.66)"/><path class="cls-55" d="M476.25,322.5a15.88,15.88,0,0,1,3-4.5c.8.84,1.81,1.59,1.5,3-1.51.5,1.06,3-1.5,3C479,322,477.42,322.65,476.25,322.5Z" transform="translate(-114.68 -204.66)"/><path class="cls-55" d="M475.48,324a1.61,1.61,0,0,1,.77-1.49c0,.88,1.8,1.33.8,2.33C476.34,325.53,476.13,324.08,475.48,324Z" transform="translate(-114.68 -204.66)"/><path class="cls-64" d="M388.5,243.75c-.13-.21-.27-.42-.38-.64-.57-1.13-3.62-1.29-1.84-3.13,1.6-1.66,2,.89,2.83,1.73,1.49,1.6,2.23,1.11,2.67-.76.15-.6.37-1.19.48-1.8.14-.86.62-1.56,1.46-1.17,1,.48.31,1.23-.11,1.82s-.68,1-.05,2.43c1.33-2.38,6.34-1,4.34-6.17-.36-.92,1.46-2.67,2.24-4,1.84.18-.53,3,1.66,2.46,1.79-.42,0-2.3.48-2.72,1.27-1-.85-5,3.18-3.76.29.08,3.21-.64,2.21-3-.92-2.13.58-2.95,2.11-2.89,1.92.07.87,1.53.66,2.54-.45,2.09,1.72,4.66-1.13,6.35a1.29,1.29,0,0,0,.3.9,1.17,1.17,0,0,0,1,.08c1.95-.9,4-6.87,2.87-8.85-1.33-2.42-.73-3.44,2-3.52.72,0,2.65.7,1.52-1.46,1.58-1.44,3.51-.46,5.25-.75,6.18-.4,11.87,1.87,17.73,3.26,1.07.25,2.18.33,3.27.5a1.91,1.91,0,0,1-2.06,2.42c-3-.86-6.65,1.93-8.91-1.85-1.41,2,1.17,4.5-1.13,6.07a3.21,3.21,0,0,1-4.11-.13c.36.86,1.35.72,2,1.12,1.26.78,1.43,1.66.11,2.57-.3.21-.86.24-1,.5-2.39,5.72-4.7.32-6.92.37,1.38,1,2.87,2.49,2.07,4.74-.68,1.88-2.47,1.2-4.07,1.3,2.09,3-2.26,4-2,6.55-2.66,1.82-5.56-.26-8.28.54-.7,0-1.4-.06-2.09-.11-2.56,1-3,3.93-5.58,5.59,2.17-.19,3.4.39,4.17,1.83a3.85,3.85,0,0,1,.26,1.64c-.45,2.1-1.87,2.78-3.85,2.64a2.06,2.06,0,0,1-.9-.58c0-1.92-1.14-2.45-2.83-2.33a8.71,8.71,0,0,1-4.08-3.26c-.48-1.13-.09-2.28-.06-3.4a1.11,1.11,0,0,0-.18-.6c-.31.23-.31.64-.47,1a1.53,1.53,0,0,1-1.2.79,4.84,4.84,0,0,1-3.43-2.33A2.68,2.68,0,0,1,388.5,243.75Z" transform="translate(-114.68 -204.66)"/><path class="cls-65" d="M417,244.5c-1-1.09-1.37-2.1.43-2.75.33-.12,1-.19,1-.31.17-2.66.89-4.7,4.21-4.17-.22-1.22.45-2.63-.93-3.62a11.3,11.3,0,0,1-2.06-2.14.88.88,0,0,1,.26-1.31,2.73,2.73,0,0,1,1-.17c.34,3,5.18.76,5,4.68-.18-2.8.83-4.2,4.14-3.91-2-2-4.59-2.21-5.19-4.58,1.41-.92,2,.15,2.68,1,1,1.3,2,.31,3,.06,1.75-.43.29-1.23.22-1.89-.13-1.19.3-2.38-.16-3.62-.32-.84.54-1.29,1.28-1.53s1.13.25,1.42.84c1,2,2,3.63,4.1,1,.27-.33,1.53-.43,1.68-.2,1.91,2.85,2.9.48,4.11-.64a48.14,48.14,0,0,1,10.5,5.24h.75a8.39,8.39,0,0,0,1.74,2.76,2.12,2.12,0,0,1,.25,2.68c-.66,1-1.47.56-2.25.24-1-.39-2.29.07-2.86-1.24-.4-.34.5-1.78-.94-1.2a7.16,7.16,0,0,0-1.74,1.35c-2.7,2.36-2.71,2.35-4.84-.75a6.18,6.18,0,0,1-3.7,4.51c-.42.94-1.27-1.94-1.22,0,.13,5.23-2.9,8.65-6.25,11.95a3,3,0,0,1-2.49.57c-2.23-.21-3.46,1-4.31,3,1.37-.42,1.24-3.72,3.45-2,1.87,1.5.82,3.11-.42,4.51a4.7,4.7,0,0,1-1.48,1.13c-4.58,2.33-7.2-.8-9.95-3.57a6.75,6.75,0,0,1-1.75-2.65C415,246.24,417.4,245.91,417,244.5Z" transform="translate(-114.68 -204.66)"/><path class="cls-66" d="M477,294.75c1.75-.8,2.76-2.81,5-3-1.1-.63-2-2.78-3.15-.29-.59,1.23-1.63.07-2.3.49-1,.66-2.07-2.08-2.49-.35-.53,2.14-2.71,4.52-.11,6.83.56.5,2.61,1.2,1.34,1.59-1.75.54-.68,4.89-4.17,2.67a4,4,0,0,0-5.52,1.45,5.11,5.11,0,0,1,.52.52c1.12,1.44,4.21,2.95,2.56,4.47-1.8,1.66-2.38-1.81-3.29-2.93-1.84-2.25-2.95-1.28-4.41.12-.89.86-.95.8.92,3-1.61-.11-3.39,2.2-3.77-1.22,0-.17-.05-.34-.07-.51-.17-2.86.68-5.72,0-8.56-.37-1.65,1.48-2.25,1.45-3.67,1.54-4.29.95-8.66.5-13,5.42-3.25,11.69-4.47,13.79.87-1.11-3.62,2.29-3,3.91-4.11.06-1.17-2-1.94-.6-3.27a3.09,3.09,0,0,1,4.08-.32c.75.43,1.89.48,2.28,1.17,1.42,2.49,2.67.71,4,0a1.56,1.56,0,0,1,.75,1.5q0,4.13,0,8.25c.17,3-1.24,5.94-.76,9h0c-.52.93,0,2.11-.74,3,0,.24,0,.49,0,.74a1.66,1.66,0,0,0-.76,1.51c-3.07.08-2.6-3.24-4.21-4.69-1.27-1.14-1.1-1.85-2.39-.2-.46.6-1.74-.32-2.38-1.11Z" transform="translate(-114.68 -204.66)"/><path class="cls-67" d="M487.5,276.75l-2.23,3.77c-.61-3.49-3.79-3.48-5.92-4.83-.34-.22-1.47.29-1.87.78-.75.91.12,1.25.87,1.43,1.39.35.4,1.09.28,1.65-.17.75-.33,1.34-1.46,1.13-2.15-.4-3.51.14-2.57,2.79.29.8.34,2-.83,2.08-1.52.11-.7-1.05-.77-1.82-.19-2-4.87-4.7-6.33-3.29-2,1.9-4.22.61-6.11,1.56-2.95-2.49-5.92-4.94-8.68-7.65-.21-1.78,1.17-2.1,2.37-2.59a4.33,4.33,0,0,1,1.08-.15c.95,0,1.82,1,2.81.31.36-.26.63.91.77,0,.44-2.59.9-3,3.06-2.94,3.32.15,1.32,2.47,1.62,3.85a3,3,0,0,0,.36.77c.23-1.18-.06-2.79,1.52-2.87s2.06,1.4,2.86,2.51c-1.95-3.37.74-6.08,1.06-9.08.45-4.06,3.16-5.09,6.16-5.34,2.26-.2,4.48-.5,6.71-.86C485.56,263.81,486.8,270.2,487.5,276.75Z" transform="translate(-114.68 -204.66)"/><path class="cls-68" d="M482.26,258c-.64,1.19-3.77.3-1.89,3.67-3.62-3.44-8.26-2.12-9.61,1.71-.64,1.83-1.17,3.71-1.88,5.47-.52,1.3-.89,2.06,0,3.27a1.74,1.74,0,0,1-1,2.91c-2.22.26,0-1.43-.53-1.83-.75-.56-.79-2.2-2-1.77-.89.32-.76,1.4-.33,2.28.25.52.74,1.09,0,1.74-2.77-1.11-2.67-3.2-1.59-5.65l-4.63.38c-.23,1.33,2.11.28,1.43,1.91-.47,1.14-1.58.44-1.74.57-1.36,1.12-2.2-.51-3.28-.43-1.47-2.85-2.54-5.93-4.74-8.38.09-.47-.7.27-.24.06.23,2.41-1.27,3.5-3.24,4.25a2.31,2.31,0,0,1-2-1.69,2.42,2.42,0,0,1,.61-2.51c2.19-.83,1.87-2.87,2.19-4.6a2.16,2.16,0,0,1,1.07-1.63c.74-.27,1.91.61,2.22-.84a1.75,1.75,0,0,1,2.47,1c1.44,3.93,4.12,5.58,8.13,4.7-1.37-.36-2.59-1.06-2.77-2.81.11-1.7,2.66-1.37,2.63-3.18.32-1.87-.82-4.13,1.46-5.47a2.6,2.6,0,0,1,.95-.23c.09-.28.89.61.51-.3-.1-.24-.58-.36-.84-.6-.64-.91-.52-1.63.52-2.13a9,9,0,0,1,3,.24c1.4.16,2.76,1,4.07-.63s.21-2.73-.34-4.05-1.58-2.63-.52-4.17l1.5.75c1.31,1.71,2,3.83,3.75,5.25-.05,1.27.13,2.43,1.5,3,2.47,2.3,3.32,5.62,5.25,8.26Z" transform="translate(-114.68 -204.66)"/><path class="cls-40" d="M442.55,414.73c-.29-2.3.43-4.49.71-6.73,1.5-2.11.39-4.51.76-6.74,3.83-.25,6.28-3.45,9.73-4.51.48,3.8-.89,7.47-.75,11.25a7.67,7.67,0,0,1-2.82,1.69C447.43,411.06,444.31,411.88,442.55,414.73Z" transform="translate(-114.68 -204.66)"/><path class="cls-69" d="M169.49,400.5c-.19,3.53,1.21,6.95.75,10.5-1.55.41-3.13.7-4.63,1.23-4.25,1.53-6.5.08-6.58-4.55-.1-5.64,0-11.29,0-16.93,2.57.78,1.61,3,1.69,4.6.26,4.87.25,5,4.83,3.52C167.47,398.25,168.64,398.81,169.49,400.5Z" transform="translate(-114.68 -204.66)"/><path class="cls-70" d="M169.49,400.5c-1.45-1.3-2.78-1.44-4.59-.31-3.58,2.24-5,1.26-5.19-3-.1-2.15.8-4.44-.7-6.45,0-.75,0-1.49,0-2.24,2.3,3.8,4.57,1.19,7,.17,1-.42,1.69-3.22,3.45-.91Q169.5,394.13,169.49,400.5Z" transform="translate(-114.68 -204.66)"/><path class="cls-71" d="M477,248.24c-2.24,1.46-1.4-1.35-2.38-1.85s.21-1,.88-1.14Z" transform="translate(-114.68 -204.66)"/><path class="cls-47" d="M442.55,414.73c1.61-5.15,6.47-5.25,10.45-6.73,1.55,4.64-.8,9.62-6,12.32A21.67,21.67,0,0,0,441,424.5,48.3,48.3,0,0,1,442.55,414.73Z" transform="translate(-114.68 -204.66)"/><path class="cls-72" d="M464.25,248.25q-1.15.75,0,1.5c.39.82-.16,1.17-.75,1.5-1.21.39-1.48-.63-1.88-1.33s-.82-1.6-2-1c-1.73.93-2.54.16-2.84-1.56-.16-.87-.63-1.38-1.58-1-.78.28-1.24.77-.93,1.7s2.08,2,.33,2.67a3.9,3.9,0,0,1-4.64-1.53c-.52-.73-.63-1.73-1.53-.37-1.08,1.41-1.11,3.16-1.61,4.75a1.16,1.16,0,0,0-.1,2c1.26,1.08.86,2.85,1.79,4-.18,1.74.56,4-2.38,4.17-1.67-7.79-8.25-8-14.19-9.2-1.52-.31-3.26.26-4.46-1.21.48-.57.94-1.16,1.44-1.72.87-1,1.24-2.21,0-2.85-1.84-.94-.75,1.24-1.44,1.67s-1,1.84-2.14,1.92c-.23,0-.66-.4-.72-.68a2.52,2.52,0,0,1,1-2.94c1.57-1.09,2.71-3,5.08-2.38,1.37.35,2.12-.1,2.16-1.64a1.57,1.57,0,0,1,.71-1.22c4.55-1.6,3.91-5.46,4.29-9,.07-.65-.4-2.63,1.25-2.59,2.09.05-.39,2.33,1.14,2.84l.51.13a15.83,15.83,0,0,1,2.21,8c0-.9-.36-2.24.69-2.33,2.71-.23,3.49-3.14,6.09-3.8,2.3-.58.8-3.51,1.42-5.3l.33-.41c1.1.67,2.81-1.42,3.61.82.12.34.65.19.86-.18a1.14,1.14,0,0,0,0-1.36c-.8-1.13-2.45-1.95-1.52-3.78l8.25,5.25A4.73,4.73,0,0,0,465,234c.25,1.89-.95,2.35-2.45,2.43-1.71.08-2.63,1.18-3.47,2.47-2.2,3.38-2.18,3.28,1.54,4.88C462.52,244.59,465.11,245.09,464.25,248.25Z" transform="translate(-114.68 -204.66)"/><path class="cls-71" d="M464.25,248.25c-.87-3.73-4.18-3.78-6.95-4.43-1.66-.39-2.48-.71-1-2.2,1.87-1.88,2-5.33,5-6,1.4-.33,3.1.5,3.72-1.58a21.64,21.64,0,0,1,5.25,5.25,12.43,12.43,0,0,0,1.89,4.71c.77,1.07,1.87,2.74.72,3.63s-2.33,3.18-4.76,1.63C467.07,248.57,465.44,249,464.25,248.25Z" transform="translate(-114.68 -204.66)"/><path class="cls-46" d="M486.76,298.5c.1-1-.36-2.21.74-3A2.12,2.12,0,0,1,486.76,298.5Z" transform="translate(-114.68 -204.66)"/><path class="cls-52" d="M484.51,305.26c.5-.75,1-1.51,1.48-2.26a5.07,5.07,0,0,1,2.26,0C487.1,306.69,486.61,307,484.51,305.26Z" transform="translate(-114.68 -204.66)"/><path class="cls-48" d="M488.25,303a2,2,0,0,1-2.26,0c0-.75,0-1.5,0-2.25,1.44.16,2,1.44,3,2.25Z" transform="translate(-114.68 -204.66)"/><path class="cls-73" d="M273.85,429.85c-2.7,3.88-5.78,4.51-10.47,2.16-3.77-12.52-6.8-25.23-10.24-37.84-2.37-8.64-4.84-17.26-6.9-26a23.64,23.64,0,0,1-.82-5.15c.12-.8.73-1.16,1.35-1.52,4.52-2.68,9.83-2.92,14.63-4.73,2.5.06,2.47,2.43,3.5,3.81,1.27-3.48,3.33-6.07,7.45-6.19a3.63,3.63,0,0,1,2,1.23c2.19,5.31,3.08,11,4.41,16.53,2.64,11,5.43,22,7.79,33,.1,2-.87,3.59-1.72,5.24A153.17,153.17,0,0,1,276.55,425C275.87,426.71,274.37,428,273.85,429.85Z" transform="translate(-114.68 -204.66)"/><path class="cls-73" d="M368,429.77a3.21,3.21,0,0,1-2,2.25c-9.73,4.12-20.23,5.39-30.36,8-12.47,3.19-25,6-37.57,8.94a11.82,11.82,0,0,1-4.42.63c-1.74-1.31-.63-2.73,0-3.92,7.74-13.83,15.27-27.78,23-41.61.61-1.1,1.26-2.18,2.63-2.48a4.87,4.87,0,0,1,2.81.88c13.77,7.56,27.5,15.19,41.42,22.48A18.51,18.51,0,0,1,366.7,427C367.59,427.69,367.38,428.94,368,429.77Z" transform="translate(-114.68 -204.66)"/><path class="cls-74" d="M293.19,449.17c24.22-6,48.46-11.86,72.84-17.15-10.1,7.06-20.87,13.06-31.33,19.55-15.65,9.73-31.38,19.32-47.1,28.94-4.8,2.95-7.93,2.61-11.64-1.13,1.7-5.63,5.32-10.28,7.91-15.47,2.14-4.31,4.66-8.44,7-12.65C291.4,450.33,291.75,449.12,293.19,449.17Z" transform="translate(-114.68 -204.66)"/><path class="cls-74" d="M273.7,355.47l-1.49-.46c-.8-1.15-2.26-.7-3.28-1.37-1.74-1.14-3.63-2.11-2.74-4.74q15.65-9.45,31.29-18.92c9.57-5.82,19.07-11.75,28.67-17.52,4.52-2.72,7.18-2.32,10.62,1.13.66.83.31,1.64-.12,2.41-5.07,9.07-10,18.23-15,27.3a4.1,4.1,0,0,1-1.56,1.56c-5.88,2.45-12.18,3.24-18.34,4.56-1.86.55-3.75,1-5.62,1.55-3.39.92-6.89,1.34-10.28,2.26C281.82,354.18,277.93,355.77,273.7,355.47Z" transform="translate(-114.68 -204.66)"/><path class="cls-75" d="M293.19,449.17,278.8,475.1a14.27,14.27,0,0,1-2.84,4.28c-2.68-2.76-1.64-5.88-1.2-9.13,1.86-13.84,9.24-25,16.88-36.14,13.86-20.29,27.28-40.88,40.9-61.34.55-.82,1.2-1.57,1.81-2.36,1-.35,1.23.4,1.46,1.1,0,2.15-1.5,3.85-1.87,5.89a26.82,26.82,0,0,0-4,6.38,91.61,91.61,0,0,0-4.71,8.73c-2.34,2.9-3,6.83-5.76,9.47-3.63,4.18-5.61,9.34-8.29,14.07-5.82,10.29-11.47,20.68-17.17,31A16.26,16.26,0,0,0,293.19,449.17Z" transform="translate(-114.68 -204.66)"/><path class="cls-75" d="M320.11,344.19q8.34-15.3,16.66-30.6c2.37,1.71,2.6,4.24,2.05,6.7-1.42,6.44-2.46,13.08-4.87,19.15-2,5-5.68,9.31-8.7,13.87q-23.56,35.49-47.17,70.92c-.41.62-.92,1.17-1.39,1.75-.68.16-1,0-.76-.78,2.66-5,5.35-10,8-15,.73-1.41,1.26-2.93,1.88-4.4,1.63-4.72,4.44-8.84,6.72-13.23a30.68,30.68,0,0,0,2-4.76c2.58-2.08,3.47-5.25,5.06-8,.81-1.39,1.38-2.91,2.17-4.31,1.88-2.58,3-5.55,4.54-8.33,3.33-5.42,6.32-11,9.41-16.6C317,348.34,318,345.89,320.11,344.19Z" transform="translate(-114.68 -204.66)"/><path class="cls-76" d="M368,429.77c-1.31-.21-1.27-1.23-1.32-2.19-1.9-1.84-2.22-4.34-2.83-6.71-.7-2.75-1.42-5.48-2.38-8.15-.86-4.49-2.38-8.82-3.47-13.25a73.09,73.09,0,0,0-2.7-10.39c-2.26-8.13-4.39-16.29-6.51-24.45-.34-1.28-1.09-2.59-.05-3.89a8.45,8.45,0,0,1,4.52,4.63q10,20.29,20.08,40.53a8.29,8.29,0,0,1,.54,6.53C372,418.22,370,424,368,429.77Z" transform="translate(-114.68 -204.66)"/><path class="cls-75" d="M245.42,363c2,3.12,2.19,6.83,3.12,10.29,5,18.63,10,37.3,14.91,55.95.25.93.95,1.85-.07,2.74a7,7,0,0,1-2.92-3.28q-10-20.26-20.12-40.5a10.43,10.43,0,0,1-.5-9C241.85,373.92,243.57,368.45,245.42,363Z" transform="translate(-114.68 -204.66)"/><path class="cls-73" d="M348.78,360.74q3.72,14.17,7.43,28.37c-.72,1-1.58.5-2.3.1-6.38-3.53-12.79-7-19.14-10.57a2.21,2.21,0,0,1-1.08-1.44c-1-2.2,1.16-3.45,1.55-5.22.86-3.74,3.05-6.76,5.22-9.79C342.74,358.9,345.7,359.47,348.78,360.74Z" transform="translate(-114.68 -204.66)"/><path class="cls-77" d="M351.75,304.5c.68-.27,1.28-.62,1.58.54.25,1,1.17.41,1.81.48-.45-3.71,1.81-.49,2.61-1,1.51.53,1.69,2,2.15,3.2a43.13,43.13,0,0,0,4.84,9.82,14.66,14.66,0,0,0,1.73,3,39.62,39.62,0,0,1,2.81,4.1,2.42,2.42,0,0,1,.17,1,2,2,0,0,1-.45.91c-1.85.34-2.34,4.36-5.22,1.93A59.44,59.44,0,0,1,351.75,304.5Z" transform="translate(-114.68 -204.66)"/><path class="cls-78" d="M394.47,351.76a61.31,61.31,0,0,1-24-15.75,1.45,1.45,0,0,1,2,0c2.71,2.53,6,1.92,9.17,1.74,2.15.49,3.81,1.9,5.68,2.92a58.74,58.74,0,0,0,8.29,4.41c2.33.83,4.89,1.06,6.93,2.64a1.42,1.42,0,0,1,.34,1c-1.25,1.18-3.06,1.33-3.95,3.42C398.16,354,396.08,351.38,394.47,351.76Z" transform="translate(-114.68 -204.66)"/><path class="cls-79" d="M381.75,338.25c-3.28.74-6.58,1.77-9.34-1.38-.42-.49-1.28-.58-1.94-.86a30.58,30.58,0,0,1-6.69-7.52c.78-.18,1.91,1.05,2.32-.66.36-1.52,1.63-1.61,2.9-1.58,1.07-.43,1.61.36,2.18,1a55.5,55.5,0,0,0,9.09,8.3C381.17,336.16,382.18,336.85,381.75,338.25Z" transform="translate(-114.68 -204.66)"/><path class="cls-80" d="M394.47,351.76a2.55,2.55,0,0,1,2.73.18c.57.29,1.46,1,1.36-.51-.25-3.5,2.32-2.53,4.19-2.68,1.48-1.28,3-.18,4.51-.13a9.14,9.14,0,0,1,1.15.27c2.09.93,4.77-.51,6.56,1.61.71,2.09-2.85,3.46-1,5.76a.88.88,0,0,1-1,.11A48.93,48.93,0,0,1,394.47,351.76Z" transform="translate(-114.68 -204.66)"/><path class="cls-81" d="M266.19,348.9c.45,2.32,2,3.51,4.07,4.39.7.3,2.48-.13,1.95,1.72-4,.58-5.89,3.32-7,6.91-2.07-1-1.54-3.74-3.36-4.77a5.44,5.44,0,0,1-5.07-2.48c3.35-1.79,7.15-3.12,7.55-7.67C265.83,347.17,265.37,348.57,266.19,348.9Z" transform="translate(-114.68 -204.66)"/><path class="cls-82" d="M256.73,354.67a14.88,14.88,0,0,1,5.07,2.48c-1.29,2-3.54,1.53-5.35,2.07-3.18.93-6.45,1.54-9.68,2.29C249.69,358.64,253.72,357.4,256.73,354.67Z" transform="translate(-114.68 -204.66)"/><path class="cls-80" d="M423.75,351l-1.5,5.88h-3a6.44,6.44,0,0,0-.7-.24c-1.26-.45-3.19,1-3.82-1.05-.68-2.18-.27-4.19,2.11-5.29C419.19,349.92,421.59,349.33,423.75,351Z" transform="translate(-114.68 -204.66)"/><path class="cls-83" d="M340.46,362.19a54.09,54.09,0,0,1-5.22,9.79,1.57,1.57,0,0,0-.89-1.57C336.06,367.43,337.51,364.25,340.46,362.19Z" transform="translate(-114.68 -204.66)"/><path class="cls-61" d="M416.25,351c-1.87,3.49-1.33,4.55,3,5.87-2.1.11-4.21.31-6.24-.51,0-2-.32-4.06,1.76-5.36A1,1,0,0,1,416.25,351Z" transform="translate(-114.68 -204.66)"/><path class="cls-84" d="M275.93,425.2l.76.78a7.18,7.18,0,0,1-2.84,3.87C273.11,427.66,275.09,426.68,275.93,425.2Z" transform="translate(-114.68 -204.66)"/><path class="cls-85" d="M364.5,318c-3.21-2.3-3.66-6.16-5.23-9.38-.63-1.31-1-2.74-1.52-4.12l-2.25-9c2.24-1,1.85.34,1.6,1.74-.13.75.17,1.63,1.14,1.49s.58-.9.43-1.51a1.72,1.72,0,0,1,1.3-2.3c.89-.25,1.34.31,1.58,1.14s.59,1.53,1.5,1.32a1.92,1.92,0,0,0,1.31-2,22.75,22.75,0,0,1,.11-5.83c.06-.3.11-.87-.45-.78s-1.43,1.11-1.42-.36c0-.68.89-1.63,1.5-1.4,3.19,1.22,2.31-1.31,2.65-2.72a3.71,3.71,0,0,0,.66-1.16,6.32,6.32,0,0,1-.66,1.16c-1.09-.06-1-.63-.86-1.51.31-1.8,1.66-3,2.29-4.64s1.26-3.46,1.88-5.2c2.37,1.9,3.08-.78,4.47-1.61.2-.12.55-.28.67-.19,2.6,1.89,3.75.75,3.88-2,.09-1.8,1.84-3.82-.79-5.58,3.75,1.06,4.77-4.25,8.36-3-.53-2.87,2.16-4.56,2.6-7.07a.86.86,0,0,1,.92-.21,8.56,8.56,0,0,1,2.44,2.61,1.68,1.68,0,0,1-.22,1.49c-.49.3-1.19.31-1.48,1.14a2.5,2.5,0,0,1,2.2-1,2,2,0,0,1,1.37,1.47,9.08,9.08,0,0,0,1.42,3.25,9.58,9.58,0,0,1,1.45,2.87c.14,1.77-.14,3.37-1.72,4.47-1.63.5-2.54-.55-3.69-2,.71,2.86-.31,5.28,0,7.77.17,1.5-.88,2-2.15,1.9-1.6-.07-3.2-.23-4.57.5.6.23,2-.35,1.82,1.5-.71,6-3.88,9.35-10.18,10.62.34.37-.33,0-.17.12,2.71,1.93,2,4.49-.24,5.18s-1.08,2-1.68,2.8c-1.19,1.65.05.86.82,1.05,1.74.43,4.41.36,3.66,3.29-.57,2.22-1.94,3.55-4.76,2.57-3.3-1.13-4.1-.3-4,3.32.06,1.37.37,2.89-.88,3.84s-2.33.28-3.38-1.35a5.3,5.3,0,0,0,2.82,3.88c1,.72,2.18,1.58,1.6,3s-1.94.85-3,1S365.41,319,364.5,318Z" transform="translate(-114.68 -204.66)"/><path class="cls-86" d="M395.18,269.23c1.48-1.17,1.46-2.82,1.44-4.48a1.51,1.51,0,0,1,.95-.38c1.44.26,2,1.89,3.38,2.21a2.4,2.4,0,0,0,2.7-.74c.63-.92-.12-1.64-.73-2.25-2.19-2.2-4.19-4.64-6.69-6.48a24.35,24.35,0,0,1-6.26-7.27l-5.14-6.22c-.24-.65,0-.82.61-.58l1.45.75a5.18,5.18,0,0,1,2.35,2.23l2.8,2.33c1.38.13,1.88,1.21,2.42,2.24l3.6,3a5.57,5.57,0,0,1,3.22,2.86l0,0a20.35,20.35,0,0,1,7.49,6.13c1.3,3.93.31,6.58-3.13,8.41a20.36,20.36,0,0,1-4.22,1.49c-2.16.59-3.55,1.91-3.62,4.2a23.88,23.88,0,0,1-2.48,8.94c-2.33,5.35-1.79,7.75,2.86,11.34,3.2,2.47,4.78,5.33,3.67,9.37-1,2.25-3.09,3.28-4.9,4.64a13.2,13.2,0,0,1-3.56,1.83c-2.58.22-5.39,2.09-7.54-1a62.63,62.63,0,0,1-4-7.38,12.76,12.76,0,0,1,2.29-13.84,38.6,38.6,0,0,0,5.65-8.24c.13-.35.28-.69.44-1,.72-2.56,2-4.93,2.09-7.7A5,5,0,0,1,395.18,269.23Z" transform="translate(-114.68 -204.66)"/><path class="cls-68" d="M390,249.84c4.51,4.28,9,8.54,13.5,12.87,1,1,3.24,2.07,1.34,3.84-1.58,1.46-3.74,2.14-5.69.25a267.49,267.49,0,0,0-3.57-4.67c-.53-1-1.24-1.79-1.82-2.71A1.44,1.44,0,0,0,393,258c-.21-.29-.7-.3-.75-.75l0-1.44c-1-.49-1.1-2-2.29-2.31h-.73Z" transform="translate(-114.68 -204.66)"/><path class="cls-85" d="M355.5,291.75c-.88-.54-.73-1.43-.75-2.25l3.05,1.89C357.1,292.07,356.25,291.6,355.5,291.75Z" transform="translate(-114.68 -204.66)"/><path class="cls-87" d="M385.44,243l-.61.58a2.29,2.29,0,0,1-1.33-1.93C384.62,241.54,385,242.31,385.44,243Z" transform="translate(-114.68 -204.66)"/><path class="cls-65" d="M389.24,246l-2.35-2.23,1.61,0C388.75,244.51,389,245.26,389.24,246Z" transform="translate(-114.68 -204.66)"/><path class="cls-88" d="M402.75,348l-7.5-2.25c-.07-1.34-.53-2.8,1.07-3.64,1.22-.63,1.84.15,2.76,1.71-.46-2.36-1.79-4.63,1.94-4.19,2.11.25,2.66-2.88,4.62-3.34,3.18-.75,2.51-3,2.13-5.07-.28-1.54-1.58-3.35.42-4.33s3.56.3,4.82,1.86c.2.25.3.67.67.6-.53-2.11.76-4,1.42-5.62.87-2.19,3-2.45,4.63-.07.62,1.39,2.51,2.15,2.1,4,.75-1.22.3-2.33-.58-3.38a2,2,0,0,1-.21-2.7c1.31-.72,2-1.58.68-2.92-.44-1.22-.21-2.56-.72-3.77a9.38,9.38,0,0,0-1-1.61c-.4-.52-.94-.95-1-1.68a1.59,1.59,0,0,1,1.17-1c3-.24,4.5,1.87,5.7,4,2.29,4.06,4.13,8.38,7.56,11.68-.07,2.35,3.18,2.78,3,5.2-1.11.49-1.74-.42-2.53-.84-1.45-.22-.48.94-.77,1.38-1.55,2.08-2.42,1.18-3.06-.69,0-.35.5-.49.43-.89a.67.67,0,0,1-.37.58,11.47,11.47,0,0,1-4.4,2c-.89.27-2.33.07-2.46,1.24a2.7,2.7,0,0,0,2.23,2.66c2,.47,3,1.37,3,3.51s.63,4.3-2.62,4.62c-1.08.11-.59,3.37-2.85,1.76-1.87-1.33-.59-2.88-.06-4.34,0-.08-3.57-3.78-3.64-3.74-.74.51-1,1.06-.12,1.68,1.12.77,1.48,1.72.51,2.8s-2,.56-3,0a17.23,17.23,0,0,0-1.64-.88,1.12,1.12,0,0,0-1.37.17c-.4.42-.25.83,0,1.33,1.56,3.6,1.55,3.6-2.76,3.43-2.29,1.24-4.26.95-5.76-1.29-.64-.95-1.31-1.32-2.44-.64-1.54.93.78,1.43.17,2.2Z" transform="translate(-114.68 -204.66)"/><path class="cls-89" d="M450,315.75c-3.52-.2-2.86,3.07-3.76,4.89-.21.43.18,1.47-.72,1.93s-1.6,2.59-2.9,1.18.8-1.46,1.33-2.2c1.6-2.25-1.27-2.6-2-4.05.14,2.68-1.94,3.67-3.29,5.3-2,2.45-3.92-.52-5.72.42-1.81.4-2.11-1.11-2.39-2.18-.88-3.48-2.08-6.92-2.05-10.57a30.4,30.4,0,0,0,1.58-2.84c1-1.48,1.87-3.14,1.08-4.78-1.25-2.58.58-3.15,2.14-4,2.26-1.3,2.25,1.08,3.15,2,.43.43.68,1.05,1.31,1.28,1.81-1.3,3.47-2.65,3.26-5.25,0-.43.63-.7,1.15-.76a33,33,0,0,1,9.25,14.87C451.87,312.62,452.19,314.66,450,315.75Z" transform="translate(-114.68 -204.66)"/><path class="cls-90" d="M430.5,330.75a1.63,1.63,0,0,0,1.52,1.73c.64.09.67-.51.73-1a2.7,2.7,0,0,1,1.5-1.5l2.25,1.5c-1.57,1.9-1.33,4.93-3.9,6.22a1,1,0,0,0-.21.95c2.9,2.71-1.33,1.33-1.32,2.43.91,1.64,2.73.42,4.22,1.28-2.82,2.55,1.38,4.58.46,7.11a55.78,55.78,0,0,1-12,1.52h-9c-1.95-1.89-4.81.36-6.76-1.5.51-1.5,2.57-1.44,3-3,.61-.9,1.24-.52,1.86,0s1.18.46,1.52-.24-.26-1.08-.89-1.24c-1.78-.45-1.76-1.9-.94-2.78.67-.71,1.86-2.44,3.35-.5a6.47,6.47,0,0,0,2.18,1.31,1,1,0,0,0,1.54-.52c.34-.66.05-1.52-.56-1.48-2.72.17-1-1.31-1-2.22,0-1.12.59-1.71,1.56-1.62s2,.53,1.43,2c-.21.53-.1,1.14.52,1.07,5.93-.69,2.22,2.64,1.52,4.09-.85,1.75.6,1.64.93,2.42,1.57-1.11-.12-2.6.81-3.52,1.33-.72.8,2.12,2.22,1,.81-.64,1.39-1.39.85-2.57a19.53,19.53,0,0,0-2.84-3.6,24.59,24.59,0,0,1-3.15-3.14c-.8-1-.23-2.36.78-2.29C425.57,332.79,427.78,330.75,430.5,330.75Z" transform="translate(-114.68 -204.66)"/><path class="cls-86" d="M450,315.75c1.33-2.72.56-5.3-.63-7.8a71.76,71.76,0,0,0-7.52-11.81c-3.55-3.69-4.07-8.12-1.35-11.33,6.68,2.53,13.19,5.3,17.12,11.82a20.3,20.3,0,0,1,.55,11.6v-.06c-1.72,4.1-3.66,8-8.19,9.82C449,317.22,450.4,316.48,450,315.75Z" transform="translate(-114.68 -204.66)"/><path class="cls-91" d="M428.77,309.79c1.87,4.33,1.11,9.46,4.12,13.43,1.64,2.43,4.22,1.31,6.68,1.71-1.83,2-4.06,1.24-6.07,1.37-4.21-1.79-5.58-5.8-7.36-9.48-1.27-2.63-2.67-5.09-5.89-5.68-1.29-.32-2.44.3-3.57.69-1.91.66-2.91,2-2.05,4.05s2.54,2.17,4.39,1.47c.69-.26,1.2-.89,2-1.06,1.35.41.73,1.56.9,2.41,0,1.7-1.16,2.46-2.57,3a13.19,13.19,0,0,1-3.55,0,12.94,12.94,0,0,1-5.33-3.32,18.9,18.9,0,0,0-8.42-5.25c-2.95-.94-3.08-2-.7-3.91a20.26,20.26,0,0,1,3.45-2.21c1.72-.79,3.39-1.71,5.14-2.48a20.74,20.74,0,0,1,12.13-.38C425.07,304.88,427.87,306.31,428.77,309.79Z" transform="translate(-114.68 -204.66)"/><path class="cls-66" d="M477,294.75l-1.67-.32c.14-.27.22-.72.44-.8,1.07-.41,1.09.44,1.23,1.12Z" transform="translate(-114.68 -204.66)"/><path class="cls-66" d="M483.77,301.52a3.91,3.91,0,0,1,.4,1.09.8.8,0,0,1-.44.54c-.53.23-.67-.2-.62-.57S483.44,302,483.77,301.52Z" transform="translate(-114.68 -204.66)"/><path class="cls-65" d="M404.86,252.75a4.74,4.74,0,0,0-1.18-.86c-3.08-1-3-.93-1-3.63.74-1,2-1.58,1.91-3.3-.07-1.2,1.22-.73,2-.41a2.16,2.16,0,0,0,1.77,1.22c1,.17,1.95.13,2.89.37a3.54,3.54,0,0,1,.91.41,21.2,21.2,0,0,1,2.17,2,8.7,8.7,0,0,0,3,2.23,2.07,2.07,0,0,1,.84,1.11,2.39,2.39,0,0,0,1.46,2.13,8.12,8.12,0,0,1,3.06,4.14c.09,1.26-.36,2.11-1.72,2.28a9.93,9.93,0,0,1-3.41-2.75c.39,1.75,2.41,1.94,3.56,3.06-.58,3.29-1.58,3.81-3.87,1.87-1.23-1-2.34-2.23-3.66-3.18-1.28-1.16-1.42-2.82-1.85-4.34a9.63,9.63,0,0,0-1.93-3.94c-2.18-2.42-3.08-2.25-4.24.82A1.48,1.48,0,0,1,404.86,252.75Z" transform="translate(-114.68 -204.66)"/><path class="cls-92" d="M404.86,252.75l0-.37c.17-1.52-1-3.89.52-4.39,1.72-.57,3.64.84,5.06,2.36,2.26,2.42,2,5.7,3.14,8.49.95.29,1.19,1.23,1.62,1.92.74,1.19,2.24,2.54,1,3.95-1.45,1.6-3.2.55-4.71-.34a16.21,16.21,0,0,1-3.05-2.69,10.71,10.71,0,0,1-3.35-7.67C405,253.59,404.94,253.17,404.86,252.75Z" transform="translate(-114.68 -204.66)"/><path class="cls-65" d="M405.09,254l3.61,7.13c.55.91.53,1.5-.76,1.39l-6.62-6.06C403.09,256.44,404.72,256.2,405.09,254Z" transform="translate(-114.68 -204.66)"/><path class="cls-65" d="M417,244.5c1.48,1.55-1.45,2-.84,3.28-1.73.67-3.05-.33-4.45-1.06l.06.05c-.74-1.07-2.18-.52-3-1.31a.82.82,0,0,1-.07-.91Z" transform="translate(-114.68 -204.66)"/><path class="cls-65" d="M401.28,256.43l-3.22-2.86C400.26,253.26,402.1,253.34,401.28,256.43Z" transform="translate(-114.68 -204.66)"/><path class="cls-58" d="M393,247.5c-.72-1.48-.13-2.67,1.35-2.41s.46,1.55.15,2.41A1,1,0,0,1,393,247.5Z" transform="translate(-114.68 -204.66)"/><path class="cls-65" d="M393,247.5h1.5c.75,1-.35,2.06,0,3.09L392,248.34Z" transform="translate(-114.68 -204.66)"/><path class="cls-93" d="M408.65,244.55c.07.19.15.39.21.58a1.87,1.87,0,0,1-.82,1.49c-.74-.51-2.48-.32-1.44-2.07Z" transform="translate(-114.68 -204.66)"/><path class="cls-58" d="M401.05,239.82a10.78,10.78,0,0,1,.83-.77,3.3,3.3,0,0,1,1,.95c.26.49-.16.64-.56.49A10.14,10.14,0,0,1,401.05,239.82Z" transform="translate(-114.68 -204.66)"/><path class="cls-86" d="M422.25,258l-3.08-3.73a5.82,5.82,0,0,1-1.42-2.26.73.73,0,0,0-.75-.74,1.11,1.11,0,0,1-.31-1c.28-.55.62-1,1.32-.62,2.49,2.95,5.16,5.46,9.49,3.79a35.59,35.59,0,0,1,12.73,2.05c5.44,2.07,5.78,2.56,5.92,8.36-.26.74-.51,1.48-.77,2.23.66,2.55-.49,3.44-3,3.49s-4.57-.83-6.9-.77C429.29,267.39,425.36,263.19,422.25,258Z" transform="translate(-114.68 -204.66)"/><path class="cls-72" d="M440.25,234.75c.45-2.08,4.6-3,1-6.58,2.67,1,4.17,1.94,4.63,4.17a39,39,0,0,1,3.8-3.05c.83-.51,1.08-2.55,2.53-1.43,1.61,1.25-.5,2.07-.72,3.14-1.09.63-2.18,1.2-1.94,2.8a3.63,3.63,0,0,1-1.62,3.51c-1.44,1.18-2.57,2.44-4.05-.07C443.16,236,441.4,235.69,440.25,234.75Z" transform="translate(-114.68 -204.66)"/><path class="cls-94" d="M418,249.59l-1.14,1.14c-1.23-.06-1.79-1.29-2.86-1.64a4.74,4.74,0,0,1-2.3-2.37c1.68-.46,3,.48,4.45,1.06C416.77,248.39,417.39,249,418,249.59Z" transform="translate(-114.68 -204.66)"/><path class="cls-86" d="M452.25,274.41a19.9,19.9,0,0,1,8.31,7.59,21.26,21.26,0,0,1-.17,13.91c-.49,1.25-1.1.57-1.7.12-1.23-4.51-4.86-6.53-8.63-8.5-3.18-1.67-6.58-2.75-9.86-4.14-2.41-1.26-4.81-2.52-7.15-3.91a9.8,9.8,0,0,1-5-8c0-1.35-.16-2.77,1.05-3.79,1.23-.4,2.12.37,3.09.9a7.66,7.66,0,0,0,4.28,1.44,7.39,7.39,0,0,1,1,.21,14.9,14.9,0,0,0,3.11.47c1.78.39,3.59.59,5.38.9a32.67,32.67,0,0,1,5.21,1.6C451.68,273.46,451.88,274,452.25,274.41Z" transform="translate(-114.68 -204.66)"/><path class="cls-60" d="M459,295.5a1.16,1.16,0,0,0,1.4.41c-2.06,2.72-.75,6-1.37,8.93-.25,1.15.44,2.52-.89,3.39.31-4.09.34-8.14-1.46-12C457.76,297,458,295.21,459,295.5Z" transform="translate(-114.68 -204.66)"/><path class="cls-67" d="M482.05,278.31c.9.35,1.34.62,1.21,1.17-.06.25-.47.41-.73.62a4,4,0,0,1-.74-1.07C481.71,278.79,482,278.43,482.05,278.31Z" transform="translate(-114.68 -204.66)"/><path class="cls-67" d="M463.19,284c-.55,0-.92-.12-.82-.54.06-.24.48-.45.78-.55.14-.05.38.2.58.31Z" transform="translate(-114.68 -204.66)"/><path class="cls-72" d="M429,271.51a9.51,9.51,0,0,0,4.61,7.2c.38.52.15,1.13-.3,1.19-2.07.28-4.06.08-5.69,2.21-.66.87-2.6-.93-3.66-1.89-1.48-1.35-.36-2.72.36-4,.57-.71,2-.69,1.6-2.21-.42.76-.7,1.65-1.51,2.08-2.16,2.65-3.87,5.39-3.1,9.1.62,3,0,3.53-4.26,3.94a7.65,7.65,0,0,1,2.52.21c1,.36,1.9.85,1.94,2s-1,1.16-1.76,1.61c-3,1.81-5.34,4.42-8.28,6.35-1.86,1.22-.13,4.39-1.95,6.1l-4.49,2.13c-1.48.26-3.29,1.73-3.95-1,1-3.89-.34-6.56-3.65-8.87-5.32-3.72-5.77-6.05-3.08-12.07a23.23,23.23,0,0,0,2.53-9.27c0-2.93,1.52-4.57,4.56-4.83a8.46,8.46,0,0,0,5.15-2c2.14-1.95,3.07-4.2,1.32-6.92a1.36,1.36,0,0,0,.77-1.39c1.63,1.09,2.84,2.77,4.85,3.31.72.19,1.5.54,2.1,0,.77-.7-.09-1.3-.36-1.92-.55-1.23-1.12-2.45-1.69-3.68,1.79.16,2.74,1.55,3.87,2.65.67.64,1,1.91,2.27,1.34,1.1-.48,1-1.59,1-2.58a2.28,2.28,0,0,0,1.5-2.27c3.48,3,6.14,6.94,10.38,9.14a12,12,0,0,0,2.37.65,24,24,0,0,0,11.63.75c3.35-.23,6.28.42,7.87,3.83-.58.88-2.32.48-2.25,2.06l-.84-.36c-1.35-2-3.62-1.05-5.39-1.71-2,0-3.95,0-5.76-1-.94-.8-2.2.16-3.15-.58l-.32.07-.3-.16c-1.45-.74-3.11-.79-4.6-1.41l-2.18-1.38C428.19,268.45,428.19,268.45,429,271.51Z" transform="translate(-114.68 -204.66)"/><path class="cls-95" d="M454.5,272.35c-2.13-1.7-4.26-3.4-7.22-3.2-.79-.41-.72-.84,0-1.28,1.17-1.51,2.6-2.85,3-5.4,2.78,3.06,4.93,5.84,5,9.75A2.56,2.56,0,0,0,454.5,272.35Z" transform="translate(-114.68 -204.66)"/><path class="cls-71" d="M447.73,248.33c1.8-1.63,1.75-1.61,2.6.25s3,.68,4.41,2.31c-.25-2.14-3-2.55-1.71-4.24.73-.94,1.89-2.07,3.44-1.84,2.59.38.63,2.73,1.59,4.24,4.56-5.28,3.65,1.28,5.44,2.2-2.18,1.27-.45,3.66-1.5,5.25l-.51-.1c-.85.6-2.22-3.69-2.71.29a2.15,2.15,0,0,1-.48.86c-1.81,1-.3,1.19.38,1.59l.32.36c.84,2,2.77,2.51,4.72,3l-.26,1c-2.29,0-4.7.43-6.85-.14-1.82-.47-2.8-2.69-3.49-4.38-.54-1.31-1-1.81-2.29-1.78a.82.82,0,0,1-1.06.16,5.38,5.38,0,0,1-2.75-5A14.56,14.56,0,0,1,447.73,248.33Z" transform="translate(-114.68 -204.66)"/><path class="cls-96" d="M447.71,252.79c.17,1.83,1.46,3,2.45,4.41-.12.47-.6.54-.91.8l-.72,1.62c-1.94-1-1.67-3.65-3.81-4.77-.91-.48,1.55-.25,1.53-1.35C446.66,253.12,446.86,252.28,447.71,252.79Z" transform="translate(-114.68 -204.66)"/><path class="cls-60" d="M447.24,267.87c0,.42,0,.85,0,1.28-4.15,0-8.38.82-12.28-1.38a71.27,71.27,0,0,1,7.62.81c2.45.51,2.58-.92,2.76-2.56A3.12,3.12,0,0,0,447.24,267.87Z" transform="translate(-114.68 -204.66)"/><path class="cls-71" d="M462,256.5c1.41,3.41-2.14,1.86-3,3-.59-.64-1.31-1.23-.75-2.25A3.49,3.49,0,0,1,462,256.5Z" transform="translate(-114.68 -204.66)"/><path class="cls-71" d="M463.5,251.25l.75-1.5c.53,1,3.11-.52,2.42,1.58S464.59,251.31,463.5,251.25Z" transform="translate(-114.68 -204.66)"/><path class="cls-97" d="M449.25,258l.91-.8a2.49,2.49,0,0,1,.67,0c.4.62.8,1.23,1.28,2C450.73,259.63,450.22,258.24,449.25,258Z" transform="translate(-114.68 -204.66)"/><path class="cls-65" d="M440.25,234.75c2,.94,5.24-.2,5.27,4.15,1.57-2.21,4.38-2.68,2.81-6.12-.85-1.86,1.42-2.3,3.17-1.78.92,1.74.28,3.59.4,5.39a4,4,0,0,1-.16,1c-3.59-.67-4.44,4.51-8,3.7-.61,1.3,1.79,1.24,1,2.36a1.59,1.59,0,0,1-2,.36,2.13,2.13,0,0,1-1.09-2.47c.33-1.51,1.34-3.55-1.76-3.73-.85-.06-.06-.51.29-.61C442.56,236.35,440,235.5,440.25,234.75Z" transform="translate(-114.68 -204.66)"/><path class="cls-98" d="M447.71,252.79l-1.46.71c0-1.88.1-3.7,1.48-5.17C447.72,249.82,447.71,251.31,447.71,252.79Z" transform="translate(-114.68 -204.66)"/><path class="cls-65" d="M440.36,244.63a3.9,3.9,0,0,1-1.13.49c-.52.06-1.07-.28-.8-.84.15-.3.83-.39,1.28-.47S440.44,243.9,440.36,244.63Z" transform="translate(-114.68 -204.66)"/><path class="cls-65" d="M438.81,239.71c.11-.46.22-.88.67-.6a1.24,1.24,0,0,1,.49.82c0,.38-.27.69-.66.48S439,239.91,438.81,239.71Z" transform="translate(-114.68 -204.66)"/><path class="cls-99" d="M294.87,387.74c.75,2.21-.76,3.77-1.71,5.37-2.52,4.2-4.15,8.91-7.38,12.69q-6-25.17-12.08-50.33c3.9-1.64,8.13-2,12.17-3.17,1.71.2,2.1,1.53,2.44,2.89,2.34,9.51,4.69,19,6.77,28.61C295.37,385.11,295.81,386.48,294.87,387.74Z" transform="translate(-114.68 -204.66)"/><path class="cls-99" d="M362.27,412.59c2.35,4.74,2.79,10,4.45,15q-23.64-12.79-47.27-25.6c1.33-3.45,2.62-6.92,5.19-9.71,1.38-.76,2.36.24,3.41.81,10.4,5.62,20.76,11.3,31.19,16.87A6.5,6.5,0,0,1,362.27,412.59Z" transform="translate(-114.68 -204.66)"/><path class="cls-100" d="M315.67,448.73c1.13-.7,2.38-1.3,2.66-3,1.45,1,1.84,2.63,3.44,2.87C319.72,451.78,317.73,452.1,315.67,448.73Z" transform="translate(-114.68 -204.66)"/><path class="cls-73" d="M294.87,387.74q-3.87-16.82-7.79-33.64c-.16-.66-.8-1.2-1.21-1.8L296,350.2c2.15,3.48,3.51,7.14,2.52,11.32a2.77,2.77,0,0,1-3.39-.58c-.79-.72-1.34,0-1.91.44s-.22.81.17,1.15c.59.5,1.17,1,1.89.19s2-.83,3.12-.85c.51.07,1.05.26,1.18.75,1.21,4.32,3.1,8.51,2.65,13.17-1.28,4.4-3.94,8.1-6.12,12C295.86,388.37,295.3,387.93,294.87,387.74Z" transform="translate(-114.68 -204.66)"/><path class="cls-73" d="M320.11,344.19c-4.25,7.85-8,16-13.25,23.26-1.29-.8-1.53-2.19-1.83-3.49-1.17-5.15-2.95-10.16-3.5-15.45Z" transform="translate(-114.68 -204.66)"/><path class="cls-101" d="M301.53,348.51c1.7,1,1.34,2.78,1.71,4.27,1.23,4.89,2.41,9.78,3.61,14.67-1.15,3-2.14,6.06-4.58,8.34-1-3.76-2-7.52-3-11.29-.27-1.07-.22-2.25-1.66-2.49v-.28c1.81-1.58.09-3.19-.08-4.73a60,60,0,0,0-1.53-6.8C297.71,349.12,299.71,349.12,301.53,348.51Z" transform="translate(-114.68 -204.66)"/><path class="cls-73" d="M362.27,412.59l-37.63-20.32a40.94,40.94,0,0,1,4.62-9.06,3.89,3.89,0,0,1,3.21.63q12.09,6.36,24,13.09a5.3,5.3,0,0,1,2.13,2A59.59,59.59,0,0,1,362.27,412.59Z" transform="translate(-114.68 -204.66)"/><path class="cls-101" d="M358.57,399l-29.31-15.76c1.31-2.13,1.8-4.86,4.43-6q10.56,5.82,21.12,11.62a4.84,4.84,0,0,0,1.4.29C357.37,392.31,358.71,395.46,358.57,399Z" transform="translate(-114.68 -204.66)"/><path class="cls-102" d="M395.18,269.23c-2,2.72-2.27,6-2.92,9.11a7.35,7.35,0,0,1-1.42,3.76c-.28-.17-.56-.34-.83-.53.26.21.57.31.84.5-.73,2.85-2.58,5.06-4.48,7.12-4.13,4.45-5.65,9.42-3.86,15.3-.46,1.22-1.94,2.41.53,3.43,1.68.7,1.66,3.26,3.45,4.14a2,2,0,0,1,.05,1.52c-1.22.94-1.91,3.31-4.13,1.52-.93-.75-1,.18-1.18.67-1,2.7-3.22,4.14-5.71,5.28a9.13,9.13,0,0,0-4.24,3.51c-.5.83-1,1.88-2.28.94v-.75c-.84-1.37-1.1-3.22-3-3.75-1.36-.57-1.57-1.72-1.5-3l5.71-.52c-.15-2.9-3.9-2-4.47-4.65-.26-1.23-1.14-2.2.28-3,2.15-1.23.69,1.09,1.3,1.41a3.61,3.61,0,0,0,1.26.62c.77.07,1.13-.53,1.11-1.2,0-1.11-.55-2.36-.19-3.29.42-1.1-1.11-2.88.39-3s3.19-2.57,5-.36c.57.71,1.27,1.28,2.17.36s1.75-1.49,1.68-2.78a3.59,3.59,0,0,0-.35-1c-1.34.81-2.64-1.53-4.08,0-.25.26-1.26.09-1.71-.2-.69-.45-.26-1.41.14-1.6,2.73-1.24.5-2.66,0-3.91,1.13-.78,1.8.34,2.62.23,1.09-.14,1.92-.67,1.88-1.9,0-.72,1.19-2-.92-2a1.88,1.88,0,0,1-1.47-2.21c.46-1.33,1.24-.17,2,0,2.72.69,8.13-3.54,7.92-6.29-.13-1.78,1.18-2.64,1.74-3.92-1-1.32-2.42.49-3.73-.87,2.59-.45,4.42-2.75,7.31-1.35,1,.48,1.26-.42,1.19-1.57a27.29,27.29,0,0,1,.66-9.4C393.15,267,393.16,269.1,395.18,269.23Z" transform="translate(-114.68 -204.66)"/><path class="cls-71" d="M369,325.5c1.86-1.41,2.78-3.73,5-4.87,1.65-.85,3.68-.92,4.86-3,.44-.8,1.56-1.33,1.45-2.65-.1-1.16.86-1.34,1.7-1.59,1.41-.4.63.88.93,1.16,1.54,1.45,1.88-1.66,3.32-1,2.47-.72,5.21-.14,7.52-1.6.9-.54,1.53-1.6,2.79-1.47,2.76-.55,3.82,2.24,5.9,3.11.62.26.2,1.87-.52,2.67s-1.9,1.38-2.67.78c-1.71-1.33-3.75-.95-6-1.7.89,1.6,2.42,2.66,1.23,4.63-.86,1.41-.79,3-3.2,3.2s-1.85,3.77-1.65,4.41c1,3.07.72,6.26-1.6,8.31-.5.44-1.38.47-1.52,1.32a1.35,1.35,0,0,0,.74.08c1.35,0,3.5-2.3,3.81.56.22,2-1.33,3.89-4.05,3.45l-5.25-3c-1.5-2.56-4.55-3.25-6.42-5.4-2-2.3-4.21-4.41-6.33-6.6Z" transform="translate(-114.68 -204.66)"/><path class="cls-71" d="M366,321c2.83-.22,3.14,1.59,3,3.75C366.94,324.35,367.26,322.05,366,321Z" transform="translate(-114.68 -204.66)"/><path class="cls-68" d="M387,341.25c1.92-.55,2.48-2.39,3.76-3.68-1.72-.12-3,.94-4.54.83-.72,0-1.53.41-1.89-.54a1.23,1.23,0,0,1,1-1.68c4.09-.58,3.48-4.21,4.44-6.77.43-1.17.06-1.3-2.57-.92-.11-1.46,4-1.83,1-4,1.7-.59,1.32-5.47,4.77-1.81.43-1.6-1.59-3.23,1.15-3.93.89-.22-.56-1.51-1.37-2s-1.37-1-.81-2.05c.64-1.25,1.44-.68,2.14-.24.86.53,1.57,1.29,2.56.18.79-.87,1.45-1,1.59.52.12,1.16,1,1.34,1.92,1.2a1.85,1.85,0,0,0,1.67-1.74c.13-1-.21-1.78-1.31-1.87-1.74-.14-2.11-2.57-4-2.36l4.55-4c1,1.6,2.6.83,3.95,1-1.48,1.47-3.65,2.12-5.26,4.49,7.27-.05,10.65,5.81,15.7,9a4,4,0,0,0,3.75,0l2.22-2.32.23-.27.3.21c2.06,1.4,1.4,2.36-.5,3.12-1.12.38-1,2-2.25,2.25-1.36-1.7-3.21-1.65-3.65.24s-2.2,4-.86,6.32c-.92.65-1.15-.63-1.86-.59-.88,0-.52-1-.9-1.38-1-1-2.39-1.69-3.64-1s-.13,1.67.27,2.53c.8,1.72-.73,4.23,1.88,5.44.27.12-.47,1.1-1.16.91-3.29-.86-4.67,1.59-6.3,3.58-.38.45-.5,1.37-.9,1.48-1.12.3-1.61-2.47-3-.9-.66.76,2.14.92,1,2.35-.45.59-1,1.37-1.59,1.51-1.15.26-.3-.83-.56-1.25-.36-.59-.75-1.06-1.44-.59-.48.33-1.23.79-.67,1.47.91,1.12.49,1.49-.69,1.64C392.41,344.42,389.34,343.5,387,341.25Z" transform="translate(-114.68 -204.66)"/><path class="cls-88" d="M407.25,349.5l-4.5-.75V348h0C405.11,345.25,405.43,345.35,407.25,349.5Z" transform="translate(-114.68 -204.66)"/><path class="cls-68" d="M407.25,349.5c-1.54-.38-1.87-4.38-4.5-1.5-.46-.69-.51-1.67-1.58-1.92-.91-.22-.4-1.38-.32-1.34,1.53.71,3.28-3.39,4.75.33,1,2.47,3.22,2.34,5.4,1.43-.12.72,3.08,2.62-.77,2.06-.68-.1-1.49.61-2.24.95Z" transform="translate(-114.68 -204.66)"/><path class="cls-61" d="M420.62,354.2c-.2.18-.78.79-.85.74-.56-.43-1.33-.93-1.44-1.51s.74-.91,1.4-.82S420.71,353.25,420.62,354.2Z" transform="translate(-114.68 -204.66)"/><path class="cls-58" d="M392.24,257.25l.75.75c-.23.05-.57,0-.68.18-.55.72-.05,2.33-1.78,2a.77.77,0,0,1-.74-1C390,257.77,390.74,257.06,392.24,257.25Z" transform="translate(-114.68 -204.66)"/><path class="cls-58" d="M371,281.16c-.7-.09-1.19-.39-.9-1.17s.47-1.51,1.38-1.42a1.11,1.11,0,0,1,1,1.27C372.39,280.7,371.76,281,371,281.16Z" transform="translate(-114.68 -204.66)"/><path class="cls-58" d="M366.68,284.56c.16-1.9.3-3.1,1.86-3.9C368.86,282.48,367.87,283.39,366.68,284.56Z" transform="translate(-114.68 -204.66)"/><path class="cls-103" d="M395.87,261.78a4.7,4.7,0,0,1,1.68,2.94l-.93,0c-.46-.74-.92-1.49-1.37-2.24S395.26,261.68,395.87,261.78Z" transform="translate(-114.68 -204.66)"/><path class="cls-104" d="M395.87,261.78l-.62.73a5,5,0,0,1-1.52-3.09A3.13,3.13,0,0,1,395.87,261.78Z" transform="translate(-114.68 -204.66)"/><path class="cls-105" d="M390,253.5c1.94-.4,1.55,1.51,2.29,2.31C390.75,255.79,390.56,254.46,390,253.5Z" transform="translate(-114.68 -204.66)"/><path class="cls-71" d="M386.19,312c-1-.05-2.45.11-2.45-1.11,0-2.79-2.52-2.9-3.9-4.27.45-1.17,1.62-1.58,2.67-2.14l3.75,6.75c.21.19.28.37.18.53S386.27,312,386.19,312Z" transform="translate(-114.68 -204.66)"/><path class="cls-106" d="M386,299.11c-.51-1.1.07-1.48.91-1.47a1.74,1.74,0,0,1,1.82,1.87c.05,1.06-.26,2.07-1.51,2C385.33,301.51,386.48,299.79,386,299.11Z" transform="translate(-114.68 -204.66)"/><path class="cls-68" d="M386.19,312l.07-.77a2.79,2.79,0,0,0,3.62,1.46,38.86,38.86,0,0,1,3.89-.8c-2.19,2-4.91,1.54-7.52,1.6Z" transform="translate(-114.68 -204.66)"/><path class="cls-107" d="M420.94,316.61c-1.18,2.8-3.31,2.74-5.55,1.64a3.46,3.46,0,0,1-1.73-5c1.4-2.67,3.75-3.43,6.59-2.08l-1,.69c-.39.82-1.14.43-1.74.54a1.5,1.5,0,0,0-.79.31c.31.39-.21.09.24-.13s-.12.07.36-.14c1.21.06,2.44-.12,3.45.73l.72.7A4.45,4.45,0,0,1,420.94,316.61Z" transform="translate(-114.68 -204.66)"/><path class="cls-90" d="M419.25,324c.54-1,.78-2.22,2.25-2.25-.43.85-.57,1.67.5,2.14,3,1.34.06,3.54.67,5.3.18.5-1.32-.1-1.28-.2C422.27,326.61,419.23,326,419.25,324Z" transform="translate(-114.68 -204.66)"/><path class="cls-60" d="M434.25,330a1.38,1.38,0,0,1-1.5,1.5c-.9-.73-1.12-1.81-.34-2.48S433.82,329.3,434.25,330Z" transform="translate(-114.68 -204.66)"/><path class="cls-108" d="M420.94,316.61c0-1-.54-2,.56-2.77,1.49,1.46.86,3.14.5,4.79a2.39,2.39,0,0,1-.53.06C421.41,318,421.68,317.16,420.94,316.61Z" transform="translate(-114.68 -204.66)"/><path class="cls-109" d="M420.78,313.14,417,312.9c-.21-.2-.26-.39-.17-.55s.17-.25.25-.25l2.19-.27C419.94,312.07,420.57,312.35,420.78,313.14Z" transform="translate(-114.68 -204.66)"/><path class="cls-90" d="M430.44,330.85c.35-1-1-1.84.17-2.94A1.9,1.9,0,0,1,430.44,330.85Z" transform="translate(-114.68 -204.66)"/><path class="cls-68" d="M409.55,305.39c-.07-4.35-.26-8.77,5.82-9.29.23,0,.45-.5.62-.8,1.87-3.35,1.86-3.35,4.9-3.5-1.45-2.21-1.75-2.29-5.93-1.51.45-1.55,1.52-2.05,3-2.34.92-.18,2.63,1.32,2.64-.58,0-1.19.88-3.06-1-3.88-.7-.3-1-.68-.6-1.37s.86,0,1.2-.08a1.67,1.67,0,0,0,1.26-2.21c-1.1-3.13,1.11-3.33,3.09-3.83h0c-.42,2.85-.42,2.85,3.35,5.75.14-3,1.41-3.82,4-2.26.78.47,1.39,0,1.78-.78l6.66,3.86c.67,1.12,2.08,1.12,3.05,1.79-.62,1.52-1.58,1-2.49.69-2.84,4-.07,7.45.95,11.09-1.46,1.76.08,2.88,1.34,4.17-1.46.26-2.59,0-3.5.79-2.69,2.42-3.56,2-5.21-2.09l-3.26,2.15c-.08.86,3.39-.33,1,1.68-1.64,1.42,2.71,2.59-.07,3.78-3.25,1.39-1.15,2.24.38,3.17-1.27,1.51-2.51.93-3.76,0C423.53,303.22,416.68,303.72,409.55,305.39Z" transform="translate(-114.68 -204.66)"/><path class="cls-66" d="M440.86,285.05l2-.21c-1.05-.85-2.42-.9-2.58-2.27A61.31,61.31,0,0,1,455,289.26c2.22,1.49,3.93,3.34,4,6.24-.68.55-1.21,1.53-2.32.76C452.59,290.85,446.22,288.66,440.86,285.05Z" transform="translate(-114.68 -204.66)"/><path class="cls-88" d="M419.25,321a2.5,2.5,0,0,1-3.75,0Z" transform="translate(-114.68 -204.66)"/><path class="cls-72" d="M420.84,260.46c-3.85-.67-4.33-1.59-3-5C417.86,257.69,420,258.53,420.84,260.46Z" transform="translate(-114.68 -204.66)"/><path class="cls-110" d="M408,246.62a1.6,1.6,0,0,1,.82-1.49c1.2.15,2.78-.39,2.91,1.64Z" transform="translate(-114.68 -204.66)"/><path class="cls-72" d="M417.75,252c.78.57,1.54,1.14,1.42,2.26C417.3,254.38,416.78,253.66,417.75,252Z" transform="translate(-114.68 -204.66)"/><path class="cls-72" d="M414,249.09c1.38-.2,1.78,1.32,2.86,1.64a3.3,3.3,0,0,0,.13.52C415.51,251.22,414.71,250.22,414,249.09Z" transform="translate(-114.68 -204.66)"/><path class="cls-60" d="M446,272.34c1.91.23,4.34-1.2,5.39,1.71Z" transform="translate(-114.68 -204.66)"/><path class="cls-68" d="M429,271.51a3.42,3.42,0,0,1-1.22-2.84c0-1.06.53-2.36,1.9-.75C428.59,268.94,429.41,270.34,429,271.51Z" transform="translate(-114.68 -204.66)"/><path class="cls-60" d="M431.89,269.3c1.72-.15,3.37,0,4.6,1.41A6.28,6.28,0,0,1,431.89,269.3Z" transform="translate(-114.68 -204.66)"/><path class="cls-60" d="M437.11,270.8c1,.5,2.44-1.49,3.15.58A4.25,4.25,0,0,1,437.11,270.8Z" transform="translate(-114.68 -204.66)"/><path class="cls-111" d="M414,273c2.13.77,3.05,2.2,1.9,4.3-.91,1.67-5.75,2.76-7.22,1.58-2-1.61-1.43-3.45.08-5.15.94-.47,1.4.46,2.1.72,1.35.63,2-.29,2.73-1.17C413.72,273.21,413.86,273.12,414,273Z" transform="translate(-114.68 -204.66)"/><path class="cls-68" d="M424.5,276a8.66,8.66,0,0,0,.4-1.38c.15-1.17-.08-2.61,1.45-2.93.94-.2,1.29.8.94,1.48-.62,1.18.11,3.87-2.79,2.83Z" transform="translate(-114.68 -204.66)"/><path class="cls-68" d="M429.6,276.24a8.7,8.7,0,0,1-1.33.75c-.46.14-.68-.21-.52-.59a1.28,1.28,0,0,1,.72-.69C428.7,275.65,429,276,429.6,276.24Z" transform="translate(-114.68 -204.66)"/><path class="cls-112" d="M410.32,275.21l-1.56-1.45a2.05,2.05,0,0,1,1.51-1.33,2.56,2.56,0,0,1,.56.86A1.93,1.93,0,0,1,410.32,275.21Z" transform="translate(-114.68 -204.66)"/><path class="cls-113" d="M410.36,273.27l-.09-.84c1.32-.29,2.67-.76,3.73.6l0,0A2.88,2.88,0,0,1,410.36,273.27Z" transform="translate(-114.68 -204.66)"/><path class="cls-68" d="M462,256.5a6.2,6.2,0,0,1-3.75.75c.19-1.26-.46-2.32-1.22-3.53C459.86,253.12,460.85,254.94,462,256.5Z" transform="translate(-114.68 -204.66)"/><path class="cls-68" d="M458.25,257.25l.75,2.25c-1.28-.05-2.69.27-3.62-1.29C456.2,257.36,457.29,257.47,458.25,257.25Z" transform="translate(-114.68 -204.66)"/><path class="cls-114" d="M297.65,361.73V362a7.13,7.13,0,0,0-3,2.84c-3.15-2-3.33-4,0-5.89C295.5,359.73,296.15,361.21,297.65,361.73Z" transform="translate(-114.68 -204.66)"/><path class="cls-85" d="M381.22,294.51c-1.11.63.37,2.58-1.26,2.71-1.38.12-1.13-1.39-1.42-2.24s-.27-1.92.93-1.93C380.18,293.05,381.26,293.28,381.22,294.51Z" transform="translate(-114.68 -204.66)"/><path class="cls-85" d="M390.85,282.07c-2.67.58-2.15-.95-1.82-2.74,1.39.66,1.07,2.06,1.81,2.77Z" transform="translate(-114.68 -204.66)"/><path class="cls-85" d="M384,288.28c.54,0,1.06.25,1,.77,0,.35-.52.7-.88.94-.08.05-.61-.34-.71-.61A.77.77,0,0,1,384,288.28Z" transform="translate(-114.68 -204.66)"/><path class="cls-85" d="M372,310.45c-.21-.46-.48-.77-.41-1s.43-.46.67-.68c.14.25.42.52.39.75S372.28,310,372,310.45Z" transform="translate(-114.68 -204.66)"/><path class="cls-68" d="M386.44,333.08c.52,0,.89.15.71.59a1.21,1.21,0,0,1-.76.57.45.45,0,0,1-.56-.6C385.92,333.38,386.28,333.22,386.44,333.08Z" transform="translate(-114.68 -204.66)"/><path class="cls-115" d="M417.07,312.1c0,.27-.05.53-.08.8l-1.19,1.89C415.29,313.17,415.93,312.49,417.07,312.1Z" transform="translate(-114.68 -204.66)"/><path class="cls-116" d="M419.28,298.57c2.67-.59,5.34-1.22,8-1.77,6-1.24,8.51-4,9.05-10.15-.14-.76-.6-1.69.85-1.61,2.41,6.84-1.05,12.78-8.33,14.06a41.39,41.39,0,0,1-5.58.25C421.9,299.35,420.26,300.67,419.28,298.57Z" transform="translate(-114.68 -204.66)"/><path class="cls-72" d="M423.7,282.9c-.11.86-.3,1.78-1.43,1.71-.82,0-.74-.85-.71-1.43.05-.77.39-1.5,1.23-1.58S423.66,282.26,423.7,282.9Z" transform="translate(-114.68 -204.66)"/><path class="cls-94" d="M419.28,298.57c1.16,1.18,2.69.41,4,.78-2.2.76-4.45.64-7.19.73A3.76,3.76,0,0,1,419.28,298.57Z" transform="translate(-114.68 -204.66)"/><path class="cls-72" d="M413,300c0,.54-.23,1-.78,1a.84.84,0,0,1-.93-.86,1,1,0,0,1,.59-.74A.77.77,0,0,1,413,300Z" transform="translate(-114.68 -204.66)"/><path class="cls-117" d="M437.2,285c-.72.31-.61,1-.85,1.61-.55-.87-1-1.91-.28-2.7C436.41,283.59,437.07,284.37,437.2,285Z" transform="translate(-114.68 -204.66)"/><path class="cls-106" d="M410.36,273.27,414,273c.25,3.23-1.33,3.41-3.72,2.23Z" transform="translate(-114.68 -204.66)"/></svg>