<svg id="Layer_1" data-name="Layer 1" xmlns="http://www.w3.org/2000/svg" viewBox="0 0 384.13 384.17"><defs><style>.cls-1{fill:#fefefe;}.cls-2{fill:#283035;}.cls-3{fill:#389583;}.cls-4{fill:#283137;}.cls-5{fill:#293137;}.cls-6{fill:#3b9987;}.cls-7{fill:#293439;}.cls-8{fill:#379281;}.cls-9{fill:#2a3c3f;}.cls-10{fill:#2a363b;}.cls-11{fill:#2b3f42;}.cls-12{fill:#2a393d;}.cls-13{fill:#368174;}.cls-14{fill:#2a363a;}.cls-15{fill:#389080;}.cls-16{fill:#368678;}.cls-17{fill:#2d4748;}.cls-18{fill:#388c7d;}.cls-19{fill:#347269;}.cls-20{fill:#367d72;}.cls-21{fill:#37897b;}.cls-22{fill:#34776d;}.cls-23{fill:#33786d;}.cls-24{fill:#336e66;}.cls-25{fill:#368074;}.cls-26{fill:#2d4e4d;}.cls-27{fill:#336c65;}.cls-28{fill:#326a63;}.cls-29{fill:#347168;}.cls-30{fill:#fac4dd;}.cls-31{fill:#2e5250;}.cls-32{fill:#305c58;}.cls-33{fill:#34756b;}.cls-34{fill:#378779;}.cls-35{fill:#30605b;}.cls-36{fill:#f8eff5;}.cls-37{fill:#2f5855;}.cls-38{fill:#2f5552;}.cls-39{fill:#31635e;}.cls-40{fill:#326962;}.cls-41{fill:#357e72;}.cls-42{fill:#f9e6f0;}.cls-43{fill:#32635e;}.cls-44{fill:#357b6f;}.cls-45{fill:#316760;}.cls-46{fill:#30665f;}.cls-47{fill:#305d59;}.cls-48{fill:#f9edf3;}.cls-49{fill:#fbcce2;}.cls-50{fill:#f9dfeb;}.cls-51{fill:#fad9e8;}.cls-52{fill:#fad4e6;}.cls-53{fill:#2d4b4b;}.cls-54{fill:#389282;}.cls-55{fill:#fddaec;}.cls-56{fill:#192123;}.cls-57{fill:#388f80;}.cls-58{fill:#2c4345;}.cls-59{fill:#f7ebf2;}.cls-60{fill:#368477;}.cls-61{fill:#fce3ef;}.cls-62{fill:#2f5a57;}.cls-63{fill:#f8c7de;}.cls-64{fill:#f4bbd7;}.cls-65{fill:#fbf4f8;}.cls-66{fill:#fbf0f5;}.cls-67{fill:#fbecf3;}.cls-68{fill:#fce5f0;}.cls-69{fill:#fbe8f1;}.cls-70{fill:#1fc8a7;}.cls-71{fill:#198889;}.cls-72{fill:#67fce1;}.cls-73{fill:#67fde1;}.cls-74{fill:#f9fbfb;}.cls-75{fill:#f6e3ed;}.cls-76{fill:#f8deeb;}.cls-77{fill:#f6cde1;}.cls-78{fill:#1b8889;}.cls-79{fill:#f6d7e6;}.cls-80{fill:#f7d3e5;}.cls-81{fill:#5be0cb;}.cls-82{fill:#57dbc5;}.cls-83{fill:#fbf1f6;}.cls-84{fill:#fce6f0;}.cls-85{fill:#fbeaf3;}.cls-86{fill:#fb027a;}.cls-87{fill:#fc047b;}.cls-88{fill:#fb9ecb;}.cls-89{fill:#fb328f;}.cls-90{fill:#fbedf4;}.cls-91{fill:#fb087c;}.cls-92{fill:#fbe6f1;}.cls-93{fill:#fb1d85;}.cls-94{fill:#fb9ac9;}.cls-95{fill:#fb8bc1;}.cls-96{fill:#fb037a;}.cls-97{fill:#fb3090;}.cls-98{fill:#fbcce3;}.cls-99{fill:#fb64ab;}.cls-100{fill:#fb1b85;}.cls-101{fill:#fbb0d4;}.cls-102{fill:#a4e8db;}.cls-103{fill:#e6f1f1;}.cls-104{fill:#a3e7da;}.cls-105{fill:#a3e8db;}.cls-106{fill:#fbeef5;}.cls-107{fill:#fbe9f2;}.cls-108{fill:#fb047a;}.cls-109{fill:#fbd4e7;}.cls-110{fill:#fbbad9;}.cls-111{fill:#fb2d8b;}.cls-112{fill:#fc2b8b;}.cls-113{fill:#fb4098;}.cls-114{fill:#fb3594;}.cls-115{fill:#fb0474;}.cls-116{fill:#fc3e99;}.cls-117{fill:#fb2c8e;}.cls-118{fill:#fb59a6;}.cls-119{fill:#fbacd2;}.cls-120{fill:#fbdeec;}.cls-121{fill:#fbe2ee;}.cls-122{fill:#eaf8f6;}.cls-123{fill:#fcd0e5;}.cls-124{fill:#fcdceb;}</style></defs><title>uni-lp</title><path class="cls-1" d="M498.75,396.74q0,94.29.06,188.57c0,2.7-.42,3.52-3.37,3.52q-188.78-.14-377.54,0c-2.79,0-3.22-.68-3.22-3.3q.12-188.76,0-377.53c0-2.53.31-3.34,3.19-3.34q188.94.15,377.9,0c2.64,0,3,.6,3,3.1Q498.69,302.27,498.75,396.74Z" transform="translate(-114.68 -204.66)"/><path class="cls-2" d="M200.16,269.76a148.1,148.1,0,0,1,42.68-25.32c10.29-2.29,20.34-5.48,30.53-8.14a6.47,6.47,0,0,1,2.57-.37c1.14.16,2.28.41,2.65,1.7s-.45,2.12-1.44,2.75c-2.84,1.8-5.85,3.33-8.7,5.11-1.56,1-2.92,2-2.05,4.19-.27,2-2,2-3.37,2.38-20.26,5.87-38.3,15.92-54.71,29-3.37,2.69-5.92,6.41-10.18,8-2.23-1.08-4.3-.67-6.4.47s-4.19,2.69-6.54,3.57c-.93.34-1.91.71-2.75-.23-.71-.78-.4-1.64-.09-2.45a6.71,6.71,0,0,1,1.87-3.19c2.91-2.17,4.56-5.54,7.61-7.59C195.53,277.16,197.76,273.37,200.16,269.76Z" transform="translate(-114.68 -204.66)"/><path class="cls-3" d="M344.27,564.83c-13.07,3.64-26.45,4.57-39.94,4.43-6.73-.07-13.46-.19-20.08-1.59a.72.72,0,0,1,.33-1c2.29-.65,4.56.33,6.85.07,7.06,1.07,14.12-.63,21.18,0,8.6.93,16.4-1.59,23.78-5.71,5.87-3.27,11.67-6.68,17.35-10.29,1.61-1,2.71-2.55,4.11-3.78,3.72-2.31,7.95-3.49,11.93-5.24a155.55,155.55,0,0,0,38.76-24.93,6.68,6.68,0,0,1,3.1-2,8.43,8.43,0,0,0,6.27-1.7,79.65,79.65,0,0,1,12-6.69c5.6-2.65,9.05-7.62,13.61-11.36,1.07-.88,1.74-2.63,3.61-1.46a108.39,108.39,0,0,1-16.45,21c-1.33.32-2,1.38-2.78,2.35a10.19,10.19,0,0,1-4.68,3.58,11.86,11.86,0,0,0-4.52,3.22,74.53,74.53,0,0,1-16.69,12.48c-6.54,3.61-12.9,7.55-19.35,11.31-7.41,4.33-14.86,8.7-22.85,11.72C354.72,561.19,349.42,562.84,344.27,564.83Z" transform="translate(-114.68 -204.66)"/><path class="cls-4" d="M200.16,269.76c-1.12,5.56-5.58,8.49-9.28,12.1-2.74,2.67-5.76,5.17-7.62,8.63-.32.61-1,1.31-.35,2s1.41.07,2-.24c2.64-1.39,5.21-2.92,7.87-4.27,1.84-.93,3.78-1.61,5.22.74a2,2,0,0,1-.75,1.25,5,5,0,0,0-1.74,2.34c-5.62,7.17-11.84,13.87-16.94,21.45a2.58,2.58,0,0,1-2.44,1.45,4.39,4.39,0,0,0-5.78.31,6.49,6.49,0,0,1-1.25.8c-1.64.84-3.46,2.29-5.15,1.07s.27-2.86.42-4.34a23.16,23.16,0,0,1,1.32-5c7.14-11.79,16.23-22,26.24-31.35C194.55,274.29,197.41,272.08,200.16,269.76Z" transform="translate(-114.68 -204.66)"/><path class="cls-5" d="M266.25,249.75c-2.28-1.09-2.3-2.48-.28-3.77,3.24-2.06,6.61-3.94,9.91-5.94.88-.54,2.62-.71,2.11-2.12s-2.13-1.44-3.51-1c-2.11.71-4.16,1.94-6.32,2.16-6.31.66-12.05,3.1-18,5-2.26.72-4.88.28-7.34.36,13-5.91,26.72-9.14,40.77-11.17,3.43-.5,6.88-1.12,10.39-.79,2.27,1.83,4.78.53,7.2.61,2,.06,4.88-1,5.65,1.46s-2.17,3.21-3.82,4.42-4,1.93-5.9,3.7c1,1.09,2.32.78,3.45.8,3.86.07,7.73-.13,11.59.13,1.08.08,3.27-.42,2.39,2.15a6.44,6.44,0,0,1-3.26.6A160,160,0,0,0,271.07,250a35.16,35.16,0,0,1-4.23-.12Z" transform="translate(-114.68 -204.66)"/><path class="cls-6" d="M344.27,564.83c3.45-2.19,6.81-4.72,11-5.23a19.82,19.82,0,0,0,5.66-1.63c11.08-4.94,21.49-11.16,31.91-17.29,8.18-4.82,17.26-8.75,23.57-16,3.6-4.14,9.56-4.76,12.28-9.7.21-.39,1.36-.27,2.08-.39-11.47,13.25-25.18,23.76-40.26,32.5a161.81,161.81,0,0,1-42.52,17.13C346.74,564.5,345.49,564.63,344.27,564.83Z" transform="translate(-114.68 -204.66)"/><path class="cls-7" d="M315,245.23c-4.47-1.64-9.11-.23-13.64-.76-2.11-.25-5.44,1.25-6-1.21s3.14-2.45,4.85-3.69,3.61-2.19,5.39-3.34a1.39,1.39,0,0,0,.78-1.55c-.24-.77-1-.69-1.57-.66-2.36.11-4.73.17-7.06.47-1.83.23-3.23,0-3.72-2l.2-.18.24.12c7.72-1.08,15.36.37,23,.72a16.69,16.69,0,0,0,3.67,0,4.4,4.4,0,0,1,4.89,2.65c1,2.16-1.05,3-2.33,4.09a2.09,2.09,0,0,1-.62.41c-2.58.91-3.68,2.68-3.18,5.4C318.19,246.41,316.53,246.59,315,245.23Z" transform="translate(-114.68 -204.66)"/><path class="cls-7" d="M165.69,308.1a16.89,16.89,0,0,1-1.91,9c3.06-.07,5-1.58,7-3,2.18-1.59,4.06-1.9,5.47.9.61,2.71-1.68,4.28-2.66,6.3-1.72,3.53-3.21,7.28-6.15,10.1-3.21,1.29-6.72,1.8-9.69,3.76-1.17.78-2.64,1.32-3.8.22-1.37-1.29-.56-2.92.27-4.07,2.57-3.61,3.2-7.94,4.73-11.94A52.56,52.56,0,0,1,165.69,308.1Z" transform="translate(-114.68 -204.66)"/><path class="cls-8" d="M447.17,493.55c-3.25,1-5.3,3.84-7.06,6.09-3.73,4.78-9,6.79-13.78,9.73-3.16,1.95-6.64,3.36-9.65,5.61a3.94,3.94,0,0,1-4.86.29c-.57-1,.09-1.75.69-2.3,4.51-4.12,8.24-9,13.16-12.75,7.67-3.35,15.2-7,21.55-12.54,2.89-2.55,4.46-6.15,6.86-9.11.73-.89.93-2.55,2.71-1.56A76.57,76.57,0,0,1,447.17,493.55Z" transform="translate(-114.68 -204.66)"/><path class="cls-9" d="M141.64,366.51a69.81,69.81,0,0,1,3.69-14.81c.5-.26.87-1.11,1.55-.62a1.85,1.85,0,0,1,.29,2.67c-1.26,2.08-1,4.26-.79,6.5s1.34,2.41,3,1.44c1.29-.74,2.46-1.69,3.81-2.33,2-1,3.36-.52,3.66,1.9-1.1,6.17-1.77,12.42-4,18.32a6,6,0,0,0-5.24.55c-1.74,1.11-3.74,2.46-5.84,1-1.83-1.29-.83-3.42-1-5.2C140.38,372.7,142.17,369.72,141.64,366.51Z" transform="translate(-114.68 -204.66)"/><path class="cls-10" d="M320.25,245.25c-.47-1.16-2.76-.37-2.49-2.23.22-1.44,1.6-1.76,2.67-2.36s2.13-1.25,3.15-1.95,2.82-1.06,2-2.54-2.61-3.11-4.16-2.49a14.76,14.76,0,0,1-9.69,0c-5.79-1.73-11.53-.78-17.25-1.31a124.37,124.37,0,0,1,32.59.73c3.5.49,6.84,2,10.38,2.08A4.5,4.5,0,0,1,342,238.4c.65,2.06-1.24,3.16-2.76,3.92-2.92,1.45-5.35,3.65-8.27,5.1C327.31,247,323.37,248.1,320.25,245.25Z" transform="translate(-114.68 -204.66)"/><path class="cls-11" d="M141.64,366.51c1.68,1.14.85,3.46.54,4.09-1.28,2.65-.05,5.29-.59,7.88-.45,2.19.94,3,2.91,2.19s3.51-1.82,5.28-2.69c1.59-.78,2.66-.6,2.48,1.53a1.75,1.75,0,0,1,.38,1.17,37.29,37.29,0,0,0,0,6.34c.06,6.94,0,13.87,0,20.8,0,1.73.16,3.49-.76,5.08-2.37.92-1.72-1.16-2.15-2.16-.13-4.46,0-8.93-.07-13.39,0-1.71-.26-3-2.59-2.07-6.12,2.37-6.14,2.31-8.64-3.93a4.77,4.77,0,0,1,.21-2.43A90.11,90.11,0,0,1,141.64,366.51Z" transform="translate(-114.68 -204.66)"/><path class="cls-12" d="M331.5,246.74c1.75-2.64,4.62-3.67,7.21-5.13,1.27-.71,3.26-1.62,2.57-3.05a4.3,4.3,0,0,0-4.36-2.61c-3.44.18-6.6-1.82-9.89-2.8a85.2,85.2,0,0,1,21,3.91c2.25,1.51,5.22,1.25,7.35,3.17,2.33,2.12,2.51,3.11-.05,4.89a52.73,52.73,0,0,0-7.07,5.91C342.52,250.13,336.65,249.83,331.5,246.74Z" transform="translate(-114.68 -204.66)"/><path class="cls-13" d="M246.71,558.11a88.26,88.26,0,0,1-18.62-8.38,2.28,2.28,0,0,1,2.44-.37,18.74,18.74,0,0,1,2.45.87c7.53,3.25,14,1.19,19.76-4,3.18.07,6,1.29,8.85,2.56.44,2.08,2,1,3.11,1.06,1.77.25,3.8-.09,4.74,2.07-3.57,4.89-13.62,10.5-19.87,6.7A3.9,3.9,0,0,0,246.71,558.11Z" transform="translate(-114.68 -204.66)"/><path class="cls-9" d="M348.75,250.5c-.08-2.68,2.44-3.15,3.85-4.57,1.25-1.26,4.44-1.69,3.61-3.49-.67-1.46-2.48-3.64-5.21-3.44a3.24,3.24,0,0,1-3-1.94c7.57,1.19,14.55,4.32,21.77,6.68,1.27,2-.13,3.53-.78,5.18-.59,1.49-1,3-1.58,4.54-.53,1.24-.83,2.64-2.22,3.31-5.3-1-10.22-3.12-15.26-4.91A2,2,0,0,1,348.75,250.5Z" transform="translate(-114.68 -204.66)"/><path class="cls-14" d="M159,319.38a21.75,21.75,0,0,1-2.83,10.8c-.36.64-1.16,1.1-1.33,1.76-.26,1-1.45,2.1-.3,3,.83.68,1.85.1,2.71-.52,3-2.18,6.57-2.85,10.06-3.7.77,2-.33,3.7-1.15,5.28-1.86,3.56-2.13,7.93-5.48,10.72-2.72-.54-4.77,1-7,2.2-3.87,2.07-4.59,1.51-4.89-2.77-.29-4.06,2.52-7.25,2.65-11.14A67.61,67.61,0,0,1,159,319.38Z" transform="translate(-114.68 -204.66)"/><path class="cls-15" d="M456.79,477c-2.26,2.82-5.09,5.26-6.21,8.85-.86,2.77-3.71,3.67-5.54,4.9-6,4-12.2,8-19.28,10.16a1.8,1.8,0,0,1,.27-2.07c2.93-3.45,5.16-7.45,8.47-10.59a36.16,36.16,0,0,1,6.05-3.65c11.07-4.91,18.26-13.26,22-24.67a4.42,4.42,0,0,1,.49-1c.5-.57,1-1.05,1.88-.71A80.93,80.93,0,0,1,456.79,477Z" transform="translate(-114.68 -204.66)"/><path class="cls-16" d="M246.71,558.11c.73-1.15,1.67-.79,2.6-.36,7.37,3.4,12.77-.92,18.25-4.73.6-.41,1.05-1,1.83-1.09a2.6,2.6,0,0,1,2.41-.74c4.64.86,9.35,1.34,13.83,2.9a4.72,4.72,0,0,1-2.32,3.48c-6.17,3.66-12.18,8.45-20.18,5.32a5.93,5.93,0,0,0-2.93-.26A58.35,58.35,0,0,1,246.71,558.11Z" transform="translate(-114.68 -204.66)"/><path class="cls-12" d="M151.43,335c.11,2.59.21,5-1.39,7.46-1.2,1.81.17,4.19-.31,6.38-.19.9,1.66.35,2.43-.13a26.53,26.53,0,0,1,6.58-3.3c1.13-.32,1.65-.12,1.76,1,.1,5.26-.87,10.18-4.5,14.27-.13-.78-.31-1.57-1.37-1.14-.69.28-1.29.75-1.95,1.08-2.14,1.05-3.7,3.71-6.56,2.69-1.19-.43-1-7.25,0-9.38.38-.83,2.43-2.63-.82-2.31C146.91,346,148.52,340.28,151.43,335Z" transform="translate(-114.68 -204.66)"/><path class="cls-17" d="M150.75,410.25c.11,1-.35,2.22.76,3,2.72,3.46,2.1,7.52,2,11.47-2.44-.45-4.23,1-6.17,2.07-4.33,2.45-5.79,1.69-6.73-3.34a9.08,9.08,0,0,0-.44-1.43,4.93,4.93,0,0,1-.31-1c-1.33-2.19,0-4.78-1.1-7a103.24,103.24,0,0,1-.12-25.09c.06.87.13,1.74.19,2.61a37,37,0,0,1,1.61,10.65,34.11,34.11,0,0,0,1.33,7.71c.58,2.08,1.7,2.56,3.58,1.39C147,410.26,148.59,408.62,150.75,410.25Z" transform="translate(-114.68 -204.66)"/><path class="cls-18" d="M291,567.74c-2.31.37-4.49-.55-6.75-.74-1.24.83-2.54-.42-3.79.1a28.42,28.42,0,0,1-8.26-1.57c.3-2.27,2-1.84,3.42-1.66,7.51,1,13.51-2,18.76-7a3,3,0,0,1,1.87-1.11c5.28-.08,10.61-1,15.84.55,1.23,2.19-.27,3.35-1.84,4.14A91.85,91.85,0,0,0,299.33,567a5.18,5.18,0,0,1-3.95.55C293.94,567.31,292.43,567,291,567.74Z" transform="translate(-114.68 -204.66)"/><path class="cls-19" d="M204.71,534.77a50.71,50.71,0,0,1-9.93-8.19,3.41,3.41,0,0,1,4.48-.33c3.41,2.07,6.36,1.33,9.34-.82a8.55,8.55,0,0,1,3.34-1.63c4.65,2,9,4.41,12,8.77a12.07,12.07,0,0,1-16,4C206.88,536,205.78,535.4,204.71,534.77Z" transform="translate(-114.68 -204.66)"/><path class="cls-20" d="M474.85,391.3a84.29,84.29,0,0,1-.11,20.45,10.81,10.81,0,0,0-1.69,4.92c-.49,3.44-2.33,5.56-5.33,7.15-2.5,1.33-5.09,2.63-7,4.87-.75.88-1.27.26-1.62-.53.41-6.18.53-12.4,2.48-18.37,1.45.36,1.45.36,1.42,2.16.47-.17.83-.56,1.29-.73,7.12-2.71,8.85-8.46,8.76-15.32C473,394.19,473.13,392.39,474.85,391.3Z" transform="translate(-114.68 -204.66)"/><path class="cls-21" d="M463.5,459v.75c-3.13,6.88-9.63,9.84-15.61,13.39-1.26.75-2.52,1.67-4.1.79a2.16,2.16,0,0,1,0-2.13c2.29-4.15,3.46-8.91,6.65-12.59,3.9-1.39,7.4-3.59,11-5.63,2.46-1.41,3.53-4.06,4.71-6.58.61-1.33.69-3.71,3.31-3a41.45,41.45,0,0,1-3.69,12A25.16,25.16,0,0,0,463.5,459Z" transform="translate(-114.68 -204.66)"/><path class="cls-22" d="M204.71,534.77c2.51-.3,4.67,1.28,6.85,1.92,5.53,1.64,8.47-1.63,12-4.33a1.8,1.8,0,0,1,2.11,0c3.37,2.21,7.43,3.4,10.09,6.7-4.71,6-10.84,8.55-17.29,4.56a27.32,27.32,0,0,0-4-1.92A46.5,46.5,0,0,1,204.71,534.77Z" transform="translate(-114.68 -204.66)"/><path class="cls-23" d="M474.85,391.3a49,49,0,0,0-1.49,11.78c-.14,2.9-1.14,4.73-3.63,5.93a9.41,9.41,0,0,0-3,1.58c-2.37,2.6-3.91,2.47-4.77-1.09a2.61,2.61,0,0,1-.64-2.3,27,27,0,0,0,.38-7c0-2.38.72-3.93,3.26-4.62,4.74-1.27,8-3.91,7.52-9.45a3.13,3.13,0,0,1,1.61-3.13C475,385.7,474.86,388.51,474.85,391.3Z" transform="translate(-114.68 -204.66)"/><path class="cls-21" d="M312,556.54c-.62,0-1.25-.06-1.87,0-6.58.32-13.18-1.31-19.12,4.19a17.11,17.11,0,0,1-17,3.83c-1-.31-1.15.79-1.82,1a48.13,48.13,0,0,1-12-2.9c1.81-1.89,3.65.06,5.37.21,4.08.36,7.75-.06,11.06-2.53,2.42-1.79,6.21-1.67,7.39-5.27.06-.2,1.17,0,1.79-.06a4.24,4.24,0,0,1,3.84-1c8.59,1.13,17.21.37,25.81.61,1.61,0,3.27-.1,4.67,1-.31,2.55-2.4,1.87-3.9,2A5.15,5.15,0,0,1,312,556.54Z" transform="translate(-114.68 -204.66)"/><path class="cls-24" d="M212.2,524.26c-2,1.24-3.9,2.56-5.93,3.7s-4,1.34-5.88-.15a7.27,7.27,0,0,0-5.61-1.23,85.54,85.54,0,0,1-13.6-13.5c1.31-.87,2.15.17,2.85.91,2,2.13,4.56,3.22,7,4.63,2.63,1.49,4.56,1.14,6.85-.21,1.67-1,3.18-2.45,5.38-2.24C206.63,518.46,210.4,520.28,212.2,524.26Z" transform="translate(-114.68 -204.66)"/><path class="cls-25" d="M459.76,429c.95-3.11,4-4,6.33-5.24,3.51-1.9,6-3.89,6.28-8.24.07-1.24.4-3.27,2.37-3.77a56.1,56.1,0,0,1-1.35,12.79,2.24,2.24,0,0,0-.79,1.21,29,29,0,0,0-1,4.43,5.35,5.35,0,0,1-.44,1c-2.5,4.39-7.3,5.69-11.17,8.23-1.16.76-2.4.37-3-1.08C457.23,435,457.08,431.58,459.76,429Z" transform="translate(-114.68 -204.66)"/><path class="cls-26" d="M140.25,420.75l0,.75a106.36,106.36,0,0,0,3.35,11c1.85,4.61,3.29,5.09,7.48,2.32,1.16-.76,1.79-2.57,3.68-2.06a36.57,36.57,0,0,1,3.79,14c-2.57,1.1-5.37,1.45-7.87,2.85-1.65.93-3-.27-4.09-1.61s-1.42-2.89-2.71-3.93a96.1,96.1,0,0,1-4.48-23.27A.48.48,0,0,1,140.25,420.75Z" transform="translate(-114.68 -204.66)"/><path class="cls-27" d="M466.51,347.25a31.25,31.25,0,0,1,3,10.36c.59,2.63.78,5.33,1.36,8,.53,2.43,0,4.88-2.14,6.34-3.48,2.39-6.66,4.89-7.75,9.24a2,2,0,0,1-1.42-2c-.59-4.68-1.86-9.25-2.26-14,0-1.84,1.32-2.4,2.75-3.09,5.72-2.77,6-3.47,5.39-9.81C465.33,350.62,463.81,348.44,466.51,347.25Z" transform="translate(-114.68 -204.66)"/><path class="cls-28" d="M203.17,516.77c-2.67.4-4.48,2.49-6.85,3.51-1.72.74-2.86.38-4.64-.2-4.3-1.38-6.93-4.82-10.5-7a22.48,22.48,0,0,1-4.52-5.25c1.53-1,2.68.07,3.6.94,3.16,2.94,6.24,2.38,9.44.16a7.25,7.25,0,0,1,3.68-1.66A23.12,23.12,0,0,1,203.17,516.77Z" transform="translate(-114.68 -204.66)"/><path class="cls-29" d="M461.21,381.08c-.61-3.74.85-6.23,4.28-7.92,3.83-1.88,5.72-4.76,4.32-9.34-.59-1.92-.2-4.13-.26-6.21a14.77,14.77,0,0,1,1.48,6.05c1.43,5.22,1.26,10.63,2,15.93a4.45,4.45,0,0,1-1.57,4.4c-3.13,2.15-5.9,5.38-10.4,4.34C459.89,385.88,459.66,383.46,461.21,381.08Z" transform="translate(-114.68 -204.66)"/><path class="cls-30" d="M461.26,289.52c-1.28,3.27-2.61,6.51-5.23,9-.8.55-.95,1.53-1.53,2.23-1.41,1.54-2.8,3.11-4.26,4.6-1,1-2,1.91-1.74,3.46-.76.85-2.09.64-2.83,1.53a3.09,3.09,0,0,1-2.32.67c-2.8-1.79-2.93.54-3.46,2.26-1.05,2-3.05,2.46-5,3a2.38,2.38,0,0,1-1.64-.38,4.15,4.15,0,0,1-1.12-3.74,2.13,2.13,0,0,1,1.09-1.43c10-4.65,17.41-12.12,23.16-21.38a4.88,4.88,0,0,1,2.73-1.76C460.53,287.35,461.94,287.35,461.26,289.52Z" transform="translate(-114.68 -204.66)"/><path class="cls-31" d="M143.9,444c1.77-.11,2.27,1.27,2.87,2.49,1.2,2.42,2.52,3.39,5.21,1.49,1.69-1.19,3.85-2.52,6.21-1,3,2.65,3.65,6.1,3.46,9.87-2.76,3.56-6.53,3.46-10.38,2.7a4.3,4.3,0,0,1-3.12-3.35,11.8,11.8,0,0,0-1.84-4A22.55,22.55,0,0,1,143.9,444Z" transform="translate(-114.68 -204.66)"/><path class="cls-32" d="M161,485.33a52.51,52.51,0,0,1-6-11.28c1.45-.86,2.58-.06,3.66.77,4.19,3.21,4.18,3.23,8.53.53a4.4,4.4,0,0,1,2.33-1,14.91,14.91,0,0,1,6.11,10.35c-1.48,1.72-3.56,2.55-5.45,3.67-2.12,1.26-4,.2-5.89-.68C163,487.1,162.21,486,161,485.33Z" transform="translate(-114.68 -204.66)"/><path class="cls-33" d="M462,388.6c2.67-1.49,5.37-2.91,8-4.49,2.11-1.27,3.21-3.05,1.66-5.46a1.79,1.79,0,0,1-.19-1.74c1.81-4.48-.75-8.82-.37-13.25a73.23,73.23,0,0,1,3.1,19.33,16.68,16.68,0,0,0-.65,5c.34,3.82-3,7.66-7.78,8.48-2.82.48-2.95,1.7-3,3.9s.78,4.68-.65,6.84A2.82,2.82,0,0,1,461,405C461.14,399.5,459.69,393.94,462,388.6Z" transform="translate(-114.68 -204.66)"/><path class="cls-34" d="M472.49,425.25l.9-.71a80.77,80.77,0,0,1-4,19.46c-3.15,1.37-2.52,5-4.39,7.26-3.83,4.62-9.07,6.48-14.34,8.48-.58-4,1.07-7.36,3.34-10.49,6.82-1.87,12.67-4.89,14.66-12.44.58-2.18,1.61-4.18,2.3-6.31C472,428.89,471.59,426.89,472.49,425.25Z" transform="translate(-114.68 -204.66)"/><path class="cls-35" d="M161,485.33c5,3.46,9.85,2.6,14.49-.83a13.37,13.37,0,0,1,6.35,9c-5.4,6.2-10.51,6.22-15.43,0-.77-1-1.45-2-2.25-3A13.86,13.86,0,0,1,161,485.33Z" transform="translate(-114.68 -204.66)"/><path class="cls-36" d="M366.64,253.14c.08-3.45,2.92-6,3.14-9.4.69.25,1.55.74,1.92-.25,2.53-6.67,8-10.8,13-15.39a11.94,11.94,0,0,1,6.05-3.11,1.65,1.65,0,0,1-.41,2.71,2.78,2.78,0,0,0-1.52,2.2c-2,2.6-4.5,4.64-6.75,6.95a43.13,43.13,0,0,0-10.93,18.4c-.36,1.22-.38,2.86-2.31,2.9C367.05,256.94,366.12,255.36,366.64,253.14Z" transform="translate(-114.68 -204.66)"/><path class="cls-37" d="M169.58,474.73c-1.42.95-2.79,2-4.25,2.84-2.43,1.48-4.75,1.38-6.4-1.13-1-1.51-2.44-1.9-3.94-2.39a36.51,36.51,0,0,1-4.28-9.79c1.89-.48,3.14.74,4,2,1.5,2.26,3.05,1.82,5,.81,1.69-.88,3.3-2.26,5.47-1.63C167.79,468,169.89,470.79,169.58,474.73Z" transform="translate(-114.68 -204.66)"/><path class="cls-38" d="M165,465.75c-2.48.44-4.5,1.94-6.7,3-1.56.75-2.79,1-3.54-.94s-2.61-2.5-4.07-3.56a44.71,44.71,0,0,1-4.4-12c.56.47,1.4.85,1.61,1.45,1,2.7,1.65,5.37,5.44,5.34a12.74,12.74,0,0,0,7.94-2.31A9.15,9.15,0,0,1,165,465.75Z" transform="translate(-114.68 -204.66)"/><path class="cls-39" d="M164.18,490.52c1.91.8,2.88,2.66,4.21,4.05,2.8,2.92,5.59,3.7,9.06,1.34,1.31-.9,2.75-1.63,4.13-2.44a8.83,8.83,0,0,1,6,7.75,7.13,7.13,0,0,1-1.62,1.53c-5.44,4.18-8.2,4.13-13.48-.24A57.58,57.58,0,0,1,164.18,490.52Z" transform="translate(-114.68 -204.66)"/><path class="cls-40" d="M466.51,347.25c-1.34,2.85-.14,5.74.35,8.44a4.07,4.07,0,0,1-1.94,4.62c-2.16,1.53-4.47,2.86-6.71,4.27-3.14-2.94-3.25-6.89-3.54-10.77,1-1.89,3.22-1.57,4.76-2.53,1.85-1.14,3.41-2.11,3.16-4.84-.16-1.76-.23-4,1.78-5.28A18.59,18.59,0,0,1,466.51,347.25Z" transform="translate(-114.68 -204.66)"/><path class="cls-41" d="M252.77,546.74c-2.42,3.71-9.26,6.56-13.63,5.92-3.81-.55-7.31-2.18-11-2.93a29.16,29.16,0,0,1-7.77-4.41c1.36-1,2.66-.3,3.76.37,2.76,1.67,5.91,1.81,8.9,2.24,3.15.46,5.27-2.27,7.78-3.7.83-.47,1.27-1.53,2.28-1.83C246.72,542.87,250.41,543.31,252.77,546.74Z" transform="translate(-114.68 -204.66)"/><path class="cls-42" d="M420.75,219c2.77-1.44,5.25,0,7.85.68A39.9,39.9,0,0,1,445.5,228c-1.17,1.67-3.65.1-4.77,1.93a2.61,2.61,0,0,1-1.61-.11c-6.36-3.59-13.05-6.2-20.41-6.78-2.67-.08-5.37.44-8-.48-1.62-2.83.78-3.53,2.49-4A9.52,9.52,0,0,1,420.75,219Z" transform="translate(-114.68 -204.66)"/><path class="cls-43" d="M454.5,319.5A55.78,55.78,0,0,1,460.59,332c.23,2.07,1.17,3.94,1.28,6.13.16,3.36-1.35,5.11-4.1,6.31a18.33,18.33,0,0,0-4.71,3c-3.08-1.51-2.79-4.77-3.81-7.35.15-3,2.35-4.58,4.49-6s2.6-3.11,1.93-5.67C454.91,325.51,453.41,322.64,454.5,319.5Z" transform="translate(-114.68 -204.66)"/><path class="cls-44" d="M243.15,542.92a14,14,0,0,1-8.85,6.14c-2.52.52-6.25-.35-9.18-1.84-1.52-.78-2.94-1.93-4.8-1.9a19.34,19.34,0,0,1-5.88-3.65c1.26-1.23,2.19.34,2.79.72,6.45,4.1,11.9,1.93,17.13-2.35a14.43,14.43,0,0,1,1.22-.82A7.32,7.32,0,0,1,243.15,542.92Z" transform="translate(-114.68 -204.66)"/><path class="cls-45" d="M172.49,502.51a1.77,1.77,0,0,1,.71.11c4.64,3.17,8.94,2.91,12.91-1.19.3-.3.91-.29,1.37-.43,3.58.84,5.19,3.47,6.13,6.71-1.68,1-3.32,2.16-5.07,3.07-2.81,1.45-5.62,1.85-8.1-.73a7.05,7.05,0,0,0-3.78-2.22A19,19,0,0,1,172.49,502.51Z" transform="translate(-114.68 -204.66)"/><path class="cls-35" d="M454.5,319.5c.7,2.92,1.18,5.92,2.15,8.75s.89,4.82-2.18,6.38c-2,1-3.94,2.58-4.47,5.12-3.27-2.35-4.14-6-5.08-9.57.62-2.14,2.61-2.84,4.2-3.92,3.73-2.51,3.93-3.2,2.57-7.6-.54-1.74-2.32-3.38-.81-5.45A25.59,25.59,0,0,1,454.5,319.5Z" transform="translate(-114.68 -204.66)"/><path class="cls-46" d="M453,347.28c-.31-1.86,1.08-2.16,2.34-2.74,6.34-2.91,6.43-3.17,5.26-10.33a12.66,12.66,0,0,1,0-2.22,6,6,0,0,1,1.41,3.26,20.66,20.66,0,0,0,2.38,6v0c-.2,2.34-1.28,4.45-.71,7,.49,2.22-2.31,2.84-3.9,3.89a7.07,7.07,0,0,1-4.61,1.17C452.67,351.91,452,349.9,453,347.28Z" transform="translate(-114.68 -204.66)"/><path class="cls-47" d="M450.88,313.21c.17,3.23,2.43,5.82,2.6,9.17a3.16,3.16,0,0,1-1.85,3.47c-2.12,1.28-4.1,2.77-6.14,4.16-2.9-.84-3-3.51-3.72-5.74,0-2,1.42-3,2.87-4,4.65-3.17,4.94-6.75.84-10.52.75-1.13,1.62-1.89,3-.92C449.29,310.28,450.08,311.75,450.88,313.21Z" transform="translate(-114.68 -204.66)"/><path class="cls-48" d="M420.75,219c-3.76.07-8-1.47-10.5,3-.92,1.2-2.31,1.4-3.65,1.66a45,45,0,0,0-14.66,5.42c-1,.62-2.16,1.4-3.44.42-1.11-1.12-.87-2,.64-2.2s1.63-1.15,1.61-2.31c5.69-2.89,10.91-6.49,17.95-6.47,2.58,0,5.68-.82,8.57-1C418.66,217.42,420.05,217.44,420.75,219Z" transform="translate(-114.68 -204.66)"/><path class="cls-49" d="M465.74,267c.26,7-.24,13.93-3.72,20.27l-.46-.19c-1.13-1-2.45-1.85-3-3.36-.13-1.9.93-3.59,1-5.45a80,80,0,0,0,1.58-12.71,3.17,3.17,0,0,1,.35-1.05c.78-1.2,1.88-2.38,3.27-1.93s.46,2,.62,3A2.63,2.63,0,0,0,465.74,267Z" transform="translate(-114.68 -204.66)"/><path class="cls-50" d="M441,229.5c.56-3.3,2.94-1.19,4.5-1.51,3.62,2.39,7,5,9,9-1.54-.47-2.92.27-4.35.59-2.87-.71-4.1-3.53-6.42-5-.55-.37-1.09-.77-1.62-1.17C441.59,230.9,440.58,230.6,441,229.5Z" transform="translate(-114.68 -204.66)"/><path class="cls-51" d="M450,237c1.5-.65,3-1.13,4.51,0,2.23,2.44,4.36,4.94,5.26,8.24a3.5,3.5,0,0,0-.24.42,8.86,8.86,0,0,1-2,3.5c-1.76-.06-1.88-1.68-2.62-2.71-.3-.57-.59-1.15-.94-1.69a10.67,10.67,0,0,1-.95-1.68c-.71-1.85-2.32-3.07-3.35-4.71A1.25,1.25,0,0,1,450,237Z" transform="translate(-114.68 -204.66)"/><path class="cls-52" d="M465.74,267c-1.3-1-.4-2.55-1-3.91-.94.89-2.65.66-2.78,2.41-1.4.07-1.55-1.06-1.63-2-.27-2.76-1.47-5.41-1-8.26,1.89-2.56,3.42-1.42,4.89.47A28.12,28.12,0,0,1,465.74,267Z" transform="translate(-114.68 -204.66)"/><path class="cls-51" d="M464.24,255.75c-1.42-.73-2.79-1.69-4.49-.75a2.15,2.15,0,0,1-1.06-1.67,1.19,1.19,0,0,1,.44-.85,3,3,0,0,0,2.51-2.42l.37-.32C463.81,251.35,463.49,253.75,464.24,255.75Z" transform="translate(-114.68 -204.66)"/><path class="cls-49" d="M461.26,289.52c-2.1-3.48-3.07.1-4.52.72-1.33-2.33.05-3.87,1.57-5.36,1.57.23,2.52,1.45,3.67,2.35l0,0C462,288.09,462.12,289,461.26,289.52Z" transform="translate(-114.68 -204.66)"/><path class="cls-53" d="M140.25,420.75l-.83,0a17.55,17.55,0,0,1-.63-6.76C140.54,416,139.23,418.62,140.25,420.75Z" transform="translate(-114.68 -204.66)"/><path class="cls-51" d="M459.77,245.24a4.92,4.92,0,0,1,2.24,4.5l0,0c-3.08-.34-3.21-2.15-2.25-4.51Z" transform="translate(-114.68 -204.66)"/><path class="cls-40" d="M464.38,341.21a7.05,7.05,0,0,1-2.38-6A13.49,13.49,0,0,1,464.38,341.21Z" transform="translate(-114.68 -204.66)"/><path class="cls-54" d="M280.46,567.1c1.22-1.79,2.53.09,3.79-.1v.67A6.2,6.2,0,0,1,280.46,567.1Z" transform="translate(-114.68 -204.66)"/><path class="cls-18" d="M463.5,459c.26-1.36.47-2.76,2.24-3a3.14,3.14,0,0,1-.79,2.26Z" transform="translate(-114.68 -204.66)"/><path class="cls-55" d="M454.5,300.75c0-1.09,0-2.2,1.53-2.23A2.35,2.35,0,0,1,454.5,300.75Z" transform="translate(-114.68 -204.66)"/><path class="cls-56" d="M442.47,324.06a16.28,16.28,0,0,0,3,5.95q2.26,4.88,4.51,9.74c1,2.51,2,5,3,7.52.06,2.24,1.24,4.07,2.16,6a56.8,56.8,0,0,0,3.06,11.31l3,16.5c.24,2.51-.53,5.11.74,7.51l.09,18.66c0,.75,0,1.5,0,2.25q-1.12,9.75-2.24,19.5-1.12,4.88-2.24,9.76a15.19,15.19,0,0,1-3,10.49,67.42,67.42,0,0,0-3.81,10.49Q447.34,466.87,444,474c-1.54,5.89-5.19,10.51-9.11,15l-9.09,12-13.94,14.35c-11,9.6-22.75,18.17-35.94,24.56-5.69,2.77-11.58,5.11-17.38,7.64-8.44,4.64-17.88,5.77-27.07,7.75-3.73.14-7.39,1.78-11.17.51-11.49.14-23,.42-34.45-.75l-16.42-3.05a14.71,14.71,0,0,0-5.35-1.5,2.77,2.77,0,0,1-2.25-.71l-9-3a42.52,42.52,0,0,0-9.62-3.82,28.76,28.76,0,0,0-7.57-3.7l-12-6.86-11.34-8.1-9-7.49-9.56-9.06c-1.91-2.35-3.56-4.95-6.13-6.71a28.18,28.18,0,0,0-5.9-7.53,64.78,64.78,0,0,0-6.07-9,63.12,63.12,0,0,0-5.93-9.77,36.69,36.69,0,0,0-4.56-9,26.79,26.79,0,0,0-3.72-9,47.12,47.12,0,0,0-3.1-9.73q-1.87-7.12-3.73-14.25a7.68,7.68,0,0,1-1.49-7.52l-1.47-12v-27c1-1.91-.26-4.11.74-6,0-.25,0-.49,0-.74q1.88-9.37,3.74-18.75a119.26,119.26,0,0,0,4.5-14.27q3.38-7.87,6.76-15.74,4.5-7.86,9-15.74c3.41-4.35,6.78-8.73,10.25-13,2.77-3.45,5.66-6.81,8.5-10.21a6.75,6.75,0,0,1,2.25-2.26l.75-.75c10.18-8.75,20.51-17.25,32.32-23.82a159,159,0,0,1,32.2-13.67c1.3-.39,2.7-.49,3.73-1.51h0c1.12-.89,2.64.16,3.75-.76,6.48-.82,12.83-2.37,19.35-3.13,8.57-1,17.11-.3,25.65-.64l5.25,0,11.25,1.49,17.25,3.76c5.38,2.28,11.21,3.33,16.45,6,1.13,1.16.58,2.55.55,3.89-.14,7.67-.83,15.39,1.46,22.91,1.56,5.92,4.66,11.05,8.19,16,2.2,2.78,4.91,5.06,7.34,7.62a11.88,11.88,0,0,0,2.85,2.39c.74.52,1.48,1.06,2.26,1.51.62.41,1.21.86,1.85,1.22.27.14.52.3.77.45a21.63,21.63,0,0,0,2.42,1.18,8.16,8.16,0,0,1,.84.41,19.84,19.84,0,0,0,3.13,1.21c.64.24,1.27.5,1.92.73,1.75.54,3.54.91,5.3,1.41a46.39,46.39,0,0,0,11.33,1c4.74.33,9.29-.74,13.8-2,1.42-.39,2.8-1,4.32-.58l1.46-.17c1.84-.82,3.06.05,4.06,1.5A20.27,20.27,0,0,1,442.47,324.06Z" transform="translate(-114.68 -204.66)"/><path class="cls-54" d="M331.51,554.27c9.13-1.74,18.08-4.16,27-6.8-6.44,6.95-15.31,10.18-23.06,15.11a31.74,31.74,0,0,1-10.14,4.2c-3.74.79-7.78,1.86-11.8,1,1.77-3,4.87-4.37,7.69-5.89,3.72-2,7.37-4.14,11.11-6.11C332.56,555.61,331.07,555.17,331.51,554.27Z" transform="translate(-114.68 -204.66)"/><path class="cls-57" d="M331.51,554.27c2.25,1.05,1.84,2-.05,3-6,3.38-12.27,6.46-18,10.46-7.5-.49-15,1-22.5,0,.42-.24.87-.7,1.26-.66,7.86.82,12.34-6,18.81-8.3,1-.35.91-1.37.94-2.24,2.73-.47,5.63.85,8.25-.81Z" transform="translate(-114.68 -204.66)"/><path class="cls-2" d="M197.25,289.5a4.71,4.71,0,0,1-2.25,2.26A2.11,2.11,0,0,1,197.25,289.5Z" transform="translate(-114.68 -204.66)"/><path class="cls-2" d="M270,249c-1.05,1.24-2.48.58-3.75.76C267.3,248.49,268.74,249.18,270,249Z" transform="translate(-114.68 -204.66)"/><path class="cls-58" d="M150.75,410.25c-2.46-.6-3.83,1.38-5.57,2.42-2.25,1.34-3.53,1.08-4.23-1.71a79,79,0,0,1-2.09-19.43,3,3,0,0,1,1.73,2.3c.55,3.83,2.53,2.51,4.56,1.41,1.58-.85,3.2-2.78,4.93-1.76,1.55.92.59,3.21.63,4.87C150.82,402.32,150.75,406.28,150.75,410.25Z" transform="translate(-114.68 -204.66)"/><path class="cls-9" d="M152.25,380.25c-.3,2,.71,4.16-.74,6C151.82,384.27,150.75,382.1,152.25,380.25Z" transform="translate(-114.68 -204.66)"/><path class="cls-16" d="M261.79,549.72a2.67,2.67,0,0,1,2.25.71C262.82,551.69,262.18,551.1,261.79,549.72Z" transform="translate(-114.68 -204.66)"/><path class="cls-59" d="M366.56,284.33c-3.32-9.13-2.44-18.47-1.36-27.82l1.44-3.37c.11,2,1.83,3.12,2.36,4.86a4,4,0,0,1,.83,3.86,61.7,61.7,0,0,0-.48,9.7c0,1.56-.3,3.14.25,4.68.25.7.51,1.41.76,2.12.33,1.59,1.12,3.14.54,4.84A4.88,4.88,0,0,1,366.56,284.33Z" transform="translate(-114.68 -204.66)"/><path class="cls-18" d="M434.85,489q4.56-7.48,9.11-15c5.2-2.34,9.91-5.54,14.71-8.56,2.15-1.35,1.56-5.18,4.83-5.69a83.66,83.66,0,0,1-7.28,13.89c-4.7,7.19-12.3,9.18-18.51,13.59C436.8,487.87,435.81,488.39,434.85,489Z" transform="translate(-114.68 -204.66)"/><path class="cls-53" d="M153,425.24q.75,3.76,1.49,7.52a12.53,12.53,0,0,1-4.1,3.61c-4.49,2.17-5.67,1.85-7.41-2.78-1.46-3.89-2.81-7.83-2.69-12.09,1.56.7,1.43,2.09,1.51,3.46.12,2.45,1.41,3,3.47,1.89a45.92,45.92,0,0,0,4.46-2.6C151.32,423.14,152.28,423.65,153,425.24Z" transform="translate(-114.68 -204.66)"/><path class="cls-60" d="M454.51,449.25q1.5-5.25,3-10.49a2.24,2.24,0,0,0,2.73-.3c3.48-2.79,8.11-4,10.75-8,1.32,2.24-.52,4.17-1.13,5.86-1.74,4.88-3.7,10.12-9.78,11.33C458.17,448.08,457.16,451.69,454.51,449.25Z" transform="translate(-114.68 -204.66)"/><path class="cls-60" d="M472.49,425.25c0,1.9.23,3.85-1.49,5.25C471,428.61,470.78,426.65,472.49,425.25Z" transform="translate(-114.68 -204.66)"/><path class="cls-61" d="M459,285a7.77,7.77,0,0,0-2.26,5.24,52.8,52.8,0,0,1-24,21.75c-3.29,2.93-7.44,3.21-11.49,3.78a3.12,3.12,0,0,1-1.08-.27c-2.62-3.54-2.35-6.38.91-9.11a12.24,12.24,0,0,0,2.08-2.62c.59-.85,1.58-1.48-.49-2.18-1.51-.51-1.88-2.24.24-3.17.5.66,1.32.3,2.27.72-.9-.49-1.67-.08-2.17-.64a.77.77,0,0,1,0-.95c1-.82,2.3-.66,3.5-.76.52-.12,1.11.1,1.58-.3a2,2,0,0,1-.49-.52c-.66-2.09.63-3.14,2.27-3.48,1.46-.29,1.41,1.23,1.65,2.27.7-1.27,1-2.8,2.54-3.4,5.83-2.69,7.88-9.07,4.3-14.21A14.33,14.33,0,0,0,427.78,271a1.21,1.21,0,0,1-.75-.73c-.29-1.66.68-2.44,2.05-2.94,6,1,11.29,2.94,13.68,9.24-.34,2,.34,3.88.86,6,2-1.06,3.84-2.29,6.2-2.1,1.45.12,1.67-.75,1.1-1.93a3.59,3.59,0,0,1-.59-1.75c.11-1.57-.07-3.56,1.89-4a2.32,2.32,0,0,1,3,2.35c.08,1.35,1.31.52,1.94,1a12.88,12.88,0,0,1,3.32,2.92q-.75,2.63-1.48,5.25c.18.17.25.34.18.5S459.06,285,459,285Z" transform="translate(-114.68 -204.66)"/><path class="cls-62" d="M442.47,324.06c-1.42-2.15-2.94-4.24-4.22-6.47a3.27,3.27,0,0,0-3.26-1.91l4.63-2.67c.68-1.78,2.31-2,3.87-2.39l2-.88c2.13.18,2.73.95,3.49,3.4,1.66,5.37-1.57,6.78-5,8.6A2.61,2.61,0,0,0,442.47,324.06Z" transform="translate(-114.68 -204.66)"/><path class="cls-63" d="M420.75,315c4.15-.41,8-1.89,12-3l.78,3.85a37.84,37.84,0,0,1-18,3.55C415,315.24,418.36,315.7,420.75,315Z" transform="translate(-114.68 -204.66)"/><path class="cls-64" d="M443.49,310.62a7.77,7.77,0,0,1-3.87,2.39c-1.19-2,.47-2.81,1.65-3.69C442.84,308.15,442.66,310.32,443.49,310.62Z" transform="translate(-114.68 -204.66)"/><path class="cls-65" d="M368.25,272.25c-.4-4.78.5-9.5.75-14.25,1.93-4.62,3.3-9.42,6-13.76,3.62-5.79,8.55-10.23,13.48-14.74,5.18-2.17,9.95-5.37,15.62-6.33,2.05-.35,4.09-.78,6.13-1.17h9a1.22,1.22,0,0,1,.06,1.41c-3.06,3.44-4.29,8.49-9.15,10.37a12,12,0,0,0-3.47,2.15c-1.46,1.29-2.79,2.62.38,3.53,1,.29,1.47,1,.28,1.8a7.75,7.75,0,0,1-2.47.45c-2.14,1.64-1.17,3.63-.63,5.57.63,1.26,1.53,2.43,1.26,4a1.55,1.55,0,0,1-1.1,1.1c-3.11-.75-5-3.3-7.32-5.12-.93-1-1.89-1.89-2.78-2.9-.12-.13-.16-.51-.51-.31a2.71,2.71,0,0,1,.33,1c-1.28,1.75.9,2.74.94,4.2a1.8,1.8,0,0,1-.6,1.41c-3.79,1.46-8,2.39-9,7.32-.26,1.41-1.26,2-2.41,2.61a8.29,8.29,0,0,0-4.52,6c-.78,3.4-3.18,6.19-3.48,10-.18,2.15-3.16,2.27-5.36,1.69a1.56,1.56,0,0,1-.75-1.5C368.06,275.36,369.23,273.63,368.25,272.25Z" transform="translate(-114.68 -204.66)"/><path class="cls-66" d="M407.19,240.77c-.61-1.45-4.41,0-3-3.4.34-.81.45-1.44,1.35-2,2.43-1.37,4.75-2.95,7.1-4.49,1.25-.82,3.73-1,1.73-3.58-.46-.58.43-1.35,1.21-1.5,2.14-.43,2.84-2.19,3.66-3.85,7.25,1.15,14.35,2.69,20.25,7.5.67,1.16,2,1,3,1.5l1.5.76c-.91,3.66-.91,3.66-5.75,1.72-1.93,3.6-4.05,6.94-8.36,8.06a18.75,18.75,0,0,0-2.06.88,1.81,1.81,0,0,0-1.38,2c.07,1.21.93,1.31,1.82,1.43,1.1.14,2.26.07,3.14,1a2.06,2.06,0,0,1,.28,1.64,1.85,1.85,0,0,1-1.27,1.13c-4.74-.47-9.28-2.57-14.2-1.6-1,.19-1.79-.71-2.46-1.46a8,8,0,0,0-3.54-2.68,5.79,5.79,0,0,1-.84-.47c-.67-.66-1.54-1.08-2.25-1.69A.74.74,0,0,1,407.19,240.77Z" transform="translate(-114.68 -204.66)"/><path class="cls-67" d="M442.5,231c-1.36.21-3,.92-3-1.5H441Z" transform="translate(-114.68 -204.66)"/><path class="cls-68" d="M460.49,279c-2.23-.64-3.87-2.72-6.44-2.6-.25,0-2-.94.14-1.4,1.29-.28.15-.95-.2-1.07-.78-.28-1.93-1.59-2.34.15-.31,1.29-1.51,2.83.17,4.11,1,.77.75,1.71.4,2.69-.57,1.63-1.63.54-2.47.42-2-.29-3.54.74-5.13,1.79s-1.72,1-2-1.22c-.25-1.79-2-3.49-.17-5.33-1-2.53-.08-5,.23-7.48,0-.79,1.2-.56,1.26-1.66s1.05-1.9,2.18-.63c.18.19.31.33.37.41a1.17,1.17,0,0,1-.41-.52c1.4-3,2.42-3.45,4.24-1.51s2.86.6,3.08-.79.54-2.32,2.14-2.28c2.35.06,2.36-1.47,1.86-3-.72-2.29-.51-4.17,1.64-5.55a1.56,1.56,0,0,1,.75,1.5L462,265.5C462.37,270.1,461.17,274.52,460.49,279Z" transform="translate(-114.68 -204.66)"/><path class="cls-30" d="M459,285c0-.25,0-.5,0-.75a3.88,3.88,0,0,1,3,3C460.86,286.66,458.86,287.25,459,285Z" transform="translate(-114.68 -204.66)"/><path class="cls-67" d="M431.34,246.84c-1.11,0-2.23-.05-3.35-.1s-2.9-.22-2.74-1.16c.22-1.2-.16-3.25,1.62-3.67,1.6-.38,2.53-2.46,4.67-1.54,1.22.53,1.11-1,1.48-1.64.58-1.09.43-2.63,2.62-2.35,1.54.2,1.17-1.37.95-2.47-.17-.86-.23-1.85.71-2.3s1.11.71,1.67,1c1.9,1.13,3.87,2.23,5-.9l6,5.24v1.49c1.63,1.2,1.74,3.64,3.75,4.51l.75,1.5c-1.71,1.07-2.86,4-5.6,1.62-.7-.61-.74.32-.93.58-.77,1-2,2.06-.33,3.35a1.33,1.33,0,0,1,.32.95,2,2,0,0,1-1.63,1.35,6.06,6.06,0,0,1-3.27-.18c.8.43,1.52.87,1.1,2a2.52,2.52,0,0,1-4.19,1c-1.65-1.3-2.9-3.07-4.65-4.28a8.45,8.45,0,0,1-2.62-4.62,12.3,12.3,0,0,1-.1-2.43c0-.49-.81.06-.32,0,.15,0,.2.36.15.62a5.24,5.24,0,0,1-.71,2Z" transform="translate(-114.68 -204.66)"/><path class="cls-69" d="M447.75,250.5c-1-.35-3.1-.19-2.18-1.93.82-1.56,1.55-3.65,3.9-4,1.3-.21-.9,3.42,1.7,1.42a6.15,6.15,0,0,1,3.33-1.47,1.54,1.54,0,0,1,.76,1.49C453.86,249.33,450.06,248.67,447.75,250.5Z" transform="translate(-114.68 -204.66)"/><path class="cls-67" d="M447.75,250.5c1.46-3.23,5.52-2.14,7.51-4.51.74,1,1.49,2,2.24,3a.83.83,0,0,1,0,.94c-3.14,1.89-6.33,3.07-9.72.56Z" transform="translate(-114.68 -204.66)"/><path class="cls-52" d="M457.5,249.75V249c.1-1.63.41-3.15,2.24-3.75-.2,2,.32,3.6,2.25,4.51.08,2.07.39,4.38-3,3C457.59,252.2,457.39,251.06,457.5,249.75Z" transform="translate(-114.68 -204.66)"/><path class="cls-69" d="M453.75,243c-3.86.67-2.24-3.22-3.75-4.51A6.51,6.51,0,0,1,453.75,243Z" transform="translate(-114.68 -204.66)"/><path class="cls-69" d="M457.5,249.75l1.5,3v.75c-.74,2-1.8,3.67-.41,6.08.62,1.07.85,4.81-3.06,3.32-.39-.15-.93.09-1.81.21,5.19,4.19-3.61,2-1.91,4.87l-3.36-3.13c-.63.82-2.3.58-2.2,2.15-2.12-1.68-1.56,2.11-3.13,1.54-.39,0-.85,0-1-.33-2.18-4.21-6.47-5.62-10.2-7.79a2,2,0,0,1,.44-2c1.47-1.52,3.12-1,4.86-.32-.42-2-1.95-3.13-3.13-4.48a2.62,2.62,0,0,1,.14-3.31,1.59,1.59,0,0,1,1.73.24c1.92.56,2.8,2.3,4,3.61,1.58,1.68,2.63,1.13,3.62-.51-.59-1.77-2.29,0-3.16-1.19,1.94-2.65,5.57,1,7.31-1.95,2.69-.09,5.63,1.9,8-1C456,249.27,456.91,249.65,457.5,249.75Z" transform="translate(-114.68 -204.66)"/><path class="cls-70" d="M268.58,439.57c-3.31,3.34-7,3.63-11.39.92-2.17-10-5.07-19.75-7.66-29.62-4.19-16-8.63-31.93-12.55-48a3.9,3.9,0,0,1,3-2.91c5-2.09,10.39-2.58,15.38-4.56,3.17.08,2.59,2.92,3.87,4.42a12.51,12.51,0,0,1,2.47-4.26,9.36,9.36,0,0,1,5.11-2.73c1.12.07,2.34-.23,3.2.84,2,4.76,2.77,9.84,3.94,14.8,3.29,14,6.92,27.88,9.76,42,.09,4.28-2.91,7.27-4.64,10.76a145.83,145.83,0,0,1-7.6,13.59C270.5,436.38,269.41,437.91,268.58,439.57Z" transform="translate(-114.68 -204.66)"/><path class="cls-70" d="M376.43,438.09c-.24,1.66-1.4,2.45-2.83,3-10.7,3.87-21.94,5.64-32.92,8.39-14.63,3.66-29.33,7-44,10.34-1.45.33-2.88.88-4.4.44-1.89-1.44-.67-3,.06-4.26,7.13-12.71,14-25.58,21.13-38.28,1.59-2.82,2.84-5.83,4.66-8.53.75-1.11,1.19-2.51,2.69-3,6.28,1.87,11.62,5.65,17.31,8.68,10.89,5.79,21.67,11.77,32.53,17.62A24.15,24.15,0,0,1,375,435.3C375.85,436.05,375.87,437.21,376.43,438.09Z" transform="translate(-114.68 -204.66)"/><path class="cls-71" d="M291.73,459.75q21.56-5,43.1-10C346.9,447,359,444,371,441.21a13.93,13.93,0,0,1,2.59-.13c-6.66,5.08-14.06,9-21.15,13.39-22.29,13.8-44.67,27.47-67,41.22-5.75,3.54-9.54,3.22-14-1.34,5.73-10.78,11.75-21.4,17.63-32.1C289.73,461.15,290.34,460,291.73,459.75Z" transform="translate(-114.68 -204.66)"/><path class="cls-71" d="M269.41,353.42c-.82,0-1.62.86-2.46.07-.78-1.43-2.47-1.4-3.62-2.25-1.59-1.18-3.32-2.25-2.41-4.69q34-20.82,68-41.63c5.07-3.09,8.3-2.57,12.86,1.91-5.68,10.35-11.51,20.64-17.06,31.07a9.52,9.52,0,0,1-3.27,4c-6.38,2.23-13.07,3.22-19.59,4.86-2.31.39-4.54,1.1-6.83,1.57-3.61,1-7.24,1.87-10.87,2.77-3.54.56-7,1.71-10.48,2.36C272.29,353.73,270.83,354.37,269.41,353.42Z" transform="translate(-114.68 -204.66)"/><path class="cls-72" d="M291.73,459.75q-8.73,15.69-17.5,31.38c-.68,1.22-.8,3-2.73,3.22a9.29,9.29,0,0,1-1.34-8.2c1.63-6.65,3.26-13.31,4.94-19.95a8.66,8.66,0,0,1,1.17-2.72q32.73-49.2,65.51-98.36c.67-.31,1,.07,1.31.61,0,3.32-2.37,5.61-3.73,8.33-.67,1.33-1.29,2.68-2,4-1.23,2.51-3,4.75-3.89,7.42a38.2,38.2,0,0,0-5.67,10.82c-3,3-3.68,7.54-7,10.33q-8.12,14.42-16.22,28.84-5.73,10.25-11.33,20.54A40,40,0,0,0,291.73,459.75Z" transform="translate(-114.68 -204.66)"/><path class="cls-72" d="M321.7,341.22c5.58-10.1,11.14-20.21,16.77-30.28.86-1.54,1.19-3.6,3.35-4.11a9.7,9.7,0,0,1,1.22,8.22c-1.67,6.52-3.24,13.07-4.81,19.62-.75,3.15-3,5.46-4.67,8q-30.17,45.54-60.46,91c-.48.72-1.05,1.38-1.59,2.06-.72.2-1,0-.84-.8q5-9.3,10-18.6c1-1.74,2.11-3.38,2.24-5.44,3-6.8,7-13.11,10.47-19.67,2.56-4.67,5.45-9.15,7.57-14.05,1.83-3.25,3.93-6.35,5.3-9.85,4.45-7,8.1-14.45,12.2-21.64A15.75,15.75,0,0,1,321.7,341.22Z" transform="translate(-114.68 -204.66)"/><path class="cls-73" d="M376.43,438.09c-1.38-.16-1.43-1.2-1.47-2.25-1.69-1.66-2.08-3.89-2.66-6-1-3.71-1.67-7.52-3.24-11.07-1.27-5.21-2.65-10.4-4.21-15.54-.16-4.14-1.92-7.87-3.14-11.74-1.93-9.09-4.75-18-6.93-27-.36-1.51-1.32-3,0-4.57,2.33.92,3.66,2.69,4.75,4.91q11.28,23,22.75,45.94a9.85,9.85,0,0,1,.68,8.25C380.66,425.31,378.59,431.72,376.43,438.09Z" transform="translate(-114.68 -204.66)"/><path class="cls-73" d="M237,362.86c2.21,1.57,2,4.21,2.62,6.38,6,22.47,11.91,45,17.84,67.48.35,1.3,1.14,2.6-.25,3.77a7.75,7.75,0,0,1-2.87-3.36c-7.67-15.53-15.31-31.07-23.06-46.56a11,11,0,0,1-.5-9.32C233,375.18,234.93,369,237,362.86Z" transform="translate(-114.68 -204.66)"/><path class="cls-70" d="M354.75,359.88c2.31,8.87,4.63,17.73,6.9,26.61.43,1.71,1.63,3.36.64,5.26-1.18.62-2.23.07-3.19-.48-6.72-3.85-13.68-7.25-20.33-11.22-.86-.51-1.78-1-2-2.06,1.25-4.39,4.33-7.84,6-12,.05-1.68,1.5-2.9,1.52-4.59C347.43,358.55,350.87,357.68,354.75,359.88Z" transform="translate(-114.68 -204.66)"/><path class="cls-74" d="M260.92,346.55c.39,2.95,2.71,3.92,5,5,.65.3,2.94.1,1,1.93-4.42.75-6.28,4.07-7.37,8.23-2-2-1.83-4.66-3.76-6.05-1.9.4-3.25-.79-4.67-1.68-.84-.53-1.2-1.28-.12-2,4.51-.89,6.88-3.93,7.91-8.83Z" transform="translate(-114.68 -204.66)"/><path class="cls-75" d="M366.56,284.33c1.28-.42,2.37-1.78,3.94-.83,2.4,1.51,2.45,4.41,3.87,6.52.75,1.12,1.38,2.32,2.14,3.45.79,1.39,2.32,2.45,2,4.35A3.51,3.51,0,0,1,375,300,40.65,40.65,0,0,1,366.56,284.33Z" transform="translate(-114.68 -204.66)"/><path class="cls-76" d="M375,300l3-2.24c3.42,1,4.95,4.45,7.82,6.17,1,1.1,2.57,1.66,3.09,3.22a13.77,13.77,0,0,1-.15,3.39,1.64,1.64,0,0,1-1.08.91,2.64,2.64,0,0,1-2.26-1.46c-.71-1.16-1.35-2.43-3-2.44A26.83,26.83,0,0,1,375,300Z" transform="translate(-114.68 -204.66)"/><path class="cls-77" d="M420.75,315c-2,1.14-4.69,1.5-5.24,4.39a30.4,30.4,0,0,1-12.13-1.35c.45-1.59.93-3.15,2.7-3.81,4.67-.32,9.35-.78,13.92.75Z" transform="translate(-114.68 -204.66)"/><path class="cls-78" d="M251,352c.38,2.8,3.62,1.9,4.79,3.69-.42,1.87-2.19,1.49-3.33,1.73-4.18.85-8.16,2.77-12.56,2.55,1.25-1.82,3.4-2.39,5.12-3.54A50,50,0,0,0,251,352Z" transform="translate(-114.68 -204.66)"/><path class="cls-79" d="M388.5,310.5a2.45,2.45,0,0,1,0-3c3.81-.55,6,2.46,8.83,4.05a27.79,27.79,0,0,1,2.25,3.77c.62,1.36,0,1.81-1.38,1.2-.58.06-1.16.14-1.56-.43-.61-1.92-2.49-1.18-3.73-1.77l0,0c-.36-1.73-1.78-1.42-3-1.56l0,0A4.51,4.51,0,0,1,388.5,310.5Z" transform="translate(-114.68 -204.66)"/><path class="cls-80" d="M398.2,316.52c.52-.13,1.57-.36.77-.93-1.33-.95-1.54-2.37-2.22-3.59,1.21-1.1,2.42-.42,3.63,0,1.45.68,3.07.82,4.54,1.44a3.22,3.22,0,0,1,.9.6.77.77,0,0,1-.07,1c-1.22.68-.22,3.09-2.37,3.05A10.53,10.53,0,0,1,398.2,316.52Z" transform="translate(-114.68 -204.66)"/><path class="cls-79" d="M382.42,307.54c3-1.67,3.75-.53,3,2.44A7,7,0,0,1,382.42,307.54Z" transform="translate(-114.68 -204.66)"/><path class="cls-80" d="M390,312.78c1-.41,1.78-1.8,3.12-.65,1,.82.05,1.48-.15,2.21A5.51,5.51,0,0,1,390,312.78Z" transform="translate(-114.68 -204.66)"/><path class="cls-81" d="M344.28,361.41c1.2,2.09-.72,3.16-1.52,4.59l-1-.88C342.1,363.54,343.33,362.57,344.28,361.41Z" transform="translate(-114.68 -204.66)"/><path class="cls-82" d="M270.67,435l.84.8c-.7,1.48-1.24,3.09-2.93,3.81C268.35,437.62,269.78,436.41,270.67,435Z" transform="translate(-114.68 -204.66)"/><path class="cls-80" d="M392.91,314.32c1.66-.3,3.84-1.68,3.73,1.77C395.32,315.65,393.92,315.4,392.91,314.32Z" transform="translate(-114.68 -204.66)"/><path class="cls-80" d="M388.5,310.5c1.75-.05.79,1.66,1.48,2.3a3.39,3.39,0,0,1-2.3-1.36Z" transform="translate(-114.68 -204.66)"/><path class="cls-83" d="M375.75,294a47.3,47.3,0,0,1-5.25-10.5l-.75-5.25a7.31,7.31,0,0,1,3.22-.81c1.3-.09,2.36-1,1.81-2.21-1.08-2.43.14-3.92,1.47-5.66a6.72,6.72,0,0,0,1.58-4.32c0-2.73,2.52-4.4,4.87-5.63.86-.44,2.21-.37,2-1.7-.57-3.3,1.14-4.64,4-5.3.67-.16,1.66-.74,1.75-1.25.69-3.9,2.53-1.71,4.13-.89,1-.26,1.49.62,2.15,1.1,1,1.07,1.94,2.12,1.88,3.71-2.7,8-5.17,16.21-11.34,22.5a4.27,4.27,0,0,1-2.84.41c1.18,1,1.88,2,1.67,3.36-.26,1.77-1.74,1.79-3,2.2-2.47.8-4.42,4.33-3.43,6.36.66,1.36,1.68,2.64.46,4.05C378.68,295.8,377.19,294.52,375.75,294Z" transform="translate(-114.68 -204.66)"/><path class="cls-83" d="M368.25,272.25c1.36,1.32.51,3,.75,4.5C367.64,275.43,368.49,273.75,368.25,272.25Z" transform="translate(-114.68 -204.66)"/><path class="cls-84" d="M405.75,315v-.75c.42-1.08,2.17-1.52,1.59-3.07-.94-2.55.91-3.5,2.59-4.55-.53-.79-1.42-.43-2.05-.78a2.58,2.58,0,0,1-.86-.57c-2.26-3.22-1.87-4.92,1.62-6.17,1.35-.49.94-1.47,1-2.29,0-1.23-1.59-2-1.13-3.38a1.25,1.25,0,0,1,.81-.53,22,22,0,0,0,3.25.15,2.31,2.31,0,0,0,1.71-1.09,3.56,3.56,0,0,0,0-2.57,3,3,0,0,1,.05-1,1.47,1.47,0,0,1,.67-.74c2.19-.29,3,1.37,3.81,2.84,1.15,2,2,4.19,3.66,5.9a2.36,2.36,0,0,1,.54,1.48v.62h0c-.66,2.16-.64,2.27,1,2,.73-.13,1.2-.07,1.57.47a1.16,1.16,0,0,1-.34,1.64c-2,1.45-2.23,4.23-4.94,5.51-1.32.62-1.23,4.48-.3,6.91Z" transform="translate(-114.68 -204.66)"/><path class="cls-85" d="M429,267.75c-.79.83-1.78,1.55-1.58,2.92l-.26.26-.37,0a2.3,2.3,0,0,0-.35-.1c-.69.32-.28,1-.51,1.5-1.4,5.23-5.74,5.85-10.09,6.45a7.21,7.21,0,0,1-1.6.19,10.11,10.11,0,0,0-3,.6,15,15,0,0,1,4.49-.64c1.41-.26,2.88-.09,4.26-.59a5.23,5.23,0,0,1,1.72-.08c2.58.69,1.89,2.76,1.83,4.48-.08,2.16-1.41,3.23-3.49,3.46a2.54,2.54,0,0,1-2.15-1.71c-.1-2.4-.94-3.46-3.43-2.1-1.66.9-3.71.18-5.41,1.08-2.39.86-4.52,2.36-7.09,2.74a2.31,2.31,0,0,1-1.83-1.2,4.88,4.88,0,0,1,.64-3.78c1-1.45,3.19-1,4.16-2.29s4.66-1.11,3.1-4.36c2.16-.69,2.45-3.32,4.28-4.25s2.14-2.29,1.82-4.29c-.51-3.15.39-3.8,3.27-2.91-.09-1.69-1.18-3.49,1.48-4.57,1.11-.44-.1-2.8,1.24-3.84,1.18-.29,1.7.34,1.94,1.37a4.41,4.41,0,0,1,0,1.09c-1.24,3.72,1.24,5.58,3.67,7.57C426.89,265.69,428.9,265.71,429,267.75Z" transform="translate(-114.68 -204.66)"/><path class="cls-84" d="M419.74,285.85c3.57-1.84,4.25-5,1.51-7,2.53-2.27,4.1-5.19,5.61-8.16a2.12,2.12,0,0,0,.56,0l.16.13c2.25,4.5,4.9,8.78,7.4,13.14,1.43,2.51,1.76,5.41-.69,7.81-1.6,1.36-1.8,3.91-4,4.75-1.59-1,2.13-2.84-.4-3.33a2,2,0,0,0-1.61,3c-1.2,1.29-2.75.71-4.18.8a2.89,2.89,0,0,1-1.19-.32C420,293.58,419.74,289.75,419.74,285.85Z" transform="translate(-114.68 -204.66)"/><path class="cls-86" d="M429,267.75c-2.11-1.48-4.72-2.25-6.41-4.3-1.43-1.74-3.1-3.56-1.15-6,3.6.6,7.35.66,10.58,2.72,4.88,1.22,9.11,3.32,11.1,8.38a19,19,0,0,1-.71,8C439.34,271.47,434.44,269.2,429,267.75Z" transform="translate(-114.68 -204.66)"/><path class="cls-87" d="M434.29,291.75c2-3.73.47-6.9-1.59-10-2.27-3.39-4.87-6.63-5.12-11,.52-.75.68-1.84,2.15-1,2.55,1.53,5.33,2.7,7.61,4.65,5.41,4.64,4.44,14.17-1.77,17.54A.89.89,0,0,1,434.29,291.75Z" transform="translate(-114.68 -204.66)"/><path class="cls-88" d="M423.72,296.29l4.53-.13c.78,1.19-.09,1.31-.94,1.46C426.28,296.71,424.28,298.44,423.72,296.29Z" transform="translate(-114.68 -204.66)"/><path class="cls-89" d="M423.72,296.29c.87,1.32,2.66.17,3.59,1.33l-4.31.26-.72-.9a1.34,1.34,0,0,1,.73-.75A1.72,1.72,0,0,1,423.72,296.29Z" transform="translate(-114.68 -204.66)"/><path class="cls-84" d="M423,298.5h3.37c-1.51,1.1-2.46.91-3.37,0Z" transform="translate(-114.68 -204.66)"/><path class="cls-84" d="M423.43,310.82a4.63,4.63,0,0,1-.62-.87c-.22-.59.07-.9.66-.86.4,0,.69.26.53.71A7,7,0,0,1,423.43,310.82Z" transform="translate(-114.68 -204.66)"/><path class="cls-90" d="M420.06,254.83c.66,1.35-.21,2.68-.07,4s-.16.78-1.22.7c-1.51-.1-1.21,1.75-.38,2.79.69.87,1.3,1.88.39,2.6s-1.41-.46-1.89-1.15c-.35-.5-.75-1.17-1.46-.63a2.12,2.12,0,0,0-.53,2.73c2,3,.25,4.14-2.18,5.15-.43.18-1.17.7-1.13.79,1.46,3.49-1.61,2.3-2.95,2.81-.17,1.83,1.55.66,2.15,1.51-3.32,1.51-5.47,5-9.54,5.09-7-3.72-8.51-7.8-5.47-13.86a16.51,16.51,0,0,0,1-4.36,5.51,5.51,0,0,1,3.67-4.33c4.63-1.82,4.6-1.89,3.8-6.71l.78-.87c1.72-.33,2.43,1.49,4.34,2-1.25-3.09-1.12-6.44-4.09-8.4-1.33.62-.78,2.2-1.8,2.82-1.27-2.41-1.32-4.7.71-6.76.79.6,1.84.49,2.67,1a5.22,5.22,0,0,1,2.57,1.28l.91.07a17.19,17.19,0,0,1,3.26,3C415.63,249.08,419,251.13,420.06,254.83Z" transform="translate(-114.68 -204.66)"/><path class="cls-86" d="M404.28,252c2.87,3.66,2,6.44-2.64,7.33-2.78.52-3.84,1.91-4,4.43a16.51,16.51,0,0,1-1.67,5.66c-1.81,4.21-1.42,5.71,2.29,8.56a10.4,10.4,0,0,1,2.95,3.28l-1.07,3.62c-1.34,3.53-4.79,3.47-7.62,4.49-4.37-1.37-7.23-7.53-5.51-11.86a22,22,0,0,1,3.95-6.26,15.61,15.61,0,0,0,3.82-8.32c.32-3,2.09-5.39,3.44-8a7.58,7.58,0,0,1,1,.45c.77.39,1.67.92,2.34.05s-.23-1.57-.76-2.19c-.82-.93-1.76-1.73-2.59-2.65s-2.06-1.85-1.81-3.44c.28-.51.62-.89,1.27-.56Z" transform="translate(-114.68 -204.66)"/><path class="cls-91" d="M403.51,247.5c.26-1.47-1.14-3.84.63-4.27,2.32-.57,3.7,1.57,4.38,3.71.77,2.46,1.07,5.08,3,7.52-3.49.6-4.64-2-6.43-3.34C404.54,249.91,404,248.71,403.51,247.5Z" transform="translate(-114.68 -204.66)"/><path class="cls-92" d="M396.59,247.77c1.67,1.63,3.37,3.23,5,4.89.82.83,2.23,1.36,2,2.88-.18,1-1.22,1.29-2,1.38-1.49.19-3,0-3.28-2L396.05,252c-.58-1-.75-2.23-1.58-3.12.42-1.32-4.47-1.52-.75-3.55C395.76,244.87,396.25,246.24,396.59,247.77Z" transform="translate(-114.68 -204.66)"/><path class="cls-93" d="M396.59,247.77l-2.87-2.42L391,241.91c3,.61,4.86,2.67,6.76,4.71Z" transform="translate(-114.68 -204.66)"/><path class="cls-94" d="M394.47,248.9a2.88,2.88,0,0,1,1.58,3.12c-.49-.51-1-1-1.48-1.54C394.54,250,394.5,249.43,394.47,248.9Z" transform="translate(-114.68 -204.66)"/><path class="cls-95" d="M406.62,242.05c-.91-.25-1.92-.29-2.4-1.31l3,0,.2.59C407.37,241.86,406.93,241.88,406.62,242.05Z" transform="translate(-114.68 -204.66)"/><path class="cls-96" d="M420.06,254.83c-2.35-2.85-5.1-5.36-7-8.58-.29-.73,0-1,.73-.91.91.95,1.62,2.2,3.31,1.81,4.66-1.08,9,.36,13.23,2a2.87,2.87,0,0,1,2.37,2.21,8.9,8.9,0,0,1,.15,2.82,11.12,11.12,0,0,1-.92,3.24c-1.59,1.22-3.47.76-5.24.88-1.88-.18-3.74-.43-5.13-1.92C421.47,255.43,420.85,255.05,420.06,254.83Z" transform="translate(-114.68 -204.66)"/><path class="cls-97" d="M436,250.54l-1.67,0c-.7.4-1.21,0-1.74-.39a4.76,4.76,0,0,1-1.27-2c0-.46.05-.92.07-1.38h0c.57-.71,1.16-1.38,2.2-.85C433.45,248,435.23,249,436,250.54Z" transform="translate(-114.68 -204.66)"/><path class="cls-97" d="M413.79,245.34c-.24.3-.48.61-.73.91-1.1-.89-2.44-1.59-2.69-3.2C412,243.06,413,244.12,413.79,245.34Z" transform="translate(-114.68 -204.66)"/><path class="cls-98" d="M431.27,248.22a2.13,2.13,0,0,1,1.51,1.47c.47.84.54,1.5-.71,1.53l-1.74-2.11Z" transform="translate(-114.68 -204.66)"/><path class="cls-99" d="M406.62,242.05l.77-.69c1,.12,2.17.08,2.07,1.62Z" transform="translate(-114.68 -204.66)"/><path class="cls-69" d="M448.74,267.64c-.4.67-.79,1.24-1.47,1.14a1.26,1.26,0,0,1-1-1.41c0-.89.72-.26,1.07-.33C447.92,266.92,448.57,266.93,448.74,267.64Z" transform="translate(-114.68 -204.66)"/><path class="cls-61" d="M446.06,278.65c-.54,0-.91.11-1.12,0a1.12,1.12,0,0,1-.46-.83c0-.19.46-.35.71-.53Z" transform="translate(-114.68 -204.66)"/><path class="cls-66" d="M436.38,242.59c-.39-1.3-1.4-2.69.25-3.48a1.52,1.52,0,0,1,1.86.82C439,241.56,437.23,241.7,436.38,242.59Z" transform="translate(-114.68 -204.66)"/><path class="cls-66" d="M433.5,246l-2.2.85c-.22-1.41.44-2.6.93-3.93C433.54,243.62,433.44,244.84,433.5,246Z" transform="translate(-114.68 -204.66)"/><path class="cls-90" d="M421.56,256.34l5.22,1.05c1.55.51,3.16.13,4.73.24a4.12,4.12,0,0,1,1.4.46c-.3.69-.6,1.38-.89,2.07-3.61-.59-7.46-.23-10.58-2.72Z" transform="translate(-114.68 -204.66)"/><path class="cls-100" d="M432.91,258.09h-.24c-.71-.85.27-1.34.42-2a6.83,6.83,0,0,1,2-2.52c2.43,1.42,3,3.85,4.2,7.06C436.83,258.78,435.15,257.58,432.91,258.09Z" transform="translate(-114.68 -204.66)"/><path class="cls-101" d="M435.06,253.55a4.23,4.23,0,0,1-1.44,3l-.48-.11c-.87-.45-.59-1.46-1-2.12,0-1,0-2.05,0-3.08.61-.33.66-.93.71-1.53l1.5.89C434.35,251.62,433.9,252.79,435.06,253.55Z" transform="translate(-114.68 -204.66)"/><path class="cls-102" d="M294,391.65c-3.42,6.57-6.41,13.38-11,19.27q-6.76-28.76-13.54-57.5c4.93-.92,9.68-2.68,14.71-3.11,1.41,1.1,1.55,2.79,1.92,4.33,2.54,10.77,5.26,21.49,7.72,32.28A9.26,9.26,0,0,1,294,391.65Z" transform="translate(-114.68 -204.66)"/><path class="cls-102" d="M369.78,418.69c2.11,2.34,1.92,5.49,2.83,8.26s1.58,5.92,2.35,8.89L332,412.61q-5.56-3-11.15-6c2.13-3.65,2.85-8.2,6.81-10.68,1.94-.66,3.38.63,4.83,1.44,11.35,6.3,22.74,12.54,34.22,18.59A8.3,8.3,0,0,1,369.78,418.69Z" transform="translate(-114.68 -204.66)"/><path class="cls-103" d="M324.48,460c-2,1-3.14,1.92-3.85,3.55-1.41-1.06-2.11-2.84-4.24-3.27,1.65-1.19,3.18-2,4-4.43A6.7,6.7,0,0,0,324.48,460Z" transform="translate(-114.68 -204.66)"/><path class="cls-70" d="M294,391.65Q289,371,284.12,350.31l10.73-2.9a5.72,5.72,0,0,1,1.38,3c1.82,7.47,3.51,15,5.36,22.44a6.46,6.46,0,0,1,0,4.38C300,382.51,296.88,387,294,391.65Z" transform="translate(-114.68 -204.66)"/><path class="cls-70" d="M321.7,341.22c-4.6,8.93-8.95,18-14.81,26.22a3,3,0,0,1-1.46-2.07c-1.62-5.86-2.87-11.8-4.2-17.73a2.61,2.61,0,0,1,.26-1.81Z" transform="translate(-114.68 -204.66)"/><path class="cls-104" d="M301.49,345.83c2.41,7.05,3.49,14.43,5.4,21.61-.85,3.75-2.93,6.84-5.27,9.79-2.25-9.94-5.21-19.72-6.77-29.82Z" transform="translate(-114.68 -204.66)"/><path class="cls-70" d="M369.78,418.69,327.68,396c.22-4.28,2.42-7.57,5.29-10.53a2.58,2.58,0,0,1,2.49.34c9.26,5.19,18.7,10.08,27.9,15.36a3.53,3.53,0,0,1,1.85,1.78C368,407.8,368.69,413.3,369.78,418.69Z" transform="translate(-114.68 -204.66)"/><path class="cls-105" d="M365.21,402.9,333,385.42c.17-3,2.28-5.07,3.75-7.43l25.56,13.76C364.28,395.2,366,398.71,365.21,402.9Z" transform="translate(-114.68 -204.66)"/><path class="cls-106" d="M387.05,277.5c-.25,3.93,1.78,7.06,3.58,10.29.57,1,1.37.82,2.19.89.93-.46,2.09-.31,2.09.65,0,2.44,3.14,5.25-.85,7.37-1,.54-.73,1.72.32,2.75,1.84,1.78,1.41,3-1.16,3.94s-4.74,3.35-7.72,1.11c-3-1.7-5.18-4.31-7.5-6.75.07-1.75-1.72-2.37-2.25-3.75a7.48,7.48,0,0,1,2.18-.22c.66.12,1.21.92,1.78-.21a1.91,1.91,0,0,0-.33-2.35c-.69-.88-2.78-1.87-1.48-2.84,2.05-1.54,1-5.19,4.3-5.6,1.2-.15,3,.65,3.22-1.54.16-1.79-1.31-2.39-2.72-3.09C384.11,277,385.65,277.73,387.05,277.5Z" transform="translate(-114.68 -204.66)"/><path class="cls-107" d="M385.5,304.5c2.21,0,4.75,1.1,6.08-1.88a1.41,1.41,0,0,1,1.19-.62c.75.13,1.53,1.14,2-.37a1.53,1.53,0,0,0-1.2-2c-2.7-.44-.21-2.27-.94-3.39-.51-.79.79-1.55,2-1.11.33.13,1-.1.84-.22-2.06-1.61.7-5.22-2.61-6.25,2.55-1.09,5.22-1.93,7.36-3.81l1.76.86c-.14,1.49.75,1.94,2,2.45,2.25.94,4.55,2,4.85,4.94.15,1.86,3.23,2.84,1.63,5-.18.23,1.19,5.09-2.17,1.62-.53-.54-1.1.38-1.26.92-.29,1-1.54,2.16,0,3.1.84.5.39,1,0,1.78l-.21.27a3.69,3.69,0,0,1,.43-.53c-.08-.06-.16,0-.23.25s-.11.2,0,0a5,5,0,0,1,2.08-.25c.91.09,2.17-.41,2.47,1,.26,1.21-1.18,1.28-1.7,1.53-1.67.78-2.57,1.16-1.45,3.4.94,1.89-.45,3.19-2.68,3.08H405c-1.11-1.67-3.06-.83-4.5-1.5l-3.75-.75-8.25-4.5Z" transform="translate(-114.68 -204.66)"/><path class="cls-84" d="M400.5,312.75c1.64.07,3.81-1.45,4.5,1.5C403.5,313.74,401.8,313.86,400.5,312.75Z" transform="translate(-114.68 -204.66)"/><path class="cls-108" d="M408.79,293.12a11.91,11.91,0,0,0-8.44-5.19c0-1.33,1.3-1.37,1.59-2.2l6.82-3c3.32.06,7-2.05,9.66,1.76l1.32,1.39c1.92,3.2,1.13,7.25,3.27,10.38l-.73.75c-2.32-1-2.75-3.38-3.81-5.3-.88-1.62-1.46-3.53-3.71-3.81-1.22.48-2.64,0-3.78.8a2.26,2.26,0,0,0-.21,2.58,5.12,5.12,0,0,1,.53,1.36,1.16,1.16,0,0,1-.38.88,1.24,1.24,0,0,1-1.38-.26Z" transform="translate(-114.68 -204.66)"/><path class="cls-109" d="M411,292.65l-.74-.85c-.48-1,.53-1.63.63-2.5,1-2.09,2.3-2.34,3.89-.57v.77c.83,1.36.18,2.37-.81,3.28A2.75,2.75,0,0,1,411,292.65Z" transform="translate(-114.68 -204.66)"/><path class="cls-110" d="M414.74,288.73c-1.69-.89-3.09-1.21-3,1.48-1.91.36-2,.26-1.52-2.23,1.49-1.39,3-1.11,4.55-.11Z" transform="translate(-114.68 -204.66)"/><path class="cls-111" d="M411,292.65l3-.18a.69.69,0,0,1,1.07.07,2,2,0,0,1-1.77,1.4c-.62-.65-1.66,0-2.27-.71A5.61,5.61,0,0,1,411,292.65Z" transform="translate(-114.68 -204.66)"/><path class="cls-112" d="M411,293.23c.82.06,1.71-.13,2.27.71-1.33.29-2.65.51-3.69-.71Z" transform="translate(-114.68 -204.66)"/><path class="cls-113" d="M415,292.54l-1.07-.07a5.37,5.37,0,0,0,.82-3C416.11,290.41,415.83,291.45,415,292.54Z" transform="translate(-114.68 -204.66)"/><path class="cls-93" d="M426.86,270.71c-.6,3.59-1.66,6.87-5.61,8.16l-1.27.23a1.94,1.94,0,0,1-1.58.13c-1-.42-2.27.06-3-1,1.29-.92,2.87-.64,4.29-1,3.05-.78,5-2.54,5.68-5.68.32-.43.48-1.14,1.28-.68Z" transform="translate(-114.68 -204.66)"/><path class="cls-84" d="M418.42,284.46c-3-2-6.3-1.93-9.66-1.76,2.48-1.23,5.29-1.21,7.91-2C420.55,279.6,418,283.08,418.42,284.46Z" transform="translate(-114.68 -204.66)"/><path class="cls-114" d="M415.27,279.67l-4.54.29a4,4,0,0,1,3.33-1.6c.48.42,1.26.13,1.67.7A.47.47,0,0,1,415.27,279.67Z" transform="translate(-114.68 -204.66)"/><path class="cls-115" d="M415.64,279.1l-1.58-.74,1.32-.17c1,.28,2.26-.29,3.11.74A2.8,2.8,0,0,1,415.64,279.1Z" transform="translate(-114.68 -204.66)"/><path class="cls-84" d="M415.64,279.1l2.85-.17,1.49.17c-1.45,1.2-3.12.49-4.71.57A5,5,0,0,0,415.64,279.1Z" transform="translate(-114.68 -204.66)"/><path class="cls-116" d="M426.63,270.82l-1.28.68c-.07-.89-.46-1.8.16-2.68A1.81,1.81,0,0,1,426.63,270.82Z" transform="translate(-114.68 -204.66)"/><path class="cls-117" d="M411.59,263.21c-.69.49-1.33,1.26-2.09,1.42-1.34.29-3.06,1.23-4-.52s-.07-3,1.71-3.73a5.12,5.12,0,0,1,.72.53,1.49,1.49,0,0,0,1.18.45,9.67,9.67,0,0,0,1.14-.51l.78.13C411.9,261.56,412.63,262.17,411.59,263.21Z" transform="translate(-114.68 -204.66)"/><path class="cls-85" d="M410.08,267.05c1.15.56,2.17.95,2.38,2.06,0,.15-1.37.92-1.83.73C409.29,269.28,410.3,268.12,410.08,267.05Z" transform="translate(-114.68 -204.66)"/><path class="cls-118" d="M407.23,261a2.92,2.92,0,0,1,0-.59c1.18-.92,2.14-.4,3,.47,0,.7-.14,1.33-1,1.51A8.26,8.26,0,0,1,407.23,261Z" transform="translate(-114.68 -204.66)"/><path class="cls-85" d="M411.59,263.21c-.18-.74-.37-1.49-.55-2.23.64-.12,1.49-1.08,1.86-.08S412.55,262.73,411.59,263.21Z" transform="translate(-114.68 -204.66)"/><path class="cls-119" d="M391,277.75a1.55,1.55,0,0,1,1.27,1.58c0,.78-.43,1.49-1.33,1.38s-.83-1-.89-1.74S390.18,277.8,391,277.75Z" transform="translate(-114.68 -204.66)"/><path class="cls-120" d="M433.62,256.53l-.95,1.55c-1.95-.31-4.05.55-5.89-.69,1.65-.54,3.65,1.09,5.07-.84a.94.94,0,0,1,1.44-.05Z" transform="translate(-114.68 -204.66)"/><path class="cls-121" d="M433.29,256.5l-1.44.05c-.69-.84.24-1.49.26-2.25A3,3,0,0,1,433.29,256.5Z" transform="translate(-114.68 -204.66)"/><path class="cls-122" d="M292.52,357.3c3.32,2.68,3.66,5.07.18,7.36a7.73,7.73,0,0,0-3.3-3.52C290.75,360,292.34,359.28,292.52,357.3Z" transform="translate(-114.68 -204.66)"/><path class="cls-84" d="M404.06,310.66c.59-1.56-2.92-3.46.75-4.94C405,307.51,405.48,309.17,404.06,310.66Z" transform="translate(-114.68 -204.66)"/><path class="cls-84" d="M407.28,305.86c-.15.49.07,1.16-.67,1a1,1,0,0,1-.59-.73c-.08-.58.41-.77.88-.86C407.75,305.12,406.84,305.88,407.28,305.86Z" transform="translate(-114.68 -204.66)"/><path class="cls-123" d="M410.21,288c.81.54-.43,2.47,1.52,2.23l-1.51,1.59C408.88,290.53,408.94,289.26,410.21,288Z" transform="translate(-114.68 -204.66)"/><path class="cls-124" d="M407.23,261c1,0,2.26-.37,2.07,1.39C408.24,262.46,407.17,262.56,407.23,261Z" transform="translate(-114.68 -204.66)"/></svg>